<?xml version="1.0" encoding="UTF-8" standalone="no"?>
<!-- Created with Inkscape (http://www.inkscape.org/) -->

<svg
   xmlns:dc="http://purl.org/dc/elements/1.1/"
   xmlns:cc="http://creativecommons.org/ns#"
   xmlns:rdf="http://www.w3.org/1999/02/22-rdf-syntax-ns#"
   xmlns:svg="http://www.w3.org/2000/svg"
   xmlns="http://www.w3.org/2000/svg"
   xmlns:sodipodi="http://sodipodi.sourceforge.net/DTD/sodipodi-0.dtd"
   xmlns:inkscape="http://www.inkscape.org/namespaces/inkscape"
   width="478.18268"
   height="177.16534"
   id="svg2823"
   sodipodi:version="0.32"
   inkscape:version="0.48.1 "
   sodipodi:docname="po_ALU_123_Rn.svg"
   inkscape:output_extension="org.inkscape.output.svg.inkscape"
   version="1.0">
  <defs
     id="defs2825">
    <inkscape:perspective
       sodipodi:type="inkscape:persp3d"
       inkscape:vp_x="0 : 526.18109 : 1"
       inkscape:vp_y="0 : 1000 : 0"
       inkscape:vp_z="744.09448 : 526.18109 : 1"
       inkscape:persp3d-origin="372.04724 : 350.78739 : 1"
       id="perspective2831" />
  </defs>
  <sodipodi:namedview
     id="base"
     pagecolor="#ffffff"
     bordercolor="#666666"
     borderopacity="1.0"
     gridtolerance="10000"
     guidetolerance="10"
     objecttolerance="10"
     inkscape:pageopacity="0.0"
     inkscape:pageshadow="2"
     inkscape:zoom="0.98994949"
     inkscape:cx="321.01765"
     inkscape:cy="56.319035"
     inkscape:document-units="px"
     inkscape:current-layer="layer1"
     showgrid="false"
     inkscape:window-width="1104"
     inkscape:window-height="677"
     inkscape:window-x="196"
     inkscape:window-y="109"
     fit-margin-top="0"
     fit-margin-left="0"
     fit-margin-right="0"
     fit-margin-bottom="0"
     inkscape:window-maximized="0" />
  <metadata
     id="metadata2828">
    <rdf:RDF>
      <cc:Work
         rdf:about="">
        <dc:format>image/svg+xml</dc:format>
        <dc:type
           rdf:resource="http://purl.org/dc/dcmitype/StillImage" />
      </cc:Work>
    </rdf:RDF>
  </metadata>
  <g
     inkscape:label="Layer 1"
     inkscape:groupmode="layer"
     id="layer1"
     transform="translate(68.035397,-228.94341)">
    <line
       style="font-size:22px;font-style:italic;font-variant:normal;font-weight:normal;font-stretch:normal;text-align:center;line-height:125%;writing-mode:lr-tb;text-anchor:middle;fill:none;stroke:#000000;stroke-width:0.70866144;font-family:Century Schoolbook;-inkscape-font-specification:Century Schoolbook Italic"
       x1="-39.257076"
       x2="102.47521"
       y1="317.52609"
       y2="317.52609"
       id="line10" />
    <g
       transform="matrix(885.82676,0,0,-885.82676,84.758674,317.52609)"
       id="g16"
       style="font-size:0.02483556px;font-style:italic;font-variant:normal;font-weight:normal;font-stretch:normal;text-align:center;line-height:125%;writing-mode:lr-tb;text-anchor:middle;font-family:Century Schoolbook;-inkscape-font-specification:Century Schoolbook Italic">
      <path
         d="m 0,0 -0.015,0.004 0,-0.008 L 0,0 z"
         style="font-size:0.02483556px;font-style:italic;font-variant:normal;font-weight:normal;font-stretch:normal;text-align:center;line-height:125%;writing-mode:lr-tb;text-anchor:middle;fill:#000000;stroke:none;font-family:Century Schoolbook;-inkscape-font-specification:Century Schoolbook Italic"
         id="path18"
         inkscape:connector-curvature="0" />
    </g>
    <line
       style="font-size:22px;font-style:italic;font-variant:normal;font-weight:normal;font-stretch:normal;text-align:center;line-height:125%;writing-mode:lr-tb;text-anchor:middle;fill:none;stroke:#000000;stroke-width:0.70866144;font-family:Century Schoolbook;-inkscape-font-specification:Century Schoolbook Italic"
       x1="102.47521"
       x2="244.2075"
       y1="317.52609"
       y2="246.65994"
       id="line20" />
    <g
       transform="matrix(792.30684,-396.15519,-396.15519,-792.30684,228.36146,254.58314)"
       id="g26"
       style="font-size:0.02483556px;font-style:italic;font-variant:normal;font-weight:normal;font-stretch:normal;text-align:center;line-height:125%;writing-mode:lr-tb;text-anchor:middle;font-family:Century Schoolbook;-inkscape-font-specification:Century Schoolbook Italic">
      <path
         d="m 0,0 -0.015,0.004 0,-0.008 L 0,0 z"
         style="font-size:0.02483556px;font-style:italic;font-variant:normal;font-weight:normal;font-stretch:normal;text-align:center;line-height:125%;writing-mode:lr-tb;text-anchor:middle;fill:#000000;stroke:none;font-family:Century Schoolbook;-inkscape-font-specification:Century Schoolbook Italic"
         id="path28"
         inkscape:connector-curvature="0" />
    </g>
    <line
       style="font-size:22px;font-style:italic;font-variant:normal;font-weight:normal;font-stretch:normal;text-align:center;line-height:125%;writing-mode:lr-tb;text-anchor:middle;fill:none;stroke:#000000;stroke-width:0.70866144;font-family:Century Schoolbook;-inkscape-font-specification:Century Schoolbook Italic"
       x1="102.47521"
       x2="244.2075"
       y1="317.52609"
       y2="388.39224"
       id="line30" />
    <g
       transform="matrix(792.3079,396.15306,396.15306,-792.3079,228.36146,380.46904)"
       id="g36"
       style="font-size:0.02483556px;font-style:italic;font-variant:normal;font-weight:normal;font-stretch:normal;text-align:center;line-height:125%;writing-mode:lr-tb;text-anchor:middle;font-family:Century Schoolbook;-inkscape-font-specification:Century Schoolbook Italic">
      <path
         d="m 0,0 -0.015,0.004 0,-0.008 L 0,0 z"
         style="font-size:0.02483556px;font-style:italic;font-variant:normal;font-weight:normal;font-stretch:normal;text-align:center;line-height:125%;writing-mode:lr-tb;text-anchor:middle;fill:#000000;stroke:none;font-family:Century Schoolbook;-inkscape-font-specification:Century Schoolbook Italic"
         id="path38"
         inkscape:connector-curvature="0" />
    </g>
    <line
       style="font-size:22px;font-style:italic;font-variant:normal;font-weight:normal;font-stretch:normal;text-align:center;line-height:125%;writing-mode:lr-tb;text-anchor:middle;fill:none;stroke:#000000;stroke-width:0.70866144;font-family:Century Schoolbook;-inkscape-font-specification:Century Schoolbook Italic"
       x1="244.2075"
       x2="385.93976"
       y1="388.39224"
       y2="317.52609"
       id="line40" />
    <g
       transform="matrix(792.30818,-396.15243,-396.15243,-792.30818,370.09374,325.44928)"
       id="g46"
       style="font-size:0.02483556px;font-style:italic;font-variant:normal;font-weight:normal;font-stretch:normal;text-align:center;line-height:125%;writing-mode:lr-tb;text-anchor:middle;font-family:Century Schoolbook;-inkscape-font-specification:Century Schoolbook Italic">
      <path
         d="m 0,0 -0.015,0.004 0,-0.008 L 0,0 z"
         style="font-size:0.02483556px;font-style:italic;font-variant:normal;font-weight:normal;font-stretch:normal;text-align:center;line-height:125%;writing-mode:lr-tb;text-anchor:middle;fill:#000000;stroke:none;font-family:Century Schoolbook;-inkscape-font-specification:Century Schoolbook Italic"
         id="path48"
         inkscape:connector-curvature="0" />
    </g>
    <line
       style="font-size:22px;font-style:italic;font-variant:normal;font-weight:normal;font-stretch:normal;text-align:center;line-height:125%;writing-mode:lr-tb;text-anchor:middle;fill:none;stroke:#000000;stroke-width:0.70866144;font-family:Century Schoolbook;-inkscape-font-specification:Century Schoolbook Italic"
       x1="244.2075"
       x2="385.93976"
       y1="246.65994"
       y2="317.52609"
       id="line50" />
    <g
       transform="matrix(792.30747,396.15395,396.15395,-792.30747,370.09374,309.6029)"
       id="g56"
       style="font-size:0.02483556px;font-style:italic;font-variant:normal;font-weight:normal;font-stretch:normal;text-align:center;line-height:125%;writing-mode:lr-tb;text-anchor:middle;font-family:Century Schoolbook;-inkscape-font-specification:Century Schoolbook Italic">
      <path
         d="m 0,0 -0.015,0.004 0,-0.008 L 0,0 z"
         style="font-size:0.02483556px;font-style:italic;font-variant:normal;font-weight:normal;font-stretch:normal;text-align:center;line-height:125%;writing-mode:lr-tb;text-anchor:middle;fill:#000000;stroke:none;font-family:Century Schoolbook;-inkscape-font-specification:Century Schoolbook Italic"
         id="path58"
         inkscape:connector-curvature="0" />
    </g>
    <circle
       transform="matrix(354.3307,0,0,-354.3307,-39.257071,317.52609)"
       sodipodi:ry="0.050000001"
       sodipodi:rx="0.050000001"
       sodipodi:cy="0"
       sodipodi:cx="0"
       id="circle62"
       style="font-size:0.06208889px;font-style:italic;font-variant:normal;font-weight:normal;font-stretch:normal;text-align:center;line-height:125%;writing-mode:lr-tb;text-anchor:middle;fill:#000000;stroke:none;font-family:Century Schoolbook;-inkscape-font-specification:Century Schoolbook Italic"
       r="0.050000001"
       cy="0"
       cx="0"
       d="M 0.05,0 C 0.05,0.02761424 0.02761424,0.05 0,0.05 -0.02761424,0.05 -0.05,0.02761424 -0.05,0 c 0,-0.02761424 0.02238576,-0.05 0.05,-0.05 0.02761424,0 0.05,0.02238576 0.05,0.05 z" />
    <circle
       transform="matrix(354.3307,0,0,-354.3307,-39.257071,317.52609)"
       sodipodi:ry="0.039999999"
       sodipodi:rx="0.039999999"
       sodipodi:cy="0"
       sodipodi:cx="0"
       id="circle64"
       style="font-size:0.06208889px;font-style:italic;font-variant:normal;font-weight:normal;font-stretch:normal;text-align:center;line-height:125%;writing-mode:lr-tb;text-anchor:middle;fill:#ffffff;stroke:none;font-family:Century Schoolbook;-inkscape-font-specification:Century Schoolbook Italic"
       r="0.039999999"
       cy="0"
       cx="0"
       d="M 0.04,0 C 0.04,0.02209139 0.02209139,0.04 0,0.04 -0.02209139,0.04 -0.04,0.02209139 -0.04,0 c 0,-0.02209139 0.01790861,-0.04 0.04,-0.04 0.02209139,0 0.04,0.01790861 0.04,0.04 z" />
    <text
       id="text68"
       y="290.95126"
       x="-39.257076"
       style="font-size:22px;font-style:italic;font-variant:normal;font-weight:normal;font-stretch:normal;text-align:center;line-height:125%;writing-mode:lr-tb;text-anchor:middle;fill:#000000;font-family:Century Schoolbook;-inkscape-font-specification:Century Schoolbook Italic"
       font-size="0.05"
       sodipodi:linespacing="125%">PCIU</text>
    <circle
       transform="matrix(354.3307,0,0,-354.3307,244.20749,388.39223)"
       sodipodi:ry="0.050000001"
       sodipodi:rx="0.050000001"
       sodipodi:cy="0"
       sodipodi:cx="0"
       id="circle72"
       style="font-size:0.06208889px;font-style:italic;font-variant:normal;font-weight:normal;font-stretch:normal;text-align:center;line-height:125%;writing-mode:lr-tb;text-anchor:middle;fill:#000000;stroke:none;font-family:Century Schoolbook;-inkscape-font-specification:Century Schoolbook Italic"
       r="0.050000001"
       cy="0"
       cx="0"
       d="M 0.05,0 C 0.05,0.02761424 0.02761424,0.05 0,0.05 -0.02761424,0.05 -0.05,0.02761424 -0.05,0 c 0,-0.02761424 0.02238576,-0.05 0.05,-0.05 0.02761424,0 0.05,0.02238576 0.05,0.05 z" />
    <circle
       transform="matrix(354.3307,0,0,-354.3307,244.20749,388.39223)"
       sodipodi:ry="0.039999999"
       sodipodi:rx="0.039999999"
       sodipodi:cy="0"
       sodipodi:cx="0"
       id="circle74"
       style="font-size:0.06208889px;font-style:italic;font-variant:normal;font-weight:normal;font-stretch:normal;text-align:center;line-height:125%;writing-mode:lr-tb;text-anchor:middle;fill:#ffffff;stroke:none;font-family:Century Schoolbook;-inkscape-font-specification:Century Schoolbook Italic"
       r="0.039999999"
       cy="0"
       cx="0"
       d="M 0.04,0 C 0.04,0.02209139 0.02209139,0.04 0,0.04 -0.02209139,0.04 -0.04,0.02209139 -0.04,0 c 0,-0.02209139 0.01790861,-0.04 0.04,-0.04 0.02209139,0 0.04,0.01790861 0.04,0.04 z" />
    <text
       id="text78"
       y="361.81741"
       x="244.2075"
       style="font-size:22px;font-style:italic;font-variant:normal;font-weight:normal;font-stretch:normal;text-align:center;line-height:125%;writing-mode:lr-tb;text-anchor:middle;fill:#000000;font-family:Century Schoolbook;-inkscape-font-specification:Century Schoolbook Italic"
       font-size="0.05"
       sodipodi:linespacing="125%">ALU</text>
    <circle
       transform="matrix(354.3307,0,0,-354.3307,102.47521,317.52609)"
       sodipodi:ry="0.050000001"
       sodipodi:rx="0.050000001"
       sodipodi:cy="0"
       sodipodi:cx="0"
       id="circle82"
       style="font-size:0.06208889px;font-style:italic;font-variant:normal;font-weight:normal;font-stretch:normal;text-align:center;line-height:125%;writing-mode:lr-tb;text-anchor:middle;fill:#000000;stroke:none;font-family:Century Schoolbook;-inkscape-font-specification:Century Schoolbook Italic"
       r="0.050000001"
       cy="0"
       cx="0"
       d="M 0.05,0 C 0.05,0.02761424 0.02761424,0.05 0,0.05 -0.02761424,0.05 -0.05,0.02761424 -0.05,0 c 0,-0.02761424 0.02238576,-0.05 0.05,-0.05 0.02761424,0 0.05,0.02238576 0.05,0.05 z" />
    <circle
       transform="matrix(354.3307,0,0,-354.3307,102.47521,317.52609)"
       sodipodi:ry="0.039999999"
       sodipodi:rx="0.039999999"
       sodipodi:cy="0"
       sodipodi:cx="0"
       id="circle84"
       style="font-size:0.06208889px;font-style:italic;font-variant:normal;font-weight:normal;font-stretch:normal;text-align:center;line-height:125%;writing-mode:lr-tb;text-anchor:middle;fill:#ffffff;stroke:none;font-family:Century Schoolbook;-inkscape-font-specification:Century Schoolbook Italic"
       r="0.039999999"
       cy="0"
       cx="0"
       d="M 0.04,0 C 0.04,0.02209139 0.02209139,0.04 0,0.04 -0.02209139,0.04 -0.04,0.02209139 -0.04,0 c 0,-0.02209139 0.01790861,-0.04 0.04,-0.04 0.02209139,0 0.04,0.01790861 0.04,0.04 z" />
    <text
       id="text88"
       y="290.95126"
       x="102.47521"
       style="font-size:22px;font-style:italic;font-variant:normal;font-weight:normal;font-stretch:normal;text-align:center;line-height:125%;writing-mode:lr-tb;text-anchor:middle;fill:#000000;font-family:Century Schoolbook;-inkscape-font-specification:Century Schoolbook Italic"
       font-size="0.05"
       sodipodi:linespacing="125%">IFU</text>
    <circle
       transform="matrix(354.3307,0,0,-354.3307,244.20749,246.65995)"
       sodipodi:ry="0.050000001"
       sodipodi:rx="0.050000001"
       sodipodi:cy="0"
       sodipodi:cx="0"
       id="circle92"
       style="font-size:0.06208889px;font-style:italic;font-variant:normal;font-weight:normal;font-stretch:normal;text-align:center;line-height:125%;writing-mode:lr-tb;text-anchor:middle;fill:#000000;stroke:none;font-family:Century Schoolbook;-inkscape-font-specification:Century Schoolbook Italic"
       r="0.050000001"
       cy="0"
       cx="0"
       d="M 0.05,0 C 0.05,0.02761424 0.02761424,0.05 0,0.05 -0.02761424,0.05 -0.05,0.02761424 -0.05,0 c 0,-0.02761424 0.02238576,-0.05 0.05,-0.05 0.02761424,0 0.05,0.02238576 0.05,0.05 z" />
    <circle
       transform="matrix(354.3307,0,0,-354.3307,244.20749,246.65995)"
       sodipodi:ry="0.039999999"
       sodipodi:rx="0.039999999"
       sodipodi:cy="0"
       sodipodi:cx="0"
       id="circle94"
       style="font-size:0.06208889px;font-style:italic;font-variant:normal;font-weight:normal;font-stretch:normal;text-align:center;line-height:125%;writing-mode:lr-tb;text-anchor:middle;fill:#ffffff;stroke:none;font-family:Century Schoolbook;-inkscape-font-specification:Century Schoolbook Italic"
       r="0.039999999"
       cy="0"
       cx="0"
       d="M 0.04,0 C 0.04,0.02209139 0.02209139,0.04 0,0.04 -0.02209139,0.04 -0.04,0.02209139 -0.04,0 c 0,-0.02209139 0.01790861,-0.04 0.04,-0.04 0.02209139,0 0.04,0.01790861 0.04,0.04 z" />
    <text
       id="text98"
       y="251.39986"
       x="303.92834"
       style="font-size:22px;font-style:italic;font-variant:normal;font-weight:normal;font-stretch:normal;text-align:center;line-height:125%;writing-mode:lr-tb;text-anchor:middle;fill:#000000;font-family:Century Schoolbook;-inkscape-font-specification:Century Schoolbook Italic"
       font-size="0.05"
       sodipodi:linespacing="125%">PCIU'</text>
    <circle
       transform="matrix(354.3307,0,0,-354.3307,385.93977,317.52609)"
       sodipodi:ry="0.050000001"
       sodipodi:rx="0.050000001"
       sodipodi:cy="0"
       sodipodi:cx="0"
       id="circle102"
       style="font-size:0.06208889px;font-style:italic;font-variant:normal;font-weight:normal;font-stretch:normal;text-align:center;line-height:125%;writing-mode:lr-tb;text-anchor:middle;fill:#000000;stroke:none;font-family:Century Schoolbook;-inkscape-font-specification:Century Schoolbook Italic"
       r="0.050000001"
       cy="0"
       cx="0"
       d="M 0.05,0 C 0.05,0.02761424 0.02761424,0.05 0,0.05 -0.02761424,0.05 -0.05,0.02761424 -0.05,0 c 0,-0.02761424 0.02238576,-0.05 0.05,-0.05 0.02761424,0 0.05,0.02238576 0.05,0.05 z" />
    <circle
       transform="matrix(354.3307,0,0,-354.3307,385.93977,317.52609)"
       sodipodi:ry="0.039999999"
       sodipodi:rx="0.039999999"
       sodipodi:cy="0"
       sodipodi:cx="0"
       id="circle104"
       style="font-size:0.06208889px;font-style:italic;font-variant:normal;font-weight:normal;font-stretch:normal;text-align:center;line-height:125%;writing-mode:lr-tb;text-anchor:middle;fill:#ffffff;stroke:none;font-family:Century Schoolbook;-inkscape-font-specification:Century Schoolbook Italic"
       r="0.039999999"
       cy="0"
       cx="0"
       d="M 0.04,0 C 0.04,0.02209139 0.02209139,0.04 0,0.04 -0.02209139,0.04 -0.04,0.02209139 -0.04,0 c 0,-0.02209139 0.01790861,-0.04 0.04,-0.04 0.02209139,0 0.04,0.01790861 0.04,0.04 z" />
    <text
       id="text108"
       y="292.97156"
       x="385.49396"
       style="font-size:22px;font-style:italic;font-variant:normal;font-weight:normal;font-stretch:normal;text-align:center;line-height:125%;writing-mode:lr-tb;text-anchor:middle;fill:#000000;font-family:Century Schoolbook;-inkscape-font-specification:Century Schoolbook Italic"
       font-size="0.05"
       sodipodi:linespacing="125%">IFU'</text>
  </g>
</svg>
