<?xml version="1.0" encoding="UTF-8" standalone="no"?>
<!-- Created with Inkscape (http://www.inkscape.org/) -->

<svg
   xmlns:dc="http://purl.org/dc/elements/1.1/"
   xmlns:cc="http://creativecommons.org/ns#"
   xmlns:rdf="http://www.w3.org/1999/02/22-rdf-syntax-ns#"
   xmlns:svg="http://www.w3.org/2000/svg"
   xmlns="http://www.w3.org/2000/svg"
   xmlns:sodipodi="http://sodipodi.sourceforge.net/DTD/sodipodi-0.dtd"
   xmlns:inkscape="http://www.inkscape.org/namespaces/inkscape"
   width="480"
   height="178"
   id="svg2572"
   sodipodi:version="0.32"
   inkscape:version="0.48.1 "
   sodipodi:docname="po_ALU_123_PC.svg"
   inkscape:output_extension="org.inkscape.output.svg.inkscape"
   version="1.0">
  <defs
     id="defs2574">
    <inkscape:perspective
       sodipodi:type="inkscape:persp3d"
       inkscape:vp_x="0 : 526.18109 : 1"
       inkscape:vp_y="0 : 1000 : 0"
       inkscape:vp_z="744.09448 : 526.18109 : 1"
       inkscape:persp3d-origin="372.04724 : 350.78739 : 1"
       id="perspective2580" />
  </defs>
  <sodipodi:namedview
     id="base"
     pagecolor="#ffffff"
     bordercolor="#666666"
     borderopacity="1.0"
     gridtolerance="10000"
     guidetolerance="10"
     objecttolerance="10"
     inkscape:pageopacity="0.0"
     inkscape:pageshadow="2"
     inkscape:zoom="0.98994949"
     inkscape:cx="205.29353"
     inkscape:cy="78.158112"
     inkscape:document-units="px"
     inkscape:current-layer="layer1"
     showgrid="false"
     inkscape:window-width="1381"
     inkscape:window-height="816"
     inkscape:window-x="147"
     inkscape:window-y="125"
     inkscape:window-maximized="0" />
  <metadata
     id="metadata2577">
    <rdf:RDF>
      <cc:Work
         rdf:about="">
        <dc:format>image/svg+xml</dc:format>
        <dc:type
           rdf:resource="http://purl.org/dc/dcmitype/StillImage" />
      </cc:Work>
    </rdf:RDF>
  </metadata>
  <g
     inkscape:label="Layer 1"
     inkscape:groupmode="layer"
     id="layer1"
     transform="translate(298.08691,3.2136202)">
    <line
       style="font-size:22px;font-style:italic;font-variant:normal;font-weight:normal;font-stretch:normal;text-align:center;line-height:125%;writing-mode:lr-tb;text-anchor:middle;fill:none;stroke:#000000;stroke-width:0.70866144;font-family:Century Schoolbook;-inkscape-font-specification:Century Schoolbook Italic"
       x1="-267.28818"
       x2="-125.55599"
       y1="92.163536"
       y2="92.163536"
       id="line10" />
    <g
       transform="matrix(885.82676,0,0,-885.82676,-143.27252,92.163545)"
       id="g16"
       style="font-size:0.02483556px;font-style:italic;font-variant:normal;font-weight:normal;font-stretch:normal;text-align:center;line-height:125%;writing-mode:lr-tb;text-anchor:middle;font-family:Century Schoolbook;-inkscape-font-specification:Century Schoolbook Italic">
      <path
         d="m 0,0 -0.015,0.004 0,-0.008 L 0,0 z"
         style="font-size:0.02483556px;font-style:italic;font-variant:normal;font-weight:normal;font-stretch:normal;text-align:center;line-height:125%;writing-mode:lr-tb;text-anchor:middle;fill:#000000;stroke:none;font-family:Century Schoolbook;-inkscape-font-specification:Century Schoolbook Italic"
         id="path18"
         inkscape:connector-curvature="0" />
    </g>
    <line
       style="font-size:22px;font-style:italic;font-variant:normal;font-weight:normal;font-stretch:normal;text-align:center;line-height:125%;writing-mode:lr-tb;text-anchor:middle;fill:none;stroke:#000000;stroke-width:0.70866144;font-family:Century Schoolbook;-inkscape-font-specification:Century Schoolbook Italic"
       x1="-125.55599"
       x2="16.176319"
       y1="92.163536"
       y2="92.163536"
       id="line20" />
    <g
       transform="matrix(885.82676,0,0,-885.82676,-1.5402275,92.163545)"
       id="g26"
       style="font-size:0.02483556px;font-style:italic;font-variant:normal;font-weight:normal;font-stretch:normal;text-align:center;line-height:125%;writing-mode:lr-tb;text-anchor:middle;font-family:Century Schoolbook;-inkscape-font-specification:Century Schoolbook Italic">
      <path
         d="m 0,0 -0.015,0.004 0,-0.008 L 0,0 z"
         style="font-size:0.02483556px;font-style:italic;font-variant:normal;font-weight:normal;font-stretch:normal;text-align:center;line-height:125%;writing-mode:lr-tb;text-anchor:middle;fill:#000000;stroke:none;font-family:Century Schoolbook;-inkscape-font-specification:Century Schoolbook Italic"
         id="path28"
         inkscape:connector-curvature="0" />
    </g>
    <line
       style="font-size:22px;font-style:italic;font-variant:normal;font-weight:normal;font-stretch:normal;text-align:center;line-height:125%;writing-mode:lr-tb;text-anchor:middle;fill:none;stroke:#000000;stroke-width:0.70866144;font-family:Century Schoolbook;-inkscape-font-specification:Century Schoolbook Italic"
       x1="16.176319"
       x2="157.90854"
       y1="92.163536"
       y2="92.163536"
       id="line30" />
    <g
       transform="matrix(885.82676,0,0,-885.82676,140.19203,92.163545)"
       id="g36"
       style="font-size:0.02483556px;font-style:italic;font-variant:normal;font-weight:normal;font-stretch:normal;text-align:center;line-height:125%;writing-mode:lr-tb;text-anchor:middle;font-family:Century Schoolbook;-inkscape-font-specification:Century Schoolbook Italic">
      <path
         d="m 0,0 -0.015,0.004 0,-0.008 L 0,0 z"
         style="font-size:0.02483556px;font-style:italic;font-variant:normal;font-weight:normal;font-stretch:normal;text-align:center;line-height:125%;writing-mode:lr-tb;text-anchor:middle;fill:#000000;stroke:none;font-family:Century Schoolbook;-inkscape-font-specification:Century Schoolbook Italic"
         id="path38"
         inkscape:connector-curvature="0" />
    </g>
    <circle
       transform="matrix(354.3307,0,0,-354.3307,-267.28827,92.163545)"
       sodipodi:ry="0.050000001"
       sodipodi:rx="0.050000001"
       sodipodi:cy="0"
       sodipodi:cx="0"
       id="circle42"
       style="font-size:0.06208889px;font-style:italic;font-variant:normal;font-weight:normal;font-stretch:normal;text-align:center;line-height:125%;writing-mode:lr-tb;text-anchor:middle;fill:#000000;stroke:none;font-family:Century Schoolbook;-inkscape-font-specification:Century Schoolbook Italic"
       r="0.050000001"
       cy="0"
       cx="0"
       d="M 0.05,0 C 0.05,0.02761424 0.02761424,0.05 0,0.05 -0.02761424,0.05 -0.05,0.02761424 -0.05,0 c 0,-0.02761424 0.02238576,-0.05 0.05,-0.05 0.02761424,0 0.05,0.02238576 0.05,0.05 z" />
    <circle
       transform="matrix(354.3307,0,0,-354.3307,-267.28827,92.163545)"
       sodipodi:ry="0.039999999"
       sodipodi:rx="0.039999999"
       sodipodi:cy="0"
       sodipodi:cx="0"
       id="circle44"
       style="font-size:0.06208889px;font-style:italic;font-variant:normal;font-weight:normal;font-stretch:normal;text-align:center;line-height:125%;writing-mode:lr-tb;text-anchor:middle;fill:#ffffff;stroke:none;font-family:Century Schoolbook;-inkscape-font-specification:Century Schoolbook Italic"
       r="0.039999999"
       cy="0"
       cx="0"
       d="M 0.04,0 C 0.04,0.02209139 0.02209139,0.04 0,0.04 -0.02209139,0.04 -0.04,0.02209139 -0.04,0 c 0,-0.02209139 0.01790861,-0.04 0.04,-0.04 0.02209139,0 0.04,0.01790861 0.04,0.04 z" />
    <text
       id="text48"
       y="65.58873"
       x="-268.28714"
       style="font-size:22px;font-style:italic;font-variant:normal;font-weight:normal;font-stretch:normal;text-align:center;line-height:125%;writing-mode:lr-tb;text-anchor:middle;fill:#000000;font-family:Century Schoolbook;-inkscape-font-specification:Century Schoolbook Italic"
       font-size="0.05"
       sodipodi:linespacing="125%">PCIU</text>
    <circle
       transform="matrix(354.3307,0,0,-354.3307,157.90858,92.163545)"
       sodipodi:ry="0.050000001"
       sodipodi:rx="0.050000001"
       sodipodi:cy="0"
       sodipodi:cx="0"
       id="circle52"
       style="font-size:0.06208889px;font-style:italic;font-variant:normal;font-weight:normal;font-stretch:normal;text-align:center;line-height:125%;writing-mode:lr-tb;text-anchor:middle;fill:#000000;stroke:none;font-family:Century Schoolbook;-inkscape-font-specification:Century Schoolbook Italic"
       r="0.050000001"
       cy="0"
       cx="0"
       d="M 0.05,0 C 0.05,0.02761424 0.02761424,0.05 0,0.05 -0.02761424,0.05 -0.05,0.02761424 -0.05,0 c 0,-0.02761424 0.02238576,-0.05 0.05,-0.05 0.02761424,0 0.05,0.02238576 0.05,0.05 z" />
    <circle
       transform="matrix(354.3307,0,0,-354.3307,157.90858,92.163545)"
       sodipodi:ry="0.039999999"
       sodipodi:rx="0.039999999"
       sodipodi:cy="0"
       sodipodi:cx="0"
       id="circle54"
       style="font-size:0.06208889px;font-style:italic;font-variant:normal;font-weight:normal;font-stretch:normal;text-align:center;line-height:125%;writing-mode:lr-tb;text-anchor:middle;fill:#ffffff;stroke:none;font-family:Century Schoolbook;-inkscape-font-specification:Century Schoolbook Italic"
       r="0.039999999"
       cy="0"
       cx="0"
       d="M 0.04,0 C 0.04,0.02209139 0.02209139,0.04 0,0.04 -0.02209139,0.04 -0.04,0.02209139 -0.04,0 c 0,-0.02209139 0.01790861,-0.04 0.04,-0.04 0.02209139,0 0.04,0.01790861 0.04,0.04 z" />
    <text
       id="text58"
       y="65.58873"
       x="157.46274"
       style="font-size:22px;font-style:italic;font-variant:normal;font-weight:normal;font-stretch:normal;text-align:center;line-height:125%;writing-mode:lr-tb;text-anchor:middle;fill:#000000;font-family:Century Schoolbook;-inkscape-font-specification:Century Schoolbook Italic"
       font-size="0.05"
       sodipodi:linespacing="125%">IFU'</text>
    <circle
       transform="matrix(354.3307,0,0,-354.3307,-125.55598,92.163545)"
       sodipodi:ry="0.050000001"
       sodipodi:rx="0.050000001"
       sodipodi:cy="0"
       sodipodi:cx="0"
       id="circle62"
       style="font-size:0.06208889px;font-style:italic;font-variant:normal;font-weight:normal;font-stretch:normal;text-align:center;line-height:125%;writing-mode:lr-tb;text-anchor:middle;fill:#000000;stroke:none;font-family:Century Schoolbook;-inkscape-font-specification:Century Schoolbook Italic"
       r="0.050000001"
       cy="0"
       cx="0"
       d="M 0.05,0 C 0.05,0.02761424 0.02761424,0.05 0,0.05 -0.02761424,0.05 -0.05,0.02761424 -0.05,0 c 0,-0.02761424 0.02238576,-0.05 0.05,-0.05 0.02761424,0 0.05,0.02238576 0.05,0.05 z" />
    <circle
       transform="matrix(354.3307,0,0,-354.3307,-125.55598,92.163545)"
       sodipodi:ry="0.039999999"
       sodipodi:rx="0.039999999"
       sodipodi:cy="0"
       sodipodi:cx="0"
       id="circle64"
       style="font-size:0.06208889px;font-style:italic;font-variant:normal;font-weight:normal;font-stretch:normal;text-align:center;line-height:125%;writing-mode:lr-tb;text-anchor:middle;fill:#ffffff;stroke:none;font-family:Century Schoolbook;-inkscape-font-specification:Century Schoolbook Italic"
       r="0.039999999"
       cy="0"
       cx="0"
       d="M 0.04,0 C 0.04,0.02209139 0.02209139,0.04 0,0.04 -0.02209139,0.04 -0.04,0.02209139 -0.04,0 c 0,-0.02209139 0.01790861,-0.04 0.04,-0.04 0.02209139,0 0.04,0.01790861 0.04,0.04 z" />
    <text
       id="text68"
       y="65.58873"
       x="-125.55599"
       style="font-size:22px;font-style:italic;font-variant:normal;font-weight:normal;font-stretch:normal;text-align:center;line-height:125%;writing-mode:lr-tb;text-anchor:middle;fill:#000000;font-family:Century Schoolbook;-inkscape-font-specification:Century Schoolbook Italic"
       font-size="0.05"
       sodipodi:linespacing="125%">IFU</text>
    <circle
       transform="matrix(354.3307,0,0,-354.3307,16.176316,92.163545)"
       sodipodi:ry="0.050000001"
       sodipodi:rx="0.050000001"
       sodipodi:cy="0"
       sodipodi:cx="0"
       id="circle72"
       style="font-size:0.06208889px;font-style:italic;font-variant:normal;font-weight:normal;font-stretch:normal;text-align:center;line-height:125%;writing-mode:lr-tb;text-anchor:middle;fill:#000000;stroke:none;font-family:Century Schoolbook;-inkscape-font-specification:Century Schoolbook Italic"
       r="0.050000001"
       cy="0"
       cx="0"
       d="M 0.05,0 C 0.05,0.02761424 0.02761424,0.05 0,0.05 -0.02761424,0.05 -0.05,0.02761424 -0.05,0 c 0,-0.02761424 0.02238576,-0.05 0.05,-0.05 0.02761424,0 0.05,0.02238576 0.05,0.05 z" />
    <circle
       transform="matrix(354.3307,0,0,-354.3307,16.176316,92.163545)"
       sodipodi:ry="0.039999999"
       sodipodi:rx="0.039999999"
       sodipodi:cy="0"
       sodipodi:cx="0"
       id="circle74"
       style="font-size:0.06208889px;font-style:italic;font-variant:normal;font-weight:normal;font-stretch:normal;text-align:center;line-height:125%;writing-mode:lr-tb;text-anchor:middle;fill:#ffffff;stroke:none;font-family:Century Schoolbook;-inkscape-font-specification:Century Schoolbook Italic"
       r="0.039999999"
       cy="0"
       cx="0"
       d="M 0.04,0 C 0.04,0.02209139 0.02209139,0.04 0,0.04 -0.02209139,0.04 -0.04,0.02209139 -0.04,0 c 0,-0.02209139 0.01790861,-0.04 0.04,-0.04 0.02209139,0 0.04,0.01790861 0.04,0.04 z" />
    <text
       id="text78"
       y="65.58873"
       x="16.176319"
       style="font-size:22px;font-style:italic;font-variant:normal;font-weight:normal;font-stretch:normal;text-align:center;line-height:125%;writing-mode:lr-tb;text-anchor:middle;fill:#000000;font-family:Century Schoolbook;-inkscape-font-specification:Century Schoolbook Italic"
       font-size="0.05"
       sodipodi:linespacing="125%">ALU</text>
  </g>
</svg>
