<?xml version="1.0" encoding="UTF-8" standalone="no"?>
<svg
   xmlns:dc="http://purl.org/dc/elements/1.1/"
   xmlns:cc="http://creativecommons.org/ns#"
   xmlns:rdf="http://www.w3.org/1999/02/22-rdf-syntax-ns#"
   xmlns:svg="http://www.w3.org/2000/svg"
   xmlns="http://www.w3.org/2000/svg"
   xmlns:sodipodi="http://sodipodi.sourceforge.net/DTD/sodipodi-0.dtd"
   xmlns:inkscape="http://www.inkscape.org/namespaces/inkscape"
   color-interpolation="auto"
   color-rendering="auto"
   font-size="12"
   font-style="normal"
   font-weight="normal"
   height="535.84003"
   image-rendering="auto"
   shape-rendering="auto"
   stroke-miterlimit="10"
   text-rendering="auto"
   width="298.565"
   id="svg2"
   version="1.1"
   inkscape:version="0.48.0 r9654"
   sodipodi:docname="dummy_counterexample.eps"
   style="font-size:12px;font-style:normal;font-weight:normal;fill:#000000;fill-opacity:1;stroke:#000000;stroke-width:1;stroke-linecap:square;stroke-linejoin:miter;stroke-miterlimit:10;stroke-opacity:1;stroke-dasharray:none;stroke-dashoffset:0;font-family:Dialog">
  <metadata
     id="metadata121">
    <rdf:RDF>
      <cc:Work
         rdf:about="">
        <dc:format>image/svg+xml</dc:format>
        <dc:type
           rdf:resource="http://purl.org/dc/dcmitype/StillImage" />
        <dc:title></dc:title>
      </cc:Work>
    </rdf:RDF>
  </metadata>
  <sodipodi:namedview
     pagecolor="#ffffff"
     bordercolor="#666666"
     borderopacity="1"
     objecttolerance="10"
     gridtolerance="10"
     guidetolerance="10"
     inkscape:pageopacity="0"
     inkscape:pageshadow="2"
     inkscape:window-width="1853"
     inkscape:window-height="1058"
     id="namedview119"
     showgrid="false"
     fit-margin-top="0"
     fit-margin-left="0"
     fit-margin-right="0"
     fit-margin-bottom="0"
     inkscape:zoom="1.0797774"
     inkscape:cx="229.39758"
     inkscape:cy="322.8642"
     inkscape:window-x="59"
     inkscape:window-y="-8"
     inkscape:window-maximized="1"
     inkscape:current-layer="svg2" />
  <!--Generated by the Batik Graphics2D SVG Generator-->
  <defs
     id="genericDefs" />
  <text
     x="273.565"
     xml:space="preserve"
     y="333.17001"
     id="text9"
     style="font-size:25px;stroke:none" />
  <path
     d="m 263.255,283.085 q -3.24,2.985 -6.245,2.985 -2.47,0 -4.1,-1.55 -1.63,-1.545 -1.63,-3.905 0,-3.26 2.74,-5.01 2.735,-1.75 7.845,-1.75 l 0.86,0 0,-2.4 q 0,-3.46 -3.55,-3.46 -2.86,0 -6.175,1.76 l 0,-2.985 q 3.645,-1.485 6.83,-1.485 3.335,0 4.92,1.5 1.585,1.505 1.585,4.67 l 0,9.01 q 0,3.095 1.9,3.095 0.24,0 0.7,-0.075 l 0.255,2 q -1.23,0.585 -2.71,0.585 -2.53,0 -3.225,-2.985 z m -0.53,-1.96 0,-5.145 -1.21,-0.035 q -2.965,0 -4.795,1.125 -1.83,1.125 -1.83,2.955 0,1.3 0.915,2.2 0.915,0.895 2.235,0.895 2.25,0 4.685,-1.995 z m 20.93,4.485 0,-9.485 -9.485,0 0,-2.71 9.485,0 0,-9.485 2.71,0 0,9.485 9.485,0 0,2.71 -9.485,0 0,9.485 -2.71,0 z"
     id="path13"
     inkscape:connector-curvature="0"
     style="font-size:0.75px;fill:#b20000;stroke:none" />
  <text
     x="148.565"
     xml:space="preserve"
     y="86.129997"
     id="text17"
     style="font-size:25px;stroke:none" />
  <circle
     cx="0"
     cy="0"
     r="0.44999999"
     id="circle19"
     d="M 0.44999999,0 C 0.44999999,0.24852813 0.24852813,0.44999999 0,0.44999999 -0.24852813,0.44999999 -0.44999999,0.24852813 -0.44999999,0 c 0,-0.24852813 0.20147186,-0.44999999 0.44999999,-0.44999999 0.24852813,0 0.44999999,0.20147186 0.44999999,0.44999999 z"
     sodipodi:cx="0"
     sodipodi:cy="0"
     sodipodi:rx="0.44999999"
     sodipodi:ry="0.44999999"
     style="font-size:0.5px;fill:#ffffff;stroke:none"
     transform="matrix(50,0,0,50,148.565,24.999999)" />
  <circle
     cx="0"
     cy="0"
     r="0.44999999"
     id="circle21"
     d="M 0.44999999,0 C 0.44999999,0.24852813 0.24852813,0.44999999 0,0.44999999 -0.24852813,0.44999999 -0.44999999,0.24852813 -0.44999999,0 c 0,-0.24852813 0.20147186,-0.44999999 0.44999999,-0.44999999 0.24852813,0 0.44999999,0.20147186 0.44999999,0.44999999 z"
     sodipodi:cx="0"
     sodipodi:cy="0"
     sodipodi:rx="0.44999999"
     sodipodi:ry="0.44999999"
     style="font-size:0.5px;fill:none;stroke-width:0.1"
     transform="matrix(50,0,0,50,148.565,24.999999)" />
  <circle
     cx="0"
     cy="0"
     r="0.26320001"
     id="circle23"
     d="M 0.26320001,0 C 0.26320001,0.14536135 0.14536135,0.26320001 0,0.26320001 -0.14536135,0.26320001 -0.26320001,0.14536135 -0.26320001,0 c 0,-0.14536135 0.11783866,-0.26320001 0.26320001,-0.26320001 0.14536135,0 0.26320001,0.11783866 0.26320001,0.26320001 z"
     sodipodi:cx="0"
     sodipodi:cy="0"
     sodipodi:rx="0.26320001"
     sodipodi:ry="0.26320001"
     style="font-size:0.5px;stroke:none"
     transform="matrix(50,0,0,50,148.565,24.999999)" />
  <text
     x="23.564997"
     xml:space="preserve"
     y="182.95"
     id="text27"
     style="font-size:25px;stroke:none" />
  <text
     x="148.565"
     xml:space="preserve"
     y="508.17001"
     id="text33"
     style="font-size:25px;stroke:none" />
  <path
     d="m 125.695,464.445 0,-29.13 3.605,0 0,12.76 q 2.22,-4.175 6.65,-4.175 3.59,0 5.65,2.62 2.06,2.62 2.06,7.16 0,4.945 -2.335,7.975 -2.335,3.03 -6.145,3.03 -3.535,0 -5.88,-2.71 l -0.435,2.47 -3.17,0 z m 3.605,-4.96 q 2.785,2.49 5.31,2.49 5.205,0 5.205,-7.93 0,-6.995 -4.615,-6.995 -3.025,0 -5.9,3.28 l 0,9.155 z m 29.94,4.74 0,-9.485 -9.485,0 0,-2.705 9.485,0 0,-9.485 2.71,0 0,9.485 9.485,0 0,2.705 -9.485,0 0,9.485 -2.71,0 z"
     id="path35"
     inkscape:connector-curvature="0"
     style="font-size:0.5px;fill:#b20000;stroke:none" />
  <path
     d="m 129.045,40.614999 -66.82,53.455"
     id="path39"
     inkscape:connector-curvature="0"
     style="font-size:0.75px;fill:none;stroke-width:1" />
  <path
     d="m 64.57,96.999999 -4.685,-5.855 L 46.61,106.565 z"
     id="path41"
     inkscape:connector-curvature="0"
     style="font-size:0.75px;stroke:none" />
  <text
     x="148.565"
     xml:space="preserve"
     y="411.13"
     id="text45"
     style="font-size:25px;stroke:none" />
  <circle
     cx="0"
     cy="0"
     r="0.44999999"
     id="circle47"
     d="M 0.44999999,0 C 0.44999999,0.24852813 0.24852813,0.44999999 0,0.44999999 -0.24852813,0.44999999 -0.44999999,0.24852813 -0.44999999,0 c 0,-0.24852813 0.20147186,-0.44999999 0.44999999,-0.44999999 0.24852813,0 0.44999999,0.20147186 0.44999999,0.44999999 z"
     sodipodi:cx="0"
     sodipodi:cy="0"
     sodipodi:rx="0.44999999"
     sodipodi:ry="0.44999999"
     style="font-size:0.5px;fill:#ffffff;stroke:none"
     transform="matrix(50,0,0,50,148.565,350)" />
  <circle
     cx="0"
     cy="0"
     r="0.44999999"
     id="circle49"
     d="M 0.44999999,0 C 0.44999999,0.24852813 0.24852813,0.44999999 0,0.44999999 -0.24852813,0.44999999 -0.44999999,0.24852813 -0.44999999,0 c 0,-0.24852813 0.20147186,-0.44999999 0.44999999,-0.44999999 0.24852813,0 0.44999999,0.20147186 0.44999999,0.44999999 z"
     sodipodi:cx="0"
     sodipodi:cy="0"
     sodipodi:rx="0.44999999"
     sodipodi:ry="0.44999999"
     style="font-size:0.50000000000000000px;fill:none;stroke:#000000;stroke-width:0.10000000000000001"
     transform="matrix(50,0,0,50,148.565,350)" />
  <path
     d="m 33.805,143.435 92.905,167.23"
     id="path53"
     inkscape:connector-curvature="0"
     style="font-size:0.5px;fill:none;stroke-width:1" />
  <path
     d="m 129.99,308.84 -6.555,3.645 12.99,15.66 z"
     id="path55"
     inkscape:connector-curvature="0"
     style="font-size:0.5px;stroke:none" />
  <text
     x="23.564997"
     xml:space="preserve"
     y="583.16998"
     id="text59"
     style="font-size:25px;stroke:none" />
  <path
     d="m 0,535.84 7.56,-10.27 -7.34,-9.615 4.285,0 5.805,7.655 5.255,-7.655 3.515,0 -6.885,10.09 7.49,9.795 -4.285,0 -5.99,-7.875 -5.785,7.875 -3.625,0 z m 34.935,0 0,-9.485 -9.485,0 0,-2.71 9.485,0 0,-9.485 2.71,0 0,9.485 9.485,0 0,2.71 -9.485,0 0,9.485 -2.71,0 z"
     id="path61"
     inkscape:connector-curvature="0"
     style="font-size:0.5px;fill:#0000b2;stroke:none" />
  <path
     d="m 148.565,375 0,36.565"
     id="path65"
     inkscape:connector-curvature="0"
     style="font-size:0.75px;fill:none;stroke-width:1" />
  <path
     d="m 152.315,411.565 -7.5,0 3.75,20 z"
     id="path67"
     inkscape:connector-curvature="0"
     style="font-size:0.75px;stroke:none" />
  <path
     d="M 121.945,465.97 65.03,500.12"
     id="path71"
     inkscape:connector-curvature="0"
     style="font-size:0.75px;fill:none;stroke-width:1" />
  <path
     d="M 66.96,503.335 63.1,496.905 47.88,510.41 z"
     id="path73"
     inkscape:connector-curvature="0"
     style="font-size:0.75px;stroke:none" />
  <path
     d="m 23.565,143.435 0,346.975"
     id="path77"
     inkscape:connector-curvature="0"
     style="font-size:0.75px;fill:none;stroke-width:1" />
  <path
     d="m 27.315,490.41 -7.5,0 3.75,20 z"
     id="path79"
     inkscape:connector-curvature="0"
     style="font-size:0.75px;stroke:none" />
  <path
     d="M 248.865,289.82 187.15,326.85"
     id="path83"
     inkscape:connector-curvature="0"
     style="font-size:0.75px;fill:none;stroke-width:1" />
  <path
     d="M 189.08,330.065 185.225,323.63 170,337.14 z"
     id="path85"
     inkscape:connector-curvature="0"
     style="font-size:0.75px;stroke:none" />
  <text
     x="273.565"
     xml:space="preserve"
     y="182.95"
     id="text89"
     style="font-size:25px;stroke:none" />
  <path
     d="m 168.085,40.614999 66.82,53.455"
     id="path95"
     inkscape:connector-curvature="0"
     style="font-size:0.75px;fill:none;stroke-width:1" />
  <path
     d="m 237.245,91.144999 -4.685,5.855 17.96,9.565001 z"
     id="path97"
     inkscape:connector-curvature="0"
     style="font-size:0.75px;stroke:none" />
  <text
     x="273.565"
     xml:space="preserve"
     y="261.13"
     id="text101"
     style="font-size:25px;stroke:none" />
  <circle
     cx="0"
     cy="0"
     r="0.44999999"
     id="circle103"
     d="M 0.44999999,0 C 0.44999999,0.24852813 0.24852813,0.44999999 0,0.44999999 -0.24852813,0.44999999 -0.44999999,0.24852813 -0.44999999,0 c 0,-0.24852813 0.20147186,-0.44999999 0.44999999,-0.44999999 0.24852813,0 0.44999999,0.20147186 0.44999999,0.44999999 z"
     sodipodi:cx="0"
     sodipodi:cy="0"
     sodipodi:rx="0.44999999"
     sodipodi:ry="0.44999999"
     style="font-size:0.5px;fill:#ffffff;stroke:none"
     transform="matrix(50,0,0,50,267.67123,200)" />
  <path
     d="m 267.67123,143.435 0,96.69725"
     id="path109"
     inkscape:connector-curvature="0"
     style="font-size:0.5px;fill:none;stroke-width:1"
     sodipodi:nodetypes="cc" />
  <path
     d="m 271.42123,238.82253 -7.5,0 3.75,20 z"
     id="path111"
     inkscape:connector-curvature="0"
     style="font-size:0.5px;stroke:none" />
  <text
     xml:space="preserve"
     style="font-size:40px;font-style:normal;font-weight:normal;line-height:125%;letter-spacing:0px;word-spacing:0px;fill:#000000;fill-opacity:1;stroke:none;font-family:Bitstream Vera Sans"
     x="20.993464"
     y="135.61194"
     id="text3192"
     sodipodi:linespacing="125%"><tspan
       sodipodi:role="line"
       id="tspan3194"
       x="20.993464"
       y="135.61194">λ</tspan></text>
  <text
     xml:space="preserve"
     style="font-size:40px;font-style:normal;font-weight:normal;line-height:125%;letter-spacing:0px;word-spacing:0px;fill:#000000;fill-opacity:1;stroke:none;font-family:Bitstream Vera Sans"
     x="257.69077"
     y="134.0775"
     id="text3192-1"
     sodipodi:linespacing="125%"><tspan
       sodipodi:role="line"
       id="tspan3194-7"
       x="257.69077"
       y="134.0775">λ</tspan></text>
</svg>
