<?xml version="1.0" encoding="UTF-8" standalone="no"?>
<svg
   xmlns:dc="http://purl.org/dc/elements/1.1/"
   xmlns:cc="http://creativecommons.org/ns#"
   xmlns:rdf="http://www.w3.org/1999/02/22-rdf-syntax-ns#"
   xmlns:svg="http://www.w3.org/2000/svg"
   xmlns="http://www.w3.org/2000/svg"
   xmlns:sodipodi="http://sodipodi.sourceforge.net/DTD/sodipodi-0.dtd"
   xmlns:inkscape="http://www.inkscape.org/namespaces/inkscape"
   color-interpolation="auto"
   color-rendering="auto"
   fill="black"
   fill-opacity="1"
   font-family="'Dialog'"
   font-size="12"
   font-style="normal"
   font-weight="normal"
   height="184"
   image-rendering="auto"
   shape-rendering="auto"
   stroke="black"
   stroke-dasharray="none"
   stroke-dashoffset="0"
   stroke-linecap="square"
   stroke-linejoin="miter"
   stroke-miterlimit="10"
   stroke-opacity="1"
   stroke-width="1"
   text-rendering="auto"
   width="192"
   id="svg2"
   version="1.1"
   inkscape:version="0.48.0 r9654"
   sodipodi:docname="env_opt.svg">
  <metadata
     id="metadata51">
    <rdf:RDF>
      <cc:Work
         rdf:about="">
        <dc:format>image/svg+xml</dc:format>
        <dc:type
           rdf:resource="http://purl.org/dc/dcmitype/StillImage" />
      </cc:Work>
    </rdf:RDF>
  </metadata>
  <sodipodi:namedview
     pagecolor="#ffffff"
     bordercolor="#666666"
     borderopacity="1"
     objecttolerance="10"
     gridtolerance="10"
     guidetolerance="10"
     inkscape:pageopacity="0"
     inkscape:pageshadow="2"
     inkscape:window-width="1853"
     inkscape:window-height="1058"
     id="namedview49"
     showgrid="false"
     inkscape:zoom="1.5815217"
     inkscape:cx="96"
     inkscape:cy="92"
     inkscape:window-x="59"
     inkscape:window-y="-8"
     inkscape:window-maximized="1"
     inkscape:current-layer="svg2" />
  <!--Generated by the Batik Graphics2D SVG Generator-->
  <defs
     id="genericDefs" />
  <g
     style="font-size:0.5px"
     id="g7"
     transform="matrix(50,0,0,50,23.4611,17.1715)"
     font-size="0.5">
    <text
       style="stroke:none"
       id="text9"
       y="1.0723"
       xml:space="preserve"
       x="0" />
  </g>
  <g
     style="font-size:0.75000000000000000px;fill:#b20000;stroke:#0000b2;fill-opacity:1"
     id="g11"
     transform="matrix(50,0,0,50,23.4611,17.1715)"
     font-size="0.75">
    <path
       style="stroke:none;fill:#b20000;fill-opacity:1"
       inkscape:connector-curvature="0"
       id="path13"
       d="m -0.2565,-0.1926 0,-0.0758 0.0659,0 0,0.0758 -0.0659,0 z m 0,0.461 0,-0.3889 0.0659,0 0,0.3889 -0.0659,0 z m 0.3046,-0.0868 0,-0.1472 -0.1461,0 0,-0.0615 0.1461,0 0,-0.1461 0.0623,0 0,0.1461 0.1461,0 0,0.0615 -0.1461,0 0,0.1472 -0.0623,0 z" />
  </g>
  <g
     style="font-size:0.5px"
     id="g15"
     transform="matrix(50,0,0,50,23.4611,167.1715)"
     font-size="0.5">
    <text
       style="stroke:none"
       id="text17"
       y="1.0290999"
       xml:space="preserve"
       x="0" />
    <path
       style="fill:#b20000;stroke:none"
       inkscape:connector-curvature="0"
       id="path19"
       d="m -0.3942,0.022 q 0,-0.1081 0.06,-0.1601 0.0502,-0.0432 0.1224,-0.0432 0.0801,0 0.131,0.0526 0.051,0.0525 0.051,0.1452 0,0.0751 -0.0226,0.1181 -0.0225,0.043 -0.0655,0.0668 -0.0431,0.0238 -0.0939,0.0238 -0.0817,0 -0.1321,-0.0523 Q -0.3942,0.1205 -0.3942,0.022 z m 0.0677,0 q 0,0.0747 0.0326,0.1119 0.0326,0.0371 0.0821,0.0371 0.049,0 0.0816,-0.0373 0.0326,-0.0374 0.0326,-0.1139 0,-0.0722 -0.0328,-0.1093 -0.0327,-0.0372 -0.0814,-0.0372 -0.0495,0 -0.0821,0.037 -0.0326,0.037 -0.0326,0.1117 z m 0.5123,0.1076 0,-0.1472 -0.1461,0 0,-0.0615 0.1461,0 0,-0.1461 0.0623,0 0,0.1461 0.1461,0 0,0.0615 -0.1461,0 0,0.1472 -0.0623,0 z" />
  </g>
  <g
     style="font-size:0.50000000000000000px;fill:#b20000;fill-opacity:1"
     id="g21"
     transform="matrix(50,0,0,50,173.4611,167.1715)"
     font-size="0.5">
    <text
       style="stroke:none;fill:#b20000;fill-opacity:1"
       id="text23"
       y="1.0723"
       xml:space="preserve"
       x="0" />
    <path
       style="fill:#b20000;stroke:none;fill-opacity:1"
       inkscape:connector-curvature="0"
       id="path25"
       d="m -0.1716,-0.1926 0,-0.0758 0.0659,0 0,0.0758 -0.0659,0 z m 0,0.461 0,-0.3889 0.0659,0 0,0.3889 -0.0659,0 z m 0.1406,-0.1611 0,-0.0663 0.2026,0 0,0.0663 -0.2026,0 z" />
  </g>
  <text
     x="173.46111"
     xml:space="preserve"
     y="67.531502"
     id="text29"
     style="font-size:25px;stroke:none" />
  <path
     d="m 157.9961,17.1715 q 0,-5.4 3.005,-8 2.51,-2.16 6.115,-2.16 4.01,0 6.555,2.625 2.545,2.625 2.545,7.26 0,3.755 -1.125,5.905 -1.125,2.15 -3.28,3.34 -2.15,1.19 -4.695,1.19 -4.085,0 -6.6,-2.615 -2.52,-2.62 -2.52,-7.545 z m 3.39,0 q 0,3.735 1.63,5.595 1.63,1.855 4.1,1.855 2.455,0 4.085,-1.865 1.63,-1.87 1.63,-5.695 0,-3.605 -1.64,-5.465 -1.64,-1.86 -4.075,-1.86 -2.47,0 -4.1,1.85 -1.63,1.85 -1.63,5.585 z m 17.41,1.665 0,-3.315 10.13,0 0,3.315 -10.13,0 z"
     id="path31"
     inkscape:connector-curvature="0"
     style="font-size:0.5px;fill:#b20000;stroke:none" />
  <g
     style="font-size:0.75px;stroke-width:0.02"
     id="g33"
     transform="matrix(50,0,0,50,23.4611,267.1715)"
     font-size="0.75">
    <path
       style="fill:none"
       inkscape:connector-curvature="0"
       id="path35"
       d="m 0.4692,-2 1.8842,0" />
    <path
       style="stroke:none"
       inkscape:connector-curvature="0"
       id="path37"
       d="m 2.3534,-2.075 0,0.15 0.4,-0.075 z" />
  </g>
  <g
     style="font-size:0.75px;stroke-width:0.15000001"
     id="g39"
     transform="matrix(50,0,0,50,98.4611,17.1715)"
     font-size="0.75">
    <circle
       style="stroke:none"
       sodipodi:ry="0.2105"
       sodipodi:rx="0.2105"
       sodipodi:cy="0"
       sodipodi:cx="0"
       d="m 0.2105,0 c 0,0.11625594 -0.0942441,0.2105 -0.2105,0.2105 -0.11625594,0 -0.2105,-0.0942441 -0.2105,-0.2105 0,-0.11625594 0.0942441,-0.2105 0.2105,-0.2105 0.11625594,0 0.2105,0.0942441 0.2105,0.2105 z"
       id="circle41"
       r="0.2105"
       cy="0"
       cx="0" />
  </g>
  <g
     style="font-size:0.75px;stroke-width:0.02"
     id="g43"
     transform="matrix(50,0,0,50,23.4611,267.1715)"
     font-size="0.75">
    <path
       style="fill:none"
       inkscape:connector-curvature="0"
       id="path45"
       d="M 2.6157,-5 0.7315,-5" />
    <path
       style="stroke:none"
       inkscape:connector-curvature="0"
       id="path47"
       d="m 0.7315,-4.925 0,-0.15 -0.4,0.075 z" />
  </g>
</svg>
