<?xml version="1.0" encoding="UTF-8" standalone="no"?>
<svg
   xmlns:dc="http://purl.org/dc/elements/1.1/"
   xmlns:cc="http://creativecommons.org/ns#"
   xmlns:rdf="http://www.w3.org/1999/02/22-rdf-syntax-ns#"
   xmlns:svg="http://www.w3.org/2000/svg"
   xmlns="http://www.w3.org/2000/svg"
   xmlns:sodipodi="http://sodipodi.sourceforge.net/DTD/sodipodi-0.dtd"
   xmlns:inkscape="http://www.inkscape.org/namespaces/inkscape"
   color-interpolation="auto"
   color-rendering="auto"
   font-size="12"
   font-style="normal"
   font-weight="normal"
   height="450"
   image-rendering="auto"
   shape-rendering="auto"
   stroke-miterlimit="10"
   text-rendering="auto"
   width="1131.8195"
   id="svg7131"
   version="1.1"
   inkscape:version="0.48.0 r9654"
   sodipodi:docname="pcomp_example.svg"
   style="font-size:12px;font-style:normal;font-weight:normal;fill:#000000;fill-opacity:1;stroke:#000000;stroke-width:1;stroke-linecap:square;stroke-linejoin:miter;stroke-miterlimit:10;stroke-opacity:1;stroke-dasharray:none;stroke-dashoffset:0;font-family:Dialog">
  <path
     d="m 50.969511,333.425 q -1.83,1.555 -3.525,2.195 -1.695,0.64 -3.635,0.64 -3.205,0 -4.925,-1.565 -1.72,-1.565 -1.72,-4 0,-1.43 0.65,-2.61 0.65,-1.18 1.7,-1.895 1.055,-0.715 2.375,-1.08 0.97,-0.255 2.93,-0.495 3.99,-0.475 5.875,-1.135 0.02,-0.675 0.02,-0.86 0,-2.015 -0.935,-2.84 -1.265,-1.115 -3.755,-1.115 -2.325,0 -3.43,0.815 -1.11,0.815 -1.64,2.885 l -3.225,-0.44 q 0.44,-2.07 1.45,-3.345 1.005,-1.27 2.91,-1.955 1.905,-0.69 4.415,-0.69 2.49,0 4.045,0.585 1.555,0.59 2.285,1.475 0.735,0.89 1.03,2.245 0.165,0.84 0.165,3.04 l 0,4.395 q 0,4.595 0.21,5.81 0.21,1.22 0.83,2.335 l -3.44,0 q -0.515,-1.025 -0.66,-2.395 z m -0.275,-7.365 q -1.795,0.735 -5.385,1.245 -2.03,0.295 -2.875,0.66 -0.84,0.365 -1.3,1.075 -0.455,0.705 -0.455,1.565 0,1.315 0.995,2.195 1,0.88 2.925,0.88 1.905,0 3.385,-0.835 1.485,-0.83 2.18,-2.28 0.53,-1.115 0.53,-3.295 l 0,-1.21 z m 15.365,5.42 0,-7.36 -7.31,0 0,-3.075 7.31,0 0,-7.305 3.11,0 0,7.305 7.305,0 0,3.075 -7.305,0 0,7.36 -3.11,0 z"
     id="path7196"
     inkscape:connector-curvature="0"
     style="font-size:0.5px;fill:#0000b2;stroke:none" />
  <path
     d="m 300.96951,333.425 q -1.83,1.555 -3.525,2.195 -1.695,0.64 -3.635,0.64 -3.205,0 -4.925,-1.565 -1.72,-1.565 -1.72,-4 0,-1.43 0.65,-2.61 0.65,-1.18 1.7,-1.895 1.055,-0.715 2.375,-1.08 0.97,-0.255 2.93,-0.495 3.99,-0.475 5.875,-1.135 0.02,-0.675 0.02,-0.86 0,-2.015 -0.935,-2.84 -1.265,-1.115 -3.755,-1.115 -2.325,0 -3.43,0.815 -1.11,0.815 -1.64,2.885 l -3.225,-0.44 q 0.44,-2.07 1.45,-3.345 1.005,-1.27 2.91,-1.955 1.905,-0.69 4.415,-0.69 2.49,0 4.045,0.585 1.555,0.59 2.285,1.475 0.735,0.89 1.03,2.245 0.165,0.84 0.165,3.04 l 0,4.395 q 0,4.595 0.21,5.81 0.21,1.22 0.83,2.335 l -3.44,0 q -0.515,-1.025 -0.66,-2.395 z m -0.275,-7.365 q -1.795,0.735 -5.385,1.245 -2.03,0.295 -2.875,0.66 -0.84,0.365 -1.3,1.075 -0.455,0.705 -0.455,1.565 0,1.315 0.995,2.195 1,0.88 2.925,0.88 1.905,0 3.385,-0.835 1.485,-0.83 2.18,-2.28 0.53,-1.115 0.53,-3.295 l 0,-1.21 z m 15.365,5.42 0,-7.36 -7.31,0 0,-3.075 7.31,0 0,-7.305 3.11,0 0,7.305 7.305,0 0,3.075 -7.305,0 0,7.36 -3.11,0 z"
     id="path7160-1"
     inkscape:connector-curvature="0"
     style="font-size:0.5px;font-style:normal;font-weight:normal;fill:#b20000;fill-opacity:1;stroke:none;font-family:Dialog" />
  <metadata
     id="metadata7506">
    <rdf:RDF>
      <cc:Work
         rdf:about="">
        <dc:format>image/svg+xml</dc:format>
        <dc:type
           rdf:resource="http://purl.org/dc/dcmitype/StillImage" />
      </cc:Work>
    </rdf:RDF>
  </metadata>
  <sodipodi:namedview
     pagecolor="#ffffff"
     bordercolor="#666666"
     borderopacity="1"
     objecttolerance="10"
     gridtolerance="10"
     guidetolerance="10"
     inkscape:pageopacity="0"
     inkscape:pageshadow="2"
     inkscape:window-width="1301"
     inkscape:window-height="557"
     id="namedview7504"
     showgrid="false"
     fit-margin-top="0"
     fit-margin-left="0"
     fit-margin-right="0"
     fit-margin-bottom="0"
     inkscape:zoom="0.61711137"
     inkscape:cx="335.53535"
     inkscape:cy="228.02405"
     inkscape:window-x="92"
     inkscape:window-y="125"
     inkscape:window-maximized="0"
     inkscape:current-layer="svg7131" />
  <!--Generated by the Batik Graphics2D SVG Generator-->
  <path
     d="m 450.96951,333.425 q -1.83,1.555 -3.525,2.195 -1.695,0.64 -3.635,0.64 -3.205,0 -4.925,-1.565 -1.72,-1.565 -1.72,-4 0,-1.43 0.65,-2.61 0.65,-1.18 1.7,-1.895 1.055,-0.715 2.375,-1.08 0.97,-0.255 2.93,-0.495 3.99,-0.475 5.875,-1.135 0.02,-0.675 0.02,-0.86 0,-2.015 -0.935,-2.84 -1.265,-1.115 -3.755,-1.115 -2.325,0 -3.43,0.815 -1.11,0.815 -1.64,2.885 l -3.225,-0.44 q 0.44,-2.07 1.45,-3.345 1.005,-1.27 2.91,-1.955 1.905,-0.69 4.415,-0.69 2.49,0 4.045,0.585 1.555,0.59 2.285,1.475 0.735,0.89 1.03,2.245 0.165,0.84 0.165,3.04 l 0,4.395 q 0,4.595 0.21,5.81 0.21,1.22 0.83,2.335 l -3.44,0 q -0.515,-1.025 -0.66,-2.395 z m -0.275,-7.365 q -1.795,0.735 -5.385,1.245 -2.03,0.295 -2.875,0.66 -0.84,0.365 -1.3,1.075 -0.455,0.705 -0.455,1.565 0,1.315 0.995,2.195 1,0.88 2.925,0.88 1.905,0 3.385,-0.835 1.485,-0.83 2.18,-2.28 0.53,-1.115 0.53,-3.295 l 0,-1.21 z m 15.365,5.42 0,-7.36 -7.31,0 0,-3.075 7.31,0 0,-7.305 3.11,0 0,7.305 7.305,0 0,3.075 -7.305,0 0,7.36 -3.11,0 z"
     id="path7160-7"
     inkscape:connector-curvature="0"
     style="font-size:0.5px;font-style:normal;font-weight:normal;fill:#b20000;fill-opacity:1;stroke:none;font-family:Dialog" />
  <defs
     id="genericDefs" />
  <text
     x="-1.6479492"
     xml:space="preserve"
     y="232.97006"
     id="text7138"
     style="font-size:25px;stroke:none">p1</text>
  <circle
     cx="0"
     cy="0"
     r="0.44999999"
     id="circle7142"
     d="M 0.44999999,0 C 0.44999999,0.24852813 0.24852813,0.44999999 0,0.44999999 -0.24852813,0.44999999 -0.44999999,0.24852813 -0.44999999,0 c 0,-0.24852813 0.20147186,-0.44999999 0.44999999,-0.44999999 0.24852813,0 0.44999999,0.20147186 0.44999999,0.44999999 z"
     sodipodi:cx="0"
     sodipodi:cy="0"
     sodipodi:rx="0.44999999"
     sodipodi:ry="0.44999999"
     style="font-size:0.5px;fill:#ffffff;stroke:none"
     transform="matrix(50,0,0,50,56.819511,225)" />
  <circle
     cx="0"
     cy="0"
     r="0.44999999"
     id="circle7144"
     d="M 0.44999999,0 C 0.44999999,0.24852813 0.24852813,0.44999999 0,0.44999999 -0.24852813,0.44999999 -0.44999999,0.24852813 -0.44999999,0 c 0,-0.24852813 0.20147186,-0.44999999 0.44999999,-0.44999999 0.24852813,0 0.44999999,0.20147186 0.44999999,0.44999999 z"
     sodipodi:cx="0"
     sodipodi:cy="0"
     sodipodi:rx="0.44999999"
     sodipodi:ry="0.44999999"
     style="font-size:0.5px;fill:none;stroke:#000000;stroke-width:0.1"
     transform="matrix(50,0,0,50,56.819511,225)" />
  <circle
     cx="0"
     cy="0"
     r="0.26320001"
     id="circle7146"
     d="M 0.26320001,0 C 0.26320001,0.14536135 0.14536135,0.26320001 0,0.26320001 -0.14536135,0.26320001 -0.26320001,0.14536135 -0.26320001,0 c 0,-0.14536135 0.11783866,-0.26320001 0.26320001,-0.26320001 0.14536135,0 0.26320001,0.11783866 0.26320001,0.26320001 z"
     sodipodi:cx="0"
     sodipodi:cy="0"
     sodipodi:rx="0.26320001"
     sodipodi:ry="0.26320001"
     style="font-size:0.5px;fill:#000000;stroke:none"
     transform="matrix(50,0,0,50,56.819511,225)" />
  <text
     x="-1.6479492"
     xml:space="preserve"
     y="432.97006"
     id="text7150"
     style="font-size:25px;stroke:none">p2</text>
  <circle
     cx="0"
     cy="0"
     r="0.44999999"
     id="circle7152"
     d="M 0.44999999,0 C 0.44999999,0.24852813 0.24852813,0.44999999 0,0.44999999 -0.24852813,0.44999999 -0.44999999,0.24852813 -0.44999999,0 c 0,-0.24852813 0.20147186,-0.44999999 0.44999999,-0.44999999 0.24852813,0 0.44999999,0.20147186 0.44999999,0.44999999 z"
     sodipodi:cx="0"
     sodipodi:cy="0"
     sodipodi:rx="0.44999999"
     sodipodi:ry="0.44999999"
     style="font-size:0.5px;fill:#ffffff;stroke:none"
     transform="matrix(50,0,0,50,56.819511,425)" />
  <circle
     cx="0"
     cy="0"
     r="0.44999999"
     id="circle7154"
     d="M 0.44999999,0 C 0.44999999,0.24852813 0.24852813,0.44999999 0,0.44999999 -0.24852813,0.44999999 -0.44999999,0.24852813 -0.44999999,0 c 0,-0.24852813 0.20147186,-0.44999999 0.44999999,-0.44999999 0.24852813,0 0.44999999,0.20147186 0.44999999,0.44999999 z"
     sodipodi:cx="0"
     sodipodi:cy="0"
     sodipodi:rx="0.44999999"
     sodipodi:ry="0.44999999"
     style="font-size:0.5px;fill:none;stroke-width:0.1"
     transform="matrix(50,0,0,50,56.819511,425)" />
  <text
     x="6.6934109"
     xml:space="preserve"
     y="335.13345"
     id="text7158"
     style="font-size:25px;stroke:none">t0</text>
  <path
     d="m 56.819511,250 0,39.99"
     id="path7164"
     inkscape:connector-curvature="0"
     style="font-size:0.75px;fill:none;stroke-width:1" />
  <path
     d="m 60.569511,289.99 -7.5,0 3.75,20 z"
     id="path7166"
     inkscape:connector-curvature="0"
     style="font-size:0.75px;stroke:none" />
  <path
     d="m 56.819511,340.01 0,39.99"
     id="path7170"
     inkscape:connector-curvature="0"
     style="font-size:0.75px;fill:none;stroke-width:1" />
  <path
     d="m 60.569511,380 -7.5,0 3.75,20 z"
     id="path7172"
     inkscape:connector-curvature="0"
     style="font-size:0.75px;stroke:none" />
  <text
     x="198.38205"
     xml:space="preserve"
     y="232.97006"
     id="text7176"
     style="font-size:25px;stroke:none">q2</text>
  <circle
     cx="0"
     cy="0"
     r="0.44999999"
     id="circle7178"
     d="M 0.44999999,0 C 0.44999999,0.24852813 0.24852813,0.44999999 0,0.44999999 -0.24852813,0.44999999 -0.44999999,0.24852813 -0.44999999,0 c 0,-0.24852813 0.20147186,-0.44999999 0.44999999,-0.44999999 0.24852813,0 0.44999999,0.20147186 0.44999999,0.44999999 z"
     sodipodi:cx="0"
     sodipodi:cy="0"
     sodipodi:rx="0.44999999"
     sodipodi:ry="0.44999999"
     style="font-size:0.5px;fill:#ffffff;stroke:none"
     transform="matrix(50,0,0,50,256.81951,225)" />
  <circle
     cx="0"
     cy="0"
     r="0.44999999"
     id="circle7180"
     d="M 0.44999999,0 C 0.44999999,0.24852813 0.24852813,0.44999999 0,0.44999999 -0.24852813,0.44999999 -0.44999999,0.24852813 -0.44999999,0 c 0,-0.24852813 0.20147186,-0.44999999 0.44999999,-0.44999999 0.24852813,0 0.44999999,0.20147186 0.44999999,0.44999999 z"
     sodipodi:cx="0"
     sodipodi:cy="0"
     sodipodi:rx="0.44999999"
     sodipodi:ry="0.44999999"
     style="font-size:0.5px;fill:none;stroke-width:0.1"
     transform="matrix(50,0,0,50,256.81951,225)" />
  <circle
     cx="0"
     cy="0"
     r="0.26320001"
     id="circle7182"
     d="M 0.26320001,0 C 0.26320001,0.14536135 0.14536135,0.26320001 0,0.26320001 -0.14536135,0.26320001 -0.26320001,0.14536135 -0.26320001,0 c 0,-0.14536135 0.11783866,-0.26320001 0.26320001,-0.26320001 0.14536135,0 0.26320001,0.11783866 0.26320001,0.26320001 z"
     sodipodi:cx="0"
     sodipodi:cy="0"
     sodipodi:rx="0.26320001"
     sodipodi:ry="0.26320001"
     style="font-size:0.5px;stroke:none"
     transform="matrix(50,0,0,50,256.81951,225)" />
  <text
     x="298.38205"
     xml:space="preserve"
     y="232.97006"
     id="text7186"
     style="font-size:25px;stroke:none">q3</text>
  <circle
     cx="0"
     cy="0"
     r="0.44999999"
     id="circle7188"
     d="M 0.44999999,0 C 0.44999999,0.24852813 0.24852813,0.44999999 0,0.44999999 -0.24852813,0.44999999 -0.44999999,0.24852813 -0.44999999,0 c 0,-0.24852813 0.20147186,-0.44999999 0.44999999,-0.44999999 0.24852813,0 0.44999999,0.20147186 0.44999999,0.44999999 z"
     sodipodi:cx="0"
     sodipodi:cy="0"
     sodipodi:rx="0.44999999"
     sodipodi:ry="0.44999999"
     style="font-size:0.5px;fill:#ffffff;stroke:none"
     transform="matrix(50,0,0,50,356.81951,225)" />
  <circle
     cx="0"
     cy="0"
     r="0.44999999"
     id="circle7190"
     d="M 0.44999999,0 C 0.44999999,0.24852813 0.24852813,0.44999999 0,0.44999999 -0.24852813,0.44999999 -0.44999999,0.24852813 -0.44999999,0 c 0,-0.24852813 0.20147186,-0.44999999 0.44999999,-0.44999999 0.24852813,0 0.44999999,0.20147186 0.44999999,0.44999999 z"
     sodipodi:cx="0"
     sodipodi:cy="0"
     sodipodi:rx="0.44999999"
     sodipodi:ry="0.44999999"
     style="font-size:0.5px;fill:none;stroke-width:0.1"
     transform="matrix(50,0,0,50,356.81951,225)" />
  <text
     x="257.52365"
     xml:space="preserve"
     y="335.13345"
     id="text7194"
     style="font-size:25px;stroke:none">t3</text>
  <text
     x="248.38205"
     xml:space="preserve"
     y="432.97006"
     id="text7200"
     style="font-size:25px;stroke:none">q4</text>
  <circle
     cx="0"
     cy="0"
     r="0.44999999"
     id="circle7202"
     d="M 0.44999999,0 C 0.44999999,0.24852813 0.24852813,0.44999999 0,0.44999999 -0.24852813,0.44999999 -0.44999999,0.24852813 -0.44999999,0 c 0,-0.24852813 0.20147186,-0.44999999 0.44999999,-0.44999999 0.24852813,0 0.44999999,0.20147186 0.44999999,0.44999999 z"
     sodipodi:cx="0"
     sodipodi:cy="0"
     sodipodi:rx="0.44999999"
     sodipodi:ry="0.44999999"
     style="font-size:0.5px;fill:#ffffff;stroke:none"
     transform="matrix(50,0,0,50,306.81951,425)" />
  <circle
     cx="0"
     cy="0"
     r="0.44999999"
     id="circle7204"
     d="M 0.44999999,0 C 0.44999999,0.24852813 0.24852813,0.44999999 0,0.44999999 -0.24852813,0.44999999 -0.44999999,0.24852813 -0.44999999,0 c 0,-0.24852813 0.20147186,-0.44999999 0.44999999,-0.44999999 0.24852813,0 0.44999999,0.20147186 0.44999999,0.44999999 z"
     sodipodi:cx="0"
     sodipodi:cy="0"
     sodipodi:rx="0.44999999"
     sodipodi:ry="0.44999999"
     style="font-size:0.5px;fill:none;stroke-width:0.1"
     transform="matrix(50,0,0,50,306.81951,425)" />
  <text
     x="307.52365"
     xml:space="preserve"
     y="135.13345"
     id="text7208"
     style="font-size:25px;stroke:none">t1</text>
  <path
     d="m 351.96951,128.7 3.24,0.42 q -0.53,3.35 -2.72,5.245 -2.19,1.895 -5.375,1.895 -3.99,0 -6.415,-2.61 -2.43,-2.605 -2.43,-7.48 0,-3.15 1.045,-5.51 1.045,-2.36 3.175,-3.545 2.135,-1.18 4.645,-1.18 3.165,0 5.18,1.605 2.015,1.6 2.58,4.55 l -3.2,0.495 q -0.46,-1.96 -1.62,-2.95 -1.165,-0.99 -2.815,-0.99 -2.49,0 -4.045,1.785 -1.555,1.785 -1.555,5.65 0,3.92 1.5,5.695 1.5,1.775 3.92,1.775 1.94,0 3.24,-1.19 1.3,-1.19 1.65,-3.66 z m 12.98,2.78 0,-7.36 -7.305,0 0,-3.075 7.305,0 0,-7.305 3.115,0 0,7.305 7.305,0 0,3.075 -7.305,0 0,7.36 -3.115,0 z"
     id="path7210"
     inkscape:connector-curvature="0"
     style="font-size:0.5px;fill:#b20000;stroke:none" />
  <text
     x="407.52365"
     xml:space="preserve"
     y="137.51344"
     id="text7214"
     style="font-size:25px;stroke:none">t2</text>
  <path
     d="m 450.93451,138.2 0,-2.45 q -1.85,2.89 -5.44,2.89 -2.325,0 -4.275,-1.28 -1.95,-1.285 -3.02,-3.58 -1.075,-2.3 -1.075,-5.285 0,-2.91 0.975,-5.28 0.97,-2.37 2.91,-3.635 1.94,-1.265 4.34,-1.265 1.755,0 3.13,0.745 1.375,0.74 2.235,1.93 l 0,-9.63 3.275,0 0,26.84 -3.055,0 z m -10.42,-9.705 q 0,3.735 1.575,5.585 1.575,1.85 3.715,1.85 2.16,0 3.675,-1.765 1.51,-1.77 1.51,-5.395 0,-3.99 -1.54,-5.86 -1.54,-1.865 -3.79,-1.865 -2.2,0 -3.67,1.795 -1.475,1.795 -1.475,5.655 z m 25.58,5.365 0,-7.36 -7.305,0 0,-3.075 7.305,0 0,-7.305 3.11,0 0,7.305 7.31,0 0,3.075 -7.31,0 0,7.36 -3.11,0 z"
     id="path7216"
     inkscape:connector-curvature="0"
     style="font-size:0.5px;fill:#b20000;stroke:none" />
  <text
     x="348.38205"
     xml:space="preserve"
     y="32.970051"
     id="text7220"
     style="font-size:25px;stroke:none">q1</text>
  <circle
     cx="0"
     cy="0"
     r="0.44999999"
     id="circle7222"
     d="M 0.44999999,0 C 0.44999999,0.24852813 0.24852813,0.44999999 0,0.44999999 -0.24852813,0.44999999 -0.44999999,0.24852813 -0.44999999,0 c 0,-0.24852813 0.20147186,-0.44999999 0.44999999,-0.44999999 0.24852813,0 0.44999999,0.20147186 0.44999999,0.44999999 z"
     sodipodi:cx="0"
     sodipodi:cy="0"
     sodipodi:rx="0.44999999"
     sodipodi:ry="0.44999999"
     style="font-size:0.5px;fill:#ffffff;stroke:none"
     transform="matrix(50,0,0,50,406.81951,24.999999)" />
  <circle
     cx="0"
     cy="0"
     r="0.44999999"
     id="circle7224"
     d="M 0.44999999,0 C 0.44999999,0.24852813 0.24852813,0.44999999 0,0.44999999 -0.24852813,0.44999999 -0.44999999,0.24852813 -0.44999999,0 c 0,-0.24852813 0.20147186,-0.44999999 0.44999999,-0.44999999 0.24852813,0 0.44999999,0.20147186 0.44999999,0.44999999 z"
     sodipodi:cx="0"
     sodipodi:cy="0"
     sodipodi:rx="0.44999999"
     sodipodi:ry="0.44999999"
     style="font-size:0.5px;fill:none;stroke-width:0.1"
     transform="matrix(50,0,0,50,406.81951,24.999999)" />
  <circle
     cx="0"
     cy="0"
     r="0.26320001"
     id="circle7226"
     d="M 0.26320001,0 C 0.26320001,0.14536135 0.14536135,0.26320001 0,0.26320001 -0.14536135,0.26320001 -0.26320001,0.14536135 -0.26320001,0 c 0,-0.14536135 0.11783866,-0.26320001 0.26320001,-0.26320001 0.14536135,0 0.26320001,0.11783866 0.26320001,0.26320001 z"
     sodipodi:cx="0"
     sodipodi:cy="0"
     sodipodi:rx="0.26320001"
     sodipodi:ry="0.26320001"
     style="font-size:0.5px;stroke:none"
     transform="matrix(50,0,0,50,406.81951,24.999999)" />
  <text
     x="398.38205"
     xml:space="preserve"
     y="232.97006"
     id="text7230"
     style="font-size:25px;stroke:none">q5</text>
  <circle
     cx="0"
     cy="0"
     r="0.44999999"
     id="circle7232"
     d="M 0.44999999,0 C 0.44999999,0.24852813 0.24852813,0.44999999 0,0.44999999 -0.24852813,0.44999999 -0.44999999,0.24852813 -0.44999999,0 c 0,-0.24852813 0.20147186,-0.44999999 0.44999999,-0.44999999 0.24852813,0 0.44999999,0.20147186 0.44999999,0.44999999 z"
     sodipodi:cx="0"
     sodipodi:cy="0"
     sodipodi:rx="0.44999999"
     sodipodi:ry="0.44999999"
     style="font-size:0.5px;fill:#ffffff;stroke:none"
     transform="matrix(50,0,0,50,456.81951,225)" />
  <circle
     cx="0"
     cy="0"
     r="0.44999999"
     id="circle7234"
     d="M 0.44999999,0 C 0.44999999,0.24852813 0.24852813,0.44999999 0,0.44999999 -0.24852813,0.44999999 -0.44999999,0.24852813 -0.44999999,0 c 0,-0.24852813 0.20147186,-0.44999999 0.44999999,-0.44999999 0.24852813,0 0.44999999,0.20147186 0.44999999,0.44999999 z"
     sodipodi:cx="0"
     sodipodi:cy="0"
     sodipodi:rx="0.44999999"
     sodipodi:ry="0.44999999"
     style="font-size:0.5px;fill:none;stroke-width:0.1"
     transform="matrix(50,0,0,50,456.81951,225)" />
  <text
     x="348.38205"
     xml:space="preserve"
     y="432.97006"
     id="text7238"
     style="font-size:25px;stroke:none">q6</text>
  <circle
     cx="0"
     cy="0"
     r="0.44999999"
     id="circle7240"
     d="M 0.44999999,0 C 0.44999999,0.24852813 0.24852813,0.44999999 0,0.44999999 -0.24852813,0.44999999 -0.44999999,0.24852813 -0.44999999,0 c 0,-0.24852813 0.20147186,-0.44999999 0.44999999,-0.44999999 0.24852813,0 0.44999999,0.20147186 0.44999999,0.44999999 z"
     sodipodi:cx="0"
     sodipodi:cy="0"
     sodipodi:rx="0.44999999"
     sodipodi:ry="0.44999999"
     style="font-size:0.5px;fill:#ffffff;stroke:none"
     transform="matrix(50,0,0,50,406.81951,425)" />
  <circle
     cx="0"
     cy="0"
     r="0.44999999"
     id="circle7242"
     d="M 0.44999999,0 C 0.44999999,0.24852813 0.24852813,0.44999999 0,0.44999999 -0.24852813,0.44999999 -0.44999999,0.24852813 -0.44999999,0 c 0,-0.24852813 0.20147186,-0.44999999 0.44999999,-0.44999999 0.24852813,0 0.44999999,0.20147186 0.44999999,0.44999999 z"
     sodipodi:cx="0"
     sodipodi:cy="0"
     sodipodi:rx="0.44999999"
     sodipodi:ry="0.44999999"
     style="font-size:0.5px;fill:none;stroke-width:0.1"
     transform="matrix(50,0,0,50,406.81951,425)" />
  <text
     x="448.38205"
     xml:space="preserve"
     y="432.97006"
     id="text7246"
     style="font-size:25px;stroke:none">q7</text>
  <circle
     cx="0"
     cy="0"
     r="0.44999999"
     id="circle7248"
     d="M 0.44999999,0 C 0.44999999,0.24852813 0.24852813,0.44999999 0,0.44999999 -0.24852813,0.44999999 -0.44999999,0.24852813 -0.44999999,0 c 0,-0.24852813 0.20147186,-0.44999999 0.44999999,-0.44999999 0.24852813,0 0.44999999,0.20147186 0.44999999,0.44999999 z"
     sodipodi:cx="0"
     sodipodi:cy="0"
     sodipodi:rx="0.44999999"
     sodipodi:ry="0.44999999"
     style="font-size:0.5px;fill:#ffffff;stroke:none"
     transform="matrix(50,0,0,50,506.81951,425)" />
  <circle
     cx="0"
     cy="0"
     r="0.44999999"
     id="circle7250"
     d="M 0.44999999,0 C 0.44999999,0.24852813 0.24852813,0.44999999 0,0.44999999 -0.24852813,0.44999999 -0.44999999,0.24852813 -0.44999999,0 c 0,-0.24852813 0.20147186,-0.44999999 0.44999999,-0.44999999 0.24852813,0 0.44999999,0.20147186 0.44999999,0.44999999 z"
     sodipodi:cx="0"
     sodipodi:cy="0"
     sodipodi:rx="0.44999999"
     sodipodi:ry="0.44999999"
     style="font-size:0.5px;fill:none;stroke-width:0.1"
     transform="matrix(50,0,0,50,506.81951,425)" />
  <text
     x="407.52365"
     xml:space="preserve"
     y="335.13345"
     id="text7254"
     style="font-size:25px;stroke:none">t4</text>
  <path
     d="m 267.99951,247.36 22.37,44.74"
     id="path7260"
     inkscape:connector-curvature="0"
     style="font-size:0.75px;fill:none;stroke-width:1" />
  <path
     d="m 293.72451,290.425 -6.71,3.35 12.3,16.215 z"
     id="path7262"
     inkscape:connector-curvature="0"
     style="font-size:0.75px;stroke:none" />
  <path
     d="m 345.63951,247.36 -22.37,44.74"
     id="path7266"
     inkscape:connector-curvature="0"
     style="font-size:0.75px;fill:none;stroke-width:1" />
  <path
     d="m 326.62451,293.775 -6.71,-3.35 -5.59,19.565 z"
     id="path7268"
     inkscape:connector-curvature="0"
     style="font-size:0.75px;stroke:none" />
  <path
     d="m 306.81951,340.01 0,39.99"
     id="path7272"
     inkscape:connector-curvature="0"
     style="font-size:0.75px;fill:none;stroke-width:1" />
  <path
     d="m 310.56951,380 -7.5,0 3.75,20 z"
     id="path7274"
     inkscape:connector-curvature="0"
     style="font-size:0.75px;stroke:none" />
  <path
     d="m 356.81951,140.01 0,39.99"
     id="path7278"
     inkscape:connector-curvature="0"
     style="font-size:0.75px;fill:none;stroke-width:1" />
  <path
     d="m 360.56951,180 -7.5,0 3.75,20 z"
     id="path7280"
     inkscape:connector-curvature="0"
     style="font-size:0.75px;stroke:none" />
  <path
     d="m 395.63951,47.359999 -22.37,44.74"
     id="path7284"
     inkscape:connector-curvature="0"
     style="font-size:0.75px;fill:none;stroke-width:1" />
  <path
     d="m 376.62451,93.774999 -6.71,-3.35 -5.59,19.565001 z"
     id="path7286"
     inkscape:connector-curvature="0"
     style="font-size:0.75px;stroke:none" />
  <path
     d="m 417.99951,47.359999 21.18,42.36"
     id="path7290"
     inkscape:connector-curvature="0"
     style="font-size:0.75px;fill:none;stroke-width:1" />
  <path
     d="m 442.53451,88.044999 -6.71,3.35 12.3,16.215001 z"
     id="path7292"
     inkscape:connector-curvature="0"
     style="font-size:0.75px;stroke:none" />
  <path
     d="m 456.81951,142.39 0,37.61"
     id="path7296"
     inkscape:connector-curvature="0"
     style="font-size:0.75px;fill:none;stroke-width:1" />
  <path
     d="m 460.56951,180 -7.5,0 3.75,20 z"
     id="path7298"
     inkscape:connector-curvature="0"
     style="font-size:0.75px;stroke:none" />
  <path
     d="m 456.81951,250 0,39.99"
     id="path7302"
     inkscape:connector-curvature="0"
     style="font-size:0.75px;fill:none;stroke-width:1" />
  <path
     d="m 460.56951,289.99 -7.5,0 3.75,20 z"
     id="path7304"
     inkscape:connector-curvature="0"
     style="font-size:0.75px;stroke:none" />
  <path
     d="m 449.31451,340.01 -22.37,44.74"
     id="path7308"
     inkscape:connector-curvature="0"
     style="font-size:0.75px;fill:none;stroke-width:1" />
  <path
     d="m 430.29951,386.43 -6.71,-3.355 -5.59,19.565 z"
     id="path7310"
     inkscape:connector-curvature="0"
     style="font-size:0.75px;stroke:none" />
  <path
     d="m 464.32451,340.01 22.37,44.74"
     id="path7314"
     inkscape:connector-curvature="0"
     style="font-size:0.75px;fill:none;stroke-width:1" />
  <path
     d="m 490.04951,383.075 -6.71,3.355 12.3,16.21 z"
     id="path7316"
     inkscape:connector-curvature="0"
     style="font-size:0.75px;stroke:none" />
  <text
     x="848.36707"
     xml:space="preserve"
     y="32.970051"
     id="text7320"
     style="font-size:25px;stroke:none">q1</text>
  <circle
     cx="0"
     cy="0"
     r="0.44999999"
     id="circle7322"
     d="M 0.44999999,0 C 0.44999999,0.24852813 0.24852813,0.44999999 0,0.44999999 -0.24852813,0.44999999 -0.44999999,0.24852813 -0.44999999,0 c 0,-0.24852813 0.20147186,-0.44999999 0.44999999,-0.44999999 0.24852813,0 0.44999999,0.20147186 0.44999999,0.44999999 z"
     sodipodi:cx="0"
     sodipodi:cy="0"
     sodipodi:rx="0.44999999"
     sodipodi:ry="0.44999999"
     style="font-size:0.5px;fill:#ffffff;stroke:none"
     transform="matrix(50,0,0,50,906.81951,24.999999)" />
  <circle
     cx="0"
     cy="0"
     r="0.44999999"
     id="circle7324"
     d="M 0.44999999,0 C 0.44999999,0.24852813 0.24852813,0.44999999 0,0.44999999 -0.24852813,0.44999999 -0.44999999,0.24852813 -0.44999999,0 c 0,-0.24852813 0.20147186,-0.44999999 0.44999999,-0.44999999 0.24852813,0 0.44999999,0.20147186 0.44999999,0.44999999 z"
     sodipodi:cx="0"
     sodipodi:cy="0"
     sodipodi:rx="0.44999999"
     sodipodi:ry="0.44999999"
     style="font-size:0.5px;fill:none;stroke-width:0.1"
     transform="matrix(50,0,0,50,906.81951,24.999999)" />
  <circle
     cx="0"
     cy="0"
     r="0.26320001"
     id="circle7326"
     d="M 0.26320001,0 C 0.26320001,0.14536135 0.14536135,0.26320001 0,0.26320001 -0.14536135,0.26320001 -0.26320001,0.14536135 -0.26320001,0 c 0,-0.14536135 0.11783866,-0.26320001 0.26320001,-0.26320001 0.14536135,0 0.26320001,0.11783866 0.26320001,0.26320001 z"
     sodipodi:cx="0"
     sodipodi:cy="0"
     sodipodi:rx="0.26320001"
     sodipodi:ry="0.26320001"
     style="font-size:0.5px;stroke:none"
     transform="matrix(50,0,0,50,906.81951,24.999999)" />
  <text
     x="757.51367"
     xml:space="preserve"
     y="135.13345"
     id="text7330"
     style="font-size:25px;stroke:none">t1</text>
  <path
     d="m 801.96951,128.7 3.24,0.42 q -0.53,3.35 -2.72,5.245 -2.19,1.895 -5.375,1.895 -3.99,0 -6.415,-2.61 -2.43,-2.605 -2.43,-7.48 0,-3.15 1.045,-5.51 1.045,-2.36 3.175,-3.545 2.135,-1.18 4.645,-1.18 3.165,0 5.18,1.605 2.015,1.6 2.58,4.55 l -3.2,0.495 q -0.46,-1.96 -1.62,-2.95 -1.165,-0.99 -2.815,-0.99 -2.49,0 -4.045,1.785 -1.555,1.785 -1.555,5.65 0,3.92 1.5,5.695 1.5,1.775 3.92,1.775 1.94,0 3.24,-1.19 1.3,-1.19 1.65,-3.66 z m 12.98,2.78 0,-7.36 -7.305,0 0,-3.075 7.305,0 0,-7.305 3.115,0 0,7.305 7.305,0 0,3.075 -7.305,0 0,7.36 -3.115,0 z"
     id="path7332"
     inkscape:connector-curvature="0"
     style="font-size:0.5px;fill:#b20000;stroke:none" />
  <text
     x="957.51367"
     xml:space="preserve"
     y="137.51344"
     id="text7336"
     style="font-size:25px;stroke:none">t2</text>
  <path
     d="m 1000.9345,138.2 0,-2.45 q -1.84999,2.89 -5.43999,2.89 -2.325,0 -4.275,-1.28 -1.95,-1.285 -3.02,-3.58 -1.075,-2.3 -1.075,-5.285 0,-2.91 0.975,-5.28 0.97,-2.37 2.91,-3.635 1.94,-1.265 4.34,-1.265 1.755,0 3.13,0.745 1.375,0.74 2.23499,1.93 l 0,-9.63 3.275,0 0,26.84 -3.055,0 z m -10.41999,-9.705 q 0,3.735 1.575,5.585 1.575,1.85 3.715,1.85 2.16,0 3.675,-1.765 1.50999,-1.77 1.50999,-5.395 0,-3.99 -1.53999,-5.86 -1.54,-1.865 -3.79,-1.865 -2.2,0 -3.67,1.795 -1.475,1.795 -1.475,5.655 z m 25.57999,5.365 0,-7.36 -7.305,0 0,-3.075 7.305,0 0,-7.305 3.11,0 0,7.305 7.31,0 0,3.075 -7.31,0 0,7.36 -3.11,0 z"
     id="path7338"
     inkscape:connector-curvature="0"
     style="font-size:0.5px;fill:#b20000;stroke:none" />
  <path
     d="m 889.13951,42.679999 -53.165,53.165"
     id="path7342"
     inkscape:connector-curvature="0"
     style="font-size:0.75px;fill:none;stroke-width:1" />
  <path
     d="m 838.62451,98.499999 -5.305,-5.305 -11.49,16.795001 z"
     id="path7344"
     inkscape:connector-curvature="0"
     style="font-size:0.75px;stroke:none" />
  <path
     d="m 924.49951,42.679999 50.785,50.785"
     id="path7348"
     inkscape:connector-curvature="0"
     style="font-size:0.75px;fill:none;stroke-width:1" />
  <path
     d="m 977.93951,90.814999 -5.305,5.305 16.795,11.490001 z"
     id="path7350"
     inkscape:connector-curvature="0"
     style="font-size:0.75px;stroke:none" />
  <text
     x="748.37708"
     xml:space="preserve"
     y="232.97006"
     id="text7354"
     style="font-size:25px;stroke:none">q3</text>
  <circle
     cx="0"
     cy="0"
     r="0.44999999"
     id="circle7356"
     d="M 0.44999999,0 C 0.44999999,0.24852813 0.24852813,0.44999999 0,0.44999999 -0.24852813,0.44999999 -0.44999999,0.24852813 -0.44999999,0 c 0,-0.24852813 0.20147186,-0.44999999 0.44999999,-0.44999999 0.24852813,0 0.44999999,0.20147186 0.44999999,0.44999999 z"
     sodipodi:cx="0"
     sodipodi:cy="0"
     sodipodi:rx="0.44999999"
     sodipodi:ry="0.44999999"
     style="font-size:0.5px;fill:#ffffff;stroke:none"
     transform="matrix(50,0,0,50,806.81951,225)" />
  <circle
     cx="0"
     cy="0"
     r="0.44999999"
     id="circle7358"
     d="M 0.44999999,0 C 0.44999999,0.24852813 0.24852813,0.44999999 0,0.44999999 -0.24852813,0.44999999 -0.44999999,0.24852813 -0.44999999,0 c 0,-0.24852813 0.20147186,-0.44999999 0.44999999,-0.44999999 0.24852813,0 0.44999999,0.20147186 0.44999999,0.44999999 z"
     sodipodi:cx="0"
     sodipodi:cy="0"
     sodipodi:rx="0.44999999"
     sodipodi:ry="0.44999999"
     style="font-size:0.5px;fill:none;stroke-width:0.1"
     transform="matrix(50,0,0,50,806.81951,225)" />
  <text
     x="648.37708"
     xml:space="preserve"
     y="232.97006"
     id="text7362"
     style="font-size:25px;stroke:none">q2</text>
  <circle
     cx="0"
     cy="0"
     r="0.44999999"
     id="circle7364"
     d="M 0.44999999,0 C 0.44999999,0.24852813 0.24852813,0.44999999 0,0.44999999 -0.24852813,0.44999999 -0.44999999,0.24852813 -0.44999999,0 c 0,-0.24852813 0.20147186,-0.44999999 0.44999999,-0.44999999 0.24852813,0 0.44999999,0.20147186 0.44999999,0.44999999 z"
     sodipodi:cx="0"
     sodipodi:cy="0"
     sodipodi:rx="0.44999999"
     sodipodi:ry="0.44999999"
     style="font-size:0.5px;fill:#ffffff;stroke:none"
     transform="matrix(50,0,0,50,706.81951,225)" />
  <circle
     cx="0"
     cy="0"
     r="0.44999999"
     id="circle7366"
     d="M 0.44999999,0 C 0.44999999,0.24852813 0.24852813,0.44999999 0,0.44999999 -0.24852813,0.44999999 -0.44999999,0.24852813 -0.44999999,0 c 0,-0.24852813 0.20147186,-0.44999999 0.44999999,-0.44999999 0.24852813,0 0.44999999,0.20147186 0.44999999,0.44999999 z"
     sodipodi:cx="0"
     sodipodi:cy="0"
     sodipodi:rx="0.44999999"
     sodipodi:ry="0.44999999"
     style="font-size:0.5px;fill:none;stroke-width:0.1"
     transform="matrix(50,0,0,50,706.81951,225)" />
  <circle
     cx="0"
     cy="0"
     r="0.26320001"
     id="circle7368"
     d="M 0.26320001,0 C 0.26320001,0.14536135 0.14536135,0.26320001 0,0.26320001 -0.14536135,0.26320001 -0.26320001,0.14536135 -0.26320001,0 c 0,-0.14536135 0.11783866,-0.26320001 0.26320001,-0.26320001 0.14536135,0 0.26320001,0.11783866 0.26320001,0.26320001 z"
     sodipodi:cx="0"
     sodipodi:cy="0"
     sodipodi:rx="0.26320001"
     sodipodi:ry="0.26320001"
     style="font-size:0.5px;stroke:none"
     transform="matrix(50,0,0,50,706.81951,225)" />
  <text
     x="848.37708"
     xml:space="preserve"
     y="232.97006"
     id="text7372"
     style="font-size:25px;stroke:none">p1</text>
  <circle
     cx="0"
     cy="0"
     r="0.44999999"
     id="circle7374"
     d="M 0.44999999,0 C 0.44999999,0.24852813 0.24852813,0.44999999 0,0.44999999 -0.24852813,0.44999999 -0.44999999,0.24852813 -0.44999999,0 c 0,-0.24852813 0.20147186,-0.44999999 0.44999999,-0.44999999 0.24852813,0 0.44999999,0.20147186 0.44999999,0.44999999 z"
     sodipodi:cx="0"
     sodipodi:cy="0"
     sodipodi:rx="0.44999999"
     sodipodi:ry="0.44999999"
     style="font-size:0.5px;fill:#ffffff;stroke:none"
     transform="matrix(50,0,0,50,906.81951,225)" />
  <circle
     cx="0"
     cy="0"
     r="0.44999999"
     id="circle7376"
     d="M 0.44999999,0 C 0.44999999,0.24852813 0.24852813,0.44999999 0,0.44999999 -0.24852813,0.44999999 -0.44999999,0.24852813 -0.44999999,0 c 0,-0.24852813 0.20147186,-0.44999999 0.44999999,-0.44999999 0.24852813,0 0.44999999,0.20147186 0.44999999,0.44999999 z"
     sodipodi:cx="0"
     sodipodi:cy="0"
     sodipodi:rx="0.44999999"
     sodipodi:ry="0.44999999"
     style="font-size:0.5px;fill:none;stroke-width:0.1"
     transform="matrix(50,0,0,50,906.81951,225)" />
  <circle
     cx="0"
     cy="0"
     r="0.26320001"
     id="circle7378"
     d="M 0.26320001,0 C 0.26320001,0.14536135 0.14536135,0.26320001 0,0.26320001 -0.14536135,0.26320001 -0.26320001,0.14536135 -0.26320001,0 c 0,-0.14536135 0.11783866,-0.26320001 0.26320001,-0.26320001 0.14536135,0 0.26320001,0.11783866 0.26320001,0.26320001 z"
     sodipodi:cx="0"
     sodipodi:cy="0"
     sodipodi:rx="0.26320001"
     sodipodi:ry="0.26320001"
     style="font-size:0.5px;stroke:none"
     transform="matrix(50,0,0,50,906.81951,225)" />
  <text
     x="948.37708"
     xml:space="preserve"
     y="232.97006"
     id="text7382"
     style="font-size:25px;stroke:none">q5</text>
  <circle
     cx="0"
     cy="0"
     r="0.44999999"
     id="circle7384"
     d="M 0.44999999,0 C 0.44999999,0.24852813 0.24852813,0.44999999 0,0.44999999 -0.24852813,0.44999999 -0.44999999,0.24852813 -0.44999999,0 c 0,-0.24852813 0.20147186,-0.44999999 0.44999999,-0.44999999 0.24852813,0 0.44999999,0.20147186 0.44999999,0.44999999 z"
     sodipodi:cx="0"
     sodipodi:cy="0"
     sodipodi:rx="0.44999999"
     sodipodi:ry="0.44999999"
     style="font-size:0.5px;fill:#ffffff;stroke:none"
     transform="matrix(50,0,0,50,1006.8195,225)" />
  <circle
     cx="0"
     cy="0"
     r="0.44999999"
     id="circle7386"
     d="M 0.44999999,0 C 0.44999999,0.24852813 0.24852813,0.44999999 0,0.44999999 -0.24852813,0.44999999 -0.44999999,0.24852813 -0.44999999,0 c 0,-0.24852813 0.20147186,-0.44999999 0.44999999,-0.44999999 0.24852813,0 0.44999999,0.20147186 0.44999999,0.44999999 z"
     sodipodi:cx="0"
     sodipodi:cy="0"
     sodipodi:rx="0.44999999"
     sodipodi:ry="0.44999999"
     style="font-size:0.5px;fill:none;stroke-width:0.1"
     transform="matrix(50,0,0,50,1006.8195,225)" />
  <path
     d="m 806.81951,140.01 0,39.99"
     id="path7390"
     inkscape:connector-curvature="0"
     style="font-size:0.5px;fill:none;stroke-width:1" />
  <path
     d="m 810.56951,180 -7.5,0 3.75,20 z"
     id="path7392"
     inkscape:connector-curvature="0"
     style="font-size:0.5px;stroke:none" />
  <path
     d="m 1006.8195,142.39 0,37.61"
     id="path7396"
     inkscape:connector-curvature="0"
     style="font-size:0.5px;fill:none;stroke-width:1" />
  <path
     d="m 1010.5695,180 -7.5,0 3.75,20 z"
     id="path7398"
     inkscape:connector-curvature="0"
     style="font-size:0.5px;stroke:none" />
  <text
     x="712.64734"
     xml:space="preserve"
     y="333.513"
     id="text7402"
     style="font-size:25px;stroke:none">(t0,t3)</text>
  <path
     d="m 800.96951,333.425 q -1.83,1.555 -3.525,2.195 -1.695,0.64 -3.635,0.64 -3.205,0 -4.925,-1.565 -1.72,-1.565 -1.72,-4 0,-1.43 0.65,-2.61 0.65,-1.18 1.7,-1.895 1.055,-0.715 2.375,-1.08 0.97,-0.255 2.93,-0.495 3.99,-0.475 5.875,-1.135 0.02,-0.675 0.02,-0.86 0,-2.015 -0.935,-2.84 -1.265,-1.115 -3.755,-1.115 -2.325,0 -3.43,0.815 -1.11,0.815 -1.64,2.885 l -3.225,-0.44 q 0.44,-2.07 1.45,-3.345 1.005,-1.27 2.91,-1.955 1.905,-0.69 4.415,-0.69 2.49,0 4.045,0.585 1.555,0.59 2.285,1.475 0.735,0.89 1.03,2.245 0.165,0.84 0.165,3.04 l 0,4.395 q 0,4.595 0.21,5.81 0.21,1.22 0.83,2.335 l -3.44,0 q -0.515,-1.025 -0.66,-2.395 z m -0.275,-7.365 q -1.795,0.735 -5.385,1.245 -2.03,0.295 -2.875,0.66 -0.84,0.365 -1.3,1.075 -0.455,0.705 -0.455,1.565 0,1.315 0.995,2.195 1,0.88 2.925,0.88 1.905,0 3.385,-0.835 1.485,-0.83 2.18,-2.28 0.53,-1.115 0.53,-3.295 l 0,-1.21 z m 15.365,5.42 0,-7.36 -7.31,0 0,-3.075 7.31,0 0,-7.305 3.11,0 0,7.305 7.305,0 0,3.075 -7.305,0 0,7.36 -3.11,0 z"
     id="path7404"
     inkscape:connector-curvature="0"
     style="font-size:0.5px;fill:#0000b2;stroke:none" />
  <path
     d="m 724.49951,242.68 53.165,53.165"
     id="path7408"
     inkscape:connector-curvature="0"
     style="font-size:0.75px;fill:none;stroke-width:1" />
  <path
     d="m 780.31951,293.195 -5.305,5.305 16.795,11.49 z"
     id="path7410"
     inkscape:connector-curvature="0"
     style="font-size:0.75px;stroke:none" />
  <path
     d="m 806.81951,250 0,39.99"
     id="path7414"
     inkscape:connector-curvature="0"
     style="font-size:0.75px;fill:none;stroke-width:1" />
  <path
     d="m 810.56951,289.99 -7.5,0 3.75,20 z"
     id="path7416"
     inkscape:connector-curvature="0"
     style="font-size:0.75px;stroke:none" />
  <path
     d="m 889.13951,242.68 -53.165,53.165"
     id="path7420"
     inkscape:connector-curvature="0"
     style="font-size:0.75px;fill:none;stroke-width:1" />
  <path
     d="m 838.62451,298.5 -5.305,-5.305 -11.49,16.795 z"
     id="path7422"
     inkscape:connector-curvature="0"
     style="font-size:0.75px;stroke:none" />
  <text
     x="912.64734"
     xml:space="preserve"
     y="333.513"
     id="text7426"
     style="font-size:25px;stroke:none">(t0,t4)</text>
  <path
     d="m 1000.9695,333.425 q -1.82999,1.555 -3.52499,2.195 -1.695,0.64 -3.635,0.64 -3.205,0 -4.925,-1.565 -1.72,-1.565 -1.72,-4 0,-1.43 0.65,-2.61 0.65,-1.18 1.7,-1.895 1.055,-0.715 2.375,-1.08 0.97,-0.255 2.93,-0.495 3.99,-0.475 5.87499,-1.135 0.02,-0.675 0.02,-0.86 0,-2.015 -0.93499,-2.84 -1.265,-1.115 -3.755,-1.115 -2.325,0 -3.43,0.815 -1.11,0.815 -1.64,2.885 l -3.225,-0.44 q 0.44,-2.07 1.45,-3.345 1.005,-1.27 2.91,-1.955 1.905,-0.69 4.415,-0.69 2.49,0 4.04499,0.585 1.555,0.59 2.285,1.475 0.735,0.89 1.03,2.245 0.165,0.84 0.165,3.04 l 0,4.395 q 0,4.595 0.21,5.81 0.21,1.22 0.83,2.335 l -3.44,0 q -0.515,-1.025 -0.66,-2.395 z m -0.275,-7.365 q -1.79499,0.735 -5.38499,1.245 -2.03,0.295 -2.875,0.66 -0.84,0.365 -1.3,1.075 -0.455,0.705 -0.455,1.565 0,1.315 0.995,2.195 1,0.88 2.925,0.88 1.905,0 3.385,-0.835 1.485,-0.83 2.17999,-2.28 0.53,-1.115 0.53,-3.295 l 0,-1.21 z m 15.365,5.42 0,-7.36 -7.31,0 0,-3.075 7.31,0 0,-7.305 3.11,0 0,7.305 7.305,0 0,3.075 -7.305,0 0,7.36 -3.11,0 z"
     id="path7428"
     inkscape:connector-curvature="0"
     style="font-size:0.5px;fill:#0000b2;stroke:none" />
  <text
     x="748.37708"
     xml:space="preserve"
     y="432.97006"
     id="text7432"
     style="font-size:25px;stroke:none">q4</text>
  <circle
     cx="0"
     cy="0"
     r="0.44999999"
     id="circle7434"
     d="M 0.44999999,0 C 0.44999999,0.24852813 0.24852813,0.44999999 0,0.44999999 -0.24852813,0.44999999 -0.44999999,0.24852813 -0.44999999,0 c 0,-0.24852813 0.20147186,-0.44999999 0.44999999,-0.44999999 0.24852813,0 0.44999999,0.20147186 0.44999999,0.44999999 z"
     sodipodi:cx="0"
     sodipodi:cy="0"
     sodipodi:rx="0.44999999"
     sodipodi:ry="0.44999999"
     style="font-size:0.5px;fill:#ffffff;stroke:none"
     transform="matrix(50,0,0,50,806.81951,425)" />
  <circle
     cx="0"
     cy="0"
     r="0.44999999"
     id="circle7436"
     d="M 0.44999999,0 C 0.44999999,0.24852813 0.24852813,0.44999999 0,0.44999999 -0.24852813,0.44999999 -0.44999999,0.24852813 -0.44999999,0 c 0,-0.24852813 0.20147186,-0.44999999 0.44999999,-0.44999999 0.24852813,0 0.44999999,0.20147186 0.44999999,0.44999999 z"
     sodipodi:cx="0"
     sodipodi:cy="0"
     sodipodi:rx="0.44999999"
     sodipodi:ry="0.44999999"
     style="font-size:0.5px;fill:none;stroke-width:0.1"
     transform="matrix(50,0,0,50,806.81951,425)" />
  <text
     x="848.37708"
     xml:space="preserve"
     y="432.97006"
     id="text7440"
     style="font-size:25px;stroke:none">p2</text>
  <circle
     cx="0"
     cy="0"
     r="0.44999999"
     id="circle7442"
     d="M 0.44999999,0 C 0.44999999,0.24852813 0.24852813,0.44999999 0,0.44999999 -0.24852813,0.44999999 -0.44999999,0.24852813 -0.44999999,0 c 0,-0.24852813 0.20147186,-0.44999999 0.44999999,-0.44999999 0.24852813,0 0.44999999,0.20147186 0.44999999,0.44999999 z"
     sodipodi:cx="0"
     sodipodi:cy="0"
     sodipodi:rx="0.44999999"
     sodipodi:ry="0.44999999"
     style="font-size:0.5px;fill:#ffffff;stroke:none"
     transform="matrix(50,0,0,50,906.81951,425)" />
  <circle
     cx="0"
     cy="0"
     r="0.44999999"
     id="circle7444"
     d="M 0.44999999,0 C 0.44999999,0.24852813 0.24852813,0.44999999 0,0.44999999 -0.24852813,0.44999999 -0.44999999,0.24852813 -0.44999999,0 c 0,-0.24852813 0.20147186,-0.44999999 0.44999999,-0.44999999 0.24852813,0 0.44999999,0.20147186 0.44999999,0.44999999 z"
     sodipodi:cx="0"
     sodipodi:cy="0"
     sodipodi:rx="0.44999999"
     sodipodi:ry="0.44999999"
     style="font-size:0.5px;fill:none;stroke-width:0.1"
     transform="matrix(50,0,0,50,906.81951,425)" />
  <text
     x="948.37708"
     xml:space="preserve"
     y="432.97006"
     id="text7448"
     style="font-size:25px;stroke:none">q6</text>
  <circle
     cx="0"
     cy="0"
     r="0.44999999"
     id="circle7450"
     d="M 0.44999999,0 C 0.44999999,0.24852813 0.24852813,0.44999999 0,0.44999999 -0.24852813,0.44999999 -0.44999999,0.24852813 -0.44999999,0 c 0,-0.24852813 0.20147186,-0.44999999 0.44999999,-0.44999999 0.24852813,0 0.44999999,0.20147186 0.44999999,0.44999999 z"
     sodipodi:cx="0"
     sodipodi:cy="0"
     sodipodi:rx="0.44999999"
     sodipodi:ry="0.44999999"
     style="font-size:0.5px;fill:#ffffff;stroke:none"
     transform="matrix(50,0,0,50,1006.8195,425)" />
  <circle
     cx="0"
     cy="0"
     r="0.44999999"
     id="circle7452"
     d="M 0.44999999,0 C 0.44999999,0.24852813 0.24852813,0.44999999 0,0.44999999 -0.24852813,0.44999999 -0.44999999,0.24852813 -0.44999999,0 c 0,-0.24852813 0.20147186,-0.44999999 0.44999999,-0.44999999 0.24852813,0 0.44999999,0.20147186 0.44999999,0.44999999 z"
     sodipodi:cx="0"
     sodipodi:cy="0"
     sodipodi:rx="0.44999999"
     sodipodi:ry="0.44999999"
     style="font-size:0.5px;fill:none;stroke-width:0.1"
     transform="matrix(50,0,0,50,1006.8195,425)" />
  <text
     x="1048.3771"
     xml:space="preserve"
     y="432.97006"
     id="text7456"
     style="font-size:25px;stroke:none">q7</text>
  <circle
     cx="0"
     cy="0"
     r="0.44999999"
     id="circle7458"
     d="M 0.44999999,0 C 0.44999999,0.24852813 0.24852813,0.44999999 0,0.44999999 -0.24852813,0.44999999 -0.44999999,0.24852813 -0.44999999,0 c 0,-0.24852813 0.20147186,-0.44999999 0.44999999,-0.44999999 0.24852813,0 0.44999999,0.20147186 0.44999999,0.44999999 z"
     sodipodi:cx="0"
     sodipodi:cy="0"
     sodipodi:rx="0.44999999"
     sodipodi:ry="0.44999999"
     style="font-size:0.5px;fill:#ffffff;stroke:none"
     transform="matrix(50,0,0,50,1106.8195,425)" />
  <circle
     cx="0"
     cy="0"
     r="0.44999999"
     id="circle7460"
     d="M 0.44999999,0 C 0.44999999,0.24852813 0.24852813,0.44999999 0,0.44999999 -0.24852813,0.44999999 -0.44999999,0.24852813 -0.44999999,0 c 0,-0.24852813 0.20147186,-0.44999999 0.44999999,-0.44999999 0.24852813,0 0.44999999,0.20147186 0.44999999,0.44999999 z"
     sodipodi:cx="0"
     sodipodi:cy="0"
     sodipodi:rx="0.44999999"
     sodipodi:ry="0.44999999"
     style="font-size:0.5px;fill:none;stroke-width:0.1"
     transform="matrix(50,0,0,50,1106.8195,425)" />
  <path
     d="m 991.80951,340.01 -53.17,53.17"
     id="path7464"
     inkscape:connector-curvature="0"
     style="font-size:0.5px;fill:none;stroke-width:1" />
  <path
     d="m 941.28951,395.83 -5.3,-5.3 -11.49,16.79 z"
     id="path7466"
     inkscape:connector-curvature="0"
     style="font-size:0.5px;stroke:none" />
  <path
     d="m 1006.8195,340.01 0,39.99"
     id="path7470"
     inkscape:connector-curvature="0"
     style="font-size:0.5px;fill:none;stroke-width:1" />
  <path
     d="m 1010.5695,380 -7.5,0 3.75,20 z"
     id="path7472"
     inkscape:connector-curvature="0"
     style="font-size:0.5px;stroke:none" />
  <path
     d="m 1021.8295,340.01 53.17,53.17"
     id="path7476"
     inkscape:connector-curvature="0"
     style="font-size:0.5px;fill:none;stroke-width:1" />
  <path
     d="m 1077.6495,390.53 -5.3,5.3 16.79,11.49 z"
     id="path7478"
     inkscape:connector-curvature="0"
     style="font-size:0.5px;stroke:none" />
  <path
     d="m 806.81951,340.01 0,39.99"
     id="path7482"
     inkscape:connector-curvature="0"
     style="font-size:0.5px;fill:none;stroke-width:1" />
  <path
     d="m 810.56951,380 -7.5,0 3.75,20 z"
     id="path7484"
     inkscape:connector-curvature="0"
     style="font-size:0.5px;stroke:none" />
  <path
     d="m 821.82951,340.01 53.17,53.17"
     id="path7488"
     inkscape:connector-curvature="0"
     style="font-size:0.5px;fill:none;stroke-width:1" />
  <path
     d="m 877.64951,390.53 -5.3,5.3 16.79,11.49 z"
     id="path7490"
     inkscape:connector-curvature="0"
     style="font-size:0.5px;stroke:none" />
  <path
     d="m 924.49951,242.68 53.165,53.165"
     id="path7494"
     inkscape:connector-curvature="0"
     style="font-size:0.5px;fill:none;stroke-width:1" />
  <path
     d="m 980.31951,293.195 -5.305,5.305 16.795,11.49 z"
     id="path7496"
     inkscape:connector-curvature="0"
     style="font-size:0.5px;stroke:none" />
  <path
     d="m 1006.8195,250 0,39.99"
     id="path7500"
     inkscape:connector-curvature="0"
     style="font-size:0.5px;fill:none;stroke-width:1" />
  <path
     d="m 1010.5695,289.99 -7.5,0 3.75,20 z"
     id="path7502"
     inkscape:connector-curvature="0"
     style="font-size:0.5px;stroke:none" />
  <text
     xml:space="preserve"
     style="font-size:40px;font-style:normal;font-weight:normal;line-height:125%;letter-spacing:0px;word-spacing:0px;fill:#000000;fill-opacity:1;stroke:none;font-family:Bitstream Vera Sans"
     x="124.99556"
     y="255.18286"
     id="text8774"
     sodipodi:linespacing="125%"><tspan
       sodipodi:role="line"
       id="tspan8776"
       x="124.99556"
       y="255.18286"
       style="font-size:80px">||</tspan></text>
  <text
     xml:space="preserve"
     style="font-size:40px;font-style:normal;font-weight:normal;line-height:125%;letter-spacing:0px;word-spacing:0px;fill:#000000;fill-opacity:1;stroke:none;font-family:Bitstream Vera Sans"
     x="569.26483"
     y="255.18286"
     id="text8774-1"
     sodipodi:linespacing="125%"><tspan
       sodipodi:role="line"
       id="tspan8776-7"
       x="569.26483"
       y="255.18286"
       style="font-size:80px">=</tspan></text>
</svg>
