<?xml version="1.0" encoding="UTF-8" standalone="no"?>
<svg
   xmlns:dc="http://purl.org/dc/elements/1.1/"
   xmlns:cc="http://creativecommons.org/ns#"
   xmlns:rdf="http://www.w3.org/1999/02/22-rdf-syntax-ns#"
   xmlns:svg="http://www.w3.org/2000/svg"
   xmlns="http://www.w3.org/2000/svg"
   xmlns:sodipodi="http://sodipodi.sourceforge.net/DTD/sodipodi-0.dtd"
   xmlns:inkscape="http://www.inkscape.org/namespaces/inkscape"
   color-interpolation="auto"
   color-rendering="auto"
   font-size="12"
   font-style="normal"
   font-weight="normal"
   height="885.15997"
   image-rendering="auto"
   shape-rendering="auto"
   stroke-miterlimit="10"
   text-rendering="auto"
   width="370.76236"
   id="svg5635"
   version="1.1"
   inkscape:version="0.48.0 r9654"
   sodipodi:docname="simple_improved.svg"
   style="font-size:12px;font-style:normal;font-weight:normal;fill:#000000;fill-opacity:1;stroke:#000000;stroke-width:1;stroke-linecap:square;stroke-linejoin:miter;stroke-miterlimit:10;stroke-opacity:1;stroke-dasharray:none;stroke-dashoffset:0;font-family:Dialog">
  <metadata
     id="metadata5862">
    <rdf:RDF>
      <cc:Work
         rdf:about="">
        <dc:format>image/svg+xml</dc:format>
        <dc:type
           rdf:resource="http://purl.org/dc/dcmitype/StillImage" />
      </cc:Work>
    </rdf:RDF>
  </metadata>
  <sodipodi:namedview
     pagecolor="#ffffff"
     bordercolor="#666666"
     borderopacity="1"
     objecttolerance="10"
     gridtolerance="10"
     guidetolerance="10"
     inkscape:pageopacity="0"
     inkscape:pageshadow="2"
     inkscape:window-width="708"
     inkscape:window-height="480"
     id="namedview5860"
     showgrid="false"
     fit-margin-top="0"
     fit-margin-left="0"
     fit-margin-right="0"
     fit-margin-bottom="0"
     inkscape:zoom="0.30826271"
     inkscape:cx="35.610096"
     inkscape:cy="456.81455"
     inkscape:window-x="166"
     inkscape:window-y="63"
     inkscape:window-maximized="0"
     inkscape:current-layer="svg5635" />
  <!--Generated by the Batik Graphics2D SVG Generator-->
  <defs
     id="genericDefs" />
  <text
     x="160.30763"
     xml:space="preserve"
     y="536.44501"
     id="text5642"
     style="font-size:25px;stroke:none" />
  <circle
     cx="0"
     cy="0"
     r="0.44999999"
     id="circle5646"
     d="M 0.44999999,0 C 0.44999999,0.24852813 0.24852813,0.44999999 0,0.44999999 -0.24852813,0.44999999 -0.44999999,0.24852813 -0.44999999,0 c 0,-0.24852813 0.20147186,-0.44999999 0.44999999,-0.44999999 0.24852813,0 0.44999999,0.20147186 0.44999999,0.44999999 z"
     sodipodi:cx="0"
     sodipodi:cy="0"
     sodipodi:rx="0.44999999"
     sodipodi:ry="0.44999999"
     style="font-size:0.5px;fill:#ffffff;stroke:none"
     transform="matrix(50,0,0,50,160.30764,475)" />
  <circle
     cx="0"
     cy="0"
     r="0.44999999"
     id="circle5648"
     d="M 0.44999999,0 C 0.44999999,0.24852813 0.24852813,0.44999999 0,0.44999999 -0.24852813,0.44999999 -0.44999999,0.24852813 -0.44999999,0 c 0,-0.24852813 0.20147186,-0.44999999 0.44999999,-0.44999999 0.24852813,0 0.44999999,0.20147186 0.44999999,0.44999999 z"
     sodipodi:cx="0"
     sodipodi:cy="0"
     sodipodi:rx="0.44999999"
     sodipodi:ry="0.44999999"
     style="font-size:0.5px;fill:none;stroke:#000000;stroke-width:0.1"
     transform="matrix(50,0,0,50,160.30764,475)" />
  <text
     x="260.30765"
     xml:space="preserve"
     y="578.61499"
     id="text5652"
     style="font-size:25px;stroke:none" />
  <path
     d="m 251.72764,515.37 0,-3.79 3.295,0 0,3.79 -3.295,0 z m 0,23.05 0,-19.445 3.295,0 0,19.445 -3.295,0 z m 7.03,-8.055 0,-3.315 10.13,0 0,3.315 -10.13,0 z"
     id="path5654"
     inkscape:connector-curvature="0"
     style="font-size:0.5px;fill:#b20000;stroke:none" />
  <text
     x="60.307644"
     xml:space="preserve"
     y="578.61499"
     id="text5658"
     style="font-size:25px;stroke:none" />
  <path
     d="m 51.727644,515.37 0,-3.79 3.295,0 0,3.79 -3.295,0 z m 0,23.05 0,-19.445 3.295,0 0,19.445 -3.295,0 z m 7.03,-8.055 0,-3.315 10.13,0 0,3.315 -10.13,0 z"
     id="path5660"
     inkscape:connector-curvature="0"
     style="font-size:0.5px;fill:#b20000;stroke:none" />
  <text
     x="160.30763"
     xml:space="preserve"
     y="86.445"
     id="text5664"
     style="font-size:25px;stroke:none" />
  <circle
     cx="0"
     cy="0"
     r="0.44999999"
     id="circle5666"
     d="M 0.44999999,0 C 0.44999999,0.24852813 0.24852813,0.44999999 0,0.44999999 -0.24852813,0.44999999 -0.44999999,0.24852813 -0.44999999,0 c 0,-0.24852813 0.20147186,-0.44999999 0.44999999,-0.44999999 0.24852813,0 0.44999999,0.20147186 0.44999999,0.44999999 z"
     sodipodi:cx="0"
     sodipodi:cy="0"
     sodipodi:rx="0.44999999"
     sodipodi:ry="0.44999999"
     style="font-size:0.5px;fill:#ffffff;stroke:none"
     transform="matrix(50,0,0,50,160.30764,24.999999)" />
  <circle
     cx="0"
     cy="0"
     r="0.44999999"
     id="circle5668"
     d="M 0.44999999,0 C 0.44999999,0.24852813 0.24852813,0.44999999 0,0.44999999 -0.24852813,0.44999999 -0.44999999,0.24852813 -0.44999999,0 c 0,-0.24852813 0.20147186,-0.44999999 0.44999999,-0.44999999 0.24852813,0 0.44999999,0.20147186 0.44999999,0.44999999 z"
     sodipodi:cx="0"
     sodipodi:cy="0"
     sodipodi:rx="0.44999999"
     sodipodi:ry="0.44999999"
     style="font-size:0.5px;fill:none;stroke-width:0.1"
     transform="matrix(50,0,0,50,160.30764,24.999999)" />
  <circle
     cx="0"
     cy="0"
     r="0.26320001"
     id="circle5670"
     d="M 0.26320001,0 C 0.26320001,0.14536135 0.14536135,0.26320001 0,0.26320001 -0.14536135,0.26320001 -0.26320001,0.14536135 -0.26320001,0 c 0,-0.14536135 0.11783866,-0.26320001 0.26320001,-0.26320001 0.14536135,0 0.26320001,0.11783866 0.26320001,0.26320001 z"
     sodipodi:cx="0"
     sodipodi:cy="0"
     sodipodi:rx="0.26320001"
     sodipodi:ry="0.26320001"
     style="font-size:0.5px;stroke:none"
     transform="matrix(50,0,0,50,160.30764,24.999999)" />
  <text
     x="260.30765"
     xml:space="preserve"
     y="178.61499"
     id="text5674"
     style="font-size:25px;stroke:none" />
  <path
     d="m 247.48264,115.37 0,-3.79 3.295,0 0,3.79 -3.295,0 z m 0,23.05 0,-19.445 3.295,0 0,19.445 -3.295,0 z m 15.23,-4.34 0,-7.36 -7.305,0 0,-3.075 7.305,0 0,-7.305 3.115,0 0,7.305 7.305,0 0,3.075 -7.305,0 0,7.36 -3.115,0 z"
     id="path5676"
     inkscape:connector-curvature="0"
     style="font-size:0.5px;fill:#b20000;stroke:none" />
  <text
     x="60.307644"
     xml:space="preserve"
     y="178.61499"
     id="text5680"
     style="font-size:25px;stroke:none" />
  <path
     d="m 47.482644,115.37 0,-3.79 3.295,0 0,3.79 -3.295,0 z m 0,23.05 0,-19.445 3.295,0 0,19.445 -3.295,0 z m 15.23,-4.34 0,-7.36 -7.305,0 0,-3.075 7.305,0 0,-7.305 3.115,0 0,7.305 7.305,0 0,3.075 -7.305,0 0,7.36 -3.115,0 z"
     id="path5682"
     inkscape:connector-curvature="0"
     style="font-size:0.5px;fill:#b20000;stroke:none" />
  <text
     x="160.30763"
     xml:space="preserve"
     y="336.44501"
     id="text5686"
     style="font-size:25px;stroke:none" />
  <circle
     cx="0"
     cy="0"
     r="0.44999999"
     id="circle5688"
     d="M 0.44999999,0 C 0.44999999,0.24852813 0.24852813,0.44999999 0,0.44999999 -0.24852813,0.44999999 -0.44999999,0.24852813 -0.44999999,0 c 0,-0.24852813 0.20147186,-0.44999999 0.44999999,-0.44999999 0.24852813,0 0.44999999,0.20147186 0.44999999,0.44999999 z"
     sodipodi:cx="0"
     sodipodi:cy="0"
     sodipodi:rx="0.44999999"
     sodipodi:ry="0.44999999"
     style="font-size:0.5px;fill:#ffffff;stroke:none"
     transform="matrix(50,0,0,50,160.30764,275)" />
  <circle
     cx="0"
     cy="0"
     r="0.44999999"
     id="circle5690"
     d="M 0.44999999,0 C 0.44999999,0.24852813 0.24852813,0.44999999 0,0.44999999 -0.24852813,0.44999999 -0.44999999,0.24852813 -0.44999999,0 c 0,-0.24852813 0.20147186,-0.44999999 0.44999999,-0.44999999 0.24852813,0 0.44999999,0.20147186 0.44999999,0.44999999 z"
     sodipodi:cx="0"
     sodipodi:cy="0"
     sodipodi:rx="0.44999999"
     sodipodi:ry="0.44999999"
     style="font-size:0.5px;fill:none;stroke-width:0.1"
     transform="matrix(50,0,0,50,160.30764,275)" />
  <text
     x="160.30763"
     xml:space="preserve"
     y="836.44501"
     id="text5694"
     style="font-size:25px;stroke:none" />
  <circle
     cx="0"
     cy="0"
     r="0.44999999"
     id="circle5696"
     d="M 0.44999999,0 C 0.44999999,0.24852813 0.24852813,0.44999999 0,0.44999999 -0.24852813,0.44999999 -0.44999999,0.24852813 -0.44999999,0 c 0,-0.24852813 0.20147186,-0.44999999 0.44999999,-0.44999999 0.24852813,0 0.44999999,0.20147186 0.44999999,0.44999999 z"
     sodipodi:cx="0"
     sodipodi:cy="0"
     sodipodi:rx="0.44999999"
     sodipodi:ry="0.44999999"
     style="font-size:0.5px;fill:#ffffff;stroke:none"
     transform="matrix(50,0,0,50,160.30764,775)" />
  <circle
     cx="0"
     cy="0"
     r="0.44999999"
     id="circle5698"
     d="M 0.44999999,0 C 0.44999999,0.24852813 0.24852813,0.44999999 0,0.44999999 -0.24852813,0.44999999 -0.44999999,0.24852813 -0.44999999,0 c 0,-0.24852813 0.20147186,-0.44999999 0.44999999,-0.44999999 0.24852813,0 0.44999999,0.20147186 0.44999999,0.44999999 z"
     sodipodi:cx="0"
     sodipodi:cy="0"
     sodipodi:rx="0.44999999"
     sodipodi:ry="0.44999999"
     style="font-size:0.5px;fill:none;stroke-width:0.1"
     transform="matrix(50,0,0,50,160.30764,775)" />
  <text
     x="260.30765"
     xml:space="preserve"
     y="278.83499"
     id="text5702"
     style="font-size:25px;stroke:none" />
  <path
     d="m 244.25764,238.2 -3.055,0 0,-26.84 3.295,0 0,9.575 q 2.085,-2.62 5.325,-2.62 1.795,0 3.4,0.725 1.6,0.725 2.635,2.03 1.035,1.31 1.62,3.16 0.585,1.85 0.585,3.955 0,5 -2.47,7.73 -2.47,2.725 -5.93,2.725 -3.445,0 -5.405,-2.875 l 0,2.435 z m -0.035,-9.87 q 0,3.5 0.95,5.055 1.56,2.545 4.215,2.545 2.16,0 3.735,-1.875 1.575,-1.88 1.575,-5.595 0,-3.81 -1.515,-5.62 -1.51,-1.815 -3.65,-1.815 -2.16,0 -3.735,1.88 -1.575,1.875 -1.575,5.425 z m 24.775,5.53 0,-7.36 -7.305,0 0,-3.075 7.305,0 0,-7.305 3.11,0 0,7.305 7.305,0 0,3.075 -7.305,0 0,7.36 -3.11,0 z"
     id="path5704"
     inkscape:connector-curvature="0"
     style="font-size:0.50000000000000000px;stroke:none;fill:#0000b2;fill-opacity:1" />
  <text
     x="260.30765"
     xml:space="preserve"
     y="678.83502"
     id="text5708"
     style="font-size:25px;stroke:none" />
  <path
     d="m 248.50764,638.2 -3.06,0 0,-26.84 3.295,0 0,9.575 q 2.09,-2.62 5.33,-2.62 1.795,0 3.395,0.725 1.605,0.725 2.64,2.03 1.035,1.31 1.62,3.16 0.585,1.85 0.585,3.955 0,5 -2.47,7.73 -2.475,2.725 -5.935,2.725 -3.44,0 -5.4,-2.875 l 0,2.435 z m -0.04,-9.87 q 0,3.5 0.955,5.055 1.555,2.545 4.21,2.545 2.16,0 3.735,-1.875 1.575,-1.88 1.575,-5.595 0,-3.81 -1.51,-5.62 -1.51,-1.815 -3.65,-1.815 -2.165,0 -3.74,1.88 -1.575,1.875 -1.575,5.425 z m 16.575,1.815 0,-3.315 10.125,0 0,3.315 -10.125,0 z"
     id="path5710"
     inkscape:connector-curvature="0"
     style="font-size:0.50000000000000000px;stroke:none;fill:#0000b2;fill-opacity:1" />
  <text
     x="60.307644"
     xml:space="preserve"
     y="276.45499"
     id="text5714"
     style="font-size:25px;stroke:none" />
  <path
     d="m 54.457644,233.425 q -1.83,1.555 -3.525,2.195 -1.695,0.64 -3.635,0.64 -3.205,0 -4.925,-1.565 -1.72,-1.565 -1.72,-4 0,-1.43 0.65,-2.61 0.65,-1.18 1.7,-1.895 1.055,-0.715 2.375,-1.08 0.97,-0.255 2.93,-0.495 3.99,-0.475 5.875,-1.135 0.02,-0.675 0.02,-0.86 0,-2.015 -0.935,-2.84 -1.265,-1.115 -3.755,-1.115 -2.325,0 -3.43,0.815 -1.11,0.815 -1.64,2.885 l -3.225,-0.44 q 0.44,-2.07 1.45,-3.345 1.005,-1.27 2.91,-1.955 1.905,-0.69 4.415,-0.69 2.49,0 4.045,0.585 1.555,0.59 2.285,1.475 0.735,0.89 1.03,2.245 0.165,0.84 0.165,3.04 l 0,4.395 q 0,4.595 0.21,5.81 0.21,1.22 0.83,2.335 l -3.44,0 q -0.515,-1.025 -0.66,-2.395 z m -0.275,-7.365 q -1.795,0.735 -5.385,1.245 -2.03,0.295 -2.875,0.66 -0.84,0.365 -1.3,1.075 -0.455,0.705 -0.455,1.565 0,1.315 0.995,2.195 1,0.88 2.925,0.88 1.905,0 3.385,-0.835 1.485,-0.83 2.18,-2.28 0.53,-1.115 0.53,-3.295 l 0,-1.21 z m 15.365,5.42 0,-7.36 -7.31,0 0,-3.075 7.31,0 0,-7.305 3.11,0 0,7.305 7.305,0 0,3.075 -7.305,0 0,7.36 -3.11,0 z"
     id="path5716"
     inkscape:connector-curvature="0"
     style="font-size:0.50000000000000000px;stroke:none;fill:#0000b2;fill-opacity:1" />
  <text
     x="60.307644"
     xml:space="preserve"
     y="675.35999"
     id="text5720"
     style="font-size:25px;stroke:none" />
  <path
     d="m 58.707644,632.325 q -1.835,1.555 -3.525,2.195 -1.695,0.64 -3.635,0.64 -3.205,0 -4.925,-1.565 -1.725,-1.565 -1.725,-4 0,-1.43 0.65,-2.61 0.65,-1.18 1.705,-1.895 1.055,-0.715 2.37,-1.08 0.97,-0.255 2.93,-0.495 3.995,-0.475 5.88,-1.135 0.015,-0.675 0.015,-0.86 0,-2.015 -0.93,-2.835 -1.265,-1.12 -3.755,-1.12 -2.325,0 -3.435,0.815 -1.105,0.815 -1.64,2.885 l -3.22,-0.44 q 0.44,-2.07 1.445,-3.34 1.01,-1.275 2.915,-1.96 1.9,-0.685 4.41,-0.685 2.49,0 4.045,0.585 1.56,0.585 2.29,1.47 0.735,0.89 1.025,2.245 0.165,0.845 0.165,3.04 l 0,4.395 q 0,4.595 0.21,5.815 0.21,1.215 0.835,2.335 l -3.445,0 q -0.51,-1.03 -0.655,-2.4 z m -0.275,-7.36 q -1.795,0.73 -5.385,1.245 -2.03,0.29 -2.875,0.66 -0.84,0.365 -1.3,1.07 -0.46,0.705 -0.46,1.565 0,1.32 1,2.195 1,0.88 2.92,0.88 1.905,0 3.39,-0.835 1.48,-0.83 2.175,-2.28 0.535,-1.115 0.535,-3.295 l 0,-1.205 z m 7.16,1.7 0,-3.315 10.125,0 0,3.315 -10.125,0 z"
     id="path5722"
     inkscape:connector-curvature="0"
     style="font-size:0.50000000000000000px;stroke:none;fill:#0000b2;fill-opacity:1" />
  <path
     d="m 137.94764,486.18 -47.425,23.71"
     id="path5726"
     inkscape:connector-curvature="0"
     style="font-size:0.75px;fill:none;stroke-width:1" />
  <path
     d="m 92.20264,513.245 -3.355,-6.705 -16.21,12.295 z"
     id="path5728"
     inkscape:connector-curvature="0"
     style="font-size:0.75px;stroke:none" />
  <path
     d="m 182.66764,486.18 47.425,23.71"
     id="path5732"
     inkscape:connector-curvature="0"
     style="font-size:0.75px;fill:none;stroke-width:1" />
  <path
     d="m 231.76764,506.54 -3.355,6.705 19.565,5.59 z"
     id="path5734"
     inkscape:connector-curvature="0"
     style="font-size:0.75px;stroke:none" />
  <path
     d="m 237.45264,236.43 -36.895,18.445"
     id="path5738"
     inkscape:connector-curvature="0"
     style="font-size:0.75px;fill:none;stroke-width:1" />
  <path
     d="m 202.23264,258.23 -3.355,-6.71 -16.21,12.3 z"
     id="path5740"
     inkscape:connector-curvature="0"
     style="font-size:0.75px;stroke:none" />
  <path
     d="m 83.71264,236.705 36.345,18.17"
     id="path5744"
     inkscape:connector-curvature="0"
     style="font-size:0.75px;fill:none;stroke-width:1" />
  <path
     d="m 121.73764,251.52 -3.355,6.71 19.565,5.59 z"
     id="path5746"
     inkscape:connector-curvature="0"
     style="font-size:0.75px;stroke:none" />
  <path
     d="m 69.58264,638.91 65.765,98.65"
     id="path5750"
     inkscape:connector-curvature="0"
     style="font-size:0.75px;fill:none;stroke-width:1" />
  <path
     d="m 138.46764,735.48 -6.24,4.16 14.215,14.56 z"
     id="path5752"
     inkscape:connector-curvature="0"
     style="font-size:0.75px;stroke:none" />
  <path
     d="m 248.71264,642.39 -63.445,95.17"
     id="path5756"
     inkscape:connector-curvature="0"
     style="font-size:0.75px;fill:none;stroke-width:1" />
  <path
     d="m 188.38764,739.64 -6.24,-4.16 -7.975,18.72 z"
     id="path5758"
     inkscape:connector-curvature="0"
     style="font-size:0.75px;stroke:none" />
  <path
     d="m 142.62764,42.68 -51.6,51.6"
     id="path5762"
     inkscape:connector-curvature="0"
     style="font-size:0.75px;fill:none;stroke-width:1" />
  <path
     d="m 93.67764,96.935 -5.305,-5.305 -11.49,16.795 z"
     id="path5764"
     inkscape:connector-curvature="0"
     style="font-size:0.75px;stroke:none" />
  <path
     d="m 177.98764,42.68 51.6,51.6"
     id="path5768"
     inkscape:connector-curvature="0"
     style="font-size:0.75px;fill:none;stroke-width:1" />
  <path
     d="m 232.24264,91.63 -5.305,5.305 16.795,11.49 z"
     id="path5770"
     inkscape:connector-curvature="0"
     style="font-size:0.75px;stroke:none" />
  <path
     d="m 260.30764,242.39 0,245.44"
     id="path5774"
     inkscape:connector-curvature="0"
     style="font-size:0.75px;fill:none;stroke-width:1" />
  <path
     d="m 264.05764,487.83 -7.5,0 3.75,20 z"
     id="path5776"
     inkscape:connector-curvature="0"
     style="font-size:0.75px;stroke:none" />
  <path
     d="m 242.16264,642.39 c -266.25,243.83 -279.155,-260.045 -197.17,-481.635"
     id="path5780"
     inkscape:connector-curvature="0"
     style="font-size:0.75px;fill:none;stroke-width:1" />
  <path
     d="m 41.50764,159.37 6.97,2.77 3.9,-19.97 z"
     id="path5782"
     inkscape:connector-curvature="0"
     style="font-size:0.75px;stroke:none" />
  <path
     d="m 60.30764,240.01 0,247.82"
     id="path5786"
     inkscape:connector-curvature="0"
     style="font-size:0.75px;fill:none;stroke-width:1" />
  <path
     d="m 64.05764,487.83 -7.5,0 3.75,20 z"
     id="path5788"
     inkscape:connector-curvature="0"
     style="font-size:0.75px;stroke:none" />
  <circle
     cx="0"
     cy="0"
     r="0.2105"
     id="circle5792"
     d="m 0.2105,0 c 0,0.11625594 -0.0942441,0.2105 -0.2105,0.2105 -0.11625594,0 -0.2105,-0.0942441 -0.2105,-0.2105 0,-0.11625594 0.0942441,-0.2105 0.2105,-0.2105 0.11625594,0 0.2105,0.0942441 0.2105,0.2105 z"
     sodipodi:cx="0"
     sodipodi:cy="0"
     sodipodi:rx="0.2105"
     sodipodi:ry="0.2105"
     style="font-size:0.75px;stroke:none"
     transform="matrix(50,0,0,50,310.30764,562.5)" />
  <path
     d="m 74.68764,638.91 c 269.89,252.04 283.305,-255.53 200.935,-478.155"
     id="path5796"
     inkscape:connector-curvature="0"
     style="font-size:0.75px;fill:none;stroke-width:1" />
  <path
     d="m 272.13764,162.14 6.97,-2.77 -10.87,-17.2 z"
     id="path5798"
     inkscape:connector-curvature="0"
     style="font-size:0.75px;stroke:none" />
  <path
     d="m 260.30764,142.17 0,45.44"
     id="path5802"
     inkscape:connector-curvature="0"
     style="font-size:0.75px;fill:none;stroke-width:1" />
  <path
     d="m 264.05764,187.61 -7.5,0 3.75,20 z"
     id="path5804"
     inkscape:connector-curvature="0"
     style="font-size:0.75px;stroke:none" />
  <path
     d="m 60.30764,142.17 0,47.82"
     id="path5808"
     inkscape:connector-curvature="0"
     style="font-size:0.75px;fill:none;stroke-width:1" />
  <path
     d="m 64.05764,189.99 -7.5,0 3.75,20 z"
     id="path5810"
     inkscape:connector-curvature="0"
     style="font-size:0.75px;stroke:none" />
  <path
     d="m 260.30764,542.17 0,45.44"
     id="path5814"
     inkscape:connector-curvature="0"
     style="font-size:0.75px;fill:none;stroke-width:1" />
  <path
     d="m 264.05764,587.61 -7.5,0 3.75,20 z"
     id="path5816"
     inkscape:connector-curvature="0"
     style="font-size:0.75px;stroke:none" />
  <path
     d="m 60.30764,542.17 0,48.92"
     id="path5820"
     inkscape:connector-curvature="0"
     style="font-size:0.75px;fill:none;stroke-width:1" />
  <path
     d="m 64.05764,591.09 -7.5,0 3.75,20 z"
     id="path5822"
     inkscape:connector-curvature="0"
     style="font-size:0.75px;stroke:none" />
  <text
     x="160.30763"
     xml:space="preserve"
     y="925.35999"
     id="text5826"
     style="font-size:25px;stroke:none" />
  <path
     d="m 144.84264,875 q 0,-5.4 3.005,-8 2.51,-2.16 6.115,-2.16 4.01,0 6.555,2.625 2.545,2.625 2.545,7.26 0,3.755 -1.125,5.905 -1.125,2.15 -3.28,3.34 -2.15,1.19 -4.695,1.19 -4.085,0 -6.6,-2.615 -2.52,-2.62 -2.52,-7.545 z m 3.39,0 q 0,3.735 1.63,5.595 1.63,1.855 4.1,1.855 2.455,0 4.085,-1.865 1.63,-1.87 1.63,-5.695 0,-3.605 -1.64,-5.465 -1.64,-1.86 -4.075,-1.86 -2.47,0 -4.1,1.85 -1.63,1.85 -1.63,5.585 z m 17.41,1.665 0,-3.315 10.13,0 0,3.315 -10.13,0 z"
     id="path5828"
     inkscape:connector-curvature="0"
     style="font-size:0.5px;fill:#0000b2;stroke:none" />
  <text
     x="160.30763"
     xml:space="preserve"
     y="426.45499"
     id="text5832"
     style="font-size:25px;stroke:none" />
  <path
     d="m 140.59764,376.1 q 0,-5.405 3,-8.005 2.51,-2.16 6.12,-2.16 4.005,0 6.55,2.63 2.55,2.625 2.55,7.26 0,3.755 -1.13,5.905 -1.125,2.15 -3.275,3.34 -2.155,1.19 -4.695,1.19 -4.085,0 -6.605,-2.615 -2.515,-2.62 -2.515,-7.545 z m 3.385,0 q 0,3.735 1.63,5.595 1.63,1.855 4.105,1.855 2.45,0 4.08,-1.865 1.63,-1.87 1.63,-5.695 0,-3.61 -1.64,-5.465 -1.635,-1.86 -4.07,-1.86 -2.475,0 -4.105,1.85 -1.63,1.85 -1.63,5.585 z m 25.615,5.38 0,-7.36 -7.305,0 0,-3.075 7.305,0 0,-7.305 3.115,0 0,7.305 7.305,0 0,3.075 -7.305,0 0,7.36 -3.115,0 z"
     id="path5834"
     inkscape:connector-curvature="0"
     style="font-size:0.5px;fill:#0000b2;stroke:none" />
  <path
     d="m 160.30764,300 0,39.99"
     id="path5838"
     inkscape:connector-curvature="0"
     style="font-size:0.75px;fill:none;stroke-width:1" />
  <path
     d="m 164.05764,339.99 -7.5,0 3.75,20 z"
     id="path5840"
     inkscape:connector-curvature="0"
     style="font-size:0.75px;stroke:none" />
  <path
     d="m 160.30764,390.01 0,39.99"
     id="path5844"
     inkscape:connector-curvature="0"
     style="font-size:0.75px;fill:none;stroke-width:1" />
  <path
     d="m 164.05764,430 -7.5,0 3.75,20 z"
     id="path5846"
     inkscape:connector-curvature="0"
     style="font-size:0.75px;stroke:none" />
  <path
     d="m 160.30764,800 0,41.09"
     id="path5850"
     inkscape:connector-curvature="0"
     style="font-size:0.75px;fill:none;stroke-width:1" />
  <path
     d="m 164.05764,841.09 -7.5,0 3.75,20 z"
     id="path5852"
     inkscape:connector-curvature="0"
     style="font-size:0.75px;stroke:none" />
  <path
     d="m 179.52264,872.7 c 181.615,-43.485 307.985,-690.24 22.735,-831.535"
     id="path5856"
     inkscape:connector-curvature="0"
     style="font-size:0.75px;fill:none;stroke-width:1" />
  <path
     d="m 200.73264,44.59 3.045,-6.855 -19.8,-4.7 z"
     id="path5858"
     inkscape:connector-curvature="0"
     style="font-size:0.75px;stroke:none" />
</svg>
