<?xml version="1.0" encoding="UTF-8" standalone="no"?>
<svg
   xmlns:dc="http://purl.org/dc/elements/1.1/"
   xmlns:cc="http://creativecommons.org/ns#"
   xmlns:rdf="http://www.w3.org/1999/02/22-rdf-syntax-ns#"
   xmlns:svg="http://www.w3.org/2000/svg"
   xmlns="http://www.w3.org/2000/svg"
   xmlns:sodipodi="http://sodipodi.sourceforge.net/DTD/sodipodi-0.dtd"
   xmlns:inkscape="http://www.inkscape.org/namespaces/inkscape"
   color-interpolation="auto"
   color-rendering="auto"
   fill="black"
   fill-opacity="1"
   font-family="'Dialog'"
   font-size="12"
   font-style="normal"
   font-weight="normal"
   height="1189"
   image-rendering="auto"
   shape-rendering="auto"
   stroke="black"
   stroke-dasharray="none"
   stroke-dashoffset="0"
   stroke-linecap="square"
   stroke-linejoin="miter"
   stroke-miterlimit="10"
   stroke-opacity="1"
   stroke-width="1"
   text-rendering="auto"
   width="715"
   id="svg3790"
   version="1.1"
   inkscape:version="0.48.0 r9654"
   sodipodi:docname="simple_standard.eps">
  <metadata
     id="metadata4135">
    <rdf:RDF>
      <cc:Work
         rdf:about="">
        <dc:format>image/svg+xml</dc:format>
        <dc:type
           rdf:resource="http://purl.org/dc/dcmitype/StillImage" />
        <dc:title></dc:title>
      </cc:Work>
    </rdf:RDF>
  </metadata>
  <sodipodi:namedview
     pagecolor="#ffffff"
     bordercolor="#666666"
     borderopacity="1"
     objecttolerance="10"
     gridtolerance="10"
     guidetolerance="10"
     inkscape:pageopacity="0"
     inkscape:pageshadow="2"
     inkscape:window-width="1853"
     inkscape:window-height="1058"
     id="namedview4133"
     showgrid="false"
     inkscape:zoom="0.6922391"
     inkscape:cx="166.84821"
     inkscape:cy="600.93122"
     inkscape:window-x="59"
     inkscape:window-y="-8"
     inkscape:window-maximized="1"
     inkscape:current-layer="svg3790" />
  <!--Generated by the Batik Graphics2D SVG Generator-->
  <defs
     id="genericDefs" />
  <g
     style="font-size:0.5px"
     id="g3795"
     transform="matrix(50,0,0,50,370,270)"
     font-size="0.5">
    <text
       style="stroke:none"
       id="text3797"
       y="1.2289"
       xml:space="preserve"
       x="0" />
  </g>
  <g
     style="font-size:0.5px;fill:#ffffff;stroke:#ffffff"
     id="g3799"
     transform="matrix(50,0,0,50,370,270)"
     font-size="0.5">
    <circle
       style="stroke:none"
       sodipodi:ry="0.44999999"
       sodipodi:rx="0.44999999"
       sodipodi:cy="0"
       sodipodi:cx="0"
       d="M 0.44999999,0 C 0.44999999,0.24852813 0.24852813,0.44999999 0,0.44999999 -0.24852813,0.44999999 -0.44999999,0.24852813 -0.44999999,0 c 0,-0.24852813 0.20147186,-0.44999999 0.44999999,-0.44999999 0.24852813,0 0.44999999,0.20147186 0.44999999,0.44999999 z"
       id="circle3801"
       r="0.44999999"
       cy="0"
       cx="0" />
    <circle
       style="fill:none;stroke:#000000;stroke-width:0.1"
       sodipodi:ry="0.44999999"
       sodipodi:rx="0.44999999"
       sodipodi:cy="0"
       sodipodi:cx="0"
       d="M 0.44999999,0 C 0.44999999,0.24852813 0.24852813,0.44999999 0,0.44999999 -0.24852813,0.44999999 -0.44999999,0.24852813 -0.44999999,0 c 0,-0.24852813 0.20147186,-0.44999999 0.44999999,-0.44999999 0.24852813,0 0.44999999,0.20147186 0.44999999,0.44999999 z"
       id="circle3803"
       r="0.44999999"
       cy="0"
       cx="0" />
  </g>
  <g
     style="font-size:0.5px;stroke-width:0.1"
     id="g3805"
     transform="matrix(50,0,0,50,370,770)"
     font-size="0.5">
    <text
       style="stroke:none"
       id="text3807"
       y="1.2289"
       xml:space="preserve"
       x="0" />
    <circle
       style="fill:#ffffff;stroke:none"
       sodipodi:ry="0.44999999"
       sodipodi:rx="0.44999999"
       sodipodi:cy="0"
       sodipodi:cx="0"
       d="M 0.44999999,0 C 0.44999999,0.24852813 0.24852813,0.44999999 0,0.44999999 -0.24852813,0.44999999 -0.44999999,0.24852813 -0.44999999,0 c 0,-0.24852813 0.20147186,-0.44999999 0.44999999,-0.44999999 0.24852813,0 0.44999999,0.20147186 0.44999999,0.44999999 z"
       id="circle3809"
       r="0.44999999"
       cy="0"
       cx="0" />
    <circle
       style="fill:none"
       sodipodi:ry="0.44999999"
       sodipodi:rx="0.44999999"
       sodipodi:cy="0"
       sodipodi:cx="0"
       d="M 0.44999999,0 C 0.44999999,0.24852813 0.24852813,0.44999999 0,0.44999999 -0.24852813,0.44999999 -0.44999999,0.24852813 -0.44999999,0 c 0,-0.24852813 0.20147186,-0.44999999 0.44999999,-0.44999999 0.24852813,0 0.44999999,0.20147186 0.44999999,0.44999999 z"
       id="circle3811"
       r="0.44999999"
       cy="0"
       cx="0" />
  </g>
  <g
     style="font-size:0.5px;stroke-width:0.1"
     id="g3813"
     transform="matrix(50,0,0,50,369.3056,654.7222)"
     font-size="0.5">
    <text
       style="stroke:none"
       id="text3815"
       y="1.2289"
       xml:space="preserve"
       x="0" />
    <circle
       style="fill:#ffffff;stroke:none"
       sodipodi:ry="0.44999999"
       sodipodi:rx="0.44999999"
       sodipodi:cy="0"
       sodipodi:cx="0"
       d="M 0.44999999,0 C 0.44999999,0.24852813 0.24852813,0.44999999 0,0.44999999 -0.24852813,0.44999999 -0.44999999,0.24852813 -0.44999999,0 c 0,-0.24852813 0.20147186,-0.44999999 0.44999999,-0.44999999 0.24852813,0 0.44999999,0.20147186 0.44999999,0.44999999 z"
       id="circle3817"
       r="0.44999999"
       cy="0"
       cx="0" />
    <circle
       style="fill:none"
       sodipodi:ry="0.44999999"
       sodipodi:rx="0.44999999"
       sodipodi:cy="0"
       sodipodi:cx="0"
       d="M 0.44999999,0 C 0.44999999,0.24852813 0.24852813,0.44999999 0,0.44999999 -0.24852813,0.44999999 -0.44999999,0.24852813 -0.44999999,0 c 0,-0.24852813 0.20147186,-0.44999999 0.44999999,-0.44999999 0.24852813,0 0.44999999,0.20147186 0.44999999,0.44999999 z"
       id="circle3819"
       r="0.44999999"
       cy="0"
       cx="0" />
  </g>
  <g
     style="font-size:0.5px;stroke-width:0.1"
     id="g3821"
     transform="matrix(50,0,0,50,495,720)"
     font-size="0.5">
    <text
       style="stroke:none"
       id="text3823"
       y="1.0723"
       xml:space="preserve"
       x="0" />
    <path
       style="fill:#b20000;stroke:none"
       inkscape:connector-curvature="0"
       id="path3825"
       d="m -0.1716,-0.1926 0,-0.0758 0.0659,0 0,0.0758 -0.0659,0 z m 0,0.461 0,-0.3889 0.0659,0 0,0.3889 -0.0659,0 z m 0.1406,-0.1611 0,-0.0663 0.2026,0 0,0.0663 -0.2026,0 z" />
  </g>
  <g
     style="font-size:0.5px;stroke-width:0.1"
     id="g3827"
     transform="matrix(50,0,0,50,245,720)"
     font-size="0.5">
    <text
       style="stroke:none"
       id="text3829"
       y="1.0723"
       xml:space="preserve"
       x="0" />
    <path
       style="fill:#b20000;stroke:none"
       inkscape:connector-curvature="0"
       id="path3831"
       d="m -0.1716,-0.1926 0,-0.0758 0.0659,0 0,0.0758 -0.0659,0 z m 0,0.461 0,-0.3889 0.0659,0 0,0.3889 -0.0659,0 z m 0.1406,-0.1611 0,-0.0663 0.2026,0 0,0.0663 -0.2026,0 z" />
  </g>
  <g
     style="font-size:0.5px;stroke-width:0.1"
     id="g3833"
     transform="matrix(50,0,0,50,370,120)"
     font-size="0.5">
    <text
       style="stroke:none"
       id="text3835"
       y="1.2289"
       xml:space="preserve"
       x="0" />
    <circle
       style="fill:#ffffff;stroke:none"
       sodipodi:ry="0.44999999"
       sodipodi:rx="0.44999999"
       sodipodi:cy="0"
       sodipodi:cx="0"
       d="M 0.44999999,0 C 0.44999999,0.24852813 0.24852813,0.44999999 0,0.44999999 -0.24852813,0.44999999 -0.44999999,0.24852813 -0.44999999,0 c 0,-0.24852813 0.20147186,-0.44999999 0.44999999,-0.44999999 0.24852813,0 0.44999999,0.20147186 0.44999999,0.44999999 z"
       id="circle3837"
       r="0.44999999"
       cy="0"
       cx="0" />
    <circle
       style="fill:none"
       sodipodi:ry="0.44999999"
       sodipodi:rx="0.44999999"
       sodipodi:cy="0"
       sodipodi:cx="0"
       d="M 0.44999999,0 C 0.44999999,0.24852813 0.24852813,0.44999999 0,0.44999999 -0.24852813,0.44999999 -0.44999999,0.24852813 -0.44999999,0 c 0,-0.24852813 0.20147186,-0.44999999 0.44999999,-0.44999999 0.24852813,0 0.44999999,0.20147186 0.44999999,0.44999999 z"
       id="circle3839"
       r="0.44999999"
       cy="0"
       cx="0" />
    <circle
       style="stroke:none"
       sodipodi:ry="0.26320001"
       sodipodi:rx="0.26320001"
       sodipodi:cy="0"
       sodipodi:cx="0"
       d="M 0.26320001,0 C 0.26320001,0.14536135 0.14536135,0.26320001 0,0.26320001 -0.14536135,0.26320001 -0.26320001,0.14536135 -0.26320001,0 c 0,-0.14536135 0.11783866,-0.26320001 0.26320001,-0.26320001 0.14536135,0 0.26320001,0.11783866 0.26320001,0.26320001 z"
       id="circle3841"
       r="0.26320001"
       cy="0"
       cx="0" />
  </g>
  <g
     style="font-size:0.5px;stroke-width:0.1"
     id="g3843"
     transform="matrix(50,0,0,50,495,220)"
     font-size="0.5">
    <text
       style="stroke:none"
       id="text3845"
       y="1.0723"
       xml:space="preserve"
       x="0" />
    <path
       style="fill:#b20000;stroke:none"
       inkscape:connector-curvature="0"
       id="path3847"
       d="m -0.2565,-0.1926 0,-0.0758 0.0659,0 0,0.0758 -0.0659,0 z m 0,0.461 0,-0.3889 0.0659,0 0,0.3889 -0.0659,0 z m 0.3046,-0.0868 0,-0.1472 -0.1461,0 0,-0.0615 0.1461,0 0,-0.1461 0.0623,0 0,0.1461 0.1461,0 0,0.0615 -0.1461,0 0,0.1472 -0.0623,0 z" />
  </g>
  <g
     style="font-size:0.5px;stroke-width:0.1"
     id="g3849"
     transform="matrix(50,0,0,50,245,220)"
     font-size="0.5">
    <text
       style="stroke:none"
       id="text3851"
       y="1.0723"
       xml:space="preserve"
       x="0" />
    <path
       style="fill:#b20000;stroke:none"
       inkscape:connector-curvature="0"
       id="path3853"
       d="m -0.2565,-0.1926 0,-0.0758 0.0659,0 0,0.0758 -0.0659,0 z m 0,0.461 0,-0.3889 0.0659,0 0,0.3889 -0.0659,0 z m 0.3046,-0.0868 0,-0.1472 -0.1461,0 0,-0.0615 0.1461,0 0,-0.1461 0.0623,0 0,0.1461 0.1461,0 0,0.0615 -0.1461,0 0,0.1472 -0.0623,0 z" />
  </g>
  <g
     style="font-size:0.5px;stroke-width:0.1"
     id="g3855"
     transform="matrix(50,0,0,50,370,370)"
     font-size="0.5">
    <text
       style="stroke:none"
       id="text3857"
       y="1.2289"
       xml:space="preserve"
       x="0" />
    <circle
       style="fill:#ffffff;stroke:none"
       sodipodi:ry="0.44999999"
       sodipodi:rx="0.44999999"
       sodipodi:cy="0"
       sodipodi:cx="0"
       d="M 0.44999999,0 C 0.44999999,0.24852813 0.24852813,0.44999999 0,0.44999999 -0.24852813,0.44999999 -0.44999999,0.24852813 -0.44999999,0 c 0,-0.24852813 0.20147186,-0.44999999 0.44999999,-0.44999999 0.24852813,0 0.44999999,0.20147186 0.44999999,0.44999999 z"
       id="circle3859"
       r="0.44999999"
       cy="0"
       cx="0" />
    <circle
       style="fill:none"
       sodipodi:ry="0.44999999"
       sodipodi:rx="0.44999999"
       sodipodi:cy="0"
       sodipodi:cx="0"
       d="M 0.44999999,0 C 0.44999999,0.24852813 0.24852813,0.44999999 0,0.44999999 -0.24852813,0.44999999 -0.44999999,0.24852813 -0.44999999,0 c 0,-0.24852813 0.20147186,-0.44999999 0.44999999,-0.44999999 0.24852813,0 0.44999999,0.20147186 0.44999999,0.44999999 z"
       id="circle3861"
       r="0.44999999"
       cy="0"
       cx="0" />
    <circle
       style="stroke:none"
       sodipodi:ry="0.26320001"
       sodipodi:rx="0.26320001"
       sodipodi:cy="0"
       sodipodi:cx="0"
       d="M 0.26320001,0 C 0.26320001,0.14536135 0.14536135,0.26320001 0,0.26320001 -0.14536135,0.26320001 -0.26320001,0.14536135 -0.26320001,0 c 0,-0.14536135 0.11783866,-0.26320001 0.26320001,-0.26320001 0.14536135,0 0.26320001,0.11783866 0.26320001,0.26320001 z"
       id="circle3863"
       r="0.26320001"
       cy="0"
       cx="0" />
  </g>
  <g
     style="font-size:0.50000000000000000px;stroke-width:0.10000000000000001;fill:#0000b2;fill-opacity:1"
     id="g3865"
     transform="matrix(50,0,0,50,495,420)"
     font-size="0.5">
    <text
       style="stroke:none;fill:#0000b2;fill-opacity:1"
       id="text3867"
       y="1.0767"
       xml:space="preserve"
       x="0" />
    <path
       style="stroke:none;fill:#0000b2;fill-opacity:1"
       inkscape:connector-curvature="0"
       id="path3869"
       d="m -0.321,0.264 -0.0611,0 0,-0.5368 0.0659,0 0,0.1915 q 0.0417,-0.0524 0.1065,-0.0524 0.0359,0 0.068,0.0145 0.032,0.0145 0.0527,0.0406 0.0207,0.0262 0.0324,0.0632 0.0117,0.037 0.0117,0.0791 0,0.1 -0.0494,0.1546 -0.0494,0.0545 -0.1186,0.0545 -0.0689,0 -0.1081,-0.0575 l 0,0.0487 z m -7e-4,-0.1974 q 0,0.07 0.019,0.1011 0.0312,0.0509 0.0843,0.0509 0.0432,0 0.0747,-0.0375 0.0315,-0.0376 0.0315,-0.1119 0,-0.0762 -0.0303,-0.1124 -0.0302,-0.0363 -0.073,-0.0363 -0.0432,0 -0.0747,0.0376 -0.0315,0.0375 -0.0315,0.1085 z m 0.4955,0.1106 0,-0.1472 -0.1461,0 0,-0.0615 0.1461,0 0,-0.1461 0.0622,0 0,0.1461 0.1461,0 0,0.0615 -0.1461,0 0,0.1472 -0.0622,0 z" />
  </g>
  <g
     style="font-size:0.50000000000000000px;fill:#0000b2;stroke:#ff0033;stroke-width:0.10000000000000001;fill-opacity:1"
     id="g3871"
     transform="matrix(50,0,0,50,245,420)"
     font-size="0.5">
    <text
       style="stroke:none;fill:#0000b2;fill-opacity:1"
       id="text3873"
       y="1.0290999"
       xml:space="preserve"
       x="0" />
    <path
       style="fill:#0000b2;stroke:none;fill-opacity:1"
       inkscape:connector-curvature="0"
       id="path3875"
       d="m -0.117,0.1685 q -0.0366,0.0311 -0.0705,0.0439 -0.0339,0.0128 -0.0727,0.0128 -0.0641,0 -0.0985,-0.0313 -0.0344,-0.0313 -0.0344,-0.08 0,-0.0286 0.013,-0.0522 0.013,-0.0236 0.034,-0.0379 0.0211,-0.0143 0.0475,-0.0216 0.0194,-0.0051 0.0586,-0.0099 0.0798,-0.0095 0.1175,-0.0227 4e-4,-0.0135 4e-4,-0.0172 0,-0.0403 -0.0187,-0.0568 -0.0253,-0.0223 -0.0751,-0.0223 -0.0465,0 -0.0686,0.0163 -0.0222,0.0163 -0.0328,0.0577 l -0.0645,-0.0088 q 0.0088,-0.0414 0.029,-0.0669 0.0201,-0.0254 0.0582,-0.0391 0.0381,-0.0138 0.0883,-0.0138 0.0498,0 0.0809,0.0117 0.0311,0.0118 0.0457,0.0295 0.0147,0.0178 0.0206,0.0449 0.0033,0.0168 0.0033,0.0608 l 0,0.0879 q 0,0.0919 0.0042,0.1162 0.0042,0.0244 0.0166,0.0467 l -0.0688,0 Q -0.1141,0.1959 -0.117,0.1685 z M -0.1225,0.0212 q -0.0359,0.0147 -0.1077,0.0249 -0.0406,0.0059 -0.0575,0.0132 -0.0168,0.0073 -0.026,0.0215 -0.0091,0.0141 -0.0091,0.0313 0,0.0263 0.0199,0.0439 0.02,0.0176 0.0585,0.0176 0.0381,0 0.0677,-0.0167 0.0297,-0.0166 0.0436,-0.0456 0.0106,-0.0223 0.0106,-0.0659 l 0,-0.0242 z m 0.3073,0.1084 0,-0.1472 -0.1462,0 0,-0.0615 0.1462,0 0,-0.1461 0.0622,0 0,0.1461 0.1461,0 0,0.0615 -0.1461,0 0,0.1472 -0.0622,0 z" />
  </g>
  <g
     style="font-size:0.5px;stroke-width:0.1"
     id="g3877"
     transform="matrix(50,0,0,50,370,470)"
     font-size="0.5">
    <text
       style="stroke:none"
       id="text3879"
       y="1.2289"
       xml:space="preserve"
       x="0" />
    <circle
       style="fill:#ffffff;stroke:none"
       sodipodi:ry="0.44999999"
       sodipodi:rx="0.44999999"
       sodipodi:cy="0"
       sodipodi:cx="0"
       d="M 0.44999999,0 C 0.44999999,0.24852813 0.24852813,0.44999999 0,0.44999999 -0.24852813,0.44999999 -0.44999999,0.24852813 -0.44999999,0 c 0,-0.24852813 0.20147186,-0.44999999 0.44999999,-0.44999999 0.24852813,0 0.44999999,0.20147186 0.44999999,0.44999999 z"
       id="circle3881"
       r="0.44999999"
       cy="0"
       cx="0" />
    <circle
       style="fill:none"
       sodipodi:ry="0.44999999"
       sodipodi:rx="0.44999999"
       sodipodi:cy="0"
       sodipodi:cx="0"
       d="M 0.44999999,0 C 0.44999999,0.24852813 0.24852813,0.44999999 0,0.44999999 -0.24852813,0.44999999 -0.44999999,0.24852813 -0.44999999,0 c 0,-0.24852813 0.20147186,-0.44999999 0.44999999,-0.44999999 0.24852813,0 0.44999999,0.20147186 0.44999999,0.44999999 z"
       id="circle3883"
       r="0.44999999"
       cy="0"
       cx="0" />
  </g>
  <g
     style="font-size:0.5px;stroke-width:0.1"
     id="g3885"
     transform="matrix(50,0,0,50,370,870)"
     font-size="0.5">
    <text
       style="stroke:none"
       id="text3887"
       y="1.2289"
       xml:space="preserve"
       x="0" />
    <circle
       style="fill:#ffffff;stroke:none"
       sodipodi:ry="0.44999999"
       sodipodi:rx="0.44999999"
       sodipodi:cy="0"
       sodipodi:cx="0"
       d="M 0.44999999,0 C 0.44999999,0.24852813 0.24852813,0.44999999 0,0.44999999 -0.24852813,0.44999999 -0.44999999,0.24852813 -0.44999999,0 c 0,-0.24852813 0.20147186,-0.44999999 0.44999999,-0.44999999 0.24852813,0 0.44999999,0.20147186 0.44999999,0.44999999 z"
       id="circle3889"
       r="0.44999999"
       cy="0"
       cx="0" />
    <circle
       style="fill:none"
       sodipodi:ry="0.44999999"
       sodipodi:rx="0.44999999"
       sodipodi:cy="0"
       sodipodi:cx="0"
       d="M 0.44999999,0 C 0.44999999,0.24852813 0.24852813,0.44999999 0,0.44999999 -0.24852813,0.44999999 -0.44999999,0.24852813 -0.44999999,0 c 0,-0.24852813 0.20147186,-0.44999999 0.44999999,-0.44999999 0.24852813,0 0.44999999,0.20147186 0.44999999,0.44999999 z"
       id="circle3891"
       r="0.44999999"
       cy="0"
       cx="0" />
  </g>
  <g
     style="font-size:0.50000000000000000px;stroke-width:0.10000000000000001;fill:#0000b2;fill-opacity:1"
     id="g3893"
     transform="matrix(50,0,0,50,495,920)"
     font-size="0.5">
    <text
       style="stroke:none;fill:#0000b2;fill-opacity:1"
       id="text3895"
       y="1.0767"
       xml:space="preserve"
       x="0" />
    <path
       style="stroke:none;fill:#0000b2;fill-opacity:1"
       inkscape:connector-curvature="0"
       id="path3897"
       d="m -0.236,0.264 -0.0612,0 0,-0.5368 0.0659,0 0,0.1915 q 0.0418,-0.0524 0.1066,-0.0524 0.0359,0 0.0679,0.0145 0.0321,0.0145 0.0528,0.0406 0.0207,0.0262 0.0324,0.0632 0.0117,0.037 0.0117,0.0791 0,0.1 -0.0494,0.1546 -0.0495,0.0545 -0.1187,0.0545 -0.0688,0 -0.108,-0.0575 l 0,0.0487 z m -8e-4,-0.1974 q 0,0.07 0.0191,0.1011 0.0311,0.0509 0.0842,0.0509 0.0432,0 0.0747,-0.0375 0.0315,-0.0376 0.0315,-0.1119 0,-0.0762 -0.0302,-0.1124 -0.0302,-0.0363 -0.073,-0.0363 -0.0433,0 -0.0748,0.0376 -0.0315,0.0375 -0.0315,0.1085 z m 0.3315,0.0363 0,-0.0663 0.2025,0 0,0.0663 -0.2025,0 z" />
  </g>
  <g
     style="font-size:0.50000000000000000px;stroke-width:0.10000000000000001;fill:#0000b2;fill-opacity:1"
     id="g3899"
     transform="matrix(50,0,0,50,245,920)"
     font-size="0.5">
    <text
       style="stroke:none;fill:#0000b2;fill-opacity:1"
       id="text3901"
       y="1.0072"
       xml:space="preserve"
       x="0" />
    <path
       style="stroke:none;fill:#0000b2;fill-opacity:1"
       inkscape:connector-curvature="0"
       id="path3903"
       d="m -0.032,0.1465 q -0.0367,0.0311 -0.0705,0.0439 -0.0339,0.0128 -0.0727,0.0128 -0.0641,0 -0.0985,-0.0313 -0.0345,-0.0313 -0.0345,-0.08 0,-0.0286 0.013,-0.0522 0.013,-0.0236 0.0341,-0.0379 0.0211,-0.0143 0.0474,-0.0216 0.0194,-0.0051 0.0586,-0.0099 0.0799,-0.0095 0.1176,-0.0227 3e-4,-0.0135 3e-4,-0.0172 0,-0.0403 -0.0186,-0.0567 -0.0253,-0.0224 -0.0751,-0.0224 -0.0465,0 -0.0687,0.0163 -0.0221,0.0163 -0.0328,0.0577 l -0.0644,-0.0088 q 0.0088,-0.0414 0.0289,-0.0668 0.0202,-0.0255 0.0583,-0.0392 0.038,-0.0137 0.0882,-0.0137 0.0498,0 0.0809,0.0117 0.0312,0.0117 0.0458,0.0294 0.0147,0.0178 0.0205,0.0449 0.0033,0.0169 0.0033,0.0608 l 0,0.0879 q 0,0.0919 0.0042,0.1163 0.0042,0.0243 0.0167,0.0467 l -0.0689,0 Q -0.0291,0.1739 -0.032,0.1465 z M -0.0375,-7e-4 q -0.0359,0.0146 -0.1077,0.0249 -0.0406,0.0058 -0.0575,0.0132 -0.0168,0.0073 -0.026,0.0214 -0.0092,0.0141 -0.0092,0.0313 0,0.0264 0.02,0.0439 0.02,0.0176 0.0584,0.0176 0.0381,0 0.0678,-0.0167 0.0296,-0.0166 0.0435,-0.0456 0.0107,-0.0223 0.0107,-0.0659 l 0,-0.0241 z m 0.1432,0.034 0,-0.0663 0.2025,0 0,0.0663 -0.2025,0 z" />
  </g>
  <g
     style="font-size:0.5px;stroke-width:0.1"
     id="g3905"
     transform="matrix(50,0,0,50,370,1070)"
     font-size="0.5">
    <text
       style="stroke:none"
       id="text3907"
       y="1.2289"
       xml:space="preserve"
       x="0" />
    <circle
       style="fill:#ffffff;stroke:none"
       sodipodi:ry="0.44999999"
       sodipodi:rx="0.44999999"
       sodipodi:cy="0"
       sodipodi:cx="0"
       d="M 0.44999999,0 C 0.44999999,0.24852813 0.24852813,0.44999999 0,0.44999999 -0.24852813,0.44999999 -0.44999999,0.24852813 -0.44999999,0 c 0,-0.24852813 0.20147186,-0.44999999 0.44999999,-0.44999999 0.24852813,0 0.44999999,0.20147186 0.44999999,0.44999999 z"
       id="circle3909"
       r="0.44999999"
       cy="0"
       cx="0" />
    <circle
       style="fill:none"
       sodipodi:ry="0.44999999"
       sodipodi:rx="0.44999999"
       sodipodi:cy="0"
       sodipodi:cx="0"
       d="M 0.44999999,0 C 0.44999999,0.24852813 0.24852813,0.44999999 0,0.44999999 -0.24852813,0.44999999 -0.44999999,0.24852813 -0.44999999,0 c 0,-0.24852813 0.20147186,-0.44999999 0.44999999,-0.44999999 0.24852813,0 0.44999999,0.20147186 0.44999999,0.44999999 z"
       id="circle3911"
       r="0.44999999"
       cy="0"
       cx="0" />
  </g>
  <g
     style="font-size:0.5px;stroke-width:0.02"
     id="g3913"
     transform="matrix(50,0,0,50,320,1120)"
     font-size="0.5">
    <path
       style="fill:none"
       inkscape:connector-curvature="0"
       id="path3915"
       d="m 0.5358,-14.8143 -1.1963,0.4785" />
    <path
       style="stroke:none"
       inkscape:connector-curvature="0"
       id="path3917"
       d="m -0.6326,-14.2662 -0.0557,-0.1392 -0.3436,0.2181 z" />
  </g>
  <g
     style="font-size:0.5px;stroke-width:0.02"
     id="g3919"
     transform="matrix(50,0,0,50,320,1120)"
     font-size="0.5">
    <path
       style="fill:none"
       inkscape:connector-curvature="0"
       id="path3921"
       d="m 0.6096,-19.6877 -1.4657,1.1726" />
    <path
       style="stroke:none"
       inkscape:connector-curvature="0"
       id="path3923"
       d="m -0.8093,-18.4565 -0.0937,-0.1172 -0.2655,0.3085 z" />
  </g>
  <g
     style="font-size:0.5px;stroke-width:0.02"
     id="g3925"
     transform="matrix(50,0,0,50,320,1120)"
     font-size="0.5">
    <path
       style="fill:none"
       inkscape:connector-curvature="0"
       id="path3927"
       d="m 1.4298,-9.0751 1.4687,0.7627" />
    <path
       style="stroke:none"
       inkscape:connector-curvature="0"
       id="path3929"
       d="M 2.933,-8.379 2.8639,-8.2458 3.2534,-8.128 z" />
  </g>
  <g
     style="font-size:0.5px;stroke-width:0.02"
     id="g3931"
     transform="matrix(50,0,0,50,320,1120)"
     font-size="0.5">
    <path
       style="fill:none"
       inkscape:connector-curvature="0"
       id="path3933"
       d="m -1.2681,-3.7218 1.6919,2.0304" />
    <path
       style="stroke:none"
       inkscape:connector-curvature="0"
       id="path3935"
       d="m 0.4815,-1.7394 -0.1153,0.096 0.3137,0.2593 z" />
  </g>
  <g
     style="font-size:0.5px;stroke-width:0.02"
     id="g3937"
     transform="matrix(50,0,0,50,320,1120)"
     font-size="0.5">
    <path
       style="fill:none"
       inkscape:connector-curvature="0"
       id="path3939"
       d="M 3.2534,-7.9014 1.8356,-7.3343" />
    <path
       style="stroke:none"
       inkscape:connector-curvature="0"
       id="path3941"
       d="M 1.8635,-7.2646 1.8078,-7.4039 1.4642,-7.1857 z" />
  </g>
  <g
     style="font-size:0.5px;stroke-width:0.02"
     id="g3943"
     transform="matrix(50,0,0,50,320,1120)"
     font-size="0.5">
    <path
       style="fill:none"
       inkscape:connector-curvature="0"
       id="path3945"
       d="m 0.5434,-9.0731 -1.4427,0.7576" />
    <path
       style="stroke:none"
       inkscape:connector-curvature="0"
       id="path3947"
       d="m -0.8644,-8.2491 -0.0698,-0.1328 -0.3192,0.2524 z" />
  </g>
  <g
     style="font-size:0.5px;stroke-width:0.02"
     id="g3949"
     transform="matrix(50,0,0,50,320,1120)"
     font-size="0.5">
    <path
       style="fill:none"
       inkscape:connector-curvature="0"
       id="path3951"
       d="m 3.1685,-17.8674 -1.3329,0.5331" />
    <path
       style="stroke:none"
       inkscape:connector-curvature="0"
       id="path3953"
       d="m 1.8635,-17.2646 -0.0557,-0.1393 -0.3436,0.2182 z" />
  </g>
  <g
     style="font-size:0.5px;stroke-width:0.02"
     id="g3955"
     transform="matrix(50,0,0,50,320,1120)"
     font-size="0.5">
    <path
       style="fill:none"
       inkscape:connector-curvature="0"
       id="path3957"
       d="m -1.1685,-17.8674 1.3329,0.5331" />
    <path
       style="stroke:none"
       inkscape:connector-curvature="0"
       id="path3959"
       d="m 0.1922,-17.4039 -0.0557,0.1393 0.3993,0.0789 z" />
  </g>
  <g
     style="font-size:0.5px;stroke-width:0.02"
     id="g3961"
     transform="matrix(50,0,0,50,320,1120)"
     font-size="0.5">
    <path
       style="fill:none"
       inkscape:connector-curvature="0"
       id="path3963"
       d="m 1.4642,-14.8143 1.2073,0.4829" />
    <path
       style="stroke:none"
       inkscape:connector-curvature="0"
       id="path3965"
       d="m 2.6993,-14.401 -0.0557,0.1392 0.3993,0.0789 z" />
  </g>
  <g
     style="font-size:0.5px;stroke-width:0.02"
     id="g3967"
     transform="matrix(50,0,0,50,320,1120)"
     font-size="0.5">
    <path
       style="fill:none"
       inkscape:connector-curvature="0"
       id="path3969"
       d="m -1.0319,-13.8127 1.1963,0.4784" />
    <path
       style="stroke:none"
       inkscape:connector-curvature="0"
       id="path3971"
       d="m 0.1922,-13.4039 -0.0557,0.1393 0.3993,0.0789 z" />
  </g>
  <g
     style="font-size:0.5px;stroke-width:0.02"
     id="g3973"
     transform="matrix(50,0,0,50,320,1120)"
     font-size="0.5">
    <path
       style="fill:none"
       inkscape:connector-curvature="0"
       id="path3975"
       d="m 0.5358,-4.8143 -1.2812,0.5125" />
    <path
       style="stroke:none"
       inkscape:connector-curvature="0"
       id="path3977"
       d="m -0.7176,-4.2322 -0.0557,-0.1393 -0.3435,0.2182 z" />
  </g>
  <g
     style="font-size:0.5px;stroke-width:0.02"
     id="g3979"
     transform="matrix(50,0,0,50,320,1120)"
     font-size="0.5">
    <path
       style="fill:none"
       inkscape:connector-curvature="0"
       id="path3981"
       d="m 1.3904,-19.6877 1.4657,1.1726" />
    <path
       style="stroke:none"
       inkscape:connector-curvature="0"
       id="path3983"
       d="m 2.903,-18.5737 -0.0937,0.1172 0.3592,0.1913 z" />
  </g>
  <g
     style="font-size:0.5px;stroke-width:0.02"
     id="g3985"
     transform="matrix(50,0,0,50,320,1120)"
     font-size="0.5">
    <path
       style="fill:none"
       inkscape:connector-curvature="0"
       id="path3987"
       d="m 3.0429,-13.8171 -1.2073,0.4828" />
    <path
       style="stroke:none"
       inkscape:connector-curvature="0"
       id="path3989"
       d="m 1.8635,-13.2646 -0.0557,-0.1393 -0.3436,0.2182 z" />
  </g>
  <g
     style="font-size:0.5px;stroke-width:0.02"
     id="g3991"
     transform="matrix(50,0,0,50,320,1120)"
     font-size="0.5">
    <path
       style="fill:none"
       inkscape:connector-curvature="0"
       id="path3993"
       d="m 1.4642,-4.8143 1.2922,0.5169" />
    <path
       style="stroke:none"
       inkscape:connector-curvature="0"
       id="path3995"
       d="m 2.7843,-4.3671 -0.0557,0.1393 0.3992,0.0789 z" />
  </g>
  <g
     style="font-size:0.5px;stroke-width:0.02"
     id="g3997"
     transform="matrix(50,0,0,50,320,1120)"
     font-size="0.5">
    <path
       style="fill:none"
       inkscape:connector-curvature="0"
       id="path3999"
       d="m -1.2534,-7.9014 1.4178,0.5671" />
    <path
       style="stroke:none"
       inkscape:connector-curvature="0"
       id="path4001"
       d="m 0.1922,-7.4039 -0.0557,0.1393 0.3993,0.0789 z" />
  </g>
  <g
     style="font-size:0.5px;stroke-width:0.02"
     id="g4003"
     transform="matrix(50,0,0,50,320,1120)"
     font-size="0.5">
    <path
       style="fill:none"
       inkscape:connector-curvature="0"
       id="path4005"
       d="M 3.2101,-3.6522 1.5762,-1.6914" />
    <path
       style="stroke:none"
       inkscape:connector-curvature="0"
       id="path4007"
       d="M 1.6338,-1.6434 1.5185,-1.7394 1.3201,-1.3841 z" />
  </g>
  <g
     style="font-size:0.5px;stroke-width:0.02"
     id="g4009"
     transform="matrix(50,0,0,50,320,1120)"
     font-size="0.5">
    <path
       style="fill:none"
       inkscape:connector-curvature="0"
       id="path4011"
       d="m 3.6526,-13.6522 c 0.7751,2.0046 0.796,6.0694 0.0625,8.9187" />
    <path
       style="stroke:none"
       inkscape:connector-curvature="0"
       id="path4013"
       d="M 3.7874,-4.7136 3.6428,-4.7534 3.6089,-4.3478 z" />
  </g>
  <g
     style="font-size:0.5px;stroke-width:0.02"
     id="g4015"
     transform="matrix(50,0,0,50,320,1120)"
     font-size="0.5">
    <path
       style="fill:none"
       inkscape:connector-curvature="0"
       id="path4017"
       d="m 3.5,-13.6522 0,4.9088" />
    <path
       style="stroke:none"
       inkscape:connector-curvature="0"
       id="path4019"
       d="m 3.575,-8.7434 -0.15,0 0.075,0.4 z" />
  </g>
  <g
     style="font-size:0.5px;stroke-width:0.02"
     id="g4021"
     transform="matrix(50,0,0,50,320,1120)"
     font-size="0.5">
    <path
       style="fill:none"
       inkscape:connector-curvature="0"
       id="path4023"
       d="m 3.1278,-3.7486 c -6.0725,3.9971 -7.5181,-0.3595 -4.783,-13.5165" />
    <path
       style="stroke:none"
       inkscape:connector-curvature="0"
       id="path4025"
       d="m -1.7286,-17.2805 0.1468,0.0308 0.0087,-0.4069 z" />
  </g>
  <g
     style="font-size:0.5px;stroke-width:0.02"
     id="g4027"
     transform="matrix(50,0,0,50,320,1120)"
     font-size="0.5">
    <path
       style="fill:none"
       inkscape:connector-curvature="0"
       id="path4029"
       d="m -1.6315,-13.6998 c -0.7818,2.0238 -0.8224,6.7399 -0.1219,9.0434" />
    <path
       style="stroke:none"
       inkscape:connector-curvature="0"
       id="path4031"
       d="m -1.6825,-4.6808 -0.1418,0.0489 0.2014,0.3537 z" />
  </g>
  <g
     style="font-size:0.5px;stroke-width:0.02"
     id="g4033"
     transform="matrix(50,0,0,50,320,1120)"
     font-size="0.5">
    <path
       style="fill:none"
       inkscape:connector-curvature="0"
       id="path4035"
       d="m -1.5,-13.6998 0,4.9564" />
    <path
       style="stroke:none"
       inkscape:connector-curvature="0"
       id="path4037"
       d="m -1.425,-8.7434 -0.15,0 0.075,0.4 z" />
  </g>
  <g
     style="font-size:0.5px;stroke-width:0.15000001"
     id="g4039"
     transform="matrix(50,0,0,50,548.125,916.875)"
     font-size="0.5">
    <circle
       style="stroke:none"
       sodipodi:ry="0.2105"
       sodipodi:rx="0.2105"
       sodipodi:cy="0"
       sodipodi:cx="0"
       d="m 0.2105,0 c 0,0.11625594 -0.0942441,0.2105 -0.2105,0.2105 -0.11625594,0 -0.2105,-0.0942441 -0.2105,-0.2105 0,-0.11625594 0.0942441,-0.2105 0.2105,-0.2105 0.11625594,0 0.2105,0.0942441 0.2105,0.2105 z"
       id="circle4041"
       r="0.2105"
       cy="0"
       cx="0" />
  </g>
  <g
     style="font-size:0.5px;stroke-width:0.02"
     id="g4043"
     transform="matrix(50,0,0,50,320,1120)"
     font-size="0.5">
    <path
       style="fill:none"
       inkscape:connector-curvature="0"
       id="path4045"
       d="m -1.1168,-3.7414 c 6.0633,3.9847 7.5054,-0.3747 4.772,-13.5237" />
    <path
       style="stroke:none"
       inkscape:connector-curvature="0"
       id="path4047"
       d="m 3.5818,-17.2497 0.1468,-0.0308 -0.1555,-0.3761 z" />
  </g>
  <g
     style="font-size:0.5px;stroke-width:0.02"
     id="g4049"
     transform="matrix(50,0,0,50,320,1120)"
     font-size="0.5">
    <path
       style="fill:none"
       inkscape:connector-curvature="0"
       id="path4051"
       d="m 3.5,-17.6566 0,2.9088" />
    <path
       style="stroke:none"
       inkscape:connector-curvature="0"
       id="path4053"
       d="m 3.575,-14.7478 -0.15,0 0.075,0.4 z" />
  </g>
  <g
     style="font-size:0.5px;stroke-width:0.02"
     id="g4055"
     transform="matrix(50,0,0,50,320,1120)"
     font-size="0.5">
    <path
       style="fill:none"
       inkscape:connector-curvature="0"
       id="path4057"
       d="m -1.5,-17.6566 0,2.9564" />
    <path
       style="stroke:none"
       inkscape:connector-curvature="0"
       id="path4059"
       d="m -1.425,-14.7002 -0.15,0 0.075,0.4 z" />
  </g>
  <g
     style="font-size:0.5px;stroke-width:0.02"
     id="g4061"
     transform="matrix(50,0,0,50,320,1120)"
     font-size="0.5">
    <path
       style="fill:none"
       inkscape:connector-curvature="0"
       id="path4063"
       d="m 3.5,-7.6566 0,2.9088" />
    <path
       style="stroke:none"
       inkscape:connector-curvature="0"
       id="path4065"
       d="m 3.575,-4.7478 -0.15,0 0.075,0.4 z" />
  </g>
  <g
     style="font-size:0.5px;stroke-width:0.02"
     id="g4067"
     transform="matrix(50,0,0,50,320,1120)"
     font-size="0.5">
    <path
       style="fill:none"
       inkscape:connector-curvature="0"
       id="path4069"
       d="m -1.5,-7.6566 0,2.9783" />
    <path
       style="stroke:none"
       inkscape:connector-curvature="0"
       id="path4071"
       d="m -1.425,-4.6782 -0.15,0 0.075,0.4 z" />
  </g>
  <text
     x="370"
     xml:space="preserve"
     y="621.45502"
     id="text4075"
     style="font-size:25px;stroke:none" />
  <path
     d="m 350.29,571.1 q 0,-5.405 3,-8.005 2.51,-2.16 6.12,-2.16 4.005,0 6.55,2.63 2.55,2.625 2.55,7.26 0,3.755 -1.13,5.905 -1.125,2.15 -3.275,3.34 -2.155,1.19 -4.695,1.19 -4.085,0 -6.605,-2.615 -2.515,-2.62 -2.515,-7.545 z m 3.385,0 q 0,3.735 1.63,5.595 1.63,1.855 4.105,1.855 2.45,0 4.08,-1.865 1.63,-1.87 1.63,-5.695 0,-3.61 -1.64,-5.465 -1.635,-1.86 -4.07,-1.86 -2.475,0 -4.105,1.85 -1.63,1.85 -1.63,5.585 z m 25.615,5.38 0,-7.36 -7.305,0 0,-3.075 7.305,0 0,-7.305 3.115,0 0,7.305 7.305,0 0,3.075 -7.305,0 0,7.36 -3.115,0 z"
     id="path4077"
     inkscape:connector-curvature="0"
     style="font-size:0.5px;fill:#0000b2;stroke:none" />
  <g
     style="font-size:0.5px;stroke-width:0.15000001"
     id="g4079"
     transform="matrix(50,0,0,50,370,1170)"
     font-size="0.5">
    <text
       style="stroke:none"
       id="text4081"
       y="1.0072"
       xml:space="preserve"
       x="0" />
    <path
       style="fill:#0000b2;stroke:none"
       inkscape:connector-curvature="0"
       id="path4083"
       d="m -0.3093,0 q 0,-0.108 0.0601,-0.16 0.0502,-0.0432 0.1223,-0.0432 0.0802,0 0.1311,0.0525 0.0509,0.0525 0.0509,0.1452 0,0.0751 -0.0225,0.1181 -0.0225,0.043 -0.0656,0.0668 -0.043,0.0238 -0.0939,0.0238 -0.0817,0 -0.132,-0.0523 Q -0.3093,0.0985 -0.3093,0 z m 0.0678,0 q 0,0.0747 0.0326,0.1119 0.0326,0.0371 0.082,0.0371 0.0491,0 0.0817,-0.0373 0.0326,-0.0374 0.0326,-0.1139 0,-0.0721 -0.0328,-0.1093 -0.0328,-0.0372 -0.0815,-0.0372 -0.0494,0 -0.082,0.037 Q -0.2415,-0.0747 -0.2415,0 z m 0.3482,0.0333 0,-0.0663 0.2026,0 0,0.0663 -0.2026,0 z" />
  </g>
  <g
     style="font-size:0.75px;stroke-width:0.02"
     id="g4085"
     transform="matrix(50,0,0,50,320,1120)"
     font-size="0.75">
    <path
       style="fill:none"
       inkscape:connector-curvature="0"
       id="path4087"
       d="m 1,-12.5 0,0.7998" />
    <path
       style="stroke:none"
       inkscape:connector-curvature="0"
       id="path4089"
       d="m 1.075,-11.7002 -0.15,0 0.075,0.4 z" />
  </g>
  <g
     style="font-size:0.75px;stroke-width:0.02"
     id="g4091"
     transform="matrix(50,0,0,50,320,1120)"
     font-size="0.75">
    <path
       style="fill:none"
       inkscape:connector-curvature="0"
       id="path4093"
       d="m 0.9975,-10.6998 -0.004,0.4943" />
    <path
       style="stroke:none"
       inkscape:connector-curvature="0"
       id="path4095"
       d="m 1.0685,-10.2049 -0.15,-0.0012 0.0717,0.4006 z" />
  </g>
  <g
     style="font-size:0.75px;stroke-width:0.02"
     id="g4097"
     transform="matrix(50,0,0,50,320,1120)"
     font-size="0.75">
    <path
       style="fill:none"
       inkscape:connector-curvature="0"
       id="path4099"
       d="m 0.6577,-16.6356 c -1.4731,1.6769 -1.5404,3.3537 -0.2018,5.0305" />
    <path
       style="stroke:none"
       inkscape:connector-curvature="0"
       id="path4101"
       d="m 0.5131,-11.6537 -0.1144,0.0971 0.3161,0.2564 z" />
  </g>
  <g
     style="font-size:0.75px;stroke-width:0.02"
     id="g4103"
     transform="matrix(50,0,0,50,320,1120)"
     font-size="0.75">
    <path
       style="fill:none"
       inkscape:connector-curvature="0"
       id="path4105"
       d="M 0.7219,-10.6998 C -0.67,-9.0691 -0.1676,-7.4385 0.6034,-5.8079" />
    <path
       style="stroke:none"
       inkscape:connector-curvature="0"
       id="path4107"
       d="m 0.6709,-5.8405 -0.135,0.0652 0.2415,0.3276 z" />
  </g>
  <g
     style="font-size:0.75px;stroke-width:0.02"
     id="g4109"
     transform="matrix(50,0,0,50,320,1120)"
     font-size="0.75">
    <path
       style="fill:none"
       inkscape:connector-curvature="0"
       id="path4111"
       d="m 1.3372,-6.6308 c 1.5341,1.8433 1.5502,4.4003 0.0485,7.0096" />
    <path
       style="stroke:none"
       inkscape:connector-curvature="0"
       id="path4113"
       d="M 1.45,0.4175 1.3214,0.3402 1.1798,0.7218 z" />
  </g>
  <g
     style="font-size:0.75px;stroke-width:0.02"
     id="g4115"
     transform="matrix(50,0,0,50,320,1120)"
     font-size="0.75">
    <path
       style="fill:none"
       inkscape:connector-curvature="0"
       id="path4117"
       d="M 1,-0.5 1,0.3218" />
    <path
       style="stroke:none"
       inkscape:connector-curvature="0"
       id="path4119"
       d="m 1.075,0.3218 -0.15,0 0.075,0.4 z" />
  </g>
  <g
     style="font-size:0.75px;stroke-width:0.02"
     id="g4121"
     transform="matrix(50,0,0,50,320,1120)"
     font-size="0.75">
    <path
       style="fill:none"
       inkscape:connector-curvature="0"
       id="path4123"
       d="M 1.3842,0.8614 C 7.2122,-1.5573 7.3677,-16.452 1.8507,-15.2894" />
    <path
       style="stroke:none"
       inkscape:connector-curvature="0"
       id="path4125"
       d="M 1.8704,-15.217 1.831,-15.3618 1.4647,-15.1845 z" />
  </g>
  <g
     style="font-size:0.75px;stroke-width:0.02"
     id="g4127"
     transform="matrix(50,0,0,50,320,1120)"
     font-size="0.75">
    <path
       style="fill:none"
       inkscape:connector-curvature="0"
       id="path4129"
       d="M 0.6158,0.868 C -5.5682,-1.6272 -4.547,-19.7161 0.1145,-20.127" />
    <path
       style="stroke:none"
       inkscape:connector-curvature="0"
       id="path4131"
       d="m 0.116,-20.202 -0.003,0.15 0.4014,-0.0672 z" />
  </g>
</svg>
