<?xml version="1.0" encoding="UTF-8" standalone="no"?>
<svg
   xmlns:dc="http://purl.org/dc/elements/1.1/"
   xmlns:cc="http://creativecommons.org/ns#"
   xmlns:rdf="http://www.w3.org/1999/02/22-rdf-syntax-ns#"
   xmlns:svg="http://www.w3.org/2000/svg"
   xmlns="http://www.w3.org/2000/svg"
   xmlns:sodipodi="http://sodipodi.sourceforge.net/DTD/sodipodi-0.dtd"
   xmlns:inkscape="http://www.inkscape.org/namespaces/inkscape"
   color-interpolation="auto"
   color-rendering="auto"
   font-size="12"
   font-style="normal"
   font-weight="normal"
   height="426.25"
   image-rendering="auto"
   shape-rendering="auto"
   stroke-miterlimit="10"
   text-rendering="auto"
   width="1312.9851"
   id="svg9188"
   version="1.1"
   inkscape:version="0.48.0 r9654"
   sodipodi:docname="transition_contraction.eps"
   style="font-size:12px;font-style:normal;font-weight:normal;fill:#000000;fill-opacity:1;stroke:#000000;stroke-width:1;stroke-linecap:square;stroke-linejoin:miter;stroke-miterlimit:10;stroke-opacity:1;stroke-dasharray:none;stroke-dashoffset:0;font-family:Dialog">
  <metadata
     id="metadata9497">
    <rdf:RDF>
      <cc:Work
         rdf:about="">
        <dc:format>image/svg+xml</dc:format>
        <dc:type
           rdf:resource="http://purl.org/dc/dcmitype/StillImage" />
        <dc:title></dc:title>
      </cc:Work>
    </rdf:RDF>
  </metadata>
  <sodipodi:namedview
     pagecolor="#ffffff"
     bordercolor="#666666"
     borderopacity="1"
     objecttolerance="10"
     gridtolerance="10"
     guidetolerance="10"
     inkscape:pageopacity="0"
     inkscape:pageshadow="2"
     inkscape:window-width="1853"
     inkscape:window-height="1058"
     id="namedview9495"
     showgrid="false"
     fit-margin-top="0"
     fit-margin-left="0"
     fit-margin-right="0"
     fit-margin-bottom="0"
     inkscape:zoom="0.768"
     inkscape:cx="781.31367"
     inkscape:cy="257.8253"
     inkscape:window-x="59"
     inkscape:window-y="-8"
     inkscape:window-maximized="1"
     inkscape:current-layer="svg9188" />
  <!--Generated by the Batik Graphics2D SVG Generator-->
  <defs
     id="genericDefs" />
  <text
     x="60.434135"
     xml:space="preserve"
     y="68.880005"
     id="text9195"
     style="font-size:25px;stroke:none" />
  <path
     d="m 54.584135,19.685 q -1.83,1.555 -3.525,2.195 -1.695,0.64 -3.635,0.64 -3.205,0 -4.925,-1.565 -1.72,-1.565 -1.72,-4 0,-1.43 0.65,-2.61 0.65,-1.18 1.7,-1.895 1.055,-0.715 2.375,-1.08 0.97,-0.255 2.93,-0.495 3.99,-0.475 5.875,-1.135 0.02,-0.675 0.02,-0.86 0,-2.015 -0.935,-2.84 -1.265,-1.115 -3.755,-1.115 -2.325,0 -3.43,0.815 -1.11,0.815 -1.64,2.885 l -3.225,-0.44 q 0.44,-2.07 1.45,-3.345 1.005,-1.27 2.91,-1.955 1.905,-0.69 4.415,-0.69 2.49,0 4.045,0.585 1.555,0.59 2.285,1.475 0.735,0.89 1.03,2.245 0.165,0.84 0.165,3.04 l 0,4.395 q 0,4.595 0.21,5.81 0.21,1.22 0.83,2.335 l -3.44,0 q -0.515,-1.025 -0.66,-2.395 z m -0.275,-7.365 q -1.795,0.735 -5.385,1.245 -2.03,0.295 -2.875,0.66 -0.84,0.365 -1.3,1.075 -0.455,0.705 -0.455,1.565 0,1.315 0.995,2.195 1,0.88 2.925,0.88 1.905,0 3.385,-0.835 1.485,-0.83 2.18,-2.28 0.53,-1.115 0.53,-3.295 l 0,-1.21 z m 15.365,5.42 0,-7.36 -7.31,0 0,-3.075 7.31,0 0,-7.305 3.11,0 0,7.305 7.305,0 0,3.075 -7.305,0 0,7.36 -3.11,0 z"
     id="path9199"
     inkscape:connector-curvature="0"
     style="font-size:0.75px;fill:#b20000;stroke:none" />
  <text
     x="260.43414"
     xml:space="preserve"
     y="68.880005"
     id="text9203"
     style="font-size:25px;stroke:none" />
  <path
     d="m 245.53914,20.985 7.105,-10.11 -6.575,-9.34 4.12,0 2.985,4.56 q 0.84,1.3 1.355,2.18 0.805,-1.21 1.485,-2.14 l 3.275,-4.6 3.935,0 -6.715,9.155 7.23,10.295 -4.045,0 -3.995,-6.045 -1.06,-1.63 -5.11,7.675 -3.99,0 z m 19.665,-8.06 0,-3.315 10.125,0 0,3.315 -10.125,0 z"
     id="path9205"
     inkscape:connector-curvature="0"
     style="font-size:0.5px;fill:#0000b2;stroke:none" />
  <text
     x="-1.6479492"
     xml:space="preserve"
     y="118.0175"
     id="text9209"
     style="font-size:25px;stroke:none">p1</text>
  <circle
     cx="0"
     cy="0"
     r="0.44999999"
     id="circle9211"
     d="M 0.44999999,0 C 0.44999999,0.24852813 0.24852813,0.44999999 0,0.44999999 -0.24852813,0.44999999 -0.44999999,0.24852813 -0.44999999,0 c 0,-0.24852813 0.20147186,-0.44999999 0.44999999,-0.44999999 0.24852813,0 0.44999999,0.20147186 0.44999999,0.44999999 z"
     sodipodi:cx="0"
     sodipodi:cy="0"
     sodipodi:rx="0.44999999"
     sodipodi:ry="0.44999999"
     style="font-size:0.5px;fill:#ffffff;stroke:none"
     transform="matrix(50,0,0,50,60.434135,111.26)" />
  <circle
     cx="0"
     cy="0"
     r="0.44999999"
     id="circle9213"
     d="M 0.44999999,0 C 0.44999999,0.24852813 0.24852813,0.44999999 0,0.44999999 -0.24852813,0.44999999 -0.44999999,0.24852813 -0.44999999,0 c 0,-0.24852813 0.20147186,-0.44999999 0.44999999,-0.44999999 0.24852813,0 0.44999999,0.20147186 0.44999999,0.44999999 z"
     sodipodi:cx="0"
     sodipodi:cy="0"
     sodipodi:rx="0.44999999"
     sodipodi:ry="0.44999999"
     style="font-size:0.5px;fill:none;stroke-width:0.1"
     transform="matrix(50,0,0,50,60.434135,111.26)" />
  <circle
     cx="0"
     cy="0"
     r="0.26320001"
     id="circle9215"
     d="M 0.26320001,0 C 0.26320001,0.14536135 0.14536135,0.26320001 0,0.26320001 -0.14536135,0.26320001 -0.26320001,0.14536135 -0.26320001,0 c 0,-0.14536135 0.11783866,-0.26320001 0.26320001,-0.26320001 0.14536135,0 0.26320001,0.11783866 0.26320001,0.26320001 z"
     sodipodi:cx="0"
     sodipodi:cy="0"
     sodipodi:rx="0.26320001"
     sodipodi:ry="0.26320001"
     style="font-size:0.5px;stroke:none"
     transform="matrix(50,0,0,50,60.434135,111.26)" />
  <text
     x="198.35205"
     xml:space="preserve"
     y="118.0175"
     id="text9219"
     style="font-size:25px;stroke:none">p2</text>
  <circle
     cx="0"
     cy="0"
     r="0.44999999"
     id="circle9221"
     d="M 0.44999999,0 C 0.44999999,0.24852813 0.24852813,0.44999999 0,0.44999999 -0.24852813,0.44999999 -0.44999999,0.24852813 -0.44999999,0 c 0,-0.24852813 0.20147186,-0.44999999 0.44999999,-0.44999999 0.24852813,0 0.44999999,0.20147186 0.44999999,0.44999999 z"
     sodipodi:cx="0"
     sodipodi:cy="0"
     sodipodi:rx="0.44999999"
     sodipodi:ry="0.44999999"
     style="font-size:0.5px;fill:#ffffff;stroke:none"
     transform="matrix(50,0,0,50,260.43414,111.26)" />
  <circle
     cx="0"
     cy="0"
     r="0.44999999"
     id="circle9223"
     d="M 0.44999999,0 C 0.44999999,0.24852813 0.24852813,0.44999999 0,0.44999999 -0.24852813,0.44999999 -0.44999999,0.24852813 -0.44999999,0 c 0,-0.24852813 0.20147186,-0.44999999 0.44999999,-0.44999999 0.24852813,0 0.44999999,0.20147186 0.44999999,0.44999999 z"
     sodipodi:cx="0"
     sodipodi:cy="0"
     sodipodi:rx="0.44999999"
     sodipodi:ry="0.44999999"
     style="font-size:0.5px;fill:none;stroke-width:0.1"
     transform="matrix(50,0,0,50,260.43414,111.26)" />
  <text
     x="60.434135"
     xml:space="preserve"
     y="468.87997"
     id="text9227"
     style="font-size:25px;stroke:none" />
  <path
     d="m 59.829135,413.86 3.24,0.42 q -0.53,3.35 -2.715,5.245 -2.19,1.895 -5.375,1.895 -3.995,0 -6.42,-2.605 -2.425,-2.61 -2.425,-7.48 0,-3.15 1.045,-5.515 1.04,-2.36 3.175,-3.54 2.135,-1.18 4.64,-1.18 3.17,0 5.185,1.6 2.015,1.6 2.58,4.55 l -3.205,0.495 q -0.455,-1.96 -1.62,-2.95 -1.16,-0.985 -2.81,-0.985 -2.49,0 -4.045,1.785 -1.56,1.785 -1.56,5.645 0,3.92 1.505,5.695 1.5,1.775 3.915,1.775 1.945,0 3.245,-1.19 1.3,-1.19 1.645,-3.66 z m 4.78,-0.935 0,-3.315 10.125,0 0,3.315 -10.125,0 z"
     id="path9229"
     inkscape:connector-curvature="0"
     style="font-size:0.5px;fill:#b20000;stroke:none" />
  <text
     x="160.43414"
     xml:space="preserve"
     y="468.82498"
     id="text9233"
     style="font-size:25px;stroke:none" />
  <path
     d="m 154.54914,424.46 0,-2.45 q -1.85,2.89 -5.44,2.89 -2.325,0 -4.275,-1.28 -1.95,-1.285 -3.02,-3.58 -1.075,-2.3 -1.075,-5.285 0,-2.91 0.975,-5.28 0.97,-2.37 2.91,-3.635 1.94,-1.265 4.34,-1.265 1.755,0 3.13,0.745 1.375,0.74 2.235,1.93 l 0,-9.63 3.275,0 0,26.84 -3.055,0 z m -10.42,-9.705 q 0,3.735 1.575,5.585 1.575,1.85 3.715,1.85 2.16,0 3.675,-1.765 1.51,-1.77 1.51,-5.395 0,-3.99 -1.54,-5.86 -1.54,-1.865 -3.79,-1.865 -2.2,0 -3.67,1.795 -1.475,1.795 -1.475,5.655 z m 25.58,5.365 0,-7.36 -7.305,0 0,-3.075 7.305,0 0,-7.305 3.11,0 0,7.305 7.31,0 0,3.075 -7.31,0 0,7.36 -3.11,0 z"
     id="path9235"
     inkscape:connector-curvature="0"
     style="font-size:0.5px;fill:#b20000;stroke:none" />
  <text
     x="260.43414"
     xml:space="preserve"
     y="468.82498"
     id="text9239"
     style="font-size:25px;stroke:none" />
  <path
     d="m 243.17914,425.845 -0.37,-3.095 q 1.08,0.295 1.885,0.295 1.1,0 1.76,-0.37 0.66,-0.365 1.08,-1.025 0.31,-0.495 1.01,-2.45 0.09,-0.275 0.29,-0.81 l -7.38,-19.48 3.555,0 4.045,11.26 q 0.79,2.145 1.41,4.505 0.57,-2.27 1.355,-4.43 l 4.155,-11.335 3.295,0 -7.395,19.775 q -1.19,3.205 -1.85,4.415 -0.88,1.625 -2.015,2.385 -1.135,0.765 -2.71,0.765 -0.95,0 -2.12,-0.405 z m 25.815,-11.83 0,-7.36 -7.305,0 0,-3.075 7.305,0 0,-7.31 3.115,0 0,7.31 7.305,0 0,3.075 -7.305,0 0,7.36 -3.115,0 z"
     id="path9241"
     inkscape:connector-curvature="0"
     style="font-size:0.5px;fill:#0000b2;stroke:none" />
  <text
     x="0.3451767"
     xml:space="preserve"
     y="318.66852"
     id="text9245"
     style="font-size:25px;stroke:none">q1</text>
  <circle
     cx="0"
     cy="0"
     r="0.44999999"
     id="circle9247"
     d="M 0.44999999,0 C 0.44999999,0.24852813 0.24852813,0.44999999 0,0.44999999 -0.24852813,0.44999999 -0.44999999,0.24852813 -0.44999999,0 c 0,-0.24852813 0.20147186,-0.44999999 0.44999999,-0.44999999 0.24852813,0 0.44999999,0.20147186 0.44999999,0.44999999 z"
     sodipodi:cx="0"
     sodipodi:cy="0"
     sodipodi:rx="0.44999999"
     sodipodi:ry="0.44999999"
     style="font-size:0.5px;fill:#ffffff;stroke:none"
     transform="matrix(50,0,0,50,60.434135,311.26)" />
  <circle
     cx="0"
     cy="0"
     r="0.44999999"
     id="circle9249"
     d="M 0.44999999,0 C 0.44999999,0.24852813 0.24852813,0.44999999 0,0.44999999 -0.24852813,0.44999999 -0.44999999,0.24852813 -0.44999999,0 c 0,-0.24852813 0.20147186,-0.44999999 0.44999999,-0.44999999 0.24852813,0 0.44999999,0.20147186 0.44999999,0.44999999 z"
     sodipodi:cx="0"
     sodipodi:cy="0"
     sodipodi:rx="0.44999999"
     sodipodi:ry="0.44999999"
     style="font-size:0.5px;fill:none;stroke-width:0.1"
     transform="matrix(50,0,0,50,60.434135,311.26)" />
  <text
     x="100.34518"
     xml:space="preserve"
     y="318.66852"
     id="text9253"
     style="font-size:25px;stroke:none">q2</text>
  <circle
     cx="0"
     cy="0"
     r="0.44999999"
     id="circle9255"
     d="M 0.44999999,0 C 0.44999999,0.24852813 0.24852813,0.44999999 0,0.44999999 -0.24852813,0.44999999 -0.44999999,0.24852813 -0.44999999,0 c 0,-0.24852813 0.20147186,-0.44999999 0.44999999,-0.44999999 0.24852813,0 0.44999999,0.20147186 0.44999999,0.44999999 z"
     sodipodi:cx="0"
     sodipodi:cy="0"
     sodipodi:rx="0.44999999"
     sodipodi:ry="0.44999999"
     style="font-size:0.5px;fill:#ffffff;stroke:none"
     transform="matrix(50,0,0,50,160.43414,311.26)" />
  <circle
     cx="0"
     cy="0"
     r="0.44999999"
     id="circle9257"
     d="M 0.44999999,0 C 0.44999999,0.24852813 0.24852813,0.44999999 0,0.44999999 -0.24852813,0.44999999 -0.44999999,0.24852813 -0.44999999,0 c 0,-0.24852813 0.20147186,-0.44999999 0.44999999,-0.44999999 0.24852813,0 0.44999999,0.20147186 0.44999999,0.44999999 z"
     sodipodi:cx="0"
     sodipodi:cy="0"
     sodipodi:rx="0.44999999"
     sodipodi:ry="0.44999999"
     style="font-size:0.5px;fill:none;stroke-width:0.1"
     transform="matrix(50,0,0,50,160.43414,311.26)" />
  <text
     x="200.34518"
     xml:space="preserve"
     y="318.66852"
     id="text9261"
     style="font-size:25px;stroke:none">q3</text>
  <circle
     cx="0"
     cy="0"
     r="0.44999999"
     id="circle9263"
     d="M 0.44999999,0 C 0.44999999,0.24852813 0.24852813,0.44999999 0,0.44999999 -0.24852813,0.44999999 -0.44999999,0.24852813 -0.44999999,0 c 0,-0.24852813 0.20147186,-0.44999999 0.44999999,-0.44999999 0.24852813,0 0.44999999,0.20147186 0.44999999,0.44999999 z"
     sodipodi:cx="0"
     sodipodi:cy="0"
     sodipodi:rx="0.44999999"
     sodipodi:ry="0.44999999"
     style="font-size:0.5px;fill:#ffffff;stroke:none"
     transform="matrix(50,0,0,50,260.43414,311.26)" />
  <circle
     cx="0"
     cy="0"
     r="0.44999999"
     id="circle9265"
     d="M 0.44999999,0 C 0.44999999,0.24852813 0.24852813,0.44999999 0,0.44999999 -0.24852813,0.44999999 -0.44999999,0.24852813 -0.44999999,0 c 0,-0.24852813 0.20147186,-0.44999999 0.44999999,-0.44999999 0.24852813,0 0.44999999,0.20147186 0.44999999,0.44999999 z"
     sodipodi:cx="0"
     sodipodi:cy="0"
     sodipodi:rx="0.44999999"
     sodipodi:ry="0.44999999"
     style="font-size:0.5px;fill:none;stroke-width:0.1"
     transform="matrix(50,0,0,50,260.43414,311.26)" />
  <circle
     cx="0"
     cy="0"
     r="0.26320001"
     id="circle9267"
     d="M 0.26320001,0 C 0.26320001,0.14536135 0.14536135,0.26320001 0,0.26320001 -0.14536135,0.26320001 -0.26320001,0.14536135 -0.26320001,0 c 0,-0.14536135 0.11783866,-0.26320001 0.26320001,-0.26320001 0.14536135,0 0.26320001,0.11783866 0.26320001,0.26320001 z"
     sodipodi:cx="0"
     sodipodi:cy="0"
     sodipodi:rx="0.26320001"
     sodipodi:ry="0.26320001"
     style="font-size:0.5px;stroke:none"
     transform="matrix(50,0,0,50,260.43414,311.26)" />
  <path
     d="m 60.434135,26.27 0,39.99"
     id="path9271"
     inkscape:connector-curvature="0"
     style="font-size:0.5px;fill:none;stroke-width:1" />
  <path
     d="m 64.184135,66.26 -7.5,0 3.75,20 z"
     id="path9273"
     inkscape:connector-curvature="0"
     style="font-size:0.5px;stroke:none" />
  <path
     d="m 260.43414,24.735 0,41.525"
     id="path9277"
     inkscape:connector-curvature="0"
     style="font-size:0.5px;fill:none;stroke-width:1" />
  <path
     d="m 264.18414,66.26 -7.5,0 3.75,20 z"
     id="path9279"
     inkscape:connector-curvature="0"
     style="font-size:0.5px;stroke:none" />
  <path
     d="m 60.434135,336.26 0,41.09"
     id="path9283"
     inkscape:connector-curvature="0"
     style="font-size:0.5px;fill:none;stroke-width:1" />
  <path
     d="m 64.184135,377.35 -7.5,0 3.75,20 z"
     id="path9285"
     inkscape:connector-curvature="0"
     style="font-size:0.5px;stroke:none" />
  <path
     d="m 160.43414,336.26 0,37.61"
     id="path9289"
     inkscape:connector-curvature="0"
     style="font-size:0.5px;fill:none;stroke-width:1" />
  <path
     d="m 164.18414,373.87 -7.5,0 3.75,20 z"
     id="path9291"
     inkscape:connector-curvature="0"
     style="font-size:0.5px;stroke:none" />
  <path
     d="m 260.43414,336.26 0,36.265"
     id="path9295"
     inkscape:connector-curvature="0"
     style="font-size:0.5px;fill:none;stroke-width:1" />
  <path
     d="m 264.18414,372.525 -7.5,0 3.75,20 z"
     id="path9297"
     inkscape:connector-curvature="0"
     style="font-size:0.5px;stroke:none" />
  <text
     x="160.43414"
     xml:space="preserve"
     y="268.87997"
     id="text9301"
     style="font-size:25px;stroke:none" />
  <path
     d="m 78.114135,128.94 56.040005,56.04"
     id="path9307"
     inkscape:connector-curvature="0"
     style="font-size:0.75px;fill:none;stroke-width:1" />
  <path
     d="m 136.80914,182.33 -5.305,5.305 16.795,11.49 z"
     id="path9309"
     inkscape:connector-curvature="0"
     style="font-size:0.75px;stroke:none" />
  <path
     d="M 148.29914,223.395 92.254135,279.44"
     id="path9313"
     inkscape:connector-curvature="0"
     style="font-size:0.75px;fill:none;stroke-width:1" />
  <path
     d="m 94.904135,282.09 -5.3,-5.3 -11.49,16.79 z"
     id="path9315"
     inkscape:connector-curvature="0"
     style="font-size:0.75px;stroke:none" />
  <path
     d="m 160.43414,228.43 0,37.83"
     id="path9319"
     inkscape:connector-curvature="0"
     style="font-size:0.75px;fill:none;stroke-width:1" />
  <path
     d="m 164.18414,266.26 -7.5,0 3.75,20 z"
     id="path9321"
     inkscape:connector-curvature="0"
     style="font-size:0.75px;stroke:none" />
  <path
     d="m 172.56914,223.395 56.045,56.045"
     id="path9325"
     inkscape:connector-curvature="0"
     style="font-size:0.75px;fill:none;stroke-width:1" />
  <path
     d="m 231.26414,276.79 -5.3,5.3 16.79,11.49 z"
     id="path9327"
     inkscape:connector-curvature="0"
     style="font-size:0.75px;stroke:none" />
  <path
     d="m 242.75414,128.94 -56.04,56.04"
     id="path9331"
     inkscape:connector-curvature="0"
     style="font-size:0.75px;fill:none;stroke-width:1" />
  <path
     d="m 189.36414,187.635 -5.305,-5.305 -11.49,16.795 z"
     id="path9333"
     inkscape:connector-curvature="0"
     style="font-size:0.75px;stroke:none" />
  <text
     x="660.43414"
     xml:space="preserve"
     y="68.880005"
     id="text9337"
     style="font-size:25px;stroke:none" />
  <path
     d="m 654.58414,19.685 q -1.83,1.555 -3.525,2.195 -1.695,0.64 -3.635,0.64 -3.205,0 -4.925,-1.565 -1.72,-1.565 -1.72,-4 0,-1.43 0.65,-2.61 0.65,-1.18 1.7,-1.895 1.055,-0.715 2.375,-1.08 0.97,-0.255 2.93,-0.495 3.99,-0.475 5.875,-1.135 0.02,-0.675 0.02,-0.86 0,-2.015 -0.935,-2.84 -1.265,-1.115 -3.755,-1.115 -2.325,0 -3.43,0.815 -1.11,0.815 -1.64,2.885 l -3.225,-0.44 q 0.44,-2.07 1.45,-3.345 1.005,-1.27 2.91,-1.955 1.905,-0.69 4.415,-0.69 2.49,0 4.045,0.585 1.555,0.59 2.285,1.475 0.735,0.89 1.03,2.245 0.165,0.84 0.165,3.04 l 0,4.395 q 0,4.595 0.21,5.81 0.21,1.22 0.83,2.335 l -3.44,0 q -0.515,-1.025 -0.66,-2.395 z m -0.275,-7.365 q -1.795,0.735 -5.385,1.245 -2.03,0.295 -2.875,0.66 -0.84,0.365 -1.3,1.075 -0.455,0.705 -0.455,1.565 0,1.315 0.995,2.195 1,0.88 2.925,0.88 1.905,0 3.385,-0.835 1.485,-0.83 2.18,-2.28 0.53,-1.115 0.53,-3.295 l 0,-1.21 z m 15.365,5.42 0,-7.36 -7.31,0 0,-3.075 7.31,0 0,-7.305 3.11,0 0,7.305 7.305,0 0,3.075 -7.305,0 0,7.36 -3.11,0 z"
     id="path9339"
     inkscape:connector-curvature="0"
     style="font-size:0.5px;fill:#b20000;stroke:none" />
  <text
     x="1110.4341"
     xml:space="preserve"
     y="68.824997"
     id="text9343"
     style="font-size:25px;stroke:none" />
  <path
     d="m 1095.5391,20.985 7.105,-10.11 -6.575,-9.34 4.12,0 2.985,4.56 q 0.84,1.3 1.355,2.18 0.805,-1.21 1.485,-2.14 l 3.275,-4.6 3.935,0 -6.715,9.155 7.23,10.295 -4.045,0 -3.995,-6.045 -1.06,-1.63 -5.11,7.675 -3.99,0 z m 19.665,-8.06 0,-3.315 10.125,0 0,3.315 -10.125,0 z"
     id="path9345"
     inkscape:connector-curvature="0"
     style="font-size:0.5px;fill:#0000b2;stroke:none" />
  <text
     x="457.92331"
     xml:space="preserve"
     y="272.70499"
     id="text9349"
     style="font-size:25px;stroke:none">(p1,q1)</text>
  <circle
     cx="0"
     cy="0"
     r="0.44999999"
     id="circle9351"
     d="M 0.44999999,0 C 0.44999999,0.24852813 0.24852813,0.44999999 0,0.44999999 -0.24852813,0.44999999 -0.44999999,0.24852813 -0.44999999,0 c 0,-0.24852813 0.20147186,-0.44999999 0.44999999,-0.44999999 0.24852813,0 0.44999999,0.20147186 0.44999999,0.44999999 z"
     sodipodi:cx="0"
     sodipodi:cy="0"
     sodipodi:rx="0.44999999"
     sodipodi:ry="0.44999999"
     style="font-size:0.5px;fill:#ffffff;stroke:none"
     transform="matrix(50,0,0,50,510.43414,211.26)" />
  <circle
     cx="0"
     cy="0"
     r="0.44999999"
     id="circle9353"
     d="M 0.44999999,0 C 0.44999999,0.24852813 0.24852813,0.44999999 0,0.44999999 -0.24852813,0.44999999 -0.44999999,0.24852813 -0.44999999,0 c 0,-0.24852813 0.20147186,-0.44999999 0.44999999,-0.44999999 0.24852813,0 0.44999999,0.20147186 0.44999999,0.44999999 z"
     sodipodi:cx="0"
     sodipodi:cy="0"
     sodipodi:rx="0.44999999"
     sodipodi:ry="0.44999999"
     style="font-size:0.5px;fill:none;stroke-width:0.1"
     transform="matrix(50,0,0,50,510.43414,211.26)" />
  <circle
     cx="0"
     cy="0"
     r="0.26320001"
     id="circle9355"
     d="M 0.26320001,0 C 0.26320001,0.14536135 0.14536135,0.26320001 0,0.26320001 -0.14536135,0.26320001 -0.26320001,0.14536135 -0.26320001,0 c 0,-0.14536135 0.11783866,-0.26320001 0.26320001,-0.26320001 0.14536135,0 0.26320001,0.11783866 0.26320001,0.26320001 z"
     sodipodi:cx="0"
     sodipodi:cy="0"
     sodipodi:rx="0.26320001"
     sodipodi:ry="0.26320001"
     style="font-size:0.5px;stroke:none"
     transform="matrix(50,0,0,50,510.43414,211.26)" />
  <text
     x="620.94415"
     xml:space="preserve"
     y="272.70499"
     id="text9359"
     style="font-size:25px;stroke:none">(p1,q2)</text>
  <circle
     cx="0"
     cy="0"
     r="0.44999999"
     id="circle9361"
     d="M 0.44999999,0 C 0.44999999,0.24852813 0.24852813,0.44999999 0,0.44999999 -0.24852813,0.44999999 -0.44999999,0.24852813 -0.44999999,0 c 0,-0.24852813 0.20147186,-0.44999999 0.44999999,-0.44999999 0.24852813,0 0.44999999,0.20147186 0.44999999,0.44999999 z"
     sodipodi:cx="0"
     sodipodi:cy="0"
     sodipodi:rx="0.44999999"
     sodipodi:ry="0.44999999"
     style="font-size:0.5px;fill:#ffffff;stroke:none"
     transform="matrix(50,0,0,50,660.43414,211.26)" />
  <circle
     cx="0"
     cy="0"
     r="0.44999999"
     id="circle9363"
     d="M 0.44999999,0 C 0.44999999,0.24852813 0.24852813,0.44999999 0,0.44999999 -0.24852813,0.44999999 -0.44999999,0.24852813 -0.44999999,0 c 0,-0.24852813 0.20147186,-0.44999999 0.44999999,-0.44999999 0.24852813,0 0.44999999,0.20147186 0.44999999,0.44999999 z"
     sodipodi:cx="0"
     sodipodi:cy="0"
     sodipodi:rx="0.44999999"
     sodipodi:ry="0.44999999"
     style="font-size:0.5px;fill:none;stroke-width:0.1"
     transform="matrix(50,0,0,50,660.43414,211.26)" />
  <circle
     cx="0"
     cy="0"
     r="0.26320001"
     id="circle9365"
     d="M 0.26320001,0 C 0.26320001,0.14536135 0.14536135,0.26320001 0,0.26320001 -0.14536135,0.26320001 -0.26320001,0.14536135 -0.26320001,0 c 0,-0.14536135 0.11783866,-0.26320001 0.26320001,-0.26320001 0.14536135,0 0.26320001,0.11783866 0.26320001,0.26320001 z"
     sodipodi:cx="0"
     sodipodi:cy="0"
     sodipodi:rx="0.26320001"
     sodipodi:ry="0.26320001"
     style="font-size:0.5px;stroke:none"
     transform="matrix(50,0,0,50,660.43414,211.26)" />
  <text
     x="770.94415"
     xml:space="preserve"
     y="272.70499"
     id="text9369"
     style="font-size:25px;stroke:none">(p1,q3)</text>
  <circle
     cx="0"
     cy="0"
     r="0.44999999"
     id="circle9371"
     d="M 0.44999999,0 C 0.44999999,0.24852813 0.24852813,0.44999999 0,0.44999999 -0.24852813,0.44999999 -0.44999999,0.24852813 -0.44999999,0 c 0,-0.24852813 0.20147186,-0.44999999 0.44999999,-0.44999999 0.24852813,0 0.44999999,0.20147186 0.44999999,0.44999999 z"
     sodipodi:cx="0"
     sodipodi:cy="0"
     sodipodi:rx="0.44999999"
     sodipodi:ry="0.44999999"
     style="font-size:0.5px;fill:#ffffff;stroke:none"
     transform="matrix(50,0,0,50,810.43414,211.26)" />
  <circle
     cx="0"
     cy="0"
     r="0.44999999"
     id="circle9373"
     d="M 0.44999999,0 C 0.44999999,0.24852813 0.24852813,0.44999999 0,0.44999999 -0.24852813,0.44999999 -0.44999999,0.24852813 -0.44999999,0 c 0,-0.24852813 0.20147186,-0.44999999 0.44999999,-0.44999999 0.24852813,0 0.44999999,0.20147186 0.44999999,0.44999999 z"
     sodipodi:cx="0"
     sodipodi:cy="0"
     sodipodi:rx="0.44999999"
     sodipodi:ry="0.44999999"
     style="font-size:0.5px;fill:none;stroke-width:0.1"
     transform="matrix(50,0,0,50,810.43414,211.26)" />
  <circle
     cx="0"
     cy="-0.1938"
     r="0.1812"
     id="circle9375"
     d="m 0.1812,-0.1938 c 0,0.10007399 -0.081126,0.1812 -0.1812,0.1812 -0.100074,0 -0.1812,-0.08112601 -0.1812,-0.1812 0,-0.100074 0.081126,-0.1812 0.1812,-0.1812 0.100074,0 0.1812,0.081126 0.1812,0.1812 z"
     sodipodi:cx="0"
     sodipodi:cy="-0.1938"
     sodipodi:rx="0.1812"
     sodipodi:ry="0.1812"
     style="font-size:0.5px;stroke:none"
     transform="matrix(43.190867,-25.190256,25.190256,43.190867,810.43414,211.26)" />
  <circle
     cx="0"
     cy="0.1938"
     r="0.1812"
     id="circle9377"
     d="M 0.1812,0.1938 C 0.1812,0.293874 0.100074,0.375 0,0.375 c -0.100074,0 -0.1812,-0.081126 -0.1812,-0.1812 0,-0.10007399 0.081126,-0.1812 0.1812,-0.1812 0.100074,0 0.1812,0.08112601 0.1812,0.1812 z"
     sodipodi:cx="0"
     sodipodi:cy="0.1938"
     sodipodi:rx="0.1812"
     sodipodi:ry="0.1812"
     style="font-size:0.5px;stroke:none"
     transform="matrix(43.190867,-25.190256,25.190256,43.190867,810.43414,211.26)" />
  <text
     x="920.94415"
     xml:space="preserve"
     y="272.70499"
     id="text9381"
     style="font-size:25px;stroke:none">(p2,q1)</text>
  <circle
     cx="0"
     cy="0"
     r="0.44999999"
     id="circle9383"
     d="M 0.44999999,0 C 0.44999999,0.24852813 0.24852813,0.44999999 0,0.44999999 -0.24852813,0.44999999 -0.44999999,0.24852813 -0.44999999,0 c 0,-0.24852813 0.20147186,-0.44999999 0.44999999,-0.44999999 0.24852813,0 0.44999999,0.20147186 0.44999999,0.44999999 z"
     sodipodi:cx="0"
     sodipodi:cy="0"
     sodipodi:rx="0.44999999"
     sodipodi:ry="0.44999999"
     style="font-size:0.5px;fill:#ffffff;stroke:none"
     transform="matrix(50,0,0,50,960.43414,211.26)" />
  <circle
     cx="0"
     cy="0"
     r="0.44999999"
     id="circle9385"
     d="M 0.44999999,0 C 0.44999999,0.24852813 0.24852813,0.44999999 0,0.44999999 -0.24852813,0.44999999 -0.44999999,0.24852813 -0.44999999,0 c 0,-0.24852813 0.20147186,-0.44999999 0.44999999,-0.44999999 0.24852813,0 0.44999999,0.20147186 0.44999999,0.44999999 z"
     sodipodi:cx="0"
     sodipodi:cy="0"
     sodipodi:rx="0.44999999"
     sodipodi:ry="0.44999999"
     style="font-size:0.5px;fill:none;stroke-width:0.1"
     transform="matrix(50,0,0,50,960.43414,211.26)" />
  <text
     x="1070.9441"
     xml:space="preserve"
     y="272.70499"
     id="text9389"
     style="font-size:25px;stroke:none">(p2,q2)</text>
  <circle
     cx="0"
     cy="0"
     r="0.44999999"
     id="circle9391"
     d="M 0.44999999,0 C 0.44999999,0.24852813 0.24852813,0.44999999 0,0.44999999 -0.24852813,0.44999999 -0.44999999,0.24852813 -0.44999999,0 c 0,-0.24852813 0.20147186,-0.44999999 0.44999999,-0.44999999 0.24852813,0 0.44999999,0.20147186 0.44999999,0.44999999 z"
     sodipodi:cx="0"
     sodipodi:cy="0"
     sodipodi:rx="0.44999999"
     sodipodi:ry="0.44999999"
     style="font-size:0.5px;fill:#ffffff;stroke:none"
     transform="matrix(50,0,0,50,1110.4341,211.26)" />
  <circle
     cx="0"
     cy="0"
     r="0.44999999"
     id="circle9393"
     d="M 0.44999999,0 C 0.44999999,0.24852813 0.24852813,0.44999999 0,0.44999999 -0.24852813,0.44999999 -0.44999999,0.24852813 -0.44999999,0 c 0,-0.24852813 0.20147186,-0.44999999 0.44999999,-0.44999999 0.24852813,0 0.44999999,0.20147186 0.44999999,0.44999999 z"
     sodipodi:cx="0"
     sodipodi:cy="0"
     sodipodi:rx="0.44999999"
     sodipodi:ry="0.44999999"
     style="font-size:0.5px;fill:none;stroke-width:0.1"
     transform="matrix(50,0,0,50,1110.4341,211.26)" />
  <text
     x="1234.616"
     xml:space="preserve"
     y="272.70499"
     id="text9397"
     style="font-size:25px;stroke:none">(p2,q3)</text>
  <circle
     cx="0"
     cy="0"
     r="0.44999999"
     id="circle9399"
     d="M 0.44999999,0 C 0.44999999,0.24852813 0.24852813,0.44999999 0,0.44999999 -0.24852813,0.44999999 -0.44999999,0.24852813 -0.44999999,0 c 0,-0.24852813 0.20147186,-0.44999999 0.44999999,-0.44999999 0.24852813,0 0.44999999,0.20147186 0.44999999,0.44999999 z"
     sodipodi:cx="0"
     sodipodi:cy="0"
     sodipodi:rx="0.44999999"
     sodipodi:ry="0.44999999"
     style="font-size:0.5px;fill:#ffffff;stroke:none"
     transform="matrix(50,0,0,50,1260.4341,211.26)" />
  <circle
     cx="0"
     cy="0"
     r="0.44999999"
     id="circle9401"
     d="M 0.44999999,0 C 0.44999999,0.24852813 0.24852813,0.44999999 0,0.44999999 -0.24852813,0.44999999 -0.44999999,0.24852813 -0.44999999,0 c 0,-0.24852813 0.20147186,-0.44999999 0.44999999,-0.44999999 0.24852813,0 0.44999999,0.20147186 0.44999999,0.44999999 z"
     sodipodi:cx="0"
     sodipodi:cy="0"
     sodipodi:rx="0.44999999"
     sodipodi:ry="0.44999999"
     style="font-size:0.5px;fill:none;stroke-width:0.1"
     transform="matrix(50,0,0,50,1260.4341,211.26)" />
  <circle
     cx="0"
     cy="0"
     r="0.26320001"
     id="circle9403"
     d="M 0.26320001,0 C 0.26320001,0.14536135 0.14536135,0.26320001 0,0.26320001 -0.14536135,0.26320001 -0.26320001,0.14536135 -0.26320001,0 c 0,-0.14536135 0.11783866,-0.26320001 0.26320001,-0.26320001 0.14536135,0 0.26320001,0.11783866 0.26320001,0.26320001 z"
     sodipodi:cx="0"
     sodipodi:cy="0"
     sodipodi:rx="0.26320001"
     sodipodi:ry="0.26320001"
     style="font-size:0.5px;stroke:none"
     transform="matrix(50,0,0,50,1260.4341,211.26)" />
  <text
     x="660.43414"
     xml:space="preserve"
     y="468.87997"
     id="text9407"
     style="font-size:25px;stroke:none" />
  <path
     d="m 659.82914,413.86 3.24,0.42 q -0.53,3.35 -2.715,5.245 -2.19,1.895 -5.375,1.895 -3.995,0 -6.42,-2.605 -2.425,-2.61 -2.425,-7.48 0,-3.15 1.045,-5.515 1.04,-2.36 3.175,-3.54 2.135,-1.18 4.64,-1.18 3.17,0 5.185,1.6 2.015,1.6 2.58,4.55 l -3.205,0.495 q -0.455,-1.96 -1.62,-2.95 -1.16,-0.985 -2.81,-0.985 -2.49,0 -4.045,1.785 -1.56,1.785 -1.56,5.645 0,3.92 1.505,5.695 1.5,1.775 3.915,1.775 1.945,0 3.245,-1.19 1.3,-1.19 1.645,-3.66 z m 4.78,-0.935 0,-3.315 10.125,0 0,3.315 -10.125,0 z"
     id="path9409"
     inkscape:connector-curvature="0"
     style="font-size:0.5px;fill:#b20000;stroke:none" />
  <text
     x="885.43414"
     xml:space="preserve"
     y="468.87997"
     id="text9413"
     style="font-size:25px;stroke:none" />
  <path
     d="m 879.54914,424.46 0,-2.45 q -1.85,2.89 -5.44,2.89 -2.325,0 -4.275,-1.28 -1.95,-1.285 -3.02,-3.58 -1.075,-2.3 -1.075,-5.285 0,-2.91 0.975,-5.28 0.97,-2.37 2.91,-3.635 1.94,-1.265 4.34,-1.265 1.755,0 3.13,0.745 1.375,0.74 2.235,1.93 l 0,-9.63 3.275,0 0,26.84 -3.055,0 z m -10.42,-9.705 q 0,3.735 1.575,5.585 1.575,1.85 3.715,1.85 2.16,0 3.675,-1.765 1.51,-1.77 1.51,-5.395 0,-3.99 -1.54,-5.86 -1.54,-1.865 -3.79,-1.865 -2.2,0 -3.67,1.795 -1.475,1.795 -1.475,5.655 z m 25.58,5.365 0,-7.36 -7.305,0 0,-3.075 7.305,0 0,-7.305 3.11,0 0,7.305 7.31,0 0,3.075 -7.31,0 0,7.36 -3.11,0 z"
     id="path9415"
     inkscape:connector-curvature="0"
     style="font-size:0.5px;fill:#b20000;stroke:none" />
  <text
     x="1110.4341"
     xml:space="preserve"
     y="468.87997"
     id="text9419"
     style="font-size:25px;stroke:none" />
  <path
     d="m 1093.1791,425.845 -0.37,-3.095 q 1.08,0.295 1.885,0.295 1.1,0 1.76,-0.37 0.66,-0.365 1.08,-1.025 0.31,-0.495 1.01,-2.45 0.09,-0.275 0.29,-0.81 l -7.38,-19.48 3.555,0 4.045,11.26 q 0.79,2.145 1.41,4.505 0.57,-2.27 1.355,-4.43 l 4.155,-11.335 3.295,0 -7.395,19.775 q -1.19,3.205 -1.85,4.415 -0.88,1.625 -2.015,2.385 -1.135,0.765 -2.71,0.765 -0.95,0 -2.12,-0.405 z m 25.815,-11.83 0,-7.36 -7.305,0 0,-3.075 7.305,0 0,-7.31 3.115,0 0,7.31 7.305,0 0,3.075 -7.305,0 0,7.36 -3.115,0 z"
     id="path9421"
     inkscape:connector-curvature="0"
     style="font-size:0.5px;fill:#0000b2;stroke:none" />
  <path
     d="m 525.43414,231.26 112.565,150.09"
     id="path9425"
     inkscape:connector-curvature="0"
     style="font-size:0.75px;fill:none;stroke-width:1" />
  <path
     d="m 640.99914,379.1 -6,4.5 15,13.75 z"
     id="path9427"
     inkscape:connector-curvature="0"
     style="font-size:0.75px;stroke:none" />
  <path
     d="m 649.17414,26.27 -111.74,148.99"
     id="path9431"
     inkscape:connector-curvature="0"
     style="font-size:0.75px;fill:none;stroke-width:1" />
  <path
     d="m 540.43414,177.51 -6,-4.5 -9,18.25 z"
     id="path9433"
     inkscape:connector-curvature="0"
     style="font-size:0.75px;stroke:none" />
  <path
     d="m 660.43414,26.27 0,139.99"
     id="path9437"
     inkscape:connector-curvature="0"
     style="font-size:0.75px;fill:none;stroke-width:1" />
  <path
     d="m 664.18414,166.26 -7.5,0 3.75,20 z"
     id="path9439"
     inkscape:connector-curvature="0"
     style="font-size:0.75px;stroke:none" />
  <path
     d="m 671.69414,26.27 111.74,148.99"
     id="path9443"
     inkscape:connector-curvature="0"
     style="font-size:0.75px;fill:none;stroke-width:1" />
  <path
     d="m 786.43414,173.01 -6,4.5 15,13.75 z"
     id="path9445"
     inkscape:connector-curvature="0"
     style="font-size:0.75px;stroke:none" />
  <path
     d="M 1100.3291,24.735 987.43414,175.26"
     id="path9449"
     inkscape:connector-curvature="0"
     style="font-size:0.75px;fill:none;stroke-width:1" />
  <path
     d="m 990.43414,177.51 -6,-4.5 -9,18.25 z"
     id="path9451"
     inkscape:connector-curvature="0"
     style="font-size:0.75px;stroke:none" />
  <path
     d="m 1110.4341,24.735 0,141.525"
     id="path9455"
     inkscape:connector-curvature="0"
     style="font-size:0.75px;fill:none;stroke-width:1" />
  <path
     d="m 1114.1841,166.26 -7.5,0 3.75,20 z"
     id="path9457"
     inkscape:connector-curvature="0"
     style="font-size:0.75px;stroke:none" />
  <path
     d="m 1120.5391,24.735 112.895,150.525"
     id="path9461"
     inkscape:connector-curvature="0"
     style="font-size:0.75px;fill:none;stroke-width:1" />
  <path
     d="m 1236.4341,173.01 -6,4.5 15,13.75 z"
     id="path9463"
     inkscape:connector-curvature="0"
     style="font-size:0.75px;stroke:none" />
  <path
     d="m 939.63414,225.125 -244.51,163.005"
     id="path9467"
     inkscape:connector-curvature="0"
     style="font-size:0.75px;fill:none;stroke-width:1" />
  <path
     d="m 697.20414,391.255 -4.16,-6.245 -14.56,14.215 z"
     id="path9469"
     inkscape:connector-curvature="0"
     style="font-size:0.75px;stroke:none" />
  <path
     d="M 1091.7491,227.87 919.94914,380.58"
     id="path9473"
     inkscape:connector-curvature="0"
     style="font-size:0.75px;fill:none;stroke-width:1" />
  <path
     d="m 922.43914,383.385 -4.985,-5.605 -12.455,16.09 z"
     id="path9475"
     inkscape:connector-curvature="0"
     style="font-size:0.75px;stroke:none" />
  <path
     d="m 1245.4341,231.26 -108.945,145.265"
     id="path9479"
     inkscape:connector-curvature="0"
     style="font-size:0.75px;fill:none;stroke-width:1" />
  <path
     d="m 1139.4891,378.775 -6,-4.5 -9,18.25 z"
     id="path9481"
     inkscape:connector-curvature="0"
     style="font-size:0.75px;stroke:none" />
  <path
     d="m 831.23414,225.125 239.82996,159.89"
     id="path9485"
     inkscape:connector-curvature="0"
     style="font-size:0.75px;fill:none;stroke-width:1" />
  <path
     d="m 1073.1441,381.895 -4.16,6.24 18.72,7.97 z"
     id="path9487"
     inkscape:connector-curvature="0"
     style="font-size:0.75px;stroke:none" />
  <path
     d="m 679.11914,227.87 171.8,152.71"
     id="path9491"
     inkscape:connector-curvature="0"
     style="font-size:0.75px;fill:none;stroke-width:1" />
  <path
     d="m 853.41414,377.78 -4.985,5.605 17.44,10.485 z"
     id="path9493"
     inkscape:connector-curvature="0"
     style="font-size:0.75px;stroke:none" />
  <text
     xml:space="preserve"
     style="font-size:40px;font-style:normal;font-weight:normal;line-height:125%;letter-spacing:0px;word-spacing:0px;fill:#000000;fill-opacity:1;stroke:none;font-family:Bitstream Vera Sans"
     x="150.26604"
     y="223.11844"
     id="text9656"
     sodipodi:linespacing="125%"><tspan
       sodipodi:role="line"
       id="tspan9658"
       x="150.26604"
       y="223.11844">λ</tspan></text>
  <text
     xml:space="preserve"
     style="font-size:107.34007263px;font-style:normal;font-weight:normal;line-height:125%;letter-spacing:0px;word-spacing:0px;fill:#000000;fill-opacity:1;stroke:none;font-family:Bitstream Vera Sans"
     x="316.18265"
     y="246.39151"
     id="text9772"
     sodipodi:linespacing="125%"><tspan
       sodipodi:role="line"
       id="tspan9774"
       x="316.18265"
       y="246.39151">⇒</tspan></text>
</svg>
