<?xml version="1.0" encoding="UTF-8" standalone="no"?>
<!-- Created with Inkscape (http://www.inkscape.org/) -->

<svg
   xmlns:dc="http://purl.org/dc/elements/1.1/"
   xmlns:cc="http://creativecommons.org/ns#"
   xmlns:rdf="http://www.w3.org/1999/02/22-rdf-syntax-ns#"
   xmlns:svg="http://www.w3.org/2000/svg"
   xmlns="http://www.w3.org/2000/svg"
   xmlns:sodipodi="http://sodipodi.sourceforge.net/DTD/sodipodi-0.dtd"
   xmlns:inkscape="http://www.inkscape.org/namespaces/inkscape"
   id="svg4041"
   version="1.1"
   inkscape:version="0.48.0 r9654"
   width="91.125"
   height="675.33081"
   xml:space="preserve"
   sodipodi:docname="par_arb_mix.svg"><metadata
     id="metadata4047"><rdf:RDF><cc:Work
         rdf:about=""><dc:format>image/svg+xml</dc:format><dc:type
           rdf:resource="http://purl.org/dc/dcmitype/StillImage" /><dc:title></dc:title></cc:Work></rdf:RDF></metadata><defs
     id="defs4045" /><sodipodi:namedview
     pagecolor="#ffffff"
     bordercolor="#666666"
     borderopacity="1"
     objecttolerance="10"
     gridtolerance="10"
     guidetolerance="10"
     inkscape:pageopacity="0"
     inkscape:pageshadow="2"
     inkscape:window-width="1224"
     inkscape:window-height="921"
     id="namedview4043"
     showgrid="false"
     inkscape:zoom="0.43561326"
     inkscape:cx="-356.91198"
     inkscape:cy="735.21015"
     inkscape:window-x="0"
     inkscape:window-y="0"
     inkscape:window-maximized="0"
     inkscape:current-layer="g4049"
     fit-margin-top="0"
     fit-margin-left="0"
     fit-margin-right="0"
     fit-margin-bottom="0" /><g
     id="g4049"
     inkscape:groupmode="layer"
     inkscape:label="seq_par_sync_mix_tree"
     transform="matrix(1.25,0,0,-1.25,-46.981249,675.33082)"><path
       inkscape:connector-curvature="0"
       id="path4053"
       style="fill:none;stroke:#000000;stroke-width:0.80000001;stroke-linecap:butt;stroke-linejoin:miter;stroke-miterlimit:4;stroke-opacity:1;stroke-dasharray:none"
       d="m 47.035,395.985 0,-21.5 m 0,0 0,-6.484 m 0,-12 0,-2.403 m 0,-6.398 0,-2.398 m 0,-6.403 0,-2.398 m 0,-12 0,-27.246" /><path
       inkscape:connector-curvature="0"
       id="path4055"
       style="fill:none;stroke:#000000;stroke-width:0.80000001;stroke-linecap:butt;stroke-linejoin:miter;stroke-miterlimit:4;stroke-opacity:1;stroke-dasharray:none"
       d="m 101.035,208.3812 c 0,-33.07667 0,-39.778 0,-72.85467"
       sodipodi:nodetypes="cc" /><path
       inkscape:connector-curvature="0"
       id="path4061"
       style="fill:#ffffff;fill-opacity:1;fill-rule:evenodd;stroke:none"
       d="m 110.035,288.45 c 0,4.969 -4.027,9 -9,9 -4.969,0 -9,-4.031 -9,-9 0,-4.969 4.031,-9 9,-9 4.973,0 9,4.031 9,9" /><path
       inkscape:connector-curvature="0"
       id="path4063"
       style="fill:#ffffff;fill-opacity:1;fill-rule:evenodd;stroke:none"
       d="m 56.035,288.45 c 0,4.969 -4.027,9 -9,9 -4.969,0 -9,-4.031 -9,-9 0,-4.969 4.031,-9 9,-9 4.973,0 9,4.031 9,9" /><path
       inkscape:connector-curvature="0"
       id="path4069"
       style="fill:#ffffff;fill-opacity:1;fill-rule:evenodd;stroke:#000000;stroke-width:0.89999998;stroke-linecap:butt;stroke-linejoin:miter;stroke-miterlimit:10;stroke-opacity:1;stroke-dasharray:none"
       d="m 74.035,494.81466 0,45" /><path
       inkscape:connector-curvature="0"
       id="path4077"
       style="fill:#000000;fill-opacity:1;fill-rule:evenodd;stroke:none"
       d="m 56.035,405.001 c 0,-4.973 -4.027,-9 -9,-9 -4.969,0 -9,4.027 -9,9 0,4.969 4.031,9 9,9 4.973,0 9,-4.031 9,-9" /><path
       inkscape:connector-curvature="0"
       id="path4079"
       style="fill:none;stroke:#000000;stroke-width:0.44999999;stroke-linecap:butt;stroke-linejoin:miter;stroke-miterlimit:10;stroke-opacity:1;stroke-dasharray:none"
       d="m 56.035,405.001 c 0,-4.973 -4.027,-9 -9,-9 -4.969,0 -9,4.027 -9,9 0,4.969 4.031,9 9,9 4.973,0 9,-4.031 9,-9 z" /><path
       inkscape:connector-curvature="0"
       id="path4081"
       style="fill:#000000;fill-opacity:1;fill-rule:evenodd;stroke:none"
       d="m 110.035,405.001 c 0,-4.973 -4.027,-9 -9,-9 -4.969,0 -9,4.027 -9,9 0,4.969 4.031,9 9,9 4.973,0 9,-4.031 9,-9" /><path
       inkscape:connector-curvature="0"
       id="path4083"
       style="fill:none;stroke:#000000;stroke-width:0.44999999;stroke-linecap:butt;stroke-linejoin:miter;stroke-miterlimit:10;stroke-opacity:1;stroke-dasharray:none"
       d="m 110.035,405.001 c 0,-4.973 -4.027,-9 -9,-9 -4.969,0 -9,4.027 -9,9 0,4.969 4.031,9 9,9 4.973,0 9,-4.031 9,-9 z" /><path
       inkscape:connector-curvature="0"
       id="path4101"
       style="fill:#ffffff;fill-opacity:1;fill-rule:evenodd;stroke:none"
       d="m 83.035,486.001 c 0,-4.973 -4.027,-9 -9,-9 -4.969,0 -9,4.027 -9,9 0,4.969 4.031,9 9,9 4.973,0 9,-4.031 9,-9" /><path
       inkscape:connector-curvature="0"
       id="path4103"
       style="fill:none;stroke:#000000;stroke-width:0.44999999;stroke-linecap:butt;stroke-linejoin:miter;stroke-miterlimit:10;stroke-opacity:1;stroke-dasharray:none"
       d="m 83.035,486.001 c 0,-4.973 -4.027,-9 -9,-9 -4.969,0 -9,4.027 -9,9 0,4.969 4.031,9 9,9 4.973,0 9,-4.031 9,-9 z" /><path
       inkscape:connector-curvature="0"
       id="path4105"
       style="fill:none;stroke:#000000;stroke-width:0.89999998;stroke-linecap:butt;stroke-linejoin:miter;stroke-miterlimit:10;stroke-opacity:1;stroke-dasharray:none"
       d="m 110.035,441.001 c 0,-19.883 -16.117,-36 -36,-36 -19.883,0 -36,16.117 -36,36 0,19.883 16.117,36 36,36 19.883,0 36,-16.117 36,-36 z" /><text
       id="text4119"
       transform="scale(1,-1)"
       x="65.935982"
       y="-427.5"><tspan
         id="tspan4121"
         sodipodi:role="line"
         y="-427.5"
         x="65.935982 73.495987"
         style="font-size:37.79999924px;font-variant:normal;font-weight:normal;writing-mode:lr-tb;fill:#000000;fill-opacity:1;fill-rule:nonzero;stroke:none;font-family:Times New Roman;-inkscape-font-specification:TimesNewRoman">||</tspan></text>
<path
       inkscape:connector-curvature="0"
       id="path4141"
       style="fill:none;stroke:#000000;stroke-width:0.44999999;stroke-linecap:butt;stroke-linejoin:miter;stroke-miterlimit:10;stroke-opacity:1;stroke-dasharray:none"
       d="m 56.035,288.45 c 0,4.969 -4.027,9 -9,9 -4.969,0 -9,-4.031 -9,-9 0,-4.969 4.031,-9 9,-9 4.973,0 9,4.031 9,9 z" /><path
       inkscape:connector-curvature="0"
       id="path4143"
       style="fill:none;stroke:#000000;stroke-width:0.44999999;stroke-linecap:butt;stroke-linejoin:miter;stroke-miterlimit:10;stroke-opacity:1;stroke-dasharray:none"
       d="m 110.035,288.45 c 0,4.969 -4.027,9 -9,9 -4.969,0 -9,-4.031 -9,-9 0,-4.969 4.031,-9 9,-9 4.973,0 9,4.031 9,9 z" /><path
       inkscape:connector-curvature="0"
       id="path4137"
       style="fill:#ffffff;fill-opacity:1;fill-rule:evenodd;stroke:#000000;stroke-width:0.89999998;stroke-linecap:butt;stroke-linejoin:miter;stroke-miterlimit:10;stroke-opacity:1;stroke-dasharray:none"
       d="m 74.035001,45.45 0,-45" /><path
       inkscape:connector-curvature="0"
       id="path4153"
       style="fill:#ffffff;fill-opacity:1;fill-rule:evenodd;stroke:none"
       d="m 56.034999,126.45 c 0,4.969 -4.027,9 -9,9 -4.969,0 -9,-4.031 -9,-9 0,-4.969 4.031,-9 9,-9 4.973,0 9,4.031 9,9" /><path
       inkscape:connector-curvature="0"
       id="path4155"
       style="fill:none;stroke:#000000;stroke-width:0.44999999;stroke-linecap:butt;stroke-linejoin:miter;stroke-miterlimit:10;stroke-opacity:1;stroke-dasharray:none"
       d="m 56.034999,126.45 c 0,4.969 -4.027,9 -9,9 -4.969,0 -9,-4.031 -9,-9 0,-4.969 4.031,-9 9,-9 4.973,0 9,4.031 9,9 z" /><path
       inkscape:connector-curvature="0"
       id="path4157"
       style="fill:#ffffff;fill-opacity:1;fill-rule:evenodd;stroke:none"
       d="m 110.035,126.45 c 0,4.969 -4.027,9 -9,9 -4.968999,0 -8.999999,-4.031 -8.999999,-9 0,-4.969 4.031,-9 8.999999,-9 4.973,0 9,4.031 9,9" /><path
       inkscape:connector-curvature="0"
       id="path4159"
       style="fill:none;stroke:#000000;stroke-width:0.44999999;stroke-linecap:butt;stroke-linejoin:miter;stroke-miterlimit:10;stroke-opacity:1;stroke-dasharray:none"
       d="m 110.035,126.45 c 0,4.969 -4.027,9 -9,9 -4.968999,0 -8.999999,-4.031 -8.999999,-9 0,-4.969 4.031,-9 8.999999,-9 4.973,0 9,4.031 9,9 z" /><path
       inkscape:connector-curvature="0"
       id="path4167"
       style="fill:#000000;fill-opacity:1;fill-rule:evenodd;stroke:none"
       d="m 83.035001,45.45 c 0,4.969 -4.027,9 -9,9 -4.969002,0 -9.000002,-4.031 -9.000002,-9 0,-4.969 4.031,-9 9.000002,-9 4.973,0 9,4.031 9,9" /><path
       inkscape:connector-curvature="0"
       id="path4169"
       style="fill:none;stroke:#000000;stroke-width:0.89999998;stroke-linecap:butt;stroke-linejoin:miter;stroke-miterlimit:10;stroke-opacity:1;stroke-dasharray:none"
       d="m 83.035001,45.45 c 0,4.969 -4.027,9 -9,9 -4.969002,0 -9.000002,-4.031 -9.000002,-9 0,-4.969 4.031,-9 9.000002,-9 4.973,0 9,4.031 9,9 z" /><path
       inkscape:connector-curvature="0"
       id="path4171"
       style="fill:none;stroke:#000000;stroke-width:0.89999998;stroke-linecap:butt;stroke-linejoin:miter;stroke-miterlimit:10;stroke-opacity:1;stroke-dasharray:none"
       d="m 110.035,90.45 c 0,19.883 -16.116999,36 -35.999999,36 -19.883002,0 -36.000002,-16.117 -36.000002,-36 0,-19.883 16.117,-36 36.000002,-36 19.883,0 35.999999,16.117 35.999999,36 z" /><text
       id="text4183"
       x="69.586533"
       y="101.21661"><tspan
         id="tspan4185"
         y="101.21661"
         x="69.586533"
         style="font-size:45px;font-variant:normal;font-weight:normal;writing-mode:lr-tb;fill:#000000;fill-opacity:1;fill-rule:nonzero;stroke:none;font-family:Times New Roman;-inkscape-font-specification:TimesNewRoman">|</tspan></text>
<g
       id="g4290"
       transform="translate(-3.3271825,0)"><path
         d="m 59.362185,216.45 c 0,-4.973 -4.027,-9 -9,-9 -4.969,0 -9,4.027 -9,9 0,4.969 4.031,9 9,9 4.973,0 9,-4.031 9,-9"
         style="fill:#000000;fill-opacity:1;fill-rule:evenodd;stroke:none"
         id="path4077-2"
         inkscape:connector-curvature="0" /><path
         d="m 59.362185,216.45 c 0,-4.973 -4.027,-9 -9,-9 -4.969,0 -9,4.027 -9,9 0,4.969 4.031,9 9,9 4.973,0 9,-4.031 9,-9 z"
         style="fill:none;stroke:#000000;stroke-width:0.44999999;stroke-linecap:butt;stroke-linejoin:miter;stroke-miterlimit:10;stroke-opacity:1;stroke-dasharray:none"
         id="path4079-0"
         inkscape:connector-curvature="0" /><path
         d="m 113.36218,216.45 c 0,-4.973 -4.02699,-9 -8.99999,-9 -4.969,0 -9,4.027 -9,9 0,4.969 4.031,9 9,9 4.973,0 8.99999,-4.031 8.99999,-9"
         style="fill:#000000;fill-opacity:1;fill-rule:evenodd;stroke:none"
         id="path4081-8"
         inkscape:connector-curvature="0" /><path
         d="m 113.36218,216.45 c 0,-4.973 -4.02699,-9 -8.99999,-9 -4.969,0 -9,4.027 -9,9 0,4.969 4.031,9 9,9 4.973,0 8.99999,-4.031 8.99999,-9 z"
         style="fill:none;stroke:#000000;stroke-width:0.44999999;stroke-linecap:butt;stroke-linejoin:miter;stroke-miterlimit:10;stroke-opacity:1;stroke-dasharray:none"
         id="path4083-1"
         inkscape:connector-curvature="0" /><path
         d="m 113.36218,252.45 c 0,-19.883 -16.11699,-36 -35.99999,-36 -19.883005,0 -36.000005,16.117 -36.000005,36 0,19.883 16.117,36 36.000005,36 19.883,0 35.99999,-16.117 35.99999,-36 z"
         style="fill:none;stroke:#000000;stroke-width:0.89999998;stroke-linecap:butt;stroke-linejoin:miter;stroke-miterlimit:10;stroke-opacity:1;stroke-dasharray:none"
         id="path4105-8"
         inkscape:connector-curvature="0" /></g><text
       xml:space="preserve"
       style="font-size:32px;font-style:normal;font-weight:normal;line-height:125%;letter-spacing:0px;word-spacing:0px;fill:#000000;fill-opacity:1;stroke:none;font-family:Sans"
       x="47.0975"
       y="-240.02859"
       id="text4297"
       sodipodi:linespacing="125%"
       transform="scale(1,-1)"><tspan
         sodipodi:role="line"
         id="tspan4299"
         x="47.0975"
         y="-240.02859">Arb</tspan></text>
<path
       sodipodi:nodetypes="cc"
       d="m 47.034999,208.3812 c 0,-33.07667 0,-39.778 0,-72.85467"
       style="fill:none;stroke:#000000;stroke-width:0.80000001;stroke-linecap:butt;stroke-linejoin:miter;stroke-miterlimit:4;stroke-opacity:1;stroke-dasharray:none"
       id="path4313"
       inkscape:connector-curvature="0" /><path
       d="m 101.035,395.985 0,-21.5 m 0,0 0,-6.484 m 0,-12 0,-2.403 m 0,-6.398 0,-2.398 m 0,-6.403 0,-2.398 m 0,-12 0,-27.246"
       style="fill:none;stroke:#000000;stroke-width:0.80000001;stroke-linecap:butt;stroke-linejoin:miter;stroke-miterlimit:4;stroke-opacity:1;stroke-dasharray:none"
       id="path4325"
       inkscape:connector-curvature="0" /></g></svg>