<?xml version="1.0" encoding="UTF-8" standalone="no"?>
<!-- Created with Inkscape (http://www.inkscape.org/) -->

<svg
   xmlns:dc="http://purl.org/dc/elements/1.1/"
   xmlns:cc="http://creativecommons.org/ns#"
   xmlns:rdf="http://www.w3.org/1999/02/22-rdf-syntax-ns#"
   xmlns:svg="http://www.w3.org/2000/svg"
   xmlns="http://www.w3.org/2000/svg"
   xmlns:sodipodi="http://sodipodi.sourceforge.net/DTD/sodipodi-0.dtd"
   xmlns:inkscape="http://www.inkscape.org/namespaces/inkscape"
   id="svg3007"
   version="1.1"
   inkscape:version="0.48.0 r9654"
   width="451.13751"
   height="304.20624"
   xml:space="preserve"
   sodipodi:docname="ParArbMix_all.svg"><metadata
     id="metadata3013"><rdf:RDF><cc:Work
         rdf:about=""><dc:format>image/svg+xml</dc:format><dc:type
           rdf:resource="http://purl.org/dc/dcmitype/StillImage" /><dc:title></dc:title></cc:Work></rdf:RDF></metadata><defs
     id="defs3011"><clipPath
       clipPathUnits="userSpaceOnUse"
       id="clipPath3023"><path
         d="m 81.6,568.8 340.56,0 0,179.88 -340.56,0 0,-179.88 z"
         clip-rule="evenodd"
         id="path3025"
         inkscape:connector-curvature="0" /></clipPath><clipPath
       clipPathUnits="userSpaceOnUse"
       id="clipPath3033"><path
         d="m 81.6,568.8 340.56,0 0,179.88 -340.56,0 0,-179.88 z"
         clip-rule="evenodd"
         id="path3035"
         inkscape:connector-curvature="0" /></clipPath><clipPath
       clipPathUnits="userSpaceOnUse"
       id="clipPath3043"><path
         d="m 81.6,568.8 340.56,0 0,179.88 -340.56,0 0,-179.88 z"
         clip-rule="evenodd"
         id="path3045"
         inkscape:connector-curvature="0" /></clipPath><clipPath
       clipPathUnits="userSpaceOnUse"
       id="clipPath3053"><path
         d="m 81.6,568.8 340.56,0 0,179.88 -340.56,0 0,-179.88 z"
         clip-rule="evenodd"
         id="path3055"
         inkscape:connector-curvature="0" /></clipPath><clipPath
       clipPathUnits="userSpaceOnUse"
       id="clipPath3063"><path
         d="m 81.6,568.8 340.56,0 0,179.88 -340.56,0 0,-179.88 z"
         clip-rule="evenodd"
         id="path3065"
         inkscape:connector-curvature="0" /></clipPath><clipPath
       clipPathUnits="userSpaceOnUse"
       id="clipPath3073"><path
         d="m 81.6,568.8 340.56,0 0,179.88 -340.56,0 0,-179.88 z"
         clip-rule="evenodd"
         id="path3075"
         inkscape:connector-curvature="0" /></clipPath><clipPath
       clipPathUnits="userSpaceOnUse"
       id="clipPath3083"><path
         d="m 81.6,568.8 340.56,0 0,179.88 -340.56,0 0,-179.88 z"
         clip-rule="evenodd"
         id="path3085"
         inkscape:connector-curvature="0" /></clipPath><clipPath
       clipPathUnits="userSpaceOnUse"
       id="clipPath3093"><path
         d="m 81.6,568.8 340.56,0 0,179.88 -340.56,0 0,-179.88 z"
         clip-rule="evenodd"
         id="path3095"
         inkscape:connector-curvature="0" /></clipPath><clipPath
       clipPathUnits="userSpaceOnUse"
       id="clipPath3153"><path
         d="m 83.52,643.44 34.56,0 0,123.48 -34.56,0 0,-123.48 z"
         clip-rule="evenodd"
         id="path3155"
         inkscape:connector-curvature="0" /></clipPath><clipPath
       clipPathUnits="userSpaceOnUse"
       id="clipPath3165"><path
         d="m 168.48,643.44 34.56,0 0,123.48 -34.56,0 0,-123.48 z"
         clip-rule="evenodd"
         id="path3167"
         inkscape:connector-curvature="0" /></clipPath><clipPath
       clipPathUnits="userSpaceOnUse"
       id="clipPath3177"><path
         d="m 253.32,643.44 34.56,0 0,123.48 -34.56,0 0,-123.48 z"
         clip-rule="evenodd"
         id="path3179"
         inkscape:connector-curvature="0" /></clipPath><clipPath
       clipPathUnits="userSpaceOnUse"
       id="clipPath3189"><path
         d="m 338.28,643.44 34.56,0 0,123.48 -34.56,0 0,-123.48 z"
         clip-rule="evenodd"
         id="path3191"
         inkscape:connector-curvature="0" /></clipPath><clipPath
       clipPathUnits="userSpaceOnUse"
       id="clipPath3201"><path
         d="m 193.44,597.6 29.52,0 0,123.6 -29.52,0 0,-123.6 z"
         clip-rule="evenodd"
         id="path3203"
         inkscape:connector-curvature="0" /></clipPath><clipPath
       clipPathUnits="userSpaceOnUse"
       id="clipPath3213"><path
         d="m 278.28,598.68 29.52,0 0,123.48 -29.52,0 0,-123.48 z"
         clip-rule="evenodd"
         id="path3215"
         inkscape:connector-curvature="0" /></clipPath><clipPath
       clipPathUnits="userSpaceOnUse"
       id="clipPath3225"><path
         d="m 365.16,598.68 29.52,0 0,123.48 -29.52,0 0,-123.48 z"
         clip-rule="evenodd"
         id="path3227"
         inkscape:connector-curvature="0" /></clipPath><clipPath
       clipPathUnits="userSpaceOnUse"
       id="clipPath3237"><path
         d="m 116.4,598.68 29.4,0 0,123.48 -29.4,0 0,-123.48 z"
         clip-rule="evenodd"
         id="path3239"
         inkscape:connector-curvature="0" /></clipPath><clipPath
       clipPathUnits="userSpaceOnUse"
       id="clipPath3249"><path
         d="m 210.24,560.28 29.52,0 0,123.6 -29.52,0 0,-123.6 z"
         clip-rule="evenodd"
         id="path3251"
         inkscape:connector-curvature="0" /></clipPath><clipPath
       clipPathUnits="userSpaceOnUse"
       id="clipPath3261"><path
         d="m 296.16,555.36 29.52,0 0,123.6 -29.52,0 0,-123.6 z"
         clip-rule="evenodd"
         id="path3263"
         inkscape:connector-curvature="0" /></clipPath><clipPath
       clipPathUnits="userSpaceOnUse"
       id="clipPath3273"><path
         d="m 380.04,554.28 29.52,0 0,123.6 -29.52,0 0,-123.6 z"
         clip-rule="evenodd"
         id="path3275"
         inkscape:connector-curvature="0" /></clipPath><clipPath
       clipPathUnits="userSpaceOnUse"
       id="clipPath3285"><path
         d="m 115.32,528.84 17.28,0 0,34.8 -17.28,0 0,-34.8 z"
         clip-rule="evenodd"
         id="path3287"
         inkscape:connector-curvature="0" /></clipPath><clipPath
       clipPathUnits="userSpaceOnUse"
       id="clipPath3297"><path
         d="m 200.28,528.84 17.28,0 0,34.8 -17.28,0 0,-34.8 z"
         clip-rule="evenodd"
         id="path3299"
         inkscape:connector-curvature="0" /></clipPath><clipPath
       clipPathUnits="userSpaceOnUse"
       id="clipPath3309"><path
         d="m 285.12,528.84 17.28,0 0,34.8 -17.28,0 0,-34.8 z"
         clip-rule="evenodd"
         id="path3311"
         inkscape:connector-curvature="0" /></clipPath><clipPath
       clipPathUnits="userSpaceOnUse"
       id="clipPath3321"><path
         d="m 370.08,528.84 17.28,0 0,34.8 -17.28,0 0,-34.8 z"
         clip-rule="evenodd"
         id="path3323"
         inkscape:connector-curvature="0" /></clipPath><clipPath
       clipPathUnits="userSpaceOnUse"
       id="clipPath3337"><path
         d="m 204.12,528.24 24.72,0 0,18.12 -24.72,0 0,-18.12 z"
         clip-rule="evenodd"
         id="path3339"
         inkscape:connector-curvature="0" /></clipPath><clipPath
       clipPathUnits="userSpaceOnUse"
       id="clipPath3353"><path
         d="m 232.08,528.24 26.04,0 0,18.12 -26.04,0 0,-18.12 z"
         clip-rule="evenodd"
         id="path3355"
         inkscape:connector-curvature="0" /></clipPath><clipPath
       clipPathUnits="userSpaceOnUse"
       id="clipPath3369"><path
         d="m 261.24,528.24 22.2,0 0,18.12 -22.2,0 0,-18.12 z"
         clip-rule="evenodd"
         id="path3371"
         inkscape:connector-curvature="0" /></clipPath><clipPath
       clipPathUnits="userSpaceOnUse"
       id="clipPath3385"><path
         d="m 286.56,528.24 41.04,0 0,18.12 -41.04,0 0,-18.12 z"
         clip-rule="evenodd"
         id="path3387"
         inkscape:connector-curvature="0" /></clipPath><clipPath
       clipPathUnits="userSpaceOnUse"
       id="clipPath3397"><path
         d="m 0,510.36 595.32,0 0,259.56 -595.32,0 0,-259.56 z"
         clip-rule="evenodd"
         id="path3399"
         inkscape:connector-curvature="0" /></clipPath><clipPath
       clipPathUnits="userSpaceOnUse"
       id="clipPath3411"><path
         d="m 81.6,312.48 339.12,0 0,177 -339.12,0 0,-177 z"
         clip-rule="evenodd"
         id="path3413"
         inkscape:connector-curvature="0" /></clipPath><clipPath
       clipPathUnits="userSpaceOnUse"
       id="clipPath3423"><path
         d="m 81.6,312.48 339.12,0 0,177 -339.12,0 0,-177 z"
         clip-rule="evenodd"
         id="path3425"
         inkscape:connector-curvature="0" /></clipPath><clipPath
       clipPathUnits="userSpaceOnUse"
       id="clipPath3435"><path
         d="m 81.6,312.48 339.12,0 0,177 -339.12,0 0,-177 z"
         clip-rule="evenodd"
         id="path3437"
         inkscape:connector-curvature="0" /></clipPath><clipPath
       clipPathUnits="userSpaceOnUse"
       id="clipPath3447"><path
         d="m 81.6,312.48 339.12,0 0,177 -339.12,0 0,-177 z"
         clip-rule="evenodd"
         id="path3449"
         inkscape:connector-curvature="0" /></clipPath><clipPath
       clipPathUnits="userSpaceOnUse"
       id="clipPath3507"><path
         d="m 83.4,386.28 34.56,0 0,121.44 -34.56,0 0,-121.44 z"
         clip-rule="evenodd"
         id="path3509"
         inkscape:connector-curvature="0" /></clipPath><clipPath
       clipPathUnits="userSpaceOnUse"
       id="clipPath3519"><path
         d="m 168,386.28 34.56,0 0,121.44 -34.56,0 0,-121.44 z"
         clip-rule="evenodd"
         id="path3521"
         inkscape:connector-curvature="0" /></clipPath><clipPath
       clipPathUnits="userSpaceOnUse"
       id="clipPath3531"><path
         d="m 252.48,386.28 34.56,0 0,121.44 -34.56,0 0,-121.44 z"
         clip-rule="evenodd"
         id="path3533"
         inkscape:connector-curvature="0" /></clipPath><clipPath
       clipPathUnits="userSpaceOnUse"
       id="clipPath3543"><path
         d="m 337.08,386.28 34.56,0 0,121.44 -34.56,0 0,-121.44 z"
         clip-rule="evenodd"
         id="path3545"
         inkscape:connector-curvature="0" /></clipPath><clipPath
       clipPathUnits="userSpaceOnUse"
       id="clipPath3555"><path
         d="m 192.84,341.28 29.52,0 0,121.44 -29.52,0 0,-121.44 z"
         clip-rule="evenodd"
         id="path3557"
         inkscape:connector-curvature="0" /></clipPath><clipPath
       clipPathUnits="userSpaceOnUse"
       id="clipPath3567"><path
         d="m 277.44,342.24 29.4,0 0,121.56 -29.4,0 0,-121.56 z"
         clip-rule="evenodd"
         id="path3569"
         inkscape:connector-curvature="0" /></clipPath><clipPath
       clipPathUnits="userSpaceOnUse"
       id="clipPath3579"><path
         d="m 363.96,342.24 29.52,0 0,121.56 -29.52,0 0,-121.56 z"
         clip-rule="evenodd"
         id="path3581"
         inkscape:connector-curvature="0" /></clipPath><clipPath
       clipPathUnits="userSpaceOnUse"
       id="clipPath3591"><path
         d="m 116.16,342.24 29.4,0 0,121.56 -29.4,0 0,-121.56 z"
         clip-rule="evenodd"
         id="path3593"
         inkscape:connector-curvature="0" /></clipPath><clipPath
       clipPathUnits="userSpaceOnUse"
       id="clipPath3603"><path
         d="m 209.64,304.56 29.52,0 0,121.56 -29.52,0 0,-121.56 z"
         clip-rule="evenodd"
         id="path3605"
         inkscape:connector-curvature="0" /></clipPath><clipPath
       clipPathUnits="userSpaceOnUse"
       id="clipPath3615"><path
         d="m 295.2,299.64 29.52,0 0,121.56 -29.52,0 0,-121.56 z"
         clip-rule="evenodd"
         id="path3617"
         inkscape:connector-curvature="0" /></clipPath><clipPath
       clipPathUnits="userSpaceOnUse"
       id="clipPath3627"><path
         d="m 378.72,298.68 29.52,0 0,121.44 -29.52,0 0,-121.44 z"
         clip-rule="evenodd"
         id="path3629"
         inkscape:connector-curvature="0" /></clipPath><clipPath
       clipPathUnits="userSpaceOnUse"
       id="clipPath3639"><path
         d="m 115.08,273.36 17.28,0 0,33.96 -17.28,0 0,-33.96 z"
         clip-rule="evenodd"
         id="path3641"
         inkscape:connector-curvature="0" /></clipPath><clipPath
       clipPathUnits="userSpaceOnUse"
       id="clipPath3651"><path
         d="m 199.68,273.36 17.28,0 0,33.96 -17.28,0 0,-33.96 z"
         clip-rule="evenodd"
         id="path3653"
         inkscape:connector-curvature="0" /></clipPath><clipPath
       clipPathUnits="userSpaceOnUse"
       id="clipPath3663"><path
         d="m 284.28,273.36 17.16,0 0,33.96 -17.16,0 0,-33.96 z"
         clip-rule="evenodd"
         id="path3665"
         inkscape:connector-curvature="0" /></clipPath><clipPath
       clipPathUnits="userSpaceOnUse"
       id="clipPath3675"><path
         d="m 368.76,273.36 17.28,0 0,33.96 -17.28,0 0,-33.96 z"
         clip-rule="evenodd"
         id="path3677"
         inkscape:connector-curvature="0" /></clipPath><clipPath
       clipPathUnits="userSpaceOnUse"
       id="clipPath3691"><path
         d="m 203.64,272.52 24.72,0 0,18 -24.72,0 0,-18 z"
         clip-rule="evenodd"
         id="path3693"
         inkscape:connector-curvature="0" /></clipPath><clipPath
       clipPathUnits="userSpaceOnUse"
       id="clipPath3707"><path
         d="m 231.48,272.52 26.04,0 0,18 -26.04,0 0,-18 z"
         clip-rule="evenodd"
         id="path3709"
         inkscape:connector-curvature="0" /></clipPath><clipPath
       clipPathUnits="userSpaceOnUse"
       id="clipPath3723"><path
         d="m 260.64,272.52 22.08,0 0,18 -22.08,0 0,-18 z"
         clip-rule="evenodd"
         id="path3725"
         inkscape:connector-curvature="0" /></clipPath><clipPath
       clipPathUnits="userSpaceOnUse"
       id="clipPath3739"><path
         d="m 285.84,272.52 41.04,0 0,18 -41.04,0 0,-18 z"
         clip-rule="evenodd"
         id="path3741"
         inkscape:connector-curvature="0" /></clipPath><clipPath
       clipPathUnits="userSpaceOnUse"
       id="clipPath3751"><path
         d="m 0,255.36 595.32,0 0,255 -595.32,0 0,-255 z"
         clip-rule="evenodd"
         id="path3753"
         inkscape:connector-curvature="0" /></clipPath></defs><sodipodi:namedview
     pagecolor="#ffffff"
     bordercolor="#666666"
     borderopacity="1"
     objecttolerance="10"
     gridtolerance="10"
     guidetolerance="10"
     inkscape:pageopacity="0"
     inkscape:pageshadow="2"
     inkscape:window-width="640"
     inkscape:window-height="480"
     id="namedview3009"
     showgrid="false"
     inkscape:zoom="0.55302165"
     inkscape:cx="296.66245"
     inkscape:cy="192.73936"
     inkscape:window-x="169"
     inkscape:window-y="31"
     inkscape:window-maximized="0"
     inkscape:current-layer="g3015"
     fit-margin-top="0"
     fit-margin-left="0"
     fit-margin-right="0"
     fit-margin-bottom="0" /><g
     id="g3015"
     inkscape:groupmode="layer"
     inkscape:label="charts"
     transform="matrix(1.25,0,0,-1.25,-91.40625,637.95)"><path
       d="m 73.56,267.36 360.12,0 0,243 -360.12,0 0,-243 z"
       style="fill:#ffffff;fill-opacity:1;fill-rule:evenodd;stroke:none"
       id="path3403"
       inkscape:connector-curvature="0" /><path
       d="m 93.12,313.56 15.36,0 0,175.92 -15.36,0 0,-175.92 z"
       style="fill:#ffffff;fill-opacity:1;fill-rule:evenodd;stroke:none"
       id="path3405"
       inkscape:connector-curvature="0" /><g
       id="g3407"><g
         id="g3409"
         clip-path="url(#clipPath3411)"><path
           d="m 93.12,313.56 15.36,0 0,175.92 -15.36,0 0,-175.92 z"
           style="fill:none;stroke:#4e4e4e;stroke-width:0.72000003;stroke-linecap:butt;stroke-linejoin:round;stroke-miterlimit:10;stroke-opacity:1;stroke-dasharray:none"
           id="path3415"
           inkscape:connector-curvature="0" /></g></g><path
       d="m 177.6,313.56 15.36,0 0,175.92 -15.36,0 0,-175.92 z"
       style="fill:#ffffff;fill-opacity:1;fill-rule:evenodd;stroke:none"
       id="path3417"
       inkscape:connector-curvature="0" /><g
       id="g3419"><g
         id="g3421"
         clip-path="url(#clipPath3423)"><path
           d="m 177.6,313.56 15.36,0 0,175.92 -15.36,0 0,-175.92 z"
           style="fill:none;stroke:#4e4e4e;stroke-width:0.72000003;stroke-linecap:butt;stroke-linejoin:round;stroke-miterlimit:10;stroke-opacity:1;stroke-dasharray:none"
           id="path3427"
           inkscape:connector-curvature="0" /></g></g><path
       d="m 262.2,313.56 15.36,0 0,175.92 -15.36,0 0,-175.92 z"
       style="fill:#ffffff;fill-opacity:1;fill-rule:evenodd;stroke:none"
       id="path3429"
       inkscape:connector-curvature="0" /><g
       id="g3431"><g
         id="g3433"
         clip-path="url(#clipPath3435)"><path
           d="m 262.2,313.56 15.36,0 0,175.92 -15.36,0 0,-175.92 z"
           style="fill:none;stroke:#4e4e4e;stroke-width:0.72000003;stroke-linecap:butt;stroke-linejoin:round;stroke-miterlimit:10;stroke-opacity:1;stroke-dasharray:none"
           id="path3439"
           inkscape:connector-curvature="0" /></g></g><path
       d="m 346.68,313.56 15.48,0 0,175.92 -15.48,0 0,-175.92 z"
       style="fill:#ffffff;fill-opacity:1;fill-rule:evenodd;stroke:none"
       id="path3441"
       inkscape:connector-curvature="0" /><g
       id="g3443"><g
         id="g3445"
         clip-path="url(#clipPath3447)"><path
           d="m 346.68,313.56 15.48,0 0,175.92 -15.48,0 0,-175.92 z"
           style="fill:none;stroke:#4e4e4e;stroke-width:0.72000003;stroke-linecap:butt;stroke-linejoin:round;stroke-miterlimit:10;stroke-opacity:1;stroke-dasharray:none"
           id="path3451"
           inkscape:connector-curvature="0" /></g></g><path
       d="m 108.48,313.56 15.36,0 0,132 -15.36,0 0,-132 z"
       style="fill:#d9d9d9;fill-opacity:1;fill-rule:evenodd;stroke:none"
       id="path3453"
       inkscape:connector-curvature="0" /><path
       d="m 108.48,313.56 15.36,0 0,132 -15.36,0 0,-132 z"
       style="fill:none;stroke:#4e4e4e;stroke-width:0.72000003;stroke-linecap:butt;stroke-linejoin:round;stroke-miterlimit:10;stroke-opacity:1;stroke-dasharray:none"
       id="path3455"
       inkscape:connector-curvature="0" /><path
       d="m 192.96,313.56 15.36,0 0,132 -15.36,0 0,-132 z"
       style="fill:#d9d9d9;fill-opacity:1;fill-rule:evenodd;stroke:none"
       id="path3457"
       inkscape:connector-curvature="0" /><path
       d="m 192.96,313.56 15.36,0 0,132 -15.36,0 0,-132 z"
       style="fill:none;stroke:#4e4e4e;stroke-width:0.72000003;stroke-linecap:butt;stroke-linejoin:round;stroke-miterlimit:10;stroke-opacity:1;stroke-dasharray:none"
       id="path3459"
       inkscape:connector-curvature="0" /><path
       d="m 277.56,313.56 15.36,0 0,132 -15.36,0 0,-132 z"
       style="fill:#d9d9d9;fill-opacity:1;fill-rule:evenodd;stroke:none"
       id="path3461"
       inkscape:connector-curvature="0" /><path
       d="m 277.56,313.56 15.36,0 0,132 -15.36,0 0,-132 z"
       style="fill:none;stroke:#4e4e4e;stroke-width:0.72000003;stroke-linecap:butt;stroke-linejoin:round;stroke-miterlimit:10;stroke-opacity:1;stroke-dasharray:none"
       id="path3463"
       inkscape:connector-curvature="0" /><path
       d="m 362.16,313.56 15.36,0 0,132 -15.36,0 0,-132 z"
       style="fill:#d9d9d9;fill-opacity:1;fill-rule:evenodd;stroke:none"
       id="path3465"
       inkscape:connector-curvature="0" /><path
       d="m 362.16,313.56 15.36,0 0,132 -15.36,0 0,-132 z"
       style="fill:none;stroke:#4e4e4e;stroke-width:0.72000003;stroke-linecap:butt;stroke-linejoin:round;stroke-miterlimit:10;stroke-opacity:1;stroke-dasharray:none"
       id="path3467"
       inkscape:connector-curvature="0" /><path
       d="m 123.84,313.56 15.36,0 0,132 -15.36,0 0,-132 z"
       style="fill:#7f7f7f;fill-opacity:1;fill-rule:evenodd;stroke:none"
       id="path3469"
       inkscape:connector-curvature="0" /><path
       d="m 123.84,313.56 15.36,0 0,132 -15.36,0 0,-132 z"
       style="fill:none;stroke:#4e4e4e;stroke-width:0.72000003;stroke-linecap:butt;stroke-linejoin:round;stroke-miterlimit:10;stroke-opacity:1;stroke-dasharray:none"
       id="path3471"
       inkscape:connector-curvature="0" /><path
       d="m 208.32,313.56 15.48,0 0,94.2 -15.48,0 0,-94.2 z"
       style="fill:#7f7f7f;fill-opacity:1;fill-rule:evenodd;stroke:none"
       id="path3473"
       inkscape:connector-curvature="0" /><path
       d="m 208.32,313.56 15.48,0 0,94.2 -15.48,0 0,-94.2 z"
       style="fill:none;stroke:#4e4e4e;stroke-width:0.72000003;stroke-linecap:butt;stroke-linejoin:round;stroke-miterlimit:10;stroke-opacity:1;stroke-dasharray:none"
       id="path3475"
       inkscape:connector-curvature="0" /><path
       d="m 292.92,313.56 15.36,0 0,89.4 -15.36,0 0,-89.4 z"
       style="fill:#7f7f7f;fill-opacity:1;fill-rule:evenodd;stroke:none"
       id="path3477"
       inkscape:connector-curvature="0" /><path
       d="m 292.92,313.56 15.36,0 0,89.4 -15.36,0 0,-89.4 z"
       style="fill:none;stroke:#4e4e4e;stroke-width:0.72000003;stroke-linecap:butt;stroke-linejoin:round;stroke-miterlimit:10;stroke-opacity:1;stroke-dasharray:none"
       id="path3479"
       inkscape:connector-curvature="0" /><path
       d="m 377.52,313.56 15.36,0 0,88.32 -15.36,0 0,-88.32 z"
       style="fill:#7f7f7f;fill-opacity:1;fill-rule:evenodd;stroke:none"
       id="path3481"
       inkscape:connector-curvature="0" /><path
       d="m 377.52,313.56 15.36,0 0,88.32 -15.36,0 0,-88.32 z"
       style="fill:none;stroke:#4e4e4e;stroke-width:0.72000003;stroke-linecap:butt;stroke-linejoin:round;stroke-miterlimit:10;stroke-opacity:1;stroke-dasharray:none"
       id="path3483"
       inkscape:connector-curvature="0" /><path
       d="m 139.2,313.56 15.36,0 0,132 -15.36,0 0,-132 z"
       style="fill:#000000;fill-opacity:1;fill-rule:evenodd;stroke:none"
       id="path3485"
       inkscape:connector-curvature="0" /><path
       d="m 139.2,313.56 15.36,0 0,132 -15.36,0 0,-132 z"
       style="fill:none;stroke:#4e4e4e;stroke-width:0.72000003;stroke-linecap:butt;stroke-linejoin:round;stroke-miterlimit:10;stroke-opacity:1;stroke-dasharray:none"
       id="path3487"
       inkscape:connector-curvature="0" /><path
       d="m 223.8,313.56 15.36,0 0,94.2 -15.36,0 0,-94.2 z"
       style="fill:#000000;fill-opacity:1;fill-rule:evenodd;stroke:none"
       id="path3489"
       inkscape:connector-curvature="0" /><path
       d="m 223.8,313.56 15.36,0 0,94.2 -15.36,0 0,-94.2 z"
       style="fill:none;stroke:#4e4e4e;stroke-width:0.72000003;stroke-linecap:butt;stroke-linejoin:round;stroke-miterlimit:10;stroke-opacity:1;stroke-dasharray:none"
       id="path3491"
       inkscape:connector-curvature="0" /><path
       d="m 308.28,313.56 15.36,0 0,89.4 -15.36,0 0,-89.4 z"
       style="fill:#000000;fill-opacity:1;fill-rule:evenodd;stroke:none"
       id="path3493"
       inkscape:connector-curvature="0" /><path
       d="m 308.28,313.56 15.36,0 0,89.4 -15.36,0 0,-89.4 z"
       style="fill:none;stroke:#4e4e4e;stroke-width:0.72000003;stroke-linecap:butt;stroke-linejoin:round;stroke-miterlimit:10;stroke-opacity:1;stroke-dasharray:none"
       id="path3495"
       inkscape:connector-curvature="0" /><path
       d="m 392.88,313.56 15.36,0 0,88.32 -15.36,0 0,-88.32 z"
       style="fill:#000000;fill-opacity:1;fill-rule:evenodd;stroke:none"
       id="path3497"
       inkscape:connector-curvature="0" /><path
       d="m 392.88,313.56 15.36,0 0,88.32 -15.36,0 0,-88.32 z"
       style="fill:none;stroke:#4e4e4e;stroke-width:0.72000003;stroke-linecap:butt;stroke-linejoin:round;stroke-miterlimit:10;stroke-opacity:1;stroke-dasharray:none"
       id="path3499"
       inkscape:connector-curvature="0" /><path
       d="m 81.6,313.56 338.16,0"
       style="fill:none;stroke:#868686;stroke-width:0.72000003;stroke-linecap:butt;stroke-linejoin:round;stroke-miterlimit:10;stroke-opacity:1;stroke-dasharray:none"
       id="path3501"
       inkscape:connector-curvature="0" /><g
       id="g3503"><g
         id="g3505"
         clip-path="url(#clipPath3507)"><text
           transform="matrix(1,0,0,-1,89.568,496.75)"
           id="text3511"><tspan
             style="font-size:9.96000004px;font-variant:normal;font-weight:normal;writing-mode:lr-tb;fill:#000000;fill-opacity:1;fill-rule:nonzero;stroke:none;font-family:Calibri;-inkscape-font-specification:Calibri"
             x="0 5.04 10.08 15.12"
             y="0"
             sodipodi:role="line"
             id="tspan3513">100%</tspan></text>
</g></g><g
       id="g3515"><g
         id="g3517"
         clip-path="url(#clipPath3519)"><text
           transform="matrix(1,0,0,-1,174.12,496.75)"
           id="text3523"><tspan
             style="font-size:9.96000004px;font-variant:normal;font-weight:normal;writing-mode:lr-tb;fill:#000000;fill-opacity:1;fill-rule:nonzero;stroke:none;font-family:Calibri;-inkscape-font-specification:Calibri"
             x="0 5.04 10.08 15.12"
             y="0"
             sodipodi:role="line"
             id="tspan3525">100%</tspan></text>
</g></g><g
       id="g3527"><g
         id="g3529"
         clip-path="url(#clipPath3531)"><text
           transform="matrix(1,0,0,-1,258.7,496.75)"
           id="text3535"><tspan
             style="font-size:9.96000004px;font-variant:normal;font-weight:normal;writing-mode:lr-tb;fill:#000000;fill-opacity:1;fill-rule:nonzero;stroke:none;font-family:Calibri;-inkscape-font-specification:Calibri"
             x="0 5.04 10.08 15.12"
             y="0"
             sodipodi:role="line"
             id="tspan3537">100%</tspan></text>
</g></g><g
       id="g3539"><g
         id="g3541"
         clip-path="url(#clipPath3543)"><text
           transform="matrix(1,0,0,-1,343.25,496.75)"
           id="text3547"><tspan
             style="font-size:9.96000004px;font-variant:normal;font-weight:normal;writing-mode:lr-tb;fill:#000000;fill-opacity:1;fill-rule:nonzero;stroke:none;font-family:Calibri;-inkscape-font-specification:Calibri"
             x="0 5.04 10.08 15.12"
             y="0"
             sodipodi:role="line"
             id="tspan3549">100%</tspan></text>
</g></g><g
       id="g3551"><g
         id="g3553"
         clip-path="url(#clipPath3555)"><text
           transform="matrix(1,0,0,-1,199.01,451.73)"
           id="text3559"><tspan
             style="font-size:9.96000004px;font-variant:normal;font-weight:normal;writing-mode:lr-tb;fill:#000000;fill-opacity:1;fill-rule:nonzero;stroke:none;font-family:Calibri;-inkscape-font-specification:Calibri"
             x="0 5.04 10.08"
             y="0"
             sodipodi:role="line"
             id="tspan3561">75%</tspan></text>
</g></g><g
       id="g3563"><g
         id="g3565"
         clip-path="url(#clipPath3567)"><text
           transform="matrix(1,0,0,-1,283.56,452.74)"
           id="text3571"><tspan
             style="font-size:9.96000004px;font-variant:normal;font-weight:normal;writing-mode:lr-tb;fill:#000000;fill-opacity:1;fill-rule:nonzero;stroke:none;font-family:Calibri;-inkscape-font-specification:Calibri"
             x="0 5.04 10.08"
             y="0"
             sodipodi:role="line"
             id="tspan3573">75%</tspan></text>
</g></g><g
       id="g3575"><g
         id="g3577"
         clip-path="url(#clipPath3579)"><text
           transform="matrix(1,0,0,-1,370.13,452.74)"
           id="text3583"><tspan
             style="font-size:9.96000004px;font-variant:normal;font-weight:normal;writing-mode:lr-tb;fill:#000000;fill-opacity:1;fill-rule:nonzero;stroke:none;font-family:Calibri;-inkscape-font-specification:Calibri"
             x="0 5.04 10.08"
             y="0"
             sodipodi:role="line"
             id="tspan3585">75%</tspan></text>
</g></g><g
       id="g3587"><g
         id="g3589"
         clip-path="url(#clipPath3591)"><text
           transform="matrix(1,0,0,-1,122.26,452.71)"
           id="text3595"><tspan
             style="font-size:9.96000004px;font-variant:normal;font-weight:normal;writing-mode:lr-tb;fill:#000000;fill-opacity:1;fill-rule:nonzero;stroke:none;font-family:Calibri;-inkscape-font-specification:Calibri"
             x="0 5.04 10.08"
             y="0"
             sodipodi:role="line"
             id="tspan3597">75%</tspan></text>
</g></g><g
       id="g3599"><g
         id="g3601"
         clip-path="url(#clipPath3603)"><text
           transform="matrix(1,0,0,-1,215.78,415.03)"
           id="text3607"><tspan
             style="font-size:9.96000004px;font-variant:normal;font-weight:normal;writing-mode:lr-tb;fill:#000000;fill-opacity:1;fill-rule:nonzero;stroke:none;font-family:Calibri;-inkscape-font-specification:Calibri"
             x="0 5.04 10.08"
             y="0"
             sodipodi:role="line"
             id="tspan3609">54%</tspan></text>
</g></g><g
       id="g3611"><g
         id="g3613"
         clip-path="url(#clipPath3615)"><text
           transform="matrix(1,0,0,-1,301.34,410.16)"
           id="text3619"><tspan
             style="font-size:9.96000004px;font-variant:normal;font-weight:normal;writing-mode:lr-tb;fill:#000000;fill-opacity:1;fill-rule:nonzero;stroke:none;font-family:Calibri;-inkscape-font-specification:Calibri"
             x="0 5.04 10.08"
             y="0"
             sodipodi:role="line"
             id="tspan3621">51%</tspan></text>
</g></g><g
       id="g3623"><g
         id="g3625"
         clip-path="url(#clipPath3627)"><text
           transform="matrix(1,0,0,-1,384.91,409.1)"
           id="text3631"><tspan
             style="font-size:9.96000004px;font-variant:normal;font-weight:normal;writing-mode:lr-tb;fill:#000000;fill-opacity:1;fill-rule:nonzero;stroke:none;font-family:Calibri;-inkscape-font-specification:Calibri"
             x="0 5.04 10.08"
             y="0"
             sodipodi:role="line"
             id="tspan3633">50%</tspan></text>
</g></g><g
       id="g3635"><g
         id="g3637"
         clip-path="url(#clipPath3639)"><text
           transform="matrix(1,0,0,-1,121.22,297.79)"
           id="text3643"><tspan
             style="font-size:9.96000004px;font-variant:normal;font-weight:normal;writing-mode:lr-tb;fill:#000000;fill-opacity:1;fill-rule:nonzero;stroke:none;font-family:Calibri;-inkscape-font-specification:Calibri"
             x="0"
             y="0"
             id="tspan3645">2</tspan></text>
</g></g><g
       id="g3647"><g
         id="g3649"
         clip-path="url(#clipPath3651)"><text
           transform="matrix(1,0,0,-1,205.8,297.79)"
           id="text3655"><tspan
             style="font-size:9.96000004px;font-variant:normal;font-weight:normal;writing-mode:lr-tb;fill:#000000;fill-opacity:1;fill-rule:nonzero;stroke:none;font-family:Calibri;-inkscape-font-specification:Calibri"
             x="0"
             y="0"
             id="tspan3657">4</tspan></text>
</g></g><g
       id="g3659"><g
         id="g3661"
         clip-path="url(#clipPath3663)"><text
           transform="matrix(1,0,0,-1,290.35,297.79)"
           id="text3667"><tspan
             style="font-size:9.96000004px;font-variant:normal;font-weight:normal;writing-mode:lr-tb;fill:#000000;fill-opacity:1;fill-rule:nonzero;stroke:none;font-family:Calibri;-inkscape-font-specification:Calibri"
             x="0"
             y="0"
             id="tspan3669">6</tspan></text>
</g></g><g
       id="g3671"><g
         id="g3673"
         clip-path="url(#clipPath3675)"><text
           transform="matrix(1,0,0,-1,374.93,297.79)"
           id="text3679"><tspan
             style="font-size:9.96000004px;font-variant:normal;font-weight:normal;writing-mode:lr-tb;fill:#000000;fill-opacity:1;fill-rule:nonzero;stroke:none;font-family:Calibri;-inkscape-font-specification:Calibri"
             x="0"
             y="0"
             id="tspan3681">8</tspan></text>
</g></g><path
       d="m 201.96,281.04 5.52,0 0,5.52 -5.52,0 0,-5.52 z"
       style="fill:#ffffff;fill-opacity:1;fill-rule:evenodd;stroke:none"
       id="path3683"
       inkscape:connector-curvature="0" /><path
       d="m 201.96,281.04 5.52,0 0,5.52 -5.52,0 0,-5.52 z"
       style="fill:none;stroke:#4e4e4e;stroke-width:0.72000003;stroke-linecap:butt;stroke-linejoin:round;stroke-miterlimit:10;stroke-opacity:1;stroke-dasharray:none"
       id="path3685"
       inkscape:connector-curvature="0" /><g
       id="g3687"><g
         id="g3689"
         clip-path="url(#clipPath3691)"><text
           transform="matrix(1,0,0,-1,209.76,280.99)"
           id="text3695"><tspan
             style="font-size:9.96000004px;font-variant:normal;font-weight:normal;writing-mode:lr-tb;fill:#000000;fill-opacity:1;fill-rule:nonzero;stroke:none;font-family:Calibri;-inkscape-font-specification:Calibri"
             x="0 3.8445599 7.18116"
             y="0"
             sodipodi:role="line"
             id="tspan3697">std</tspan></text>
</g></g><path
       d="m 229.8,281.04 5.4,0 0,5.52 -5.4,0 0,-5.52 z"
       style="fill:#d9d9d9;fill-opacity:1;fill-rule:evenodd;stroke:none"
       id="path3699"
       inkscape:connector-curvature="0" /><path
       d="m 229.8,281.04 5.4,0 0,5.52 -5.4,0 0,-5.52 z"
       style="fill:none;stroke:#4e4e4e;stroke-width:0.72000003;stroke-linecap:butt;stroke-linejoin:round;stroke-miterlimit:10;stroke-opacity:1;stroke-dasharray:none"
       id="path3701"
       inkscape:connector-curvature="0" /><g
       id="g3703"><g
         id="g3705"
         clip-path="url(#clipPath3707)"><text
           transform="matrix(1,0,0,-1,237.6,280.99)"
           id="text3711"><tspan
             style="font-size:9.96000004px;font-variant:normal;font-weight:normal;writing-mode:lr-tb;fill:#000000;fill-opacity:1;fill-rule:nonzero;stroke:none;font-family:Calibri;-inkscape-font-specification:Calibri"
             x="0 5.2688398 10.53768"
             y="0"
             sodipodi:role="line"
             id="tspan3713">opt</tspan></text>
</g></g><path
       d="m 258.96,281.04 5.4,0 0,5.52 -5.4,0 0,-5.52 z"
       style="fill:#7f7f7f;fill-opacity:1;fill-rule:evenodd;stroke:none"
       id="path3715"
       inkscape:connector-curvature="0" /><path
       d="m 258.96,281.04 5.4,0 0,5.52 -5.4,0 0,-5.52 z"
       style="fill:none;stroke:#4e4e4e;stroke-width:0.72000003;stroke-linecap:butt;stroke-linejoin:round;stroke-miterlimit:10;stroke-opacity:1;stroke-dasharray:none"
       id="path3717"
       inkscape:connector-curvature="0" /><g
       id="g3719"><g
         id="g3721"
         clip-path="url(#clipPath3723)"><text
           transform="matrix(1,0,0,-1,266.76,280.99)"
           id="text3727"><tspan
             style="font-size:9.96000004px;font-variant:normal;font-weight:normal;writing-mode:lr-tb;fill:#000000;fill-opacity:1;fill-rule:nonzero;stroke:none;font-family:Calibri;-inkscape-font-specification:Calibri"
             x="0 2.2908001 7.5496802"
             y="0"
             sodipodi:role="line"
             id="tspan3729">inj</tspan></text>
</g></g><path
       d="m 284.16,281.04 5.52,0 0,5.52 -5.52,0 0,-5.52 z"
       style="fill:#000000;fill-opacity:1;fill-rule:evenodd;stroke:none"
       id="path3731"
       inkscape:connector-curvature="0" /><path
       d="m 284.16,281.04 5.52,0 0,5.52 -5.52,0 0,-5.52 z"
       style="fill:none;stroke:#4e4e4e;stroke-width:0.72000003;stroke-linecap:butt;stroke-linejoin:round;stroke-miterlimit:10;stroke-opacity:1;stroke-dasharray:none"
       id="path3733"
       inkscape:connector-curvature="0" /><g
       id="g3735"><g
         id="g3737"
         clip-path="url(#clipPath3739)"><text
           transform="matrix(1,0,0,-1,292.01,280.99)"
           id="text3743"><tspan
             style="font-size:9.96000004px;font-variant:normal;font-weight:normal;writing-mode:lr-tb;fill:#000000;fill-opacity:1;fill-rule:nonzero;stroke:none;font-family:Calibri;-inkscape-font-specification:Calibri"
             x="0 5.2688398 10.53768 13.87428 18.83436 21.12516 26.35416"
             y="0"
             sodipodi:role="line"
             id="tspan3745">opt+inj</tspan></text>
</g></g><g
       id="g3747"><g
         id="g3749"
         clip-path="url(#clipPath3751)"><path
           d="m 73.5,267.37 360.16,0 0,243.03 -360.16,0 0,-243.03 z"
           style="fill:none;stroke:#868686;stroke-width:0.75;stroke-linecap:butt;stroke-linejoin:round;stroke-miterlimit:10;stroke-opacity:1;stroke-dasharray:none"
           id="path3755"
           inkscape:connector-curvature="0" /></g></g></g></svg>