<?xml version="1.0" encoding="UTF-8" standalone="no"?>
<!-- Created with Inkscape (http://www.inkscape.org/) -->

<svg
   xmlns:dc="http://purl.org/dc/elements/1.1/"
   xmlns:cc="http://creativecommons.org/ns#"
   xmlns:rdf="http://www.w3.org/1999/02/22-rdf-syntax-ns#"
   xmlns:svg="http://www.w3.org/2000/svg"
   xmlns="http://www.w3.org/2000/svg"
   xmlns:sodipodi="http://sodipodi.sourceforge.net/DTD/sodipodi-0.dtd"
   xmlns:inkscape="http://www.inkscape.org/namespaces/inkscape"
   id="svg3007"
   version="1.1"
   inkscape:version="0.48.0 r9654"
   width="453.01251"
   height="309.31876"
   xml:space="preserve"
   sodipodi:docname="charts.pdf"><metadata
     id="metadata3013"><rdf:RDF><cc:Work
         rdf:about=""><dc:format>image/svg+xml</dc:format><dc:type
           rdf:resource="http://purl.org/dc/dcmitype/StillImage" /><dc:title></dc:title></cc:Work></rdf:RDF></metadata><defs
     id="defs3011"><clipPath
       clipPathUnits="userSpaceOnUse"
       id="clipPath3023"><path
         d="m 81.6,568.8 340.56,0 0,179.88 -340.56,0 0,-179.88 z"
         clip-rule="evenodd"
         id="path3025"
         inkscape:connector-curvature="0" /></clipPath><clipPath
       clipPathUnits="userSpaceOnUse"
       id="clipPath3033"><path
         d="m 81.6,568.8 340.56,0 0,179.88 -340.56,0 0,-179.88 z"
         clip-rule="evenodd"
         id="path3035"
         inkscape:connector-curvature="0" /></clipPath><clipPath
       clipPathUnits="userSpaceOnUse"
       id="clipPath3043"><path
         d="m 81.6,568.8 340.56,0 0,179.88 -340.56,0 0,-179.88 z"
         clip-rule="evenodd"
         id="path3045"
         inkscape:connector-curvature="0" /></clipPath><clipPath
       clipPathUnits="userSpaceOnUse"
       id="clipPath3053"><path
         d="m 81.6,568.8 340.56,0 0,179.88 -340.56,0 0,-179.88 z"
         clip-rule="evenodd"
         id="path3055"
         inkscape:connector-curvature="0" /></clipPath><clipPath
       clipPathUnits="userSpaceOnUse"
       id="clipPath3063"><path
         d="m 81.6,568.8 340.56,0 0,179.88 -340.56,0 0,-179.88 z"
         clip-rule="evenodd"
         id="path3065"
         inkscape:connector-curvature="0" /></clipPath><clipPath
       clipPathUnits="userSpaceOnUse"
       id="clipPath3073"><path
         d="m 81.6,568.8 340.56,0 0,179.88 -340.56,0 0,-179.88 z"
         clip-rule="evenodd"
         id="path3075"
         inkscape:connector-curvature="0" /></clipPath><clipPath
       clipPathUnits="userSpaceOnUse"
       id="clipPath3083"><path
         d="m 81.6,568.8 340.56,0 0,179.88 -340.56,0 0,-179.88 z"
         clip-rule="evenodd"
         id="path3085"
         inkscape:connector-curvature="0" /></clipPath><clipPath
       clipPathUnits="userSpaceOnUse"
       id="clipPath3093"><path
         d="m 81.6,568.8 340.56,0 0,179.88 -340.56,0 0,-179.88 z"
         clip-rule="evenodd"
         id="path3095"
         inkscape:connector-curvature="0" /></clipPath><clipPath
       clipPathUnits="userSpaceOnUse"
       id="clipPath3153"><path
         d="m 83.52,643.44 34.56,0 0,123.48 -34.56,0 0,-123.48 z"
         clip-rule="evenodd"
         id="path3155"
         inkscape:connector-curvature="0" /></clipPath><clipPath
       clipPathUnits="userSpaceOnUse"
       id="clipPath3165"><path
         d="m 168.48,643.44 34.56,0 0,123.48 -34.56,0 0,-123.48 z"
         clip-rule="evenodd"
         id="path3167"
         inkscape:connector-curvature="0" /></clipPath><clipPath
       clipPathUnits="userSpaceOnUse"
       id="clipPath3177"><path
         d="m 253.32,643.44 34.56,0 0,123.48 -34.56,0 0,-123.48 z"
         clip-rule="evenodd"
         id="path3179"
         inkscape:connector-curvature="0" /></clipPath><clipPath
       clipPathUnits="userSpaceOnUse"
       id="clipPath3189"><path
         d="m 338.28,643.44 34.56,0 0,123.48 -34.56,0 0,-123.48 z"
         clip-rule="evenodd"
         id="path3191"
         inkscape:connector-curvature="0" /></clipPath><clipPath
       clipPathUnits="userSpaceOnUse"
       id="clipPath3201"><path
         d="m 193.44,597.6 29.52,0 0,123.6 -29.52,0 0,-123.6 z"
         clip-rule="evenodd"
         id="path3203"
         inkscape:connector-curvature="0" /></clipPath><clipPath
       clipPathUnits="userSpaceOnUse"
       id="clipPath3213"><path
         d="m 278.28,598.68 29.52,0 0,123.48 -29.52,0 0,-123.48 z"
         clip-rule="evenodd"
         id="path3215"
         inkscape:connector-curvature="0" /></clipPath><clipPath
       clipPathUnits="userSpaceOnUse"
       id="clipPath3225"><path
         d="m 365.16,598.68 29.52,0 0,123.48 -29.52,0 0,-123.48 z"
         clip-rule="evenodd"
         id="path3227"
         inkscape:connector-curvature="0" /></clipPath><clipPath
       clipPathUnits="userSpaceOnUse"
       id="clipPath3237"><path
         d="m 116.4,598.68 29.4,0 0,123.48 -29.4,0 0,-123.48 z"
         clip-rule="evenodd"
         id="path3239"
         inkscape:connector-curvature="0" /></clipPath><clipPath
       clipPathUnits="userSpaceOnUse"
       id="clipPath3249"><path
         d="m 210.24,560.28 29.52,0 0,123.6 -29.52,0 0,-123.6 z"
         clip-rule="evenodd"
         id="path3251"
         inkscape:connector-curvature="0" /></clipPath><clipPath
       clipPathUnits="userSpaceOnUse"
       id="clipPath3261"><path
         d="m 296.16,555.36 29.52,0 0,123.6 -29.52,0 0,-123.6 z"
         clip-rule="evenodd"
         id="path3263"
         inkscape:connector-curvature="0" /></clipPath><clipPath
       clipPathUnits="userSpaceOnUse"
       id="clipPath3273"><path
         d="m 380.04,554.28 29.52,0 0,123.6 -29.52,0 0,-123.6 z"
         clip-rule="evenodd"
         id="path3275"
         inkscape:connector-curvature="0" /></clipPath><clipPath
       clipPathUnits="userSpaceOnUse"
       id="clipPath3285"><path
         d="m 115.32,528.84 17.28,0 0,34.8 -17.28,0 0,-34.8 z"
         clip-rule="evenodd"
         id="path3287"
         inkscape:connector-curvature="0" /></clipPath><clipPath
       clipPathUnits="userSpaceOnUse"
       id="clipPath3297"><path
         d="m 200.28,528.84 17.28,0 0,34.8 -17.28,0 0,-34.8 z"
         clip-rule="evenodd"
         id="path3299"
         inkscape:connector-curvature="0" /></clipPath><clipPath
       clipPathUnits="userSpaceOnUse"
       id="clipPath3309"><path
         d="m 285.12,528.84 17.28,0 0,34.8 -17.28,0 0,-34.8 z"
         clip-rule="evenodd"
         id="path3311"
         inkscape:connector-curvature="0" /></clipPath><clipPath
       clipPathUnits="userSpaceOnUse"
       id="clipPath3321"><path
         d="m 370.08,528.84 17.28,0 0,34.8 -17.28,0 0,-34.8 z"
         clip-rule="evenodd"
         id="path3323"
         inkscape:connector-curvature="0" /></clipPath><clipPath
       clipPathUnits="userSpaceOnUse"
       id="clipPath3337"><path
         d="m 204.12,528.24 24.72,0 0,18.12 -24.72,0 0,-18.12 z"
         clip-rule="evenodd"
         id="path3339"
         inkscape:connector-curvature="0" /></clipPath><clipPath
       clipPathUnits="userSpaceOnUse"
       id="clipPath3353"><path
         d="m 232.08,528.24 26.04,0 0,18.12 -26.04,0 0,-18.12 z"
         clip-rule="evenodd"
         id="path3355"
         inkscape:connector-curvature="0" /></clipPath><clipPath
       clipPathUnits="userSpaceOnUse"
       id="clipPath3369"><path
         d="m 261.24,528.24 22.2,0 0,18.12 -22.2,0 0,-18.12 z"
         clip-rule="evenodd"
         id="path3371"
         inkscape:connector-curvature="0" /></clipPath><clipPath
       clipPathUnits="userSpaceOnUse"
       id="clipPath3385"><path
         d="m 286.56,528.24 41.04,0 0,18.12 -41.04,0 0,-18.12 z"
         clip-rule="evenodd"
         id="path3387"
         inkscape:connector-curvature="0" /></clipPath><clipPath
       clipPathUnits="userSpaceOnUse"
       id="clipPath3397"><path
         d="m 0,510.36 595.32,0 0,259.56 -595.32,0 0,-259.56 z"
         clip-rule="evenodd"
         id="path3399"
         inkscape:connector-curvature="0" /></clipPath><clipPath
       clipPathUnits="userSpaceOnUse"
       id="clipPath3411"><path
         d="m 81.6,312.48 339.12,0 0,177 -339.12,0 0,-177 z"
         clip-rule="evenodd"
         id="path3413"
         inkscape:connector-curvature="0" /></clipPath><clipPath
       clipPathUnits="userSpaceOnUse"
       id="clipPath3423"><path
         d="m 81.6,312.48 339.12,0 0,177 -339.12,0 0,-177 z"
         clip-rule="evenodd"
         id="path3425"
         inkscape:connector-curvature="0" /></clipPath><clipPath
       clipPathUnits="userSpaceOnUse"
       id="clipPath3435"><path
         d="m 81.6,312.48 339.12,0 0,177 -339.12,0 0,-177 z"
         clip-rule="evenodd"
         id="path3437"
         inkscape:connector-curvature="0" /></clipPath><clipPath
       clipPathUnits="userSpaceOnUse"
       id="clipPath3447"><path
         d="m 81.6,312.48 339.12,0 0,177 -339.12,0 0,-177 z"
         clip-rule="evenodd"
         id="path3449"
         inkscape:connector-curvature="0" /></clipPath><clipPath
       clipPathUnits="userSpaceOnUse"
       id="clipPath3507"><path
         d="m 83.4,386.28 34.56,0 0,121.44 -34.56,0 0,-121.44 z"
         clip-rule="evenodd"
         id="path3509"
         inkscape:connector-curvature="0" /></clipPath><clipPath
       clipPathUnits="userSpaceOnUse"
       id="clipPath3519"><path
         d="m 168,386.28 34.56,0 0,121.44 -34.56,0 0,-121.44 z"
         clip-rule="evenodd"
         id="path3521"
         inkscape:connector-curvature="0" /></clipPath><clipPath
       clipPathUnits="userSpaceOnUse"
       id="clipPath3531"><path
         d="m 252.48,386.28 34.56,0 0,121.44 -34.56,0 0,-121.44 z"
         clip-rule="evenodd"
         id="path3533"
         inkscape:connector-curvature="0" /></clipPath><clipPath
       clipPathUnits="userSpaceOnUse"
       id="clipPath3543"><path
         d="m 337.08,386.28 34.56,0 0,121.44 -34.56,0 0,-121.44 z"
         clip-rule="evenodd"
         id="path3545"
         inkscape:connector-curvature="0" /></clipPath><clipPath
       clipPathUnits="userSpaceOnUse"
       id="clipPath3555"><path
         d="m 192.84,341.28 29.52,0 0,121.44 -29.52,0 0,-121.44 z"
         clip-rule="evenodd"
         id="path3557"
         inkscape:connector-curvature="0" /></clipPath><clipPath
       clipPathUnits="userSpaceOnUse"
       id="clipPath3567"><path
         d="m 277.44,342.24 29.4,0 0,121.56 -29.4,0 0,-121.56 z"
         clip-rule="evenodd"
         id="path3569"
         inkscape:connector-curvature="0" /></clipPath><clipPath
       clipPathUnits="userSpaceOnUse"
       id="clipPath3579"><path
         d="m 363.96,342.24 29.52,0 0,121.56 -29.52,0 0,-121.56 z"
         clip-rule="evenodd"
         id="path3581"
         inkscape:connector-curvature="0" /></clipPath><clipPath
       clipPathUnits="userSpaceOnUse"
       id="clipPath3591"><path
         d="m 116.16,342.24 29.4,0 0,121.56 -29.4,0 0,-121.56 z"
         clip-rule="evenodd"
         id="path3593"
         inkscape:connector-curvature="0" /></clipPath><clipPath
       clipPathUnits="userSpaceOnUse"
       id="clipPath3603"><path
         d="m 209.64,304.56 29.52,0 0,121.56 -29.52,0 0,-121.56 z"
         clip-rule="evenodd"
         id="path3605"
         inkscape:connector-curvature="0" /></clipPath><clipPath
       clipPathUnits="userSpaceOnUse"
       id="clipPath3615"><path
         d="m 295.2,299.64 29.52,0 0,121.56 -29.52,0 0,-121.56 z"
         clip-rule="evenodd"
         id="path3617"
         inkscape:connector-curvature="0" /></clipPath><clipPath
       clipPathUnits="userSpaceOnUse"
       id="clipPath3627"><path
         d="m 378.72,298.68 29.52,0 0,121.44 -29.52,0 0,-121.44 z"
         clip-rule="evenodd"
         id="path3629"
         inkscape:connector-curvature="0" /></clipPath><clipPath
       clipPathUnits="userSpaceOnUse"
       id="clipPath3639"><path
         d="m 115.08,273.36 17.28,0 0,33.96 -17.28,0 0,-33.96 z"
         clip-rule="evenodd"
         id="path3641"
         inkscape:connector-curvature="0" /></clipPath><clipPath
       clipPathUnits="userSpaceOnUse"
       id="clipPath3651"><path
         d="m 199.68,273.36 17.28,0 0,33.96 -17.28,0 0,-33.96 z"
         clip-rule="evenodd"
         id="path3653"
         inkscape:connector-curvature="0" /></clipPath><clipPath
       clipPathUnits="userSpaceOnUse"
       id="clipPath3663"><path
         d="m 284.28,273.36 17.16,0 0,33.96 -17.16,0 0,-33.96 z"
         clip-rule="evenodd"
         id="path3665"
         inkscape:connector-curvature="0" /></clipPath><clipPath
       clipPathUnits="userSpaceOnUse"
       id="clipPath3675"><path
         d="m 368.76,273.36 17.28,0 0,33.96 -17.28,0 0,-33.96 z"
         clip-rule="evenodd"
         id="path3677"
         inkscape:connector-curvature="0" /></clipPath><clipPath
       clipPathUnits="userSpaceOnUse"
       id="clipPath3691"><path
         d="m 203.64,272.52 24.72,0 0,18 -24.72,0 0,-18 z"
         clip-rule="evenodd"
         id="path3693"
         inkscape:connector-curvature="0" /></clipPath><clipPath
       clipPathUnits="userSpaceOnUse"
       id="clipPath3707"><path
         d="m 231.48,272.52 26.04,0 0,18 -26.04,0 0,-18 z"
         clip-rule="evenodd"
         id="path3709"
         inkscape:connector-curvature="0" /></clipPath><clipPath
       clipPathUnits="userSpaceOnUse"
       id="clipPath3723"><path
         d="m 260.64,272.52 22.08,0 0,18 -22.08,0 0,-18 z"
         clip-rule="evenodd"
         id="path3725"
         inkscape:connector-curvature="0" /></clipPath><clipPath
       clipPathUnits="userSpaceOnUse"
       id="clipPath3739"><path
         d="m 285.84,272.52 41.04,0 0,18 -41.04,0 0,-18 z"
         clip-rule="evenodd"
         id="path3741"
         inkscape:connector-curvature="0" /></clipPath><clipPath
       clipPathUnits="userSpaceOnUse"
       id="clipPath3751"><path
         d="m 0,255.36 595.32,0 0,255 -595.32,0 0,-255 z"
         clip-rule="evenodd"
         id="path3753"
         inkscape:connector-curvature="0" /></clipPath></defs><sodipodi:namedview
     pagecolor="#ffffff"
     bordercolor="#666666"
     borderopacity="1"
     objecttolerance="10"
     gridtolerance="10"
     guidetolerance="10"
     inkscape:pageopacity="0"
     inkscape:pageshadow="2"
     inkscape:window-width="640"
     inkscape:window-height="480"
     id="namedview3009"
     showgrid="false"
     fit-margin-top="0"
     fit-margin-left="0"
     fit-margin-right="0"
     fit-margin-bottom="0"
     inkscape:zoom="0.78209072"
     inkscape:cx="166.82365"
     inkscape:cy="155.08479"
     inkscape:window-x="169"
     inkscape:window-y="31"
     inkscape:window-maximized="0"
     inkscape:current-layer="g3015" /><g
     id="g3015"
     inkscape:groupmode="layer"
     inkscape:label="charts"
     transform="matrix(1.25,0,0,-1.25,-91.40625,962.4)"><path
       d="m 73.56,522.84 361.68,0 0,247.08 -361.68,0 0,-247.08 z"
       style="fill:#ffffff;fill-opacity:1;fill-rule:evenodd;stroke:none"
       id="path3017"
       inkscape:connector-curvature="0" /><g
       id="g3019"><g
         id="g3021"
         clip-path="url(#clipPath3023)"><path
           d="m 93.12,569.76 15.48,0 0,178.92 -15.48,0 0,-178.92 z"
           style="fill:#ffffff;fill-opacity:1;fill-rule:evenodd;stroke:none"
           id="path3027"
           inkscape:connector-curvature="0" /></g></g><g
       id="g3029"><g
         id="g3031"
         clip-path="url(#clipPath3033)"><path
           d="m 93.12,569.76 15.48,0 0,178.92 -15.48,0 0,-178.92 z"
           style="fill:none;stroke:#4e4e4e;stroke-width:0.72000003;stroke-linecap:butt;stroke-linejoin:round;stroke-miterlimit:10;stroke-opacity:1;stroke-dasharray:none"
           id="path3037"
           inkscape:connector-curvature="0" /></g></g><g
       id="g3039"><g
         id="g3041"
         clip-path="url(#clipPath3043)"><path
           d="m 178.08,569.76 15.36,0 0,178.92 -15.36,0 0,-178.92 z"
           style="fill:#ffffff;fill-opacity:1;fill-rule:evenodd;stroke:none"
           id="path3047"
           inkscape:connector-curvature="0" /></g></g><g
       id="g3049"><g
         id="g3051"
         clip-path="url(#clipPath3053)"><path
           d="m 178.08,569.76 15.36,0 0,178.92 -15.36,0 0,-178.92 z"
           style="fill:none;stroke:#4e4e4e;stroke-width:0.72000003;stroke-linecap:butt;stroke-linejoin:round;stroke-miterlimit:10;stroke-opacity:1;stroke-dasharray:none"
           id="path3057"
           inkscape:connector-curvature="0" /></g></g><g
       id="g3059"><g
         id="g3061"
         clip-path="url(#clipPath3063)"><path
           d="m 262.92,569.76 15.48,0 0,178.92 -15.48,0 0,-178.92 z"
           style="fill:#ffffff;fill-opacity:1;fill-rule:evenodd;stroke:none"
           id="path3067"
           inkscape:connector-curvature="0" /></g></g><g
       id="g3069"><g
         id="g3071"
         clip-path="url(#clipPath3073)"><path
           d="m 262.92,569.76 15.48,0 0,178.92 -15.48,0 0,-178.92 z"
           style="fill:none;stroke:#4e4e4e;stroke-width:0.72000003;stroke-linecap:butt;stroke-linejoin:round;stroke-miterlimit:10;stroke-opacity:1;stroke-dasharray:none"
           id="path3077"
           inkscape:connector-curvature="0" /></g></g><g
       id="g3079"><g
         id="g3081"
         clip-path="url(#clipPath3083)"><path
           d="m 347.88,569.76 15.48,0 0,178.92 -15.48,0 0,-178.92 z"
           style="fill:#ffffff;fill-opacity:1;fill-rule:evenodd;stroke:none"
           id="path3087"
           inkscape:connector-curvature="0" /></g></g><g
       id="g3089"><g
         id="g3091"
         clip-path="url(#clipPath3093)"><path
           d="m 347.88,569.76 15.48,0 0,178.92 -15.48,0 0,-178.92 z"
           style="fill:none;stroke:#4e4e4e;stroke-width:0.72000003;stroke-linecap:butt;stroke-linejoin:round;stroke-miterlimit:10;stroke-opacity:1;stroke-dasharray:none"
           id="path3097"
           inkscape:connector-curvature="0" /></g></g><path
       d="m 108.6,569.76 15.48,0 0,134.28 -15.48,0 0,-134.28 z"
       style="fill:#d9d9d9;fill-opacity:1;fill-rule:evenodd;stroke:none"
       id="path3099"
       inkscape:connector-curvature="0" /><path
       d="m 108.6,569.76 15.48,0 0,134.28 -15.48,0 0,-134.28 z"
       style="fill:none;stroke:#4e4e4e;stroke-width:0.72000003;stroke-linecap:butt;stroke-linejoin:round;stroke-miterlimit:10;stroke-opacity:1;stroke-dasharray:none"
       id="path3101"
       inkscape:connector-curvature="0" /><path
       d="m 193.44,569.76 15.48,0 0,134.28 -15.48,0 0,-134.28 z"
       style="fill:#d9d9d9;fill-opacity:1;fill-rule:evenodd;stroke:none"
       id="path3103"
       inkscape:connector-curvature="0" /><path
       d="m 193.44,569.76 15.48,0 0,134.28 -15.48,0 0,-134.28 z"
       style="fill:none;stroke:#4e4e4e;stroke-width:0.72000003;stroke-linecap:butt;stroke-linejoin:round;stroke-miterlimit:10;stroke-opacity:1;stroke-dasharray:none"
       id="path3105"
       inkscape:connector-curvature="0" /><path
       d="m 278.4,569.76 15.48,0 0,134.28 -15.48,0 0,-134.28 z"
       style="fill:#d9d9d9;fill-opacity:1;fill-rule:evenodd;stroke:none"
       id="path3107"
       inkscape:connector-curvature="0" /><path
       d="m 278.4,569.76 15.48,0 0,134.28 -15.48,0 0,-134.28 z"
       style="fill:none;stroke:#4e4e4e;stroke-width:0.72000003;stroke-linecap:butt;stroke-linejoin:round;stroke-miterlimit:10;stroke-opacity:1;stroke-dasharray:none"
       id="path3109"
       inkscape:connector-curvature="0" /><path
       d="m 363.36,569.76 15.36,0 0,134.28 -15.36,0 0,-134.28 z"
       style="fill:#d9d9d9;fill-opacity:1;fill-rule:evenodd;stroke:none"
       id="path3111"
       inkscape:connector-curvature="0" /><path
       d="m 363.36,569.76 15.36,0 0,134.28 -15.36,0 0,-134.28 z"
       style="fill:none;stroke:#4e4e4e;stroke-width:0.72000003;stroke-linecap:butt;stroke-linejoin:round;stroke-miterlimit:10;stroke-opacity:1;stroke-dasharray:none"
       id="path3113"
       inkscape:connector-curvature="0" /><path
       d="m 124.08,569.76 15.36,0 0,134.28 -15.36,0 0,-134.28 z"
       style="fill:#7f7f7f;fill-opacity:1;fill-rule:evenodd;stroke:none"
       id="path3115"
       inkscape:connector-curvature="0" /><path
       d="m 124.08,569.76 15.36,0 0,134.28 -15.36,0 0,-134.28 z"
       style="fill:none;stroke:#4e4e4e;stroke-width:0.72000003;stroke-linecap:butt;stroke-linejoin:round;stroke-miterlimit:10;stroke-opacity:1;stroke-dasharray:none"
       id="path3117"
       inkscape:connector-curvature="0" /><path
       d="m 208.92,569.76 15.48,0 0,95.88 -15.48,0 0,-95.88 z"
       style="fill:#7f7f7f;fill-opacity:1;fill-rule:evenodd;stroke:none"
       id="path3119"
       inkscape:connector-curvature="0" /><path
       d="m 208.92,569.76 15.48,0 0,95.88 -15.48,0 0,-95.88 z"
       style="fill:none;stroke:#4e4e4e;stroke-width:0.72000003;stroke-linecap:butt;stroke-linejoin:round;stroke-miterlimit:10;stroke-opacity:1;stroke-dasharray:none"
       id="path3121"
       inkscape:connector-curvature="0" /><path
       d="m 293.88,569.76 15.36,0 0,90.96 -15.36,0 0,-90.96 z"
       style="fill:#7f7f7f;fill-opacity:1;fill-rule:evenodd;stroke:none"
       id="path3123"
       inkscape:connector-curvature="0" /><path
       d="m 293.88,569.76 15.36,0 0,90.96 -15.36,0 0,-90.96 z"
       style="fill:none;stroke:#4e4e4e;stroke-width:0.72000003;stroke-linecap:butt;stroke-linejoin:round;stroke-miterlimit:10;stroke-opacity:1;stroke-dasharray:none"
       id="path3125"
       inkscape:connector-curvature="0" /><path
       d="m 378.72,569.76 15.48,0 0,89.88 -15.48,0 0,-89.88 z"
       style="fill:#7f7f7f;fill-opacity:1;fill-rule:evenodd;stroke:none"
       id="path3127"
       inkscape:connector-curvature="0" /><path
       d="m 378.72,569.76 15.48,0 0,89.88 -15.48,0 0,-89.88 z"
       style="fill:none;stroke:#4e4e4e;stroke-width:0.72000003;stroke-linecap:butt;stroke-linejoin:round;stroke-miterlimit:10;stroke-opacity:1;stroke-dasharray:none"
       id="path3129"
       inkscape:connector-curvature="0" /><path
       d="m 139.44,569.76 15.48,0 0,134.28 -15.48,0 0,-134.28 z"
       style="fill:#000000;fill-opacity:1;fill-rule:evenodd;stroke:none"
       id="path3131"
       inkscape:connector-curvature="0" /><path
       d="m 139.44,569.76 15.48,0 0,134.28 -15.48,0 0,-134.28 z"
       style="fill:none;stroke:#4e4e4e;stroke-width:0.72000003;stroke-linecap:butt;stroke-linejoin:round;stroke-miterlimit:10;stroke-opacity:1;stroke-dasharray:none"
       id="path3133"
       inkscape:connector-curvature="0" /><path
       d="m 224.4,569.76 15.36,0 0,95.88 -15.36,0 0,-95.88 z"
       style="fill:#000000;fill-opacity:1;fill-rule:evenodd;stroke:none"
       id="path3135"
       inkscape:connector-curvature="0" /><path
       d="m 224.4,569.76 15.36,0 0,95.88 -15.36,0 0,-95.88 z"
       style="fill:none;stroke:#4e4e4e;stroke-width:0.72000003;stroke-linecap:butt;stroke-linejoin:round;stroke-miterlimit:10;stroke-opacity:1;stroke-dasharray:none"
       id="path3137"
       inkscape:connector-curvature="0" /><path
       d="m 309.24,569.76 15.48,0 0,90.96 -15.48,0 0,-90.96 z"
       style="fill:#000000;fill-opacity:1;fill-rule:evenodd;stroke:none"
       id="path3139"
       inkscape:connector-curvature="0" /><path
       d="m 309.24,569.76 15.48,0 0,90.96 -15.48,0 0,-90.96 z"
       style="fill:none;stroke:#4e4e4e;stroke-width:0.72000003;stroke-linecap:butt;stroke-linejoin:round;stroke-miterlimit:10;stroke-opacity:1;stroke-dasharray:none"
       id="path3141"
       inkscape:connector-curvature="0" /><path
       d="m 394.2,569.76 15.36,0 0,89.88 -15.36,0 0,-89.88 z"
       style="fill:#000000;fill-opacity:1;fill-rule:evenodd;stroke:none"
       id="path3143"
       inkscape:connector-curvature="0" /><path
       d="m 394.2,569.76 15.36,0 0,89.88 -15.36,0 0,-89.88 z"
       style="fill:none;stroke:#4e4e4e;stroke-width:0.72000003;stroke-linecap:butt;stroke-linejoin:round;stroke-miterlimit:10;stroke-opacity:1;stroke-dasharray:none"
       id="path3145"
       inkscape:connector-curvature="0" /><path
       d="m 81.6,569.76 339.6,0"
       style="fill:none;stroke:#868686;stroke-width:0.72000003;stroke-linecap:butt;stroke-linejoin:round;stroke-miterlimit:10;stroke-opacity:1;stroke-dasharray:none"
       id="path3147"
       inkscape:connector-curvature="0" /><g
       id="g3149"><g
         id="g3151"
         clip-path="url(#clipPath3153)"><text
           transform="matrix(1,0,0,-1,89.76,755.95)"
           id="text3157"><tspan
             style="font-size:9.96000004px;font-variant:normal;font-weight:normal;writing-mode:lr-tb;fill:#000000;fill-opacity:1;fill-rule:nonzero;stroke:none;font-family:Calibri;-inkscape-font-specification:Calibri"
             x="0 5.04 10.08 15.12"
             y="0"
             sodipodi:role="line"
             id="tspan3159">100%</tspan></text>
</g></g><g
       id="g3161"><g
         id="g3163"
         clip-path="url(#clipPath3165)"><text
           transform="matrix(1,0,0,-1,174.67,755.95)"
           id="text3169"><tspan
             style="font-size:9.96000004px;font-variant:normal;font-weight:normal;writing-mode:lr-tb;fill:#000000;fill-opacity:1;fill-rule:nonzero;stroke:none;font-family:Calibri;-inkscape-font-specification:Calibri"
             x="0 5.04 10.08 15.12"
             y="0"
             sodipodi:role="line"
             id="tspan3171">100%</tspan></text>
</g></g><g
       id="g3173"><g
         id="g3175"
         clip-path="url(#clipPath3177)"><text
           transform="matrix(1,0,0,-1,259.61,755.95)"
           id="text3181"><tspan
             style="font-size:9.96000004px;font-variant:normal;font-weight:normal;writing-mode:lr-tb;fill:#000000;fill-opacity:1;fill-rule:nonzero;stroke:none;font-family:Calibri;-inkscape-font-specification:Calibri"
             x="0 5.04 10.08 15.12"
             y="0"
             sodipodi:role="line"
             id="tspan3183">100%</tspan></text>
</g></g><g
       id="g3185"><g
         id="g3187"
         clip-path="url(#clipPath3189)"><text
           transform="matrix(1,0,0,-1,344.52,755.95)"
           id="text3193"><tspan
             style="font-size:9.96000004px;font-variant:normal;font-weight:normal;writing-mode:lr-tb;fill:#000000;fill-opacity:1;fill-rule:nonzero;stroke:none;font-family:Calibri;-inkscape-font-specification:Calibri"
             x="0 5.04 10.08 15.12"
             y="0"
             sodipodi:role="line"
             id="tspan3195">100%</tspan></text>
</g></g><g
       id="g3197"><g
         id="g3199"
         clip-path="url(#clipPath3201)"><text
           transform="matrix(1,0,0,-1,199.66,710.18)"
           id="text3205"><tspan
             style="font-size:9.96000004px;font-variant:normal;font-weight:normal;writing-mode:lr-tb;fill:#000000;fill-opacity:1;fill-rule:nonzero;stroke:none;font-family:Calibri;-inkscape-font-specification:Calibri"
             x="0 5.04 10.08"
             y="0"
             sodipodi:role="line"
             id="tspan3207">75%</tspan></text>
</g></g><g
       id="g3209"><g
         id="g3211"
         clip-path="url(#clipPath3213)"><text
           transform="matrix(1,0,0,-1,284.57,711.22)"
           id="text3217"><tspan
             style="font-size:9.96000004px;font-variant:normal;font-weight:normal;writing-mode:lr-tb;fill:#000000;fill-opacity:1;fill-rule:nonzero;stroke:none;font-family:Calibri;-inkscape-font-specification:Calibri"
             x="0 5.04 10.08"
             y="0"
             sodipodi:role="line"
             id="tspan3219">75%</tspan></text>
</g></g><g
       id="g3221"><g
         id="g3223"
         clip-path="url(#clipPath3225)"><text
           transform="matrix(1,0,0,-1,371.5,711.22)"
           id="text3229"><tspan
             style="font-size:9.96000004px;font-variant:normal;font-weight:normal;writing-mode:lr-tb;fill:#000000;fill-opacity:1;fill-rule:nonzero;stroke:none;font-family:Calibri;-inkscape-font-specification:Calibri"
             x="0 5.04 10.08"
             y="0"
             sodipodi:role="line"
             id="tspan3231">75%</tspan></text>
</g></g><g
       id="g3233"><g
         id="g3235"
         clip-path="url(#clipPath3237)"><text
           transform="matrix(1,0,0,-1,122.57,711.17)"
           id="text3241"><tspan
             style="font-size:9.96000004px;font-variant:normal;font-weight:normal;writing-mode:lr-tb;fill:#000000;fill-opacity:1;fill-rule:nonzero;stroke:none;font-family:Calibri;-inkscape-font-specification:Calibri"
             x="0 5.04 10.08"
             y="0"
             sodipodi:role="line"
             id="tspan3243">75%</tspan></text>
</g></g><g
       id="g3245"><g
         id="g3247"
         clip-path="url(#clipPath3249)"><text
           transform="matrix(1,0,0,-1,216.5,672.86)"
           id="text3253"><tspan
             style="font-size:9.96000004px;font-variant:normal;font-weight:normal;writing-mode:lr-tb;fill:#000000;fill-opacity:1;fill-rule:nonzero;stroke:none;font-family:Calibri;-inkscape-font-specification:Calibri"
             x="0 5.04 10.08"
             y="0"
             sodipodi:role="line"
             id="tspan3255">54%</tspan></text>
</g></g><g
       id="g3257"><g
         id="g3259"
         clip-path="url(#clipPath3261)"><text
           transform="matrix(1,0,0,-1,302.42,667.92)"
           id="text3265"><tspan
             style="font-size:9.96000004px;font-variant:normal;font-weight:normal;writing-mode:lr-tb;fill:#000000;fill-opacity:1;fill-rule:nonzero;stroke:none;font-family:Calibri;-inkscape-font-specification:Calibri"
             x="0 5.04 10.08"
             y="0"
             sodipodi:role="line"
             id="tspan3267">51%</tspan></text>
</g></g><g
       id="g3269"><g
         id="g3271"
         clip-path="url(#clipPath3273)"><text
           transform="matrix(1,0,0,-1,386.35,666.84)"
           id="text3277"><tspan
             style="font-size:9.96000004px;font-variant:normal;font-weight:normal;writing-mode:lr-tb;fill:#000000;fill-opacity:1;fill-rule:nonzero;stroke:none;font-family:Calibri;-inkscape-font-specification:Calibri"
             x="0 5.04 10.08"
             y="0"
             sodipodi:role="line"
             id="tspan3279">50%</tspan></text>
</g></g><g
       id="g3281"><g
         id="g3283"
         clip-path="url(#clipPath3285)"><text
           transform="matrix(1,0,0,-1,121.51,554.06)"
           id="text3289"><tspan
             style="font-size:9.96000004px;font-variant:normal;font-weight:normal;writing-mode:lr-tb;fill:#000000;fill-opacity:1;fill-rule:nonzero;stroke:none;font-family:Calibri;-inkscape-font-specification:Calibri"
             x="0"
             y="0"
             id="tspan3291">2</tspan></text>
</g></g><g
       id="g3293"><g
         id="g3295"
         clip-path="url(#clipPath3297)"><text
           transform="matrix(1,0,0,-1,206.42,554.06)"
           id="text3301"><tspan
             style="font-size:9.96000004px;font-variant:normal;font-weight:normal;writing-mode:lr-tb;fill:#000000;fill-opacity:1;fill-rule:nonzero;stroke:none;font-family:Calibri;-inkscape-font-specification:Calibri"
             x="0"
             y="0"
             id="tspan3303">4</tspan></text>
</g></g><g
       id="g3305"><g
         id="g3307"
         clip-path="url(#clipPath3309)"><text
           transform="matrix(1,0,0,-1,291.34,554.06)"
           id="text3313"><tspan
             style="font-size:9.96000004px;font-variant:normal;font-weight:normal;writing-mode:lr-tb;fill:#000000;fill-opacity:1;fill-rule:nonzero;stroke:none;font-family:Calibri;-inkscape-font-specification:Calibri"
             x="0"
             y="0"
             id="tspan3315">6</tspan></text>
</g></g><g
       id="g3317"><g
         id="g3319"
         clip-path="url(#clipPath3321)"><text
           transform="matrix(1,0,0,-1,376.25,554.06)"
           id="text3325"><tspan
             style="font-size:9.96000004px;font-variant:normal;font-weight:normal;writing-mode:lr-tb;fill:#000000;fill-opacity:1;fill-rule:nonzero;stroke:none;font-family:Calibri;-inkscape-font-specification:Calibri"
             x="0"
             y="0"
             id="tspan3327">8</tspan></text>
</g></g><path
       d="m 202.44,537 5.52,0 0,5.52 -5.52,0 0,-5.52 z"
       style="fill:#ffffff;fill-opacity:1;fill-rule:evenodd;stroke:none"
       id="path3329"
       inkscape:connector-curvature="0" /><path
       d="m 202.44,537 5.52,0 0,5.52 -5.52,0 0,-5.52 z"
       style="fill:none;stroke:#4e4e4e;stroke-width:0.72000003;stroke-linecap:butt;stroke-linejoin:round;stroke-miterlimit:10;stroke-opacity:1;stroke-dasharray:none"
       id="path3331"
       inkscape:connector-curvature="0" /><g
       id="g3333"><g
         id="g3335"
         clip-path="url(#clipPath3337)"><text
           transform="matrix(1,0,0,-1,210.31,536.86)"
           id="text3341"><tspan
             style="font-size:9.96000004px;font-variant:normal;font-weight:normal;writing-mode:lr-tb;fill:#000000;fill-opacity:1;fill-rule:nonzero;stroke:none;font-family:Calibri;-inkscape-font-specification:Calibri"
             x="0 3.8445599 7.18116"
             y="0"
             sodipodi:role="line"
             id="tspan3343">std</tspan></text>
</g></g><path
       d="m 230.4,537 5.4,0 0,5.52 -5.4,0 0,-5.52 z"
       style="fill:#d9d9d9;fill-opacity:1;fill-rule:evenodd;stroke:none"
       id="path3345"
       inkscape:connector-curvature="0" /><path
       d="m 230.4,537 5.4,0 0,5.52 -5.4,0 0,-5.52 z"
       style="fill:none;stroke:#4e4e4e;stroke-width:0.72000003;stroke-linecap:butt;stroke-linejoin:round;stroke-miterlimit:10;stroke-opacity:1;stroke-dasharray:none"
       id="path3347"
       inkscape:connector-curvature="0" /><g
       id="g3349"><g
         id="g3351"
         clip-path="url(#clipPath3353)"><text
           transform="matrix(1,0,0,-1,238.2,536.86)"
           id="text3357"><tspan
             style="font-size:9.96000004px;font-variant:normal;font-weight:normal;writing-mode:lr-tb;fill:#000000;fill-opacity:1;fill-rule:nonzero;stroke:none;font-family:Calibri;-inkscape-font-specification:Calibri"
             x="0 5.2688398 10.53768"
             y="0"
             sodipodi:role="line"
             id="tspan3359">opt</tspan></text>
</g></g><path
       d="m 259.56,537 5.52,0 0,5.52 -5.52,0 0,-5.52 z"
       style="fill:#7f7f7f;fill-opacity:1;fill-rule:evenodd;stroke:none"
       id="path3361"
       inkscape:connector-curvature="0" /><path
       d="m 259.56,537 5.52,0 0,5.52 -5.52,0 0,-5.52 z"
       style="fill:none;stroke:#4e4e4e;stroke-width:0.72000003;stroke-linecap:butt;stroke-linejoin:round;stroke-miterlimit:10;stroke-opacity:1;stroke-dasharray:none"
       id="path3363"
       inkscape:connector-curvature="0" /><g
       id="g3365"><g
         id="g3367"
         clip-path="url(#clipPath3369)"><text
           transform="matrix(1,0,0,-1,267.43,536.86)"
           id="text3373"><tspan
             style="font-size:9.96000004px;font-variant:normal;font-weight:normal;writing-mode:lr-tb;fill:#000000;fill-opacity:1;fill-rule:nonzero;stroke:none;font-family:Calibri;-inkscape-font-specification:Calibri"
             x="0 2.2908001 7.5496802"
             y="0"
             sodipodi:role="line"
             id="tspan3375">inj</tspan></text>
</g></g><path
       d="m 284.88,537 5.52,0 0,5.52 -5.52,0 0,-5.52 z"
       style="fill:#000000;fill-opacity:1;fill-rule:evenodd;stroke:none"
       id="path3377"
       inkscape:connector-curvature="0" /><path
       d="m 284.88,537 5.52,0 0,5.52 -5.52,0 0,-5.52 z"
       style="fill:none;stroke:#4e4e4e;stroke-width:0.72000003;stroke-linecap:butt;stroke-linejoin:round;stroke-miterlimit:10;stroke-opacity:1;stroke-dasharray:none"
       id="path3379"
       inkscape:connector-curvature="0" /><g
       id="g3381"><g
         id="g3383"
         clip-path="url(#clipPath3385)"><text
           transform="matrix(1,0,0,-1,292.73,536.86)"
           id="text3389"><tspan
             style="font-size:9.96000004px;font-variant:normal;font-weight:normal;writing-mode:lr-tb;fill:#000000;fill-opacity:1;fill-rule:nonzero;stroke:none;font-family:Calibri;-inkscape-font-specification:Calibri"
             x="0 5.2688398 10.53768 13.87428 18.83436 21.12516 26.35416"
             y="0"
             sodipodi:role="line"
             id="tspan3391">opt+inj</tspan></text>
</g></g><g
       id="g3393"><g
         id="g3395"
         clip-path="url(#clipPath3397)"><path
           d="m 73.5,522.84 361.66,0 0,247.08 -361.66,0 0,-247.08 z"
           style="fill:none;stroke:#868686;stroke-width:0.75;stroke-linecap:butt;stroke-linejoin:round;stroke-miterlimit:10;stroke-opacity:1;stroke-dasharray:none"
           id="path3401"
           inkscape:connector-curvature="0" /></g></g></g></svg>