<?xml version="1.0" encoding="UTF-8" standalone="no"?>
<!-- Created with Inkscape (http://www.inkscape.org/) -->

<svg
   xmlns:dc="http://purl.org/dc/elements/1.1/"
   xmlns:cc="http://creativecommons.org/ns#"
   xmlns:rdf="http://www.w3.org/1999/02/22-rdf-syntax-ns#"
   xmlns:svg="http://www.w3.org/2000/svg"
   xmlns="http://www.w3.org/2000/svg"
   xmlns:sodipodi="http://sodipodi.sourceforge.net/DTD/sodipodi-0.dtd"
   xmlns:inkscape="http://www.inkscape.org/namespaces/inkscape"
   id="svg2"
   version="1.1"
   inkscape:version="0.48.0 r9654"
   width="91.125"
   height="484.625"
   xml:space="preserve"
   sodipodi:docname="seq_mix.svg"><metadata
     id="metadata8"><rdf:RDF><cc:Work
         rdf:about=""><dc:format>image/svg+xml</dc:format><dc:type
           rdf:resource="http://purl.org/dc/dcmitype/StillImage" /><dc:title></dc:title></cc:Work></rdf:RDF></metadata><defs
     id="defs6"><clipPath
       clipPathUnits="userSpaceOnUse"
       id="clipPath18"><path
         d="M 0,4250 0,0 l 5060,0 0,4250 -5060,0 z"
         id="path20"
         inkscape:connector-curvature="0" /></clipPath></defs><sodipodi:namedview
     pagecolor="#ffffff"
     bordercolor="#666666"
     borderopacity="1"
     objecttolerance="10"
     gridtolerance="10"
     guidetolerance="10"
     inkscape:pageopacity="0"
     inkscape:pageshadow="2"
     inkscape:window-width="1280"
     inkscape:window-height="974"
     id="namedview4"
     showgrid="true"
     fit-margin-top="0"
     fit-margin-left="0"
     fit-margin-right="0"
     fit-margin-bottom="0"
     inkscape:zoom="1.0147268"
     inkscape:cx="-25.657083"
     inkscape:cy="167.67437"
     inkscape:window-x="-1"
     inkscape:window-y="0"
     inkscape:window-maximized="1"
     inkscape:current-layer="g10"><inkscape:grid
       type="xygrid"
       id="grid3919"
       empspacing="5"
       visible="true"
       enabled="true"
       snapvisiblegridlinesonly="true" /></sodipodi:namedview><g
     id="g10"
     inkscape:groupmode="layer"
     inkscape:label="sqt-03"
     transform="matrix(1.25,0,0,-1.25,-130.97948,585.49544)"><path
       style="fill:none;stroke:#000000;stroke-width:0.80000001px;stroke-linecap:butt;stroke-linejoin:miter;stroke-opacity:1"
       d="m 114.23358,323.73002 0,-21.49865 m 0,0 0,-6.48502 m 0,-12 0,-2.4 m 0,-6.4 0,-2.4 m 0,-6.4 0,-2.4 m 0,-12 0,-27.24698"
       id="path3785"
       inkscape:connector-curvature="0"
       sodipodi:nodetypes="cccccccccccc" /><path
       style="fill:none;stroke:#000000;stroke-width:0.80000001px;stroke-linecap:butt;stroke-linejoin:miter;stroke-opacity:1"
       d="m 168.23358,323.73002 0,-21.49865 m 0,0 0,-6.48502 m 0,-12 0,-2.4 m 0,-6.4 0,-2.4 m 0,-6.4 0,-2.4 m 0,-12 0,-27.24698"
       id="path3785-6"
       inkscape:connector-curvature="0"
       sodipodi:nodetypes="cccccccccccc" /><path
       inkscape:connector-curvature="0"
       id="path54-8"
       style="fill:#ffffff;fill-opacity:1;fill-rule:evenodd;stroke:none"
       d="m 177.23358,216.19635 c 0,4.97 -4.03,9 -9,9 -4.97,0 -9,-4.03 -9,-9 0,-4.97 4.03,-9 9,-9 4.97,0 9,4.03 9,9" /><path
       inkscape:connector-curvature="0"
       id="path50-8"
       style="fill:#ffffff;fill-opacity:1;fill-rule:evenodd;stroke:none"
       d="m 123.23358,216.19635 c 0,4.97 -4.0297,9 -9,9 -4.9703,0 -9,-4.03 -9,-9 0,-4.97 4.0297,-9 9,-9 4.9703,0 9,4.03 9,9" /><path
       inkscape:connector-curvature="0"
       id="path50"
       style="fill:#000000;fill-opacity:1;fill-rule:evenodd;stroke:none"
       d="m 123.23358,332.74635 c 0,-4.97 -4.0297,-9 -9,-9 -4.9703,0 -9,4.03 -9,9 0,4.97 4.0297,9 9,9 4.9703,0 9,-4.03 9,-9" /><path
       inkscape:connector-curvature="0"
       id="path52"
       style="fill:none;stroke:#000000;stroke-width:0.44999999;stroke-linecap:butt;stroke-linejoin:miter;stroke-miterlimit:10;stroke-opacity:1;stroke-dasharray:none"
       d="m 123.23358,332.74635 c 0,-4.97 -4.0297,-9 -9,-9 -4.9703,0 -9,4.03 -9,9 0,4.97 4.0297,9 9,9 4.9703,0 9,-4.03 9,-9 z" /><path
       inkscape:connector-curvature="0"
       id="path54"
       style="fill:#000000;fill-opacity:1;fill-rule:evenodd;stroke:none"
       d="m 177.23358,332.74635 c 0,-4.97 -4.03,-9 -9,-9 -4.97,0 -9,4.03 -9,9 0,4.97 4.03,9 9,9 4.97,0 9,-4.03 9,-9" /><path
       inkscape:connector-curvature="0"
       id="path56"
       style="fill:none;stroke:#000000;stroke-width:0.44999999;stroke-linecap:butt;stroke-linejoin:miter;stroke-miterlimit:10;stroke-opacity:1;stroke-dasharray:none"
       d="m 177.23358,332.74635 c 0,-4.97 -4.03,-9 -9,-9 -4.97,0 -9,4.03 -9,9 0,4.97 4.03,9 9,9 4.97,0 9,-4.03 9,-9 z" /><path
       inkscape:connector-curvature="0"
       id="path106"
       style="fill:#ffffff;fill-opacity:1;fill-rule:evenodd;stroke:none"
       d="m 150.23358,413.74635 c 0,-4.97 -4.03,-9 -9,-9 -4.97,0 -9,4.03 -9,9 0,4.97 4.03,9 9,9 4.97,0 9,-4.03 9,-9" /><path
       inkscape:connector-curvature="0"
       id="path108"
       style="fill:none;stroke:#000000;stroke-width:0.44999999;stroke-linecap:butt;stroke-linejoin:miter;stroke-miterlimit:10;stroke-opacity:1;stroke-dasharray:none"
       d="m 150.23358,413.74635 c 0,-4.97 -4.03,-9 -9,-9 -4.97,0 -9,4.03 -9,9 0,4.97 4.03,9 9,9 4.97,0 9,-4.03 9,-9 z" /><path
       inkscape:connector-curvature="0"
       id="path122"
       style="fill:none;stroke:#000000;stroke-width:0.89999998;stroke-linecap:butt;stroke-linejoin:miter;stroke-miterlimit:10;stroke-opacity:1;stroke-dasharray:none"
       d="m 177.23358,368.74635 c 0,-19.882 -16.118,-36 -36,-36 -19.882,0 -36,16.118 -36,36 0,19.882 16.118,36 36,36 19.882,0 36,-16.118 36,-36 z" /><text
       transform="scale(1,-1)"
       id="text162"
       x="206.83952"
       y="-74.110611"><tspan
         style="font-size:45px;font-variant:normal;font-weight:normal;writing-mode:lr-tb;fill:#000000;fill-opacity:1;fill-rule:nonzero;stroke:none;font-family:Times New Roman;-inkscape-font-specification:Times-Roman"
         x="134.83954"
         y="-362.1106"
         id="tspan166">;</tspan></text>
<path
       inkscape:connector-curvature="0"
       id="path52-5"
       style="fill:none;stroke:#000000;stroke-width:0.44999999;stroke-linecap:butt;stroke-linejoin:miter;stroke-miterlimit:10;stroke-opacity:1;stroke-dasharray:none"
       d="m 123.23358,216.19635 c 0,4.97 -4.0297,9 -9,9 -4.9703,0 -9,-4.03 -9,-9 0,-4.97 4.0297,-9 9,-9 4.9703,0 9,4.03 9,9 z" /><path
       inkscape:connector-curvature="0"
       id="path56-2"
       style="fill:none;stroke:#000000;stroke-width:0.44999999;stroke-linecap:butt;stroke-linejoin:miter;stroke-miterlimit:10;stroke-opacity:1;stroke-dasharray:none"
       d="m 177.23358,216.19635 c 0,4.97 -4.03,9 -9,9 -4.97,0 -9,-4.03 -9,-9 0,-4.97 4.03,-9 9,-9 4.97,0 9,4.03 9,9 z" /><path
       inkscape:connector-curvature="0"
       id="path106-9"
       style="fill:#000000;fill-opacity:1;fill-rule:evenodd;stroke:none"
       d="m 150.23358,135.19635 c 0,4.97 -4.03,9 -9,9 -4.97,0 -9,-4.03 -9,-9 0,-4.97 4.03,-9 9,-9 4.97,0 9,4.03 9,9" /><path
       inkscape:connector-curvature="0"
       id="path108-6"
       style="fill:none;stroke:#000000;stroke-width:0.44999999;stroke-linecap:butt;stroke-linejoin:miter;stroke-miterlimit:10;stroke-opacity:1;stroke-dasharray:none"
       d="m 150.23358,135.19635 c 0,4.97 -4.03,9 -9,9 -4.97,0 -9,-4.03 -9,-9 0,-4.97 4.03,-9 9,-9 4.97,0 9,4.03 9,9 z" /><path
       inkscape:connector-curvature="0"
       id="path122-0"
       style="fill:none;stroke:#000000;stroke-width:0.89999998;stroke-linecap:butt;stroke-linejoin:miter;stroke-miterlimit:10;stroke-opacity:1;stroke-dasharray:none"
       d="m 177.23358,180.19635 c 0,19.882 -16.118,36 -36,36 -19.882,0 -36,-16.118 -36,-36 0,-19.882 16.118,-36 36,-36 19.882,0 36,16.118 36,36 z" /><text
       style="font-size:12px"
       id="text162-4"
       x="208.7841"
       y="478.96292"><tspan
         style="font-size:45px;font-variant:normal;font-weight:normal;writing-mode:lr-tb;fill:#000000;fill-opacity:1;fill-rule:nonzero;stroke:none;font-family:Times New Roman;-inkscape-font-specification:Times-Roman"
         x="136.78412"
         y="190.96295"
         id="tspan166-5">|</tspan></text>
<path
       inkscape:connector-curvature="0"
       id="path36"
       style="fill:none;stroke:#000000;stroke-width:0.89999998;stroke-linecap:butt;stroke-linejoin:miter;stroke-miterlimit:10;stroke-opacity:1;stroke-dasharray:none"
       d="m 141.23358,422.94635 0,45" /><path
       d="m 141.23358,81.146354 0,44.999996"
       style="fill:none;stroke:#000000;stroke-width:0.89999998;stroke-linecap:butt;stroke-linejoin:miter;stroke-miterlimit:10;stroke-opacity:1;stroke-dasharray:none"
       id="path4020"
       inkscape:connector-curvature="0" /></g></svg>