<?xml version="1.0" encoding="UTF-8" standalone="no"?>
<!-- Created with Inkscape (http://www.inkscape.org/) -->

<svg
   xmlns:dc="http://purl.org/dc/elements/1.1/"
   xmlns:cc="http://creativecommons.org/ns#"
   xmlns:rdf="http://www.w3.org/1999/02/22-rdf-syntax-ns#"
   xmlns:svg="http://www.w3.org/2000/svg"
   xmlns="http://www.w3.org/2000/svg"
   xmlns:sodipodi="http://sodipodi.sourceforge.net/DTD/sodipodi-0.dtd"
   xmlns:inkscape="http://www.inkscape.org/namespaces/inkscape"
   id="svg4365"
   version="1.1"
   inkscape:version="0.48.0 r9654"
   width="542.54498"
   height="866.81251"
   xml:space="preserve"
   sodipodi:docname="seq_par_sync_mix_tree.pdf"><metadata
     id="metadata4371"><rdf:RDF><cc:Work
         rdf:about=""><dc:format>image/svg+xml</dc:format><dc:type
           rdf:resource="http://purl.org/dc/dcmitype/StillImage" /><dc:title></dc:title></cc:Work></rdf:RDF></metadata><defs
     id="defs4369" /><sodipodi:namedview
     pagecolor="#ffffff"
     bordercolor="#666666"
     borderopacity="1"
     objecttolerance="10"
     gridtolerance="10"
     guidetolerance="10"
     inkscape:pageopacity="0"
     inkscape:pageshadow="2"
     inkscape:window-width="640"
     inkscape:window-height="480"
     id="namedview4367"
     showgrid="false"
     inkscape:zoom="0.30802509"
     inkscape:cx="271.27249"
     inkscape:cy="433.40625"
     inkscape:window-x="0"
     inkscape:window-y="0"
     inkscape:window-maximized="0"
     inkscape:current-layer="g4373" /><g
     id="g4373"
     inkscape:groupmode="layer"
     inkscape:label="seq_par_sync_mix_tree"
     transform="matrix(1.25,0,0,-1.25,0,866.81251)"><g
       id="g4375"><path
         d="m 47.035,395.985 0,-21.5 m 0,0 0,-6.484 m 0,-12 0,-2.403 m 0,-6.398 0,-2.398 m 0,-6.403 0,-2.398 m 0,-12 0,-27.246"
         style="fill:none;stroke:#000000;stroke-opacity:1;stroke-width:0.8;stroke-linecap:butt;stroke-linejoin:miter;stroke-miterlimit:4;stroke-dasharray:none"
         id="path4377" /><path
         d="m 101.035,395.985 0,-21.5 m 0,0 0,-6.484 m 0,-12 0,-2.403 m 0,-6.398 0,-2.398 m 0,-6.403 0,-2.398 m 0,-12 0,-27.246"
         style="fill:none;stroke:#000000;stroke-opacity:1;stroke-width:0.8;stroke-linecap:butt;stroke-linejoin:miter;stroke-miterlimit:4;stroke-dasharray:none"
         id="path4379" /><path
         d="m 335.035,395.985 0,-21.5 m 0,0 0,-6.484 m 0,-12 0,-2.403 m 0,-6.398 0,-2.398 m 0,-6.403 0,-2.398 m 0,-12 0,-27.246"
         style="fill:none;stroke:#000000;stroke-opacity:1;stroke-width:0.8;stroke-linecap:butt;stroke-linejoin:miter;stroke-miterlimit:4;stroke-dasharray:none"
         id="path4381" /><path
         d="m 389.035,395.985 0,-21.5 m 0,0 0,-6.484 m 0,-12 0,-2.403 m 0,-6.398 0,-2.398 m 0,-6.403 0,-2.398 m 0,-12 0,-27.246"
         style="fill:none;stroke:#000000;stroke-opacity:1;stroke-width:0.8;stroke-linecap:butt;stroke-linejoin:miter;stroke-miterlimit:4;stroke-dasharray:none"
         id="path4383" /><path
         d="m 110.035,288.45 c 0,4.969 -4.027,9 -9,9 -4.969,0 -9,-4.031 -9,-9 0,-4.969 4.031,-9 9,-9 4.973,0 9,4.031 9,9"
         style="fill:#ffffff;fill-opacity:1;fill-rule:evenodd;stroke:none"
         id="path4385" /><path
         d="m 56.035,288.45 c 0,4.969 -4.027,9 -9,9 -4.969,0 -9,-4.031 -9,-9 0,-4.969 4.031,-9 9,-9 4.973,0 9,4.031 9,9"
         style="fill:#ffffff;fill-opacity:1;fill-rule:evenodd;stroke:none"
         id="path4387" /><path
         d="m 191.035,567.001 -117,-81"
         style="fill:#ffffff;fill-opacity:1;fill-rule:evenodd;stroke:#000000;stroke-opacity:1;stroke-width:0.9;stroke-linecap:butt;stroke-linejoin:miter;stroke-miterlimit:10;stroke-dasharray:none"
         id="path4389" /><path
         d="m 47.035,405.001 -45,-45"
         style="fill:#ffffff;fill-opacity:1;fill-rule:evenodd;stroke:none"
         id="path4391" /><path
         d="m 218.035,648.001 0,45"
         style="fill:#ffffff;fill-opacity:1;fill-rule:evenodd;stroke:#000000;stroke-opacity:1;stroke-width:0.9;stroke-linecap:butt;stroke-linejoin:miter;stroke-miterlimit:10;stroke-dasharray:none"
         id="path4393" /><path
         d="m 245.035,567.001 117,-81"
         style="fill:#ffffff;fill-opacity:1;fill-rule:evenodd;stroke:#000000;stroke-opacity:1;stroke-width:0.9;stroke-linecap:butt;stroke-linejoin:miter;stroke-miterlimit:10;stroke-dasharray:none"
         id="path4395" /><path
         d="m 335.035,405.001 -45,-45"
         style="fill:#ffffff;fill-opacity:1;fill-rule:evenodd;stroke:none"
         id="path4397" /><path
         d="m 389.035,405.001 45,-45"
         style="fill:#ffffff;fill-opacity:1;fill-rule:evenodd;stroke:none"
         id="path4399" /><path
         d="m 56.035,405.001 c 0,-4.973 -4.027,-9 -9,-9 -4.969,0 -9,4.027 -9,9 0,4.969 4.031,9 9,9 4.973,0 9,-4.031 9,-9"
         style="fill:#000000;fill-opacity:1;fill-rule:evenodd;stroke:none"
         id="path4401" /><path
         d="m 56.035,405.001 c 0,-4.973 -4.027,-9 -9,-9 -4.969,0 -9,4.027 -9,9 0,4.969 4.031,9 9,9 4.973,0 9,-4.031 9,-9 z"
         style="fill:none;stroke:#000000;stroke-opacity:1;stroke-width:0.45;stroke-linecap:butt;stroke-linejoin:miter;stroke-miterlimit:10;stroke-dasharray:none"
         id="path4403" /><path
         d="m 110.035,405.001 c 0,-4.973 -4.027,-9 -9,-9 -4.969,0 -9,4.027 -9,9 0,4.969 4.031,9 9,9 4.973,0 9,-4.031 9,-9"
         style="fill:#000000;fill-opacity:1;fill-rule:evenodd;stroke:none"
         id="path4405" /><path
         d="m 110.035,405.001 c 0,-4.973 -4.027,-9 -9,-9 -4.969,0 -9,4.027 -9,9 0,4.969 4.031,9 9,9 4.973,0 9,-4.031 9,-9 z"
         style="fill:none;stroke:#000000;stroke-opacity:1;stroke-width:0.45;stroke-linecap:butt;stroke-linejoin:miter;stroke-miterlimit:10;stroke-dasharray:none"
         id="path4407" /><path
         d="m 344.035,405.001 c 0,-4.973 -4.027,-9 -9,-9 -4.969,0 -9,4.027 -9,9 0,4.969 4.031,9 9,9 4.973,0 9,-4.031 9,-9"
         style="fill:#000000;fill-opacity:1;fill-rule:evenodd;stroke:none"
         id="path4409" /><path
         d="m 344.035,405.001 c 0,-4.973 -4.027,-9 -9,-9 -4.969,0 -9,4.027 -9,9 0,4.969 4.031,9 9,9 4.973,0 9,-4.031 9,-9 z"
         style="fill:none;stroke:#000000;stroke-opacity:1;stroke-width:0.45;stroke-linecap:butt;stroke-linejoin:miter;stroke-miterlimit:10;stroke-dasharray:none"
         id="path4411" /><path
         d="m 398.035,405.001 c 0,-4.973 -4.027,-9 -9,-9 -4.969,0 -9,4.027 -9,9 0,4.969 4.031,9 9,9 4.973,0 9,-4.031 9,-9"
         style="fill:#000000;fill-opacity:1;fill-rule:evenodd;stroke:none"
         id="path4413" /><path
         d="m 398.035,405.001 c 0,-4.973 -4.027,-9 -9,-9 -4.969,0 -9,4.027 -9,9 0,4.969 4.031,9 9,9 4.973,0 9,-4.031 9,-9 z"
         style="fill:none;stroke:#000000;stroke-opacity:1;stroke-width:0.45;stroke-linecap:butt;stroke-linejoin:miter;stroke-miterlimit:10;stroke-dasharray:none"
         id="path4415" /><path
         d="m 200.035,567.001 c 0,-4.973 -4.027,-9 -9,-9 -4.969,0 -9,4.027 -9,9 0,4.969 4.031,9 9,9 4.973,0 9,-4.031 9,-9"
         style="fill:#000000;fill-opacity:1;fill-rule:evenodd;stroke:none"
         id="path4417" /><path
         d="m 200.035,567.001 c 0,-4.973 -4.027,-9 -9,-9 -4.969,0 -9,4.027 -9,9 0,4.969 4.031,9 9,9 4.973,0 9,-4.031 9,-9 z"
         style="fill:none;stroke:#000000;stroke-opacity:1;stroke-width:0.45;stroke-linecap:butt;stroke-linejoin:miter;stroke-miterlimit:10;stroke-dasharray:none"
         id="path4419" /><path
         d="m 254.035,567.001 c 0,-4.973 -4.027,-9 -9,-9 -4.969,0 -9,4.027 -9,9 0,4.969 4.031,9 9,9 4.973,0 9,-4.031 9,-9"
         style="fill:#000000;fill-opacity:1;fill-rule:evenodd;stroke:none"
         id="path4421" /><path
         d="m 254.035,567.001 c 0,-4.973 -4.027,-9 -9,-9 -4.969,0 -9,4.027 -9,9 0,4.969 4.031,9 9,9 4.973,0 9,-4.031 9,-9 z"
         style="fill:none;stroke:#000000;stroke-opacity:1;stroke-width:0.45;stroke-linecap:butt;stroke-linejoin:miter;stroke-miterlimit:10;stroke-dasharray:none"
         id="path4423" /><path
         d="m 83.035,486.001 c 0,-4.973 -4.027,-9 -9,-9 -4.969,0 -9,4.027 -9,9 0,4.969 4.031,9 9,9 4.973,0 9,-4.031 9,-9"
         style="fill:#ffffff;fill-opacity:1;fill-rule:evenodd;stroke:none"
         id="path4425" /><path
         d="m 83.035,486.001 c 0,-4.973 -4.027,-9 -9,-9 -4.969,0 -9,4.027 -9,9 0,4.969 4.031,9 9,9 4.973,0 9,-4.031 9,-9 z"
         style="fill:none;stroke:#000000;stroke-opacity:1;stroke-width:0.45;stroke-linecap:butt;stroke-linejoin:miter;stroke-miterlimit:10;stroke-dasharray:none"
         id="path4427" /><path
         d="m 110.035,441.001 c 0,-19.883 -16.117,-36 -36,-36 -19.883,0 -36,16.117 -36,36 0,19.883 16.117,36 36,36 19.883,0 36,-16.117 36,-36 z"
         style="fill:none;stroke:#000000;stroke-opacity:1;stroke-width:0.9;stroke-linecap:butt;stroke-linejoin:miter;stroke-miterlimit:10;stroke-dasharray:none"
         id="path4429" /><path
         d="m 227.035,648.001 c 0,-4.973 -4.027,-9 -9,-9 -4.969,0 -9,4.027 -9,9 0,4.969 4.031,9 9,9 4.973,0 9,-4.031 9,-9"
         style="fill:#ffffff;fill-opacity:1;fill-rule:evenodd;stroke:none"
         id="path4431" /><path
         d="m 227.035,648.001 c 0,-4.973 -4.027,-9 -9,-9 -4.969,0 -9,4.027 -9,9 0,4.969 4.031,9 9,9 4.973,0 9,-4.031 9,-9 z"
         style="fill:none;stroke:#000000;stroke-opacity:1;stroke-width:0.9;stroke-linecap:butt;stroke-linejoin:miter;stroke-miterlimit:10;stroke-dasharray:none"
         id="path4433" /><path
         d="m 254.035,603.001 c 0,-19.883 -16.117,-36 -36,-36 -19.883,0 -36,16.117 -36,36 0,19.883 16.117,36 36,36 19.883,0 36,-16.117 36,-36 z"
         style="fill:none;stroke:#000000;stroke-opacity:1;stroke-width:0.9;stroke-linecap:butt;stroke-linejoin:miter;stroke-miterlimit:10;stroke-dasharray:none"
         id="path4435" /><path
         d="m 371.035,486.001 c 0,-4.973 -4.027,-9 -9,-9 -4.969,0 -9,4.027 -9,9 0,4.969 4.031,9 9,9 4.973,0 9,-4.031 9,-9"
         style="fill:#ffffff;fill-opacity:1;fill-rule:evenodd;stroke:none"
         id="path4437" /><path
         d="m 371.035,486.001 c 0,-4.973 -4.027,-9 -9,-9 -4.969,0 -9,4.027 -9,9 0,4.969 4.031,9 9,9 4.973,0 9,-4.031 9,-9 z"
         style="fill:none;stroke:#000000;stroke-opacity:1;stroke-width:0.9;stroke-linecap:butt;stroke-linejoin:miter;stroke-miterlimit:10;stroke-dasharray:none"
         id="path4439" /><path
         d="m 398.035,441.001 c 0,-19.883 -16.117,-36 -36,-36 -19.883,0 -36,16.117 -36,36 0,19.883 16.117,36 36,36 19.883,0 36,-16.117 36,-36 z"
         style="fill:none;stroke:#000000;stroke-opacity:1;stroke-width:0.9;stroke-linecap:butt;stroke-linejoin:miter;stroke-miterlimit:10;stroke-dasharray:none"
         id="path4441" /><text
         transform="matrix(1,0,0,-1,65.935985,427.5)"
         id="text4443"><tspan
           style="fill:#000000;fill-opacity:1;fill-rule:nonzero;stroke:none;font-family:Times New Roman;font-variant:normal;font-weight:normal;font-size:37.799999;writing-mode:lr;-inkscape-font-specification:TimesNewRoman"
           x="0 7.5599998 287.99819238 295.52039218"
           y="0"
           sodipodi:role="line"
           id="tspan4445">||||</tspan></text>
<text
         transform="matrix(1,0,0,-1,211.736,590.40002)"
         id="text4447"><tspan
           style="fill:#000000;fill-opacity:1;fill-rule:nonzero;stroke:none;font-family:Times New Roman;font-variant:normal;font-weight:normal;font-size:45;writing-mode:lr;-inkscape-font-specification:TimesNewRoman"
           x="0"
           y="0"
           id="tspan4449">;</tspan></text>
<path
         d="m 45,288.45 -45,45"
         style="fill:#ffffff;fill-opacity:1;fill-rule:evenodd;stroke:none"
         id="path4451" /><path
         d="m 99,288.45 45,45"
         style="fill:#ffffff;fill-opacity:1;fill-rule:evenodd;stroke:none"
         id="path4453" /><path
         d="m 333,288.45 -45,45"
         style="fill:#ffffff;fill-opacity:1;fill-rule:evenodd;stroke:none"
         id="path4455" /><path
         d="m 387,288.45 45,45"
         style="fill:#ffffff;fill-opacity:1;fill-rule:evenodd;stroke:none"
         id="path4457" /><path
         d="m 191.035,126.45 -117,81"
         style="fill:#ffffff;fill-opacity:1;fill-rule:evenodd;stroke:#000000;stroke-opacity:1;stroke-width:0.9;stroke-linecap:butt;stroke-linejoin:miter;stroke-miterlimit:10;stroke-dasharray:none"
         id="path4459" /><path
         d="m 218.035,45.45 0,-45"
         style="fill:#ffffff;fill-opacity:1;fill-rule:evenodd;stroke:#000000;stroke-opacity:1;stroke-width:0.9;stroke-linecap:butt;stroke-linejoin:miter;stroke-miterlimit:10;stroke-dasharray:none"
         id="path4461" /><path
         d="m 245.035,126.45 117,81"
         style="fill:#ffffff;fill-opacity:1;fill-rule:evenodd;stroke:#000000;stroke-opacity:1;stroke-width:0.9;stroke-linecap:butt;stroke-linejoin:miter;stroke-miterlimit:10;stroke-dasharray:none"
         id="path4463" /><path
         d="m 56.035,288.45 c 0,4.969 -4.027,9 -9,9 -4.969,0 -9,-4.031 -9,-9 0,-4.969 4.031,-9 9,-9 4.973,0 9,4.031 9,9 z"
         style="fill:none;stroke:#000000;stroke-opacity:1;stroke-width:0.45;stroke-linecap:butt;stroke-linejoin:miter;stroke-miterlimit:10;stroke-dasharray:none"
         id="path4465" /><path
         d="m 110.035,288.45 c 0,4.969 -4.027,9 -9,9 -4.969,0 -9,-4.031 -9,-9 0,-4.969 4.031,-9 9,-9 4.973,0 9,4.031 9,9 z"
         style="fill:none;stroke:#000000;stroke-opacity:1;stroke-width:0.45;stroke-linecap:butt;stroke-linejoin:miter;stroke-miterlimit:10;stroke-dasharray:none"
         id="path4467" /><path
         d="m 344.035,288.45 c 0,4.969 -4.027,9 -9,9 -4.969,0 -9,-4.031 -9,-9 0,-4.969 4.031,-9 9,-9 4.973,0 9,4.031 9,9"
         style="fill:#ffffff;fill-opacity:1;fill-rule:evenodd;stroke:none"
         id="path4469" /><path
         d="m 344.035,288.45 c 0,4.969 -4.027,9 -9,9 -4.969,0 -9,-4.031 -9,-9 0,-4.969 4.031,-9 9,-9 4.973,0 9,4.031 9,9 z"
         style="fill:none;stroke:#000000;stroke-opacity:1;stroke-width:0.45;stroke-linecap:butt;stroke-linejoin:miter;stroke-miterlimit:10;stroke-dasharray:none"
         id="path4471" /><path
         d="m 398.035,288.45 c 0,4.969 -4.027,9 -9,9 -4.969,0 -9,-4.031 -9,-9 0,-4.969 4.031,-9 9,-9 4.973,0 9,4.031 9,9"
         style="fill:#ffffff;fill-opacity:1;fill-rule:evenodd;stroke:none"
         id="path4473" /><path
         d="m 398.035,288.45 c 0,4.969 -4.027,9 -9,9 -4.969,0 -9,-4.031 -9,-9 0,-4.969 4.031,-9 9,-9 4.973,0 9,4.031 9,9 z"
         style="fill:none;stroke:#000000;stroke-opacity:1;stroke-width:0.45;stroke-linecap:butt;stroke-linejoin:miter;stroke-miterlimit:10;stroke-dasharray:none"
         id="path4475" /><path
         d="m 200.035,126.45 c 0,4.969 -4.027,9 -9,9 -4.969,0 -9,-4.031 -9,-9 0,-4.969 4.031,-9 9,-9 4.973,0 9,4.031 9,9"
         style="fill:#ffffff;fill-opacity:1;fill-rule:evenodd;stroke:none"
         id="path4477" /><path
         d="m 200.035,126.45 c 0,4.969 -4.027,9 -9,9 -4.969,0 -9,-4.031 -9,-9 0,-4.969 4.031,-9 9,-9 4.973,0 9,4.031 9,9 z"
         style="fill:none;stroke:#000000;stroke-opacity:1;stroke-width:0.45;stroke-linecap:butt;stroke-linejoin:miter;stroke-miterlimit:10;stroke-dasharray:none"
         id="path4479" /><path
         d="m 254.035,126.45 c 0,4.969 -4.027,9 -9,9 -4.969,0 -9,-4.031 -9,-9 0,-4.969 4.031,-9 9,-9 4.973,0 9,4.031 9,9"
         style="fill:#ffffff;fill-opacity:1;fill-rule:evenodd;stroke:none"
         id="path4481" /><path
         d="m 254.035,126.45 c 0,4.969 -4.027,9 -9,9 -4.969,0 -9,-4.031 -9,-9 0,-4.969 4.031,-9 9,-9 4.973,0 9,4.031 9,9 z"
         style="fill:none;stroke:#000000;stroke-opacity:1;stroke-width:0.45;stroke-linecap:butt;stroke-linejoin:miter;stroke-miterlimit:10;stroke-dasharray:none"
         id="path4483" /><path
         d="m 83.035,207.45 c 0,4.969 -4.027,9 -9,9 -4.969,0 -9,-4.031 -9,-9 0,-4.969 4.031,-9 9,-9 4.973,0 9,4.031 9,9"
         style="fill:#000000;fill-opacity:1;fill-rule:evenodd;stroke:none"
         id="path4485" /><path
         d="m 83.035,207.45 c 0,4.969 -4.027,9 -9,9 -4.969,0 -9,-4.031 -9,-9 0,-4.969 4.031,-9 9,-9 4.973,0 9,4.031 9,9 z"
         style="fill:none;stroke:#000000;stroke-opacity:1;stroke-width:0.45;stroke-linecap:butt;stroke-linejoin:miter;stroke-miterlimit:10;stroke-dasharray:none"
         id="path4487" /><path
         d="m 110.035,252.45 c 0,19.883 -16.117,36 -36,36 -19.883,0 -36,-16.117 -36,-36 0,-19.883 16.117,-36 36,-36 19.883,0 36,16.117 36,36 z"
         style="fill:none;stroke:#000000;stroke-opacity:1;stroke-width:0.9;stroke-linecap:butt;stroke-linejoin:miter;stroke-miterlimit:10;stroke-dasharray:none"
         id="path4489" /><path
         d="m 227.035,45.45 c 0,4.969 -4.027,9 -9,9 -4.969,0 -9,-4.031 -9,-9 0,-4.969 4.031,-9 9,-9 4.973,0 9,4.031 9,9"
         style="fill:#000000;fill-opacity:1;fill-rule:evenodd;stroke:none"
         id="path4491" /><path
         d="m 227.035,45.45 c 0,4.969 -4.027,9 -9,9 -4.969,0 -9,-4.031 -9,-9 0,-4.969 4.031,-9 9,-9 4.973,0 9,4.031 9,9 z"
         style="fill:none;stroke:#000000;stroke-opacity:1;stroke-width:0.9;stroke-linecap:butt;stroke-linejoin:miter;stroke-miterlimit:10;stroke-dasharray:none"
         id="path4493" /><path
         d="m 254.035,90.45 c 0,19.883 -16.117,36 -36,36 -19.883,0 -36,-16.117 -36,-36 0,-19.883 16.117,-36 36,-36 19.883,0 36,16.117 36,36 z"
         style="fill:none;stroke:#000000;stroke-opacity:1;stroke-width:0.9;stroke-linecap:butt;stroke-linejoin:miter;stroke-miterlimit:10;stroke-dasharray:none"
         id="path4495" /><path
         d="m 371.035,207.45 c 0,4.969 -4.027,9 -9,9 -4.969,0 -9,-4.031 -9,-9 0,-4.969 4.031,-9 9,-9 4.973,0 9,4.031 9,9"
         style="fill:#000000;fill-opacity:1;fill-rule:evenodd;stroke:none"
         id="path4497" /><path
         d="m 371.035,207.45 c 0,4.969 -4.027,9 -9,9 -4.969,0 -9,-4.031 -9,-9 0,-4.969 4.031,-9 9,-9 4.973,0 9,4.031 9,9 z"
         style="fill:none;stroke:#000000;stroke-opacity:1;stroke-width:0.9;stroke-linecap:butt;stroke-linejoin:miter;stroke-miterlimit:10;stroke-dasharray:none"
         id="path4499" /><path
         d="m 398.035,252.45 c 0,19.883 -16.117,36 -36,36 -19.883,0 -36,-16.117 -36,-36 0,-19.883 16.117,-36 36,-36 19.883,0 36,16.117 36,36 z"
         style="fill:none;stroke:#000000;stroke-opacity:1;stroke-width:0.9;stroke-linecap:butt;stroke-linejoin:miter;stroke-miterlimit:10;stroke-dasharray:none"
         id="path4501" /><text
         transform="translate(69.311,253.98195)"
         id="text4503"><tspan
           style="fill:#000000;fill-opacity:1;fill-rule:nonzero;stroke:none;font-family:Times New Roman;font-variant:normal;font-weight:normal;font-size:37.799999;writing-mode:lr;-inkscape-font-specification:TimesNewRoman"
           x="0"
           y="0"
           id="tspan4505">.</tspan></text>
<text
         transform="translate(213.58653,101.21661)"
         id="text4507"><tspan
           style="fill:#000000;fill-opacity:1;fill-rule:nonzero;stroke:none;font-family:Times New Roman;font-variant:normal;font-weight:normal;font-size:45;writing-mode:lr;-inkscape-font-specification:TimesNewRoman"
           x="0"
           y="0"
           id="tspan4509">|</tspan></text>
<text
         transform="translate(357.31099,253.98195)"
         id="text4511"><tspan
           style="fill:#000000;fill-opacity:1;fill-rule:nonzero;stroke:none;font-family:Times New Roman;font-variant:normal;font-weight:normal;font-size:37.799999;writing-mode:lr;-inkscape-font-specification:TimesNewRoman"
           x="0"
           y="0"
           id="tspan4513">.</tspan></text>
</g></g></svg>