<?xml version="1.0" encoding="UTF-8" standalone="no"?>
<!-- Created with Inkscape (http://www.inkscape.org/) -->

<svg
   xmlns:dc="http://purl.org/dc/elements/1.1/"
   xmlns:cc="http://creativecommons.org/ns#"
   xmlns:rdf="http://www.w3.org/1999/02/22-rdf-syntax-ns#"
   xmlns:svg="http://www.w3.org/2000/svg"
   xmlns="http://www.w3.org/2000/svg"
   xmlns:sodipodi="http://sodipodi.sourceforge.net/DTD/sodipodi-0.dtd"
   xmlns:inkscape="http://www.inkscape.org/namespaces/inkscape"
   id="svg3757"
   version="1.1"
   inkscape:version="0.48.0 r9654"
   width="452.20001"
   height="301.44376"
   xml:space="preserve"
   sodipodi:docname="charts.pdf"><metadata
     id="metadata3763"><rdf:RDF><cc:Work
         rdf:about=""><dc:format>image/svg+xml</dc:format><dc:type
           rdf:resource="http://purl.org/dc/dcmitype/StillImage" /><dc:title></dc:title></cc:Work></rdf:RDF></metadata><defs
     id="defs3761"><clipPath
       clipPathUnits="userSpaceOnUse"
       id="clipPath3775"><path
         d="m 81.6,573.96 339.96,0 0,175.32 -339.96,0 0,-175.32 z"
         clip-rule="evenodd"
         id="path3777"
         inkscape:connector-curvature="0" /></clipPath><clipPath
       clipPathUnits="userSpaceOnUse"
       id="clipPath3787"><path
         d="m 81.6,573.96 339.96,0 0,175.32 -339.96,0 0,-175.32 z"
         clip-rule="evenodd"
         id="path3789"
         inkscape:connector-curvature="0" /></clipPath><clipPath
       clipPathUnits="userSpaceOnUse"
       id="clipPath3799"><path
         d="m 81.6,573.96 339.96,0 0,175.32 -339.96,0 0,-175.32 z"
         clip-rule="evenodd"
         id="path3801"
         inkscape:connector-curvature="0" /></clipPath><clipPath
       clipPathUnits="userSpaceOnUse"
       id="clipPath3811"><path
         d="m 81.6,573.96 339.96,0 0,175.32 -339.96,0 0,-175.32 z"
         clip-rule="evenodd"
         id="path3813"
         inkscape:connector-curvature="0" /></clipPath><clipPath
       clipPathUnits="userSpaceOnUse"
       id="clipPath3871"><path
         d="m 83.52,647.04 34.56,0 0,120.48 -34.56,0 0,-120.48 z"
         clip-rule="evenodd"
         id="path3873"
         inkscape:connector-curvature="0" /></clipPath><clipPath
       clipPathUnits="userSpaceOnUse"
       id="clipPath3883"><path
         d="m 168.24,647.04 34.56,0 0,120.48 -34.56,0 0,-120.48 z"
         clip-rule="evenodd"
         id="path3885"
         inkscape:connector-curvature="0" /></clipPath><clipPath
       clipPathUnits="userSpaceOnUse"
       id="clipPath3895"><path
         d="m 252.96,647.04 34.56,0 0,120.48 -34.56,0 0,-120.48 z"
         clip-rule="evenodd"
         id="path3897"
         inkscape:connector-curvature="0" /></clipPath><clipPath
       clipPathUnits="userSpaceOnUse"
       id="clipPath3907"><path
         d="m 337.68,647.04 34.56,0 0,120.48 -34.56,0 0,-120.48 z"
         clip-rule="evenodd"
         id="path3909"
         inkscape:connector-curvature="0" /></clipPath><clipPath
       clipPathUnits="userSpaceOnUse"
       id="clipPath3921"><path
         d="m 95.4,549 29.52,0 0,120.36 -29.52,0 0,-120.36 z"
         clip-rule="evenodd"
         id="path3923"
         inkscape:connector-curvature="0" /></clipPath><clipPath
       clipPathUnits="userSpaceOnUse"
       id="clipPath3935"><path
         d="m 179.16,529.2 29.52,0 0,111.12 -29.52,0 0,-111.12 z"
         clip-rule="evenodd"
         id="path3937"
         inkscape:connector-curvature="0" /></clipPath><clipPath
       clipPathUnits="userSpaceOnUse"
       id="clipPath3949"><path
         d="m 263.88,529.2 29.52,0 0,107.52 -29.52,0 0,-107.52 z"
         clip-rule="evenodd"
         id="path3951"
         inkscape:connector-curvature="0" /></clipPath><clipPath
       clipPathUnits="userSpaceOnUse"
       id="clipPath3963"><path
         d="m 350.64,529.2 29.52,0 0,106.8 -29.52,0 0,-106.8 z"
         clip-rule="evenodd"
         id="path3965"
         inkscape:connector-curvature="0" /></clipPath><clipPath
       clipPathUnits="userSpaceOnUse"
       id="clipPath3975"><path
         d="m 116.88,603.48 29.4,0 0,120.36 -29.4,0 0,-120.36 z"
         clip-rule="evenodd"
         id="path3977"
         inkscape:connector-curvature="0" /></clipPath><clipPath
       clipPathUnits="userSpaceOnUse"
       id="clipPath3987"><path
         d="m 201.6,566.16 29.52,0 0,120.36 -29.52,0 0,-120.36 z"
         clip-rule="evenodd"
         id="path3989"
         inkscape:connector-curvature="0" /></clipPath><clipPath
       clipPathUnits="userSpaceOnUse"
       id="clipPath3999"><path
         d="m 286.32,561.24 29.52,0 0,120.48 -29.52,0 0,-120.48 z"
         clip-rule="evenodd"
         id="path4001"
         inkscape:connector-curvature="0" /></clipPath><clipPath
       clipPathUnits="userSpaceOnUse"
       id="clipPath4011"><path
         d="m 371.04,560.28 29.52,0 0,120.36 -29.52,0 0,-120.36 z"
         clip-rule="evenodd"
         id="path4013"
         inkscape:connector-curvature="0" /></clipPath><clipPath
       clipPathUnits="userSpaceOnUse"
       id="clipPath4023"><path
         d="m 138.24,529.2 29.52,0 0,118.44 -29.52,0 0,-118.44 z"
         clip-rule="evenodd"
         id="path4025"
         inkscape:connector-curvature="0" /></clipPath><clipPath
       clipPathUnits="userSpaceOnUse"
       id="clipPath4035"><path
         d="m 222.96,529.2 29.52,0 0,109.08 -29.52,0 0,-109.08 z"
         clip-rule="evenodd"
         id="path4037"
         inkscape:connector-curvature="0" /></clipPath><clipPath
       clipPathUnits="userSpaceOnUse"
       id="clipPath4047"><path
         d="m 308.76,529.2 29.52,0 0,106.8 -29.52,0 0,-106.8 z"
         clip-rule="evenodd"
         id="path4049"
         inkscape:connector-curvature="0" /></clipPath><clipPath
       clipPathUnits="userSpaceOnUse"
       id="clipPath4059"><path
         d="m 391.56,529.2 29.4,0 0,107.64 -29.4,0 0,-107.64 z"
         clip-rule="evenodd"
         id="path4061"
         inkscape:connector-curvature="0" /></clipPath><clipPath
       clipPathUnits="userSpaceOnUse"
       id="clipPath4071"><path
         d="m 115.2,535.08 17.28,0 0,33.6 -17.28,0 0,-33.6 z"
         clip-rule="evenodd"
         id="path4073"
         inkscape:connector-curvature="0" /></clipPath><clipPath
       clipPathUnits="userSpaceOnUse"
       id="clipPath4083"><path
         d="m 200.04,535.08 17.28,0 0,33.6 -17.28,0 0,-33.6 z"
         clip-rule="evenodd"
         id="path4085"
         inkscape:connector-curvature="0" /></clipPath><clipPath
       clipPathUnits="userSpaceOnUse"
       id="clipPath4095"><path
         d="m 284.76,535.08 17.28,0 0,33.6 -17.28,0 0,-33.6 z"
         clip-rule="evenodd"
         id="path4097"
         inkscape:connector-curvature="0" /></clipPath><clipPath
       clipPathUnits="userSpaceOnUse"
       id="clipPath4107"><path
         d="m 369.48,535.08 17.28,0 0,33.6 -17.28,0 0,-33.6 z"
         clip-rule="evenodd"
         id="path4109"
         inkscape:connector-curvature="0" /></clipPath><clipPath
       clipPathUnits="userSpaceOnUse"
       id="clipPath4123"><path
         d="m 204,534.36 24.72,0 0,17.76 -24.72,0 0,-17.76 z"
         clip-rule="evenodd"
         id="path4125"
         inkscape:connector-curvature="0" /></clipPath><clipPath
       clipPathUnits="userSpaceOnUse"
       id="clipPath4139"><path
         d="m 231.84,534.36 26.04,0 0,17.76 -26.04,0 0,-17.76 z"
         clip-rule="evenodd"
         id="path4141"
         inkscape:connector-curvature="0" /></clipPath><clipPath
       clipPathUnits="userSpaceOnUse"
       id="clipPath4155"><path
         d="m 261.12,534.36 22.08,0 0,17.76 -22.08,0 0,-17.76 z"
         clip-rule="evenodd"
         id="path4157"
         inkscape:connector-curvature="0" /></clipPath><clipPath
       clipPathUnits="userSpaceOnUse"
       id="clipPath4171"><path
         d="m 286.44,534.36 40.92,0 0,17.76 -40.92,0 0,-17.76 z"
         clip-rule="evenodd"
         id="path4173"
         inkscape:connector-curvature="0" /></clipPath><clipPath
       clipPathUnits="userSpaceOnUse"
       id="clipPath4183"><path
         d="m 0,516.36 595.32,0 0,253.56 -595.32,0 0,-253.56 z"
         clip-rule="evenodd"
         id="path4185"
         inkscape:connector-curvature="0" /></clipPath><clipPath
       clipPathUnits="userSpaceOnUse"
       id="clipPath4197"><path
         d="m 81.48,320.4 338.52,0 0,175.32 -338.52,0 0,-175.32 z"
         clip-rule="evenodd"
         id="path4199"
         inkscape:connector-curvature="0" /></clipPath><clipPath
       clipPathUnits="userSpaceOnUse"
       id="clipPath4209"><path
         d="m 81.48,320.4 338.52,0 0,175.32 -338.52,0 0,-175.32 z"
         clip-rule="evenodd"
         id="path4211"
         inkscape:connector-curvature="0" /></clipPath><clipPath
       clipPathUnits="userSpaceOnUse"
       id="clipPath4221"><path
         d="m 81.48,320.4 338.52,0 0,175.32 -338.52,0 0,-175.32 z"
         clip-rule="evenodd"
         id="path4223"
         inkscape:connector-curvature="0" /></clipPath><clipPath
       clipPathUnits="userSpaceOnUse"
       id="clipPath4233"><path
         d="m 81.48,320.4 338.52,0 0,175.32 -338.52,0 0,-175.32 z"
         clip-rule="evenodd"
         id="path4235"
         inkscape:connector-curvature="0" /></clipPath><clipPath
       clipPathUnits="userSpaceOnUse"
       id="clipPath4293"><path
         d="m 83.4,393.6 34.56,0 0,120.36 -34.56,0 0,-120.36 z"
         clip-rule="evenodd"
         id="path4295"
         inkscape:connector-curvature="0" /></clipPath><clipPath
       clipPathUnits="userSpaceOnUse"
       id="clipPath4305"><path
         d="m 167.76,393.6 34.56,0 0,120.36 -34.56,0 0,-120.36 z"
         clip-rule="evenodd"
         id="path4307"
         inkscape:connector-curvature="0" /></clipPath><clipPath
       clipPathUnits="userSpaceOnUse"
       id="clipPath4317"><path
         d="m 252.12,393.6 34.56,0 0,120.36 -34.56,0 0,-120.36 z"
         clip-rule="evenodd"
         id="path4319"
         inkscape:connector-curvature="0" /></clipPath><clipPath
       clipPathUnits="userSpaceOnUse"
       id="clipPath4329"><path
         d="m 336.48,393.6 34.56,0 0,120.36 -34.56,0 0,-120.36 z"
         clip-rule="evenodd"
         id="path4331"
         inkscape:connector-curvature="0" /></clipPath><clipPath
       clipPathUnits="userSpaceOnUse"
       id="clipPath4343"><path
         d="m 95.28,294.48 29.4,0 0,120.36 -29.4,0 0,-120.36 z"
         clip-rule="evenodd"
         id="path4345"
         inkscape:connector-curvature="0" /></clipPath><clipPath
       clipPathUnits="userSpaceOnUse"
       id="clipPath4357"><path
         d="m 179.64,275.64 29.4,0 0,111.24 -29.4,0 0,-111.24 z"
         clip-rule="evenodd"
         id="path4359"
         inkscape:connector-curvature="0" /></clipPath><clipPath
       clipPathUnits="userSpaceOnUse"
       id="clipPath4371"><path
         d="m 264,275.64 29.52,0 0,108.6 -29.52,0 0,-108.6 z"
         clip-rule="evenodd"
         id="path4373"
         inkscape:connector-curvature="0" /></clipPath><clipPath
       clipPathUnits="userSpaceOnUse"
       id="clipPath4385"><path
         d="m 348.36,275.64 29.52,0 0,107.76 -29.52,0 0,-107.76 z"
         clip-rule="evenodd"
         id="path4387"
         inkscape:connector-curvature="0" /></clipPath><clipPath
       clipPathUnits="userSpaceOnUse"
       id="clipPath4397"><path
         d="m 116.52,349.92 29.52,0 0,120.48 -29.52,0 0,-120.48 z"
         clip-rule="evenodd"
         id="path4399"
         inkscape:connector-curvature="0" /></clipPath><clipPath
       clipPathUnits="userSpaceOnUse"
       id="clipPath4409"><path
         d="m 201,312.6 29.4,0 0,120.36 -29.4,0 0,-120.36 z"
         clip-rule="evenodd"
         id="path4411"
         inkscape:connector-curvature="0" /></clipPath><clipPath
       clipPathUnits="userSpaceOnUse"
       id="clipPath4421"><path
         d="m 285.36,307.8 29.52,0 0,120.36 -29.52,0 0,-120.36 z"
         clip-rule="evenodd"
         id="path4423"
         inkscape:connector-curvature="0" /></clipPath><clipPath
       clipPathUnits="userSpaceOnUse"
       id="clipPath4433"><path
         d="m 369.72,306.72 29.52,0 0,120.36 -29.52,0 0,-120.36 z"
         clip-rule="evenodd"
         id="path4435"
         inkscape:connector-curvature="0" /></clipPath><clipPath
       clipPathUnits="userSpaceOnUse"
       id="clipPath4445"><path
         d="m 137.88,295.44 29.52,0 0,120.48 -29.52,0 0,-120.48 z"
         clip-rule="evenodd"
         id="path4447"
         inkscape:connector-curvature="0" /></clipPath><clipPath
       clipPathUnits="userSpaceOnUse"
       id="clipPath4457"><path
         d="m 223.32,286.08 29.52,0 0,120.48 -29.52,0 0,-120.48 z"
         clip-rule="evenodd"
         id="path4459"
         inkscape:connector-curvature="0" /></clipPath><clipPath
       clipPathUnits="userSpaceOnUse"
       id="clipPath4469"><path
         d="m 306.72,284.88 29.4,0 0,120.48 -29.4,0 0,-120.48 z"
         clip-rule="evenodd"
         id="path4471"
         inkscape:connector-curvature="0" /></clipPath><clipPath
       clipPathUnits="userSpaceOnUse"
       id="clipPath4481"><path
         d="m 391.08,284.64 29.52,0 0,120.48 -29.52,0 0,-120.48 z"
         clip-rule="evenodd"
         id="path4483"
         inkscape:connector-curvature="0" /></clipPath><clipPath
       clipPathUnits="userSpaceOnUse"
       id="clipPath4493"><path
         d="m 114.96,281.52 17.28,0 0,33.6 -17.28,0 0,-33.6 z"
         clip-rule="evenodd"
         id="path4495"
         inkscape:connector-curvature="0" /></clipPath><clipPath
       clipPathUnits="userSpaceOnUse"
       id="clipPath4505"><path
         d="m 199.44,281.52 17.28,0 0,33.6 -17.28,0 0,-33.6 z"
         clip-rule="evenodd"
         id="path4507"
         inkscape:connector-curvature="0" /></clipPath><clipPath
       clipPathUnits="userSpaceOnUse"
       id="clipPath4517"><path
         d="m 283.8,281.52 17.28,0 0,33.6 -17.28,0 0,-33.6 z"
         clip-rule="evenodd"
         id="path4519"
         inkscape:connector-curvature="0" /></clipPath><clipPath
       clipPathUnits="userSpaceOnUse"
       id="clipPath4529"><path
         d="m 368.16,281.52 17.28,0 0,33.6 -17.28,0 0,-33.6 z"
         clip-rule="evenodd"
         id="path4531"
         inkscape:connector-curvature="0" /></clipPath><clipPath
       clipPathUnits="userSpaceOnUse"
       id="clipPath4545"><path
         d="m 203.28,280.92 24.72,0 0,17.76 -24.72,0 0,-17.76 z"
         clip-rule="evenodd"
         id="path4547"
         inkscape:connector-curvature="0" /></clipPath><clipPath
       clipPathUnits="userSpaceOnUse"
       id="clipPath4561"><path
         d="m 231.12,280.92 26.04,0 0,17.76 -26.04,0 0,-17.76 z"
         clip-rule="evenodd"
         id="path4563"
         inkscape:connector-curvature="0" /></clipPath><clipPath
       clipPathUnits="userSpaceOnUse"
       id="clipPath4577"><path
         d="m 260.16,280.92 22.2,0 0,17.76 -22.2,0 0,-17.76 z"
         clip-rule="evenodd"
         id="path4579"
         inkscape:connector-curvature="0" /></clipPath><clipPath
       clipPathUnits="userSpaceOnUse"
       id="clipPath4593"><path
         d="m 285.36,280.92 41.04,0 0,17.76 -41.04,0 0,-17.76 z"
         clip-rule="evenodd"
         id="path4595"
         inkscape:connector-curvature="0" /></clipPath><clipPath
       clipPathUnits="userSpaceOnUse"
       id="clipPath4605"><path
         d="m 0,262.92 595.32,0 0,253.44 -595.32,0 0,-253.44 z"
         clip-rule="evenodd"
         id="path4607"
         inkscape:connector-curvature="0" /></clipPath></defs><sodipodi:namedview
     pagecolor="#ffffff"
     bordercolor="#666666"
     borderopacity="1"
     objecttolerance="10"
     gridtolerance="10"
     guidetolerance="10"
     inkscape:pageopacity="0"
     inkscape:pageshadow="2"
     inkscape:window-width="640"
     inkscape:window-height="480"
     id="namedview3759"
     showgrid="false"
     fit-margin-top="0"
     fit-margin-left="0"
     fit-margin-right="0"
     fit-margin-bottom="0"
     inkscape:zoom="0.55302165"
     inkscape:cx="62.059018"
     inkscape:cy="-126.07329"
     inkscape:window-x="77"
     inkscape:window-y="3"
     inkscape:window-maximized="0"
     inkscape:current-layer="g3765" /><g
     id="g3765"
     inkscape:groupmode="layer"
     inkscape:label="charts"
     transform="matrix(1.25,0,0,-1.25,-91.40625,962.4)"><path
       d="m 73.56,529.08 360.96,0 0,240.84 -360.96,0 0,-240.84 z"
       style="fill:#ffffff;fill-opacity:1;fill-rule:evenodd;stroke:none"
       id="path3767"
       inkscape:connector-curvature="0" /><path
       d="m 93.12,574.92 15.36,0 0,174.36 -15.36,0 0,-174.36 z"
       style="fill:#ffffff;fill-opacity:1;fill-rule:evenodd;stroke:none"
       id="path3769"
       inkscape:connector-curvature="0" /><g
       id="g3771"><g
         id="g3773"
         clip-path="url(#clipPath3775)"><path
           d="m 93.12,574.92 15.36,0 0,174.36 -15.36,0 0,-174.36 z"
           style="fill:none;stroke:#4e4e4e;stroke-width:0.72000003;stroke-linecap:butt;stroke-linejoin:round;stroke-miterlimit:10;stroke-opacity:1;stroke-dasharray:none"
           id="path3779"
           inkscape:connector-curvature="0" /></g></g><path
       d="m 177.84,574.92 15.48,0 0,174.36 -15.48,0 0,-174.36 z"
       style="fill:#ffffff;fill-opacity:1;fill-rule:evenodd;stroke:none"
       id="path3781"
       inkscape:connector-curvature="0" /><g
       id="g3783"><g
         id="g3785"
         clip-path="url(#clipPath3787)"><path
           d="m 177.84,574.92 15.48,0 0,174.36 -15.48,0 0,-174.36 z"
           style="fill:none;stroke:#4e4e4e;stroke-width:0.72000003;stroke-linecap:butt;stroke-linejoin:round;stroke-miterlimit:10;stroke-opacity:1;stroke-dasharray:none"
           id="path3791"
           inkscape:connector-curvature="0" /></g></g><path
       d="m 262.68,574.92 15.36,0 0,174.36 -15.36,0 0,-174.36 z"
       style="fill:#ffffff;fill-opacity:1;fill-rule:evenodd;stroke:none"
       id="path3793"
       inkscape:connector-curvature="0" /><g
       id="g3795"><g
         id="g3797"
         clip-path="url(#clipPath3799)"><path
           d="m 262.68,574.92 15.36,0 0,174.36 -15.36,0 0,-174.36 z"
           style="fill:none;stroke:#4e4e4e;stroke-width:0.72000003;stroke-linecap:butt;stroke-linejoin:round;stroke-miterlimit:10;stroke-opacity:1;stroke-dasharray:none"
           id="path3803"
           inkscape:connector-curvature="0" /></g></g><path
       d="m 347.4,574.92 15.36,0 0,174.36 -15.36,0 0,-174.36 z"
       style="fill:#ffffff;fill-opacity:1;fill-rule:evenodd;stroke:none"
       id="path3805"
       inkscape:connector-curvature="0" /><g
       id="g3807"><g
         id="g3809"
         clip-path="url(#clipPath3811)"><path
           d="m 347.4,574.92 15.36,0 0,174.36 -15.36,0 0,-174.36 z"
           style="fill:none;stroke:#4e4e4e;stroke-width:0.72000003;stroke-linecap:butt;stroke-linejoin:round;stroke-miterlimit:10;stroke-opacity:1;stroke-dasharray:none"
           id="path3815"
           inkscape:connector-curvature="0" /></g></g><path
       d="m 108.48,574.92 15.48,0 0,76.32 -15.48,0 0,-76.32 z"
       style="fill:#d9d9d9;fill-opacity:1;fill-rule:evenodd;stroke:none"
       id="path3817"
       inkscape:connector-curvature="0" /><path
       d="m 108.48,574.92 15.48,0 0,76.32 -15.48,0 0,-76.32 z"
       style="fill:none;stroke:#4e4e4e;stroke-width:0.72000003;stroke-linecap:butt;stroke-linejoin:round;stroke-miterlimit:10;stroke-opacity:1;stroke-dasharray:none"
       id="path3819"
       inkscape:connector-curvature="0" /><path
       d="m 193.32,574.92 15.36,0 0,48.24 -15.36,0 0,-48.24 z"
       style="fill:#d9d9d9;fill-opacity:1;fill-rule:evenodd;stroke:none"
       id="path3821"
       inkscape:connector-curvature="0" /><path
       d="m 193.32,574.92 15.36,0 0,48.24 -15.36,0 0,-48.24 z"
       style="fill:none;stroke:#4e4e4e;stroke-width:0.72000003;stroke-linecap:butt;stroke-linejoin:round;stroke-miterlimit:10;stroke-opacity:1;stroke-dasharray:none"
       id="path3823"
       inkscape:connector-curvature="0" /><path
       d="m 278.04,574.92 15.36,0 0,44.64 -15.36,0 0,-44.64 z"
       style="fill:#d9d9d9;fill-opacity:1;fill-rule:evenodd;stroke:none"
       id="path3825"
       inkscape:connector-curvature="0" /><path
       d="m 278.04,574.92 15.36,0 0,44.64 -15.36,0 0,-44.64 z"
       style="fill:none;stroke:#4e4e4e;stroke-width:0.72000003;stroke-linecap:butt;stroke-linejoin:round;stroke-miterlimit:10;stroke-opacity:1;stroke-dasharray:none"
       id="path3827"
       inkscape:connector-curvature="0" /><path
       d="m 362.76,574.92 15.48,0 0,43.8 -15.48,0 0,-43.8 z"
       style="fill:#d9d9d9;fill-opacity:1;fill-rule:evenodd;stroke:none"
       id="path3829"
       inkscape:connector-curvature="0" /><path
       d="m 362.76,574.92 15.48,0 0,43.8 -15.48,0 0,-43.8 z"
       style="fill:none;stroke:#4e4e4e;stroke-width:0.72000003;stroke-linecap:butt;stroke-linejoin:round;stroke-miterlimit:10;stroke-opacity:1;stroke-dasharray:none"
       id="path3831"
       inkscape:connector-curvature="0" /><path
       d="m 123.96,574.92 15.36,0 0,130.8 -15.36,0 0,-130.8 z"
       style="fill:#7f7f7f;fill-opacity:1;fill-rule:evenodd;stroke:none"
       id="path3833"
       inkscape:connector-curvature="0" /><path
       d="m 123.96,574.92 15.36,0 0,130.8 -15.36,0 0,-130.8 z"
       style="fill:none;stroke:#4e4e4e;stroke-width:0.72000003;stroke-linecap:butt;stroke-linejoin:round;stroke-miterlimit:10;stroke-opacity:1;stroke-dasharray:none"
       id="path3835"
       inkscape:connector-curvature="0" /><path
       d="m 208.68,574.92 15.36,0 0,93.36 -15.36,0 0,-93.36 z"
       style="fill:#7f7f7f;fill-opacity:1;fill-rule:evenodd;stroke:none"
       id="path3837"
       inkscape:connector-curvature="0" /><path
       d="m 208.68,574.92 15.36,0 0,93.36 -15.36,0 0,-93.36 z"
       style="fill:none;stroke:#4e4e4e;stroke-width:0.72000003;stroke-linecap:butt;stroke-linejoin:round;stroke-miterlimit:10;stroke-opacity:1;stroke-dasharray:none"
       id="path3839"
       inkscape:connector-curvature="0" /><path
       d="m 293.4,574.92 15.48,0 0,88.56 -15.48,0 0,-88.56 z"
       style="fill:#7f7f7f;fill-opacity:1;fill-rule:evenodd;stroke:none"
       id="path3841"
       inkscape:connector-curvature="0" /><path
       d="m 293.4,574.92 15.48,0 0,88.56 -15.48,0 0,-88.56 z"
       style="fill:none;stroke:#4e4e4e;stroke-width:0.72000003;stroke-linecap:butt;stroke-linejoin:round;stroke-miterlimit:10;stroke-opacity:1;stroke-dasharray:none"
       id="path3843"
       inkscape:connector-curvature="0" /><path
       d="m 378.24,574.92 15.36,0 0,87.48 -15.36,0 0,-87.48 z"
       style="fill:#7f7f7f;fill-opacity:1;fill-rule:evenodd;stroke:none"
       id="path3845"
       inkscape:connector-curvature="0" /><path
       d="m 378.24,574.92 15.36,0 0,87.48 -15.36,0 0,-87.48 z"
       style="fill:none;stroke:#4e4e4e;stroke-width:0.72000003;stroke-linecap:butt;stroke-linejoin:round;stroke-miterlimit:10;stroke-opacity:1;stroke-dasharray:none"
       id="path3847"
       inkscape:connector-curvature="0" /><path
       d="m 139.32,574.92 15.48,0 0,54.48 -15.48,0 0,-54.48 z"
       style="fill:#000000;fill-opacity:1;fill-rule:evenodd;stroke:none"
       id="path3849"
       inkscape:connector-curvature="0" /><path
       d="m 139.32,574.92 15.48,0 0,54.48 -15.48,0 0,-54.48 z"
       style="fill:none;stroke:#4e4e4e;stroke-width:0.72000003;stroke-linecap:butt;stroke-linejoin:round;stroke-miterlimit:10;stroke-opacity:1;stroke-dasharray:none"
       id="path3851"
       inkscape:connector-curvature="0" /><path
       d="m 224.04,574.92 15.48,0 0,45.12 -15.48,0 0,-45.12 z"
       style="fill:#000000;fill-opacity:1;fill-rule:evenodd;stroke:none"
       id="path3853"
       inkscape:connector-curvature="0" /><path
       d="m 224.04,574.92 15.48,0 0,45.12 -15.48,0 0,-45.12 z"
       style="fill:none;stroke:#4e4e4e;stroke-width:0.72000003;stroke-linecap:butt;stroke-linejoin:round;stroke-miterlimit:10;stroke-opacity:1;stroke-dasharray:none"
       id="path3855"
       inkscape:connector-curvature="0" /><path
       d="m 308.88,574.92 15.36,0 0,43.92 -15.36,0 0,-43.92 z"
       style="fill:#000000;fill-opacity:1;fill-rule:evenodd;stroke:none"
       id="path3857"
       inkscape:connector-curvature="0" /><path
       d="m 308.88,574.92 15.36,0 0,43.92 -15.36,0 0,-43.92 z"
       style="fill:none;stroke:#4e4e4e;stroke-width:0.72000003;stroke-linecap:butt;stroke-linejoin:round;stroke-miterlimit:10;stroke-opacity:1;stroke-dasharray:none"
       id="path3859"
       inkscape:connector-curvature="0" /><path
       d="m 393.6,574.92 15.36,0 0,43.68 -15.36,0 0,-43.68 z"
       style="fill:#000000;fill-opacity:1;fill-rule:evenodd;stroke:none"
       id="path3861"
       inkscape:connector-curvature="0" /><path
       d="m 393.6,574.92 15.36,0 0,43.68 -15.36,0 0,-43.68 z"
       style="fill:none;stroke:#4e4e4e;stroke-width:0.72000003;stroke-linecap:butt;stroke-linejoin:round;stroke-miterlimit:10;stroke-opacity:1;stroke-dasharray:none"
       id="path3863"
       inkscape:connector-curvature="0" /><path
       d="m 81.6,574.92 339,0"
       style="fill:none;stroke:#868686;stroke-width:0.72000003;stroke-linecap:butt;stroke-linejoin:round;stroke-miterlimit:10;stroke-opacity:1;stroke-dasharray:none"
       id="path3865"
       inkscape:connector-curvature="0" /><g
       id="g3867"><g
         id="g3869"
         clip-path="url(#clipPath3871)"><text
           transform="matrix(1,0,0,-1,89.64,756.48)"
           id="text3875"><tspan
             style="font-size:9.96000004px;font-variant:normal;font-weight:normal;writing-mode:lr-tb;fill:#000000;fill-opacity:1;fill-rule:nonzero;stroke:none;font-family:Calibri;-inkscape-font-specification:Calibri"
             x="0 5.04 10.08 15.12"
             y="0"
             sodipodi:role="line"
             id="tspan3877">100%</tspan></text>
</g></g><g
       id="g3879"><g
         id="g3881"
         clip-path="url(#clipPath3883)"><text
           transform="matrix(1,0,0,-1,174.41,756.48)"
           id="text3887"><tspan
             style="font-size:9.96000004px;font-variant:normal;font-weight:normal;writing-mode:lr-tb;fill:#000000;fill-opacity:1;fill-rule:nonzero;stroke:none;font-family:Calibri;-inkscape-font-specification:Calibri"
             x="0 5.04 10.08 15.12"
             y="0"
             sodipodi:role="line"
             id="tspan3889">100%</tspan></text>
</g></g><g
       id="g3891"><g
         id="g3893"
         clip-path="url(#clipPath3895)"><text
           transform="matrix(1,0,0,-1,259.18,756.48)"
           id="text3899"><tspan
             style="font-size:9.96000004px;font-variant:normal;font-weight:normal;writing-mode:lr-tb;fill:#000000;fill-opacity:1;fill-rule:nonzero;stroke:none;font-family:Calibri;-inkscape-font-specification:Calibri"
             x="0 5.04 10.08 15.12"
             y="0"
             sodipodi:role="line"
             id="tspan3901">100%</tspan></text>
</g></g><g
       id="g3903"><g
         id="g3905"
         clip-path="url(#clipPath3907)"><text
           transform="matrix(1,0,0,-1,343.94,756.48)"
           id="text3911"><tspan
             style="font-size:9.96000004px;font-variant:normal;font-weight:normal;writing-mode:lr-tb;fill:#000000;fill-opacity:1;fill-rule:nonzero;stroke:none;font-family:Calibri;-inkscape-font-specification:Calibri"
             x="0 5.04 10.08 15.12"
             y="0"
             sodipodi:role="line"
             id="tspan3913">100%</tspan></text>
</g></g><path
       d="m 98.518,654.2 23.29,0 0,15.205 -23.29,0 0,-15.205 z"
       style="fill:#ffffff;fill-opacity:1;fill-rule:evenodd;stroke:none"
       id="path3915"
       inkscape:connector-curvature="0" /><g
       id="g3917"><g
         id="g3919"
         clip-path="url(#clipPath3921)"><text
           transform="matrix(1,0,0,-1,101.57,658.39)"
           id="text3925"><tspan
             style="font-size:9.96000004px;font-variant:normal;font-weight:normal;writing-mode:lr-tb;fill:#000000;fill-opacity:1;fill-rule:nonzero;stroke:none;font-family:Calibri;-inkscape-font-specification:Calibri"
             x="0 5.04 10.08"
             y="0"
             sodipodi:role="line"
             id="tspan3927">44%</tspan></text>
</g></g><path
       d="m 182.27,625.16 23.29,0 0,15.205 -23.29,0 0,-15.205 z"
       style="fill:#ffffff;fill-opacity:1;fill-rule:evenodd;stroke:none"
       id="path3929"
       inkscape:connector-curvature="0" /><g
       id="g3931"><g
         id="g3933"
         clip-path="url(#clipPath3935)"><text
           transform="matrix(1,0,0,-1,185.33,629.35)"
           id="text3939"><tspan
             style="font-size:9.96000004px;font-variant:normal;font-weight:normal;writing-mode:lr-tb;fill:#000000;fill-opacity:1;fill-rule:nonzero;stroke:none;font-family:Calibri;-inkscape-font-specification:Calibri"
             x="0 5.04 10.08"
             y="0"
             sodipodi:role="line"
             id="tspan3941">28%</tspan></text>
</g></g><path
       d="m 267.02,621.55 23.29,0 0,15.205 -23.29,0 0,-15.205 z"
       style="fill:#ffffff;fill-opacity:1;fill-rule:evenodd;stroke:none"
       id="path3943"
       inkscape:connector-curvature="0" /><g
       id="g3945"><g
         id="g3947"
         clip-path="url(#clipPath3949)"><text
           transform="matrix(1,0,0,-1,270.1,625.75)"
           id="text3953"><tspan
             style="font-size:9.96000004px;font-variant:normal;font-weight:normal;writing-mode:lr-tb;fill:#000000;fill-opacity:1;fill-rule:nonzero;stroke:none;font-family:Calibri;-inkscape-font-specification:Calibri"
             x="0 5.04 10.08"
             y="0"
             sodipodi:role="line"
             id="tspan3955">26%</tspan></text>
</g></g><path
       d="m 353.77,620.75 23.29,0 0,15.205 -23.29,0 0,-15.205 z"
       style="fill:#ffffff;fill-opacity:1;fill-rule:evenodd;stroke:none"
       id="path3957"
       inkscape:connector-curvature="0" /><g
       id="g3959"><g
         id="g3961"
         clip-path="url(#clipPath3963)"><text
           transform="matrix(1,0,0,-1,356.86,624.96)"
           id="text3967"><tspan
             style="font-size:9.96000004px;font-variant:normal;font-weight:normal;writing-mode:lr-tb;fill:#000000;fill-opacity:1;fill-rule:nonzero;stroke:none;font-family:Calibri;-inkscape-font-specification:Calibri"
             x="0 5.04 10.08"
             y="0"
             sodipodi:role="line"
             id="tspan3969">25%</tspan></text>
</g></g><g
       id="g3971"><g
         id="g3973"
         clip-path="url(#clipPath3975)"><text
           transform="matrix(1,0,0,-1,122.98,712.9)"
           id="text3979"><tspan
             style="font-size:9.96000004px;font-variant:normal;font-weight:normal;writing-mode:lr-tb;fill:#000000;fill-opacity:1;fill-rule:nonzero;stroke:none;font-family:Calibri;-inkscape-font-specification:Calibri"
             x="0 5.04 10.08"
             y="0"
             sodipodi:role="line"
             id="tspan3981">75%</tspan></text>
</g></g><g
       id="g3983"><g
         id="g3985"
         clip-path="url(#clipPath3987)"><text
           transform="matrix(1,0,0,-1,207.74,675.53)"
           id="text3991"><tspan
             style="font-size:9.96000004px;font-variant:normal;font-weight:normal;writing-mode:lr-tb;fill:#000000;fill-opacity:1;fill-rule:nonzero;stroke:none;font-family:Calibri;-inkscape-font-specification:Calibri"
             x="0 5.04 10.08"
             y="0"
             sodipodi:role="line"
             id="tspan3993">54%</tspan></text>
</g></g><g
       id="g3995"><g
         id="g3997"
         clip-path="url(#clipPath3999)"><text
           transform="matrix(1,0,0,-1,292.51,670.7)"
           id="text4003"><tspan
             style="font-size:9.96000004px;font-variant:normal;font-weight:normal;writing-mode:lr-tb;fill:#000000;fill-opacity:1;fill-rule:nonzero;stroke:none;font-family:Calibri;-inkscape-font-specification:Calibri"
             x="0 5.04 10.08"
             y="0"
             sodipodi:role="line"
             id="tspan4005">51%</tspan></text>
</g></g><g
       id="g4007"><g
         id="g4009"
         clip-path="url(#clipPath4011)"><text
           transform="matrix(1,0,0,-1,377.28,669.65)"
           id="text4015"><tspan
             style="font-size:9.96000004px;font-variant:normal;font-weight:normal;writing-mode:lr-tb;fill:#000000;fill-opacity:1;fill-rule:nonzero;stroke:none;font-family:Calibri;-inkscape-font-specification:Calibri"
             x="0 5.04 10.08"
             y="0"
             sodipodi:role="line"
             id="tspan4017">50%</tspan></text>
</g></g><g
       id="g4019"><g
         id="g4021"
         clip-path="url(#clipPath4023)"><text
           transform="matrix(1,0,0,-1,144.41,636.6)"
           id="text4027"><tspan
             style="font-size:9.96000004px;font-variant:normal;font-weight:normal;writing-mode:lr-tb;fill:#000000;fill-opacity:1;fill-rule:nonzero;stroke:none;font-family:Calibri;-inkscape-font-specification:Calibri"
             x="0 5.04 10.08"
             y="0"
             sodipodi:role="line"
             id="tspan4029">31%</tspan></text>
</g></g><g
       id="g4031"><g
         id="g4033"
         clip-path="url(#clipPath4035)"><text
           transform="matrix(1,0,0,-1,229.18,627.26)"
           id="text4039"><tspan
             style="font-size:9.96000004px;font-variant:normal;font-weight:normal;writing-mode:lr-tb;fill:#000000;fill-opacity:1;fill-rule:nonzero;stroke:none;font-family:Calibri;-inkscape-font-specification:Calibri"
             x="0 5.04 10.08"
             y="0"
             sodipodi:role="line"
             id="tspan4041">26%</tspan></text>
</g></g><g
       id="g4043"><g
         id="g4045"
         clip-path="url(#clipPath4047)"><text
           transform="matrix(1,0,0,-1,314.95,625.03)"
           id="text4051"><tspan
             style="font-size:9.96000004px;font-variant:normal;font-weight:normal;writing-mode:lr-tb;fill:#000000;fill-opacity:1;fill-rule:nonzero;stroke:none;font-family:Calibri;-inkscape-font-specification:Calibri"
             x="0 5.04 10.08"
             y="0"
             sodipodi:role="line"
             id="tspan4053">25%</tspan></text>
</g></g><g
       id="g4055"><g
         id="g4057"
         clip-path="url(#clipPath4059)"><text
           transform="matrix(1,0,0,-1,397.7,625.78)"
           id="text4063"><tspan
             style="font-size:9.96000004px;font-variant:normal;font-weight:normal;writing-mode:lr-tb;fill:#000000;fill-opacity:1;fill-rule:nonzero;stroke:none;font-family:Calibri;-inkscape-font-specification:Calibri"
             x="0 5.04 10.08"
             y="0"
             sodipodi:role="line"
             id="tspan4065">25%</tspan></text>
</g></g><g
       id="g4067"><g
         id="g4069"
         clip-path="url(#clipPath4071)"><text
           transform="matrix(1,0,0,-1,121.37,559.18)"
           id="text4075"><tspan
             style="font-size:9.96000004px;font-variant:normal;font-weight:normal;writing-mode:lr-tb;fill:#000000;fill-opacity:1;fill-rule:nonzero;stroke:none;font-family:Calibri;-inkscape-font-specification:Calibri"
             x="0"
             y="0"
             id="tspan4077">2</tspan></text>
</g></g><g
       id="g4079"><g
         id="g4081"
         clip-path="url(#clipPath4083)"><text
           transform="matrix(1,0,0,-1,206.14,559.18)"
           id="text4087"><tspan
             style="font-size:9.96000004px;font-variant:normal;font-weight:normal;writing-mode:lr-tb;fill:#000000;fill-opacity:1;fill-rule:nonzero;stroke:none;font-family:Calibri;-inkscape-font-specification:Calibri"
             x="0"
             y="0"
             id="tspan4089">4</tspan></text>
</g></g><g
       id="g4091"><g
         id="g4093"
         clip-path="url(#clipPath4095)"><text
           transform="matrix(1,0,0,-1,290.9,559.18)"
           id="text4099"><tspan
             style="font-size:9.96000004px;font-variant:normal;font-weight:normal;writing-mode:lr-tb;fill:#000000;fill-opacity:1;fill-rule:nonzero;stroke:none;font-family:Calibri;-inkscape-font-specification:Calibri"
             x="0"
             y="0"
             id="tspan4101">6</tspan></text>
</g></g><g
       id="g4103"><g
         id="g4105"
         clip-path="url(#clipPath4107)"><text
           transform="matrix(1,0,0,-1,375.67,559.18)"
           id="text4111"><tspan
             style="font-size:9.96000004px;font-variant:normal;font-weight:normal;writing-mode:lr-tb;fill:#000000;fill-opacity:1;fill-rule:nonzero;stroke:none;font-family:Calibri;-inkscape-font-specification:Calibri"
             x="0"
             y="0"
             id="tspan4113">8</tspan></text>
</g></g><path
       d="m 202.32,542.76 5.4,0 0,5.52 -5.4,0 0,-5.52 z"
       style="fill:#ffffff;fill-opacity:1;fill-rule:evenodd;stroke:none"
       id="path4115"
       inkscape:connector-curvature="0" /><path
       d="m 202.32,542.76 5.4,0 0,5.52 -5.4,0 0,-5.52 z"
       style="fill:none;stroke:#4e4e4e;stroke-width:0.72000003;stroke-linecap:butt;stroke-linejoin:round;stroke-miterlimit:10;stroke-opacity:1;stroke-dasharray:none"
       id="path4117"
       inkscape:connector-curvature="0" /><g
       id="g4119"><g
         id="g4121"
         clip-path="url(#clipPath4123)"><text
           transform="matrix(1,0,0,-1,210.12,542.64)"
           id="text4127"><tspan
             style="font-size:9.96000004px;font-variant:normal;font-weight:normal;writing-mode:lr-tb;fill:#000000;fill-opacity:1;fill-rule:nonzero;stroke:none;font-family:Calibri;-inkscape-font-specification:Calibri"
             x="0 3.8445599 7.18116"
             y="0"
             sodipodi:role="line"
             id="tspan4129">std</tspan></text>
</g></g><path
       d="m 230.16,542.76 5.52,0 0,5.52 -5.52,0 0,-5.52 z"
       style="fill:#d9d9d9;fill-opacity:1;fill-rule:evenodd;stroke:none"
       id="path4131"
       inkscape:connector-curvature="0" /><path
       d="m 230.16,542.76 5.52,0 0,5.52 -5.52,0 0,-5.52 z"
       style="fill:none;stroke:#4e4e4e;stroke-width:0.72000003;stroke-linecap:butt;stroke-linejoin:round;stroke-miterlimit:10;stroke-opacity:1;stroke-dasharray:none"
       id="path4133"
       inkscape:connector-curvature="0" /><g
       id="g4135"><g
         id="g4137"
         clip-path="url(#clipPath4139)"><text
           transform="matrix(1,0,0,-1,237.98,542.64)"
           id="text4143"><tspan
             style="font-size:9.96000004px;font-variant:normal;font-weight:normal;writing-mode:lr-tb;fill:#000000;fill-opacity:1;fill-rule:nonzero;stroke:none;font-family:Calibri;-inkscape-font-specification:Calibri"
             x="0 5.2688398 10.53768"
             y="0"
             sodipodi:role="line"
             id="tspan4145">opt</tspan></text>
</g></g><path
       d="m 259.44,542.76 5.4,0 0,5.52 -5.4,0 0,-5.52 z"
       style="fill:#7f7f7f;fill-opacity:1;fill-rule:evenodd;stroke:none"
       id="path4147"
       inkscape:connector-curvature="0" /><path
       d="m 259.44,542.76 5.4,0 0,5.52 -5.4,0 0,-5.52 z"
       style="fill:none;stroke:#4e4e4e;stroke-width:0.72000003;stroke-linecap:butt;stroke-linejoin:round;stroke-miterlimit:10;stroke-opacity:1;stroke-dasharray:none"
       id="path4149"
       inkscape:connector-curvature="0" /><g
       id="g4151"><g
         id="g4153"
         clip-path="url(#clipPath4155)"><text
           transform="matrix(1,0,0,-1,267.24,542.64)"
           id="text4159"><tspan
             style="font-size:9.96000004px;font-variant:normal;font-weight:normal;writing-mode:lr-tb;fill:#000000;fill-opacity:1;fill-rule:nonzero;stroke:none;font-family:Calibri;-inkscape-font-specification:Calibri"
             x="0 2.2908001 7.5496802"
             y="0"
             sodipodi:role="line"
             id="tspan4161">inj</tspan></text>
</g></g><path
       d="m 284.64,542.76 5.52,0 0,5.52 -5.52,0 0,-5.52 z"
       style="fill:#000000;fill-opacity:1;fill-rule:evenodd;stroke:none"
       id="path4163"
       inkscape:connector-curvature="0" /><path
       d="m 284.64,542.76 5.52,0 0,5.52 -5.52,0 0,-5.52 z"
       style="fill:none;stroke:#4e4e4e;stroke-width:0.72000003;stroke-linecap:butt;stroke-linejoin:round;stroke-miterlimit:10;stroke-opacity:1;stroke-dasharray:none"
       id="path4165"
       inkscape:connector-curvature="0" /><g
       id="g4167"><g
         id="g4169"
         clip-path="url(#clipPath4171)"><text
           transform="matrix(1,0,0,-1,292.54,542.64)"
           id="text4175"><tspan
             style="font-size:9.96000004px;font-variant:normal;font-weight:normal;writing-mode:lr-tb;fill:#000000;fill-opacity:1;fill-rule:nonzero;stroke:none;font-family:Calibri;-inkscape-font-specification:Calibri"
             x="0 5.2688398 10.53768 13.87428 18.83436 21.12516 26.35416"
             y="0"
             sodipodi:role="line"
             id="tspan4177">opt+inj</tspan></text>
</g></g><g
       id="g4179"><g
         id="g4181"
         clip-path="url(#clipPath4183)"><path
           d="m 73.5,529.14 361.01,0 0,240.78 -361.01,0 0,-240.78 z"
           style="fill:none;stroke:#868686;stroke-width:0.75;stroke-linecap:butt;stroke-linejoin:round;stroke-miterlimit:10;stroke-opacity:1;stroke-dasharray:none"
           id="path4187"
           inkscape:connector-curvature="0" /></g></g></g></svg>