<?xml version="1.0" encoding="UTF-8" standalone="no"?>
<!-- Created with Inkscape (http://www.inkscape.org/) -->

<svg
   xmlns:dc="http://purl.org/dc/elements/1.1/"
   xmlns:cc="http://creativecommons.org/ns#"
   xmlns:rdf="http://www.w3.org/1999/02/22-rdf-syntax-ns#"
   xmlns:svg="http://www.w3.org/2000/svg"
   xmlns="http://www.w3.org/2000/svg"
   xmlns:sodipodi="http://sodipodi.sourceforge.net/DTD/sodipodi-0.dtd"
   xmlns:inkscape="http://www.inkscape.org/namespaces/inkscape"
   id="svg3757"
   version="1.1"
   inkscape:version="0.48.0 r9654"
   width="450.20001"
   height="301.39374"
   xml:space="preserve"
   sodipodi:docname="SeqMix_all.eps"><metadata
     id="metadata3763"><rdf:RDF><cc:Work
         rdf:about=""><dc:format>image/svg+xml</dc:format><dc:type
           rdf:resource="http://purl.org/dc/dcmitype/StillImage" /><dc:title></dc:title></cc:Work></rdf:RDF></metadata><defs
     id="defs3761"><clipPath
       clipPathUnits="userSpaceOnUse"
       id="clipPath3775"><path
         d="m 81.6,573.96 339.96,0 0,175.32 -339.96,0 0,-175.32 z"
         clip-rule="evenodd"
         id="path3777"
         inkscape:connector-curvature="0" /></clipPath><clipPath
       clipPathUnits="userSpaceOnUse"
       id="clipPath3787"><path
         d="m 81.6,573.96 339.96,0 0,175.32 -339.96,0 0,-175.32 z"
         clip-rule="evenodd"
         id="path3789"
         inkscape:connector-curvature="0" /></clipPath><clipPath
       clipPathUnits="userSpaceOnUse"
       id="clipPath3799"><path
         d="m 81.6,573.96 339.96,0 0,175.32 -339.96,0 0,-175.32 z"
         clip-rule="evenodd"
         id="path3801"
         inkscape:connector-curvature="0" /></clipPath><clipPath
       clipPathUnits="userSpaceOnUse"
       id="clipPath3811"><path
         d="m 81.6,573.96 339.96,0 0,175.32 -339.96,0 0,-175.32 z"
         clip-rule="evenodd"
         id="path3813"
         inkscape:connector-curvature="0" /></clipPath><clipPath
       clipPathUnits="userSpaceOnUse"
       id="clipPath3871"><path
         d="m 83.52,647.04 34.56,0 0,120.48 -34.56,0 0,-120.48 z"
         clip-rule="evenodd"
         id="path3873"
         inkscape:connector-curvature="0" /></clipPath><clipPath
       clipPathUnits="userSpaceOnUse"
       id="clipPath3883"><path
         d="m 168.24,647.04 34.56,0 0,120.48 -34.56,0 0,-120.48 z"
         clip-rule="evenodd"
         id="path3885"
         inkscape:connector-curvature="0" /></clipPath><clipPath
       clipPathUnits="userSpaceOnUse"
       id="clipPath3895"><path
         d="m 252.96,647.04 34.56,0 0,120.48 -34.56,0 0,-120.48 z"
         clip-rule="evenodd"
         id="path3897"
         inkscape:connector-curvature="0" /></clipPath><clipPath
       clipPathUnits="userSpaceOnUse"
       id="clipPath3907"><path
         d="m 337.68,647.04 34.56,0 0,120.48 -34.56,0 0,-120.48 z"
         clip-rule="evenodd"
         id="path3909"
         inkscape:connector-curvature="0" /></clipPath><clipPath
       clipPathUnits="userSpaceOnUse"
       id="clipPath3921"><path
         d="m 95.4,549 29.52,0 0,120.36 -29.52,0 0,-120.36 z"
         clip-rule="evenodd"
         id="path3923"
         inkscape:connector-curvature="0" /></clipPath><clipPath
       clipPathUnits="userSpaceOnUse"
       id="clipPath3935"><path
         d="m 179.16,529.2 29.52,0 0,111.12 -29.52,0 0,-111.12 z"
         clip-rule="evenodd"
         id="path3937"
         inkscape:connector-curvature="0" /></clipPath><clipPath
       clipPathUnits="userSpaceOnUse"
       id="clipPath3949"><path
         d="m 263.88,529.2 29.52,0 0,107.52 -29.52,0 0,-107.52 z"
         clip-rule="evenodd"
         id="path3951"
         inkscape:connector-curvature="0" /></clipPath><clipPath
       clipPathUnits="userSpaceOnUse"
       id="clipPath3963"><path
         d="m 350.64,529.2 29.52,0 0,106.8 -29.52,0 0,-106.8 z"
         clip-rule="evenodd"
         id="path3965"
         inkscape:connector-curvature="0" /></clipPath><clipPath
       clipPathUnits="userSpaceOnUse"
       id="clipPath3975"><path
         d="m 116.88,603.48 29.4,0 0,120.36 -29.4,0 0,-120.36 z"
         clip-rule="evenodd"
         id="path3977"
         inkscape:connector-curvature="0" /></clipPath><clipPath
       clipPathUnits="userSpaceOnUse"
       id="clipPath3987"><path
         d="m 201.6,566.16 29.52,0 0,120.36 -29.52,0 0,-120.36 z"
         clip-rule="evenodd"
         id="path3989"
         inkscape:connector-curvature="0" /></clipPath><clipPath
       clipPathUnits="userSpaceOnUse"
       id="clipPath3999"><path
         d="m 286.32,561.24 29.52,0 0,120.48 -29.52,0 0,-120.48 z"
         clip-rule="evenodd"
         id="path4001"
         inkscape:connector-curvature="0" /></clipPath><clipPath
       clipPathUnits="userSpaceOnUse"
       id="clipPath4011"><path
         d="m 371.04,560.28 29.52,0 0,120.36 -29.52,0 0,-120.36 z"
         clip-rule="evenodd"
         id="path4013"
         inkscape:connector-curvature="0" /></clipPath><clipPath
       clipPathUnits="userSpaceOnUse"
       id="clipPath4023"><path
         d="m 138.24,529.2 29.52,0 0,118.44 -29.52,0 0,-118.44 z"
         clip-rule="evenodd"
         id="path4025"
         inkscape:connector-curvature="0" /></clipPath><clipPath
       clipPathUnits="userSpaceOnUse"
       id="clipPath4035"><path
         d="m 222.96,529.2 29.52,0 0,109.08 -29.52,0 0,-109.08 z"
         clip-rule="evenodd"
         id="path4037"
         inkscape:connector-curvature="0" /></clipPath><clipPath
       clipPathUnits="userSpaceOnUse"
       id="clipPath4047"><path
         d="m 308.76,529.2 29.52,0 0,106.8 -29.52,0 0,-106.8 z"
         clip-rule="evenodd"
         id="path4049"
         inkscape:connector-curvature="0" /></clipPath><clipPath
       clipPathUnits="userSpaceOnUse"
       id="clipPath4059"><path
         d="m 391.56,529.2 29.4,0 0,107.64 -29.4,0 0,-107.64 z"
         clip-rule="evenodd"
         id="path4061"
         inkscape:connector-curvature="0" /></clipPath><clipPath
       clipPathUnits="userSpaceOnUse"
       id="clipPath4071"><path
         d="m 115.2,535.08 17.28,0 0,33.6 -17.28,0 0,-33.6 z"
         clip-rule="evenodd"
         id="path4073"
         inkscape:connector-curvature="0" /></clipPath><clipPath
       clipPathUnits="userSpaceOnUse"
       id="clipPath4083"><path
         d="m 200.04,535.08 17.28,0 0,33.6 -17.28,0 0,-33.6 z"
         clip-rule="evenodd"
         id="path4085"
         inkscape:connector-curvature="0" /></clipPath><clipPath
       clipPathUnits="userSpaceOnUse"
       id="clipPath4095"><path
         d="m 284.76,535.08 17.28,0 0,33.6 -17.28,0 0,-33.6 z"
         clip-rule="evenodd"
         id="path4097"
         inkscape:connector-curvature="0" /></clipPath><clipPath
       clipPathUnits="userSpaceOnUse"
       id="clipPath4107"><path
         d="m 369.48,535.08 17.28,0 0,33.6 -17.28,0 0,-33.6 z"
         clip-rule="evenodd"
         id="path4109"
         inkscape:connector-curvature="0" /></clipPath><clipPath
       clipPathUnits="userSpaceOnUse"
       id="clipPath4123"><path
         d="m 204,534.36 24.72,0 0,17.76 -24.72,0 0,-17.76 z"
         clip-rule="evenodd"
         id="path4125"
         inkscape:connector-curvature="0" /></clipPath><clipPath
       clipPathUnits="userSpaceOnUse"
       id="clipPath4139"><path
         d="m 231.84,534.36 26.04,0 0,17.76 -26.04,0 0,-17.76 z"
         clip-rule="evenodd"
         id="path4141"
         inkscape:connector-curvature="0" /></clipPath><clipPath
       clipPathUnits="userSpaceOnUse"
       id="clipPath4155"><path
         d="m 261.12,534.36 22.08,0 0,17.76 -22.08,0 0,-17.76 z"
         clip-rule="evenodd"
         id="path4157"
         inkscape:connector-curvature="0" /></clipPath><clipPath
       clipPathUnits="userSpaceOnUse"
       id="clipPath4171"><path
         d="m 286.44,534.36 40.92,0 0,17.76 -40.92,0 0,-17.76 z"
         clip-rule="evenodd"
         id="path4173"
         inkscape:connector-curvature="0" /></clipPath><clipPath
       clipPathUnits="userSpaceOnUse"
       id="clipPath4183"><path
         d="m 0,516.36 595.32,0 0,253.56 -595.32,0 0,-253.56 z"
         clip-rule="evenodd"
         id="path4185"
         inkscape:connector-curvature="0" /></clipPath><clipPath
       clipPathUnits="userSpaceOnUse"
       id="clipPath4197"><path
         d="m 81.48,320.4 338.52,0 0,175.32 -338.52,0 0,-175.32 z"
         clip-rule="evenodd"
         id="path4199"
         inkscape:connector-curvature="0" /></clipPath><clipPath
       clipPathUnits="userSpaceOnUse"
       id="clipPath4209"><path
         d="m 81.48,320.4 338.52,0 0,175.32 -338.52,0 0,-175.32 z"
         clip-rule="evenodd"
         id="path4211"
         inkscape:connector-curvature="0" /></clipPath><clipPath
       clipPathUnits="userSpaceOnUse"
       id="clipPath4221"><path
         d="m 81.48,320.4 338.52,0 0,175.32 -338.52,0 0,-175.32 z"
         clip-rule="evenodd"
         id="path4223"
         inkscape:connector-curvature="0" /></clipPath><clipPath
       clipPathUnits="userSpaceOnUse"
       id="clipPath4233"><path
         d="m 81.48,320.4 338.52,0 0,175.32 -338.52,0 0,-175.32 z"
         clip-rule="evenodd"
         id="path4235"
         inkscape:connector-curvature="0" /></clipPath><clipPath
       clipPathUnits="userSpaceOnUse"
       id="clipPath4293"><path
         d="m 83.4,393.6 34.56,0 0,120.36 -34.56,0 0,-120.36 z"
         clip-rule="evenodd"
         id="path4295"
         inkscape:connector-curvature="0" /></clipPath><clipPath
       clipPathUnits="userSpaceOnUse"
       id="clipPath4305"><path
         d="m 167.76,393.6 34.56,0 0,120.36 -34.56,0 0,-120.36 z"
         clip-rule="evenodd"
         id="path4307"
         inkscape:connector-curvature="0" /></clipPath><clipPath
       clipPathUnits="userSpaceOnUse"
       id="clipPath4317"><path
         d="m 252.12,393.6 34.56,0 0,120.36 -34.56,0 0,-120.36 z"
         clip-rule="evenodd"
         id="path4319"
         inkscape:connector-curvature="0" /></clipPath><clipPath
       clipPathUnits="userSpaceOnUse"
       id="clipPath4329"><path
         d="m 336.48,393.6 34.56,0 0,120.36 -34.56,0 0,-120.36 z"
         clip-rule="evenodd"
         id="path4331"
         inkscape:connector-curvature="0" /></clipPath><clipPath
       clipPathUnits="userSpaceOnUse"
       id="clipPath4343"><path
         d="m 95.28,294.48 29.4,0 0,120.36 -29.4,0 0,-120.36 z"
         clip-rule="evenodd"
         id="path4345"
         inkscape:connector-curvature="0" /></clipPath><clipPath
       clipPathUnits="userSpaceOnUse"
       id="clipPath4357"><path
         d="m 179.64,275.64 29.4,0 0,111.24 -29.4,0 0,-111.24 z"
         clip-rule="evenodd"
         id="path4359"
         inkscape:connector-curvature="0" /></clipPath><clipPath
       clipPathUnits="userSpaceOnUse"
       id="clipPath4371"><path
         d="m 264,275.64 29.52,0 0,108.6 -29.52,0 0,-108.6 z"
         clip-rule="evenodd"
         id="path4373"
         inkscape:connector-curvature="0" /></clipPath><clipPath
       clipPathUnits="userSpaceOnUse"
       id="clipPath4385"><path
         d="m 348.36,275.64 29.52,0 0,107.76 -29.52,0 0,-107.76 z"
         clip-rule="evenodd"
         id="path4387"
         inkscape:connector-curvature="0" /></clipPath><clipPath
       clipPathUnits="userSpaceOnUse"
       id="clipPath4397"><path
         d="m 116.52,349.92 29.52,0 0,120.48 -29.52,0 0,-120.48 z"
         clip-rule="evenodd"
         id="path4399"
         inkscape:connector-curvature="0" /></clipPath><clipPath
       clipPathUnits="userSpaceOnUse"
       id="clipPath4409"><path
         d="m 201,312.6 29.4,0 0,120.36 -29.4,0 0,-120.36 z"
         clip-rule="evenodd"
         id="path4411"
         inkscape:connector-curvature="0" /></clipPath><clipPath
       clipPathUnits="userSpaceOnUse"
       id="clipPath4421"><path
         d="m 285.36,307.8 29.52,0 0,120.36 -29.52,0 0,-120.36 z"
         clip-rule="evenodd"
         id="path4423"
         inkscape:connector-curvature="0" /></clipPath><clipPath
       clipPathUnits="userSpaceOnUse"
       id="clipPath4433"><path
         d="m 369.72,306.72 29.52,0 0,120.36 -29.52,0 0,-120.36 z"
         clip-rule="evenodd"
         id="path4435"
         inkscape:connector-curvature="0" /></clipPath><clipPath
       clipPathUnits="userSpaceOnUse"
       id="clipPath4445"><path
         d="m 137.88,295.44 29.52,0 0,120.48 -29.52,0 0,-120.48 z"
         clip-rule="evenodd"
         id="path4447"
         inkscape:connector-curvature="0" /></clipPath><clipPath
       clipPathUnits="userSpaceOnUse"
       id="clipPath4457"><path
         d="m 223.32,286.08 29.52,0 0,120.48 -29.52,0 0,-120.48 z"
         clip-rule="evenodd"
         id="path4459"
         inkscape:connector-curvature="0" /></clipPath><clipPath
       clipPathUnits="userSpaceOnUse"
       id="clipPath4469"><path
         d="m 306.72,284.88 29.4,0 0,120.48 -29.4,0 0,-120.48 z"
         clip-rule="evenodd"
         id="path4471"
         inkscape:connector-curvature="0" /></clipPath><clipPath
       clipPathUnits="userSpaceOnUse"
       id="clipPath4481"><path
         d="m 391.08,284.64 29.52,0 0,120.48 -29.52,0 0,-120.48 z"
         clip-rule="evenodd"
         id="path4483"
         inkscape:connector-curvature="0" /></clipPath><clipPath
       clipPathUnits="userSpaceOnUse"
       id="clipPath4493"><path
         d="m 114.96,281.52 17.28,0 0,33.6 -17.28,0 0,-33.6 z"
         clip-rule="evenodd"
         id="path4495"
         inkscape:connector-curvature="0" /></clipPath><clipPath
       clipPathUnits="userSpaceOnUse"
       id="clipPath4505"><path
         d="m 199.44,281.52 17.28,0 0,33.6 -17.28,0 0,-33.6 z"
         clip-rule="evenodd"
         id="path4507"
         inkscape:connector-curvature="0" /></clipPath><clipPath
       clipPathUnits="userSpaceOnUse"
       id="clipPath4517"><path
         d="m 283.8,281.52 17.28,0 0,33.6 -17.28,0 0,-33.6 z"
         clip-rule="evenodd"
         id="path4519"
         inkscape:connector-curvature="0" /></clipPath><clipPath
       clipPathUnits="userSpaceOnUse"
       id="clipPath4529"><path
         d="m 368.16,281.52 17.28,0 0,33.6 -17.28,0 0,-33.6 z"
         clip-rule="evenodd"
         id="path4531"
         inkscape:connector-curvature="0" /></clipPath><clipPath
       clipPathUnits="userSpaceOnUse"
       id="clipPath4545"><path
         d="m 203.28,280.92 24.72,0 0,17.76 -24.72,0 0,-17.76 z"
         clip-rule="evenodd"
         id="path4547"
         inkscape:connector-curvature="0" /></clipPath><clipPath
       clipPathUnits="userSpaceOnUse"
       id="clipPath4561"><path
         d="m 231.12,280.92 26.04,0 0,17.76 -26.04,0 0,-17.76 z"
         clip-rule="evenodd"
         id="path4563"
         inkscape:connector-curvature="0" /></clipPath><clipPath
       clipPathUnits="userSpaceOnUse"
       id="clipPath4577"><path
         d="m 260.16,280.92 22.2,0 0,17.76 -22.2,0 0,-17.76 z"
         clip-rule="evenodd"
         id="path4579"
         inkscape:connector-curvature="0" /></clipPath><clipPath
       clipPathUnits="userSpaceOnUse"
       id="clipPath4593"><path
         d="m 285.36,280.92 41.04,0 0,17.76 -41.04,0 0,-17.76 z"
         clip-rule="evenodd"
         id="path4595"
         inkscape:connector-curvature="0" /></clipPath><clipPath
       clipPathUnits="userSpaceOnUse"
       id="clipPath4605"><path
         d="m 0,262.92 595.32,0 0,253.44 -595.32,0 0,-253.44 z"
         clip-rule="evenodd"
         id="path4607"
         inkscape:connector-curvature="0" /></clipPath></defs><sodipodi:namedview
     pagecolor="#ffffff"
     bordercolor="#666666"
     borderopacity="1"
     objecttolerance="10"
     gridtolerance="10"
     guidetolerance="10"
     inkscape:pageopacity="0"
     inkscape:pageshadow="2"
     inkscape:window-width="640"
     inkscape:window-height="480"
     id="namedview3759"
     showgrid="false"
     inkscape:zoom="0.27651083"
     inkscape:cx="483.2048"
     inkscape:cy="475.13171"
     inkscape:window-x="77"
     inkscape:window-y="3"
     inkscape:window-maximized="0"
     inkscape:current-layer="g3765"
     fit-margin-top="0"
     fit-margin-left="0"
     fit-margin-right="0"
     fit-margin-bottom="0" /><g
     id="g3765"
     inkscape:groupmode="layer"
     inkscape:label="charts"
     transform="matrix(1.25,0,0,-1.25,-91.40625,645.45)"><path
       d="m 73.56,275.52 359.4,0 0,240.84 -359.4,0 0,-240.84 z"
       style="fill:#ffffff;fill-opacity:1;fill-rule:evenodd;stroke:none"
       id="path4189"
       inkscape:connector-curvature="0" /><path
       d="m 93,321.36 15.36,0 0,174.36 -15.36,0 0,-174.36 z"
       style="fill:#ffffff;fill-opacity:1;fill-rule:evenodd;stroke:none"
       id="path4191"
       inkscape:connector-curvature="0" /><g
       id="g4193"><g
         id="g4195"
         clip-path="url(#clipPath4197)"><path
           d="m 93,321.36 15.36,0 0,174.36 -15.36,0 0,-174.36 z"
           style="fill:none;stroke:#4e4e4e;stroke-width:0.72000003;stroke-linecap:butt;stroke-linejoin:round;stroke-miterlimit:10;stroke-opacity:1;stroke-dasharray:none"
           id="path4201"
           inkscape:connector-curvature="0" /></g></g><path
       d="m 177.36,321.36 15.36,0 0,174.36 -15.36,0 0,-174.36 z"
       style="fill:#ffffff;fill-opacity:1;fill-rule:evenodd;stroke:none"
       id="path4203"
       inkscape:connector-curvature="0" /><g
       id="g4205"><g
         id="g4207"
         clip-path="url(#clipPath4209)"><path
           d="m 177.36,321.36 15.36,0 0,174.36 -15.36,0 0,-174.36 z"
           style="fill:none;stroke:#4e4e4e;stroke-width:0.72000003;stroke-linecap:butt;stroke-linejoin:round;stroke-miterlimit:10;stroke-opacity:1;stroke-dasharray:none"
           id="path4213"
           inkscape:connector-curvature="0" /></g></g><path
       d="m 261.84,321.36 15.24,0 0,174.36 -15.24,0 0,-174.36 z"
       style="fill:#ffffff;fill-opacity:1;fill-rule:evenodd;stroke:none"
       id="path4215"
       inkscape:connector-curvature="0" /><g
       id="g4217"><g
         id="g4219"
         clip-path="url(#clipPath4221)"><path
           d="m 261.84,321.36 15.24,0 0,174.36 -15.24,0 0,-174.36 z"
           style="fill:none;stroke:#4e4e4e;stroke-width:0.72000003;stroke-linecap:butt;stroke-linejoin:round;stroke-miterlimit:10;stroke-opacity:1;stroke-dasharray:none"
           id="path4225"
           inkscape:connector-curvature="0" /></g></g><path
       d="m 346.2,321.36 15.36,0 0,174.36 -15.36,0 0,-174.36 z"
       style="fill:#ffffff;fill-opacity:1;fill-rule:evenodd;stroke:none"
       id="path4227"
       inkscape:connector-curvature="0" /><g
       id="g4229"><g
         id="g4231"
         clip-path="url(#clipPath4233)"><path
           d="m 346.2,321.36 15.36,0 0,174.36 -15.36,0 0,-174.36 z"
           style="fill:none;stroke:#4e4e4e;stroke-width:0.72000003;stroke-linecap:butt;stroke-linejoin:round;stroke-miterlimit:10;stroke-opacity:1;stroke-dasharray:none"
           id="path4237"
           inkscape:connector-curvature="0" /></g></g><path
       d="m 108.36,321.36 15.36,0 0,76.32 -15.36,0 0,-76.32 z"
       style="fill:#d9d9d9;fill-opacity:1;fill-rule:evenodd;stroke:none"
       id="path4239"
       inkscape:connector-curvature="0" /><path
       d="m 108.36,321.36 15.36,0 0,76.32 -15.36,0 0,-76.32 z"
       style="fill:none;stroke:#4e4e4e;stroke-width:0.72000003;stroke-linecap:butt;stroke-linejoin:round;stroke-miterlimit:10;stroke-opacity:1;stroke-dasharray:none"
       id="path4241"
       inkscape:connector-curvature="0" /><path
       d="m 192.72,321.36 15.36,0 0,48.24 -15.36,0 0,-48.24 z"
       style="fill:#d9d9d9;fill-opacity:1;fill-rule:evenodd;stroke:none"
       id="path4243"
       inkscape:connector-curvature="0" /><path
       d="m 192.72,321.36 15.36,0 0,48.24 -15.36,0 0,-48.24 z"
       style="fill:none;stroke:#4e4e4e;stroke-width:0.72000003;stroke-linecap:butt;stroke-linejoin:round;stroke-miterlimit:10;stroke-opacity:1;stroke-dasharray:none"
       id="path4245"
       inkscape:connector-curvature="0" /><path
       d="m 277.08,321.36 15.36,0 0,44.64 -15.36,0 0,-44.64 z"
       style="fill:#d9d9d9;fill-opacity:1;fill-rule:evenodd;stroke:none"
       id="path4247"
       inkscape:connector-curvature="0" /><path
       d="m 277.08,321.36 15.36,0 0,44.64 -15.36,0 0,-44.64 z"
       style="fill:none;stroke:#4e4e4e;stroke-width:0.72000003;stroke-linecap:butt;stroke-linejoin:round;stroke-miterlimit:10;stroke-opacity:1;stroke-dasharray:none"
       id="path4249"
       inkscape:connector-curvature="0" /><path
       d="m 361.56,321.36 15.24,0 0,43.8 -15.24,0 0,-43.8 z"
       style="fill:#d9d9d9;fill-opacity:1;fill-rule:evenodd;stroke:none"
       id="path4251"
       inkscape:connector-curvature="0" /><path
       d="m 361.56,321.36 15.24,0 0,43.8 -15.24,0 0,-43.8 z"
       style="fill:none;stroke:#4e4e4e;stroke-width:0.72000003;stroke-linecap:butt;stroke-linejoin:round;stroke-miterlimit:10;stroke-opacity:1;stroke-dasharray:none"
       id="path4253"
       inkscape:connector-curvature="0" /><path
       d="m 123.72,321.36 15.36,0 0,130.8 -15.36,0 0,-130.8 z"
       style="fill:#7f7f7f;fill-opacity:1;fill-rule:evenodd;stroke:none"
       id="path4255"
       inkscape:connector-curvature="0" /><path
       d="m 123.72,321.36 15.36,0 0,130.8 -15.36,0 0,-130.8 z"
       style="fill:none;stroke:#4e4e4e;stroke-width:0.72000003;stroke-linecap:butt;stroke-linejoin:round;stroke-miterlimit:10;stroke-opacity:1;stroke-dasharray:none"
       id="path4257"
       inkscape:connector-curvature="0" /><path
       d="m 208.08,321.36 15.36,0 0,93.36 -15.36,0 0,-93.36 z"
       style="fill:#7f7f7f;fill-opacity:1;fill-rule:evenodd;stroke:none"
       id="path4259"
       inkscape:connector-curvature="0" /><path
       d="m 208.08,321.36 15.36,0 0,93.36 -15.36,0 0,-93.36 z"
       style="fill:none;stroke:#4e4e4e;stroke-width:0.72000003;stroke-linecap:butt;stroke-linejoin:round;stroke-miterlimit:10;stroke-opacity:1;stroke-dasharray:none"
       id="path4261"
       inkscape:connector-curvature="0" /><path
       d="m 292.44,321.36 15.36,0 0,88.56 -15.36,0 0,-88.56 z"
       style="fill:#7f7f7f;fill-opacity:1;fill-rule:evenodd;stroke:none"
       id="path4263"
       inkscape:connector-curvature="0" /><path
       d="m 292.44,321.36 15.36,0 0,88.56 -15.36,0 0,-88.56 z"
       style="fill:none;stroke:#4e4e4e;stroke-width:0.72000003;stroke-linecap:butt;stroke-linejoin:round;stroke-miterlimit:10;stroke-opacity:1;stroke-dasharray:none"
       id="path4265"
       inkscape:connector-curvature="0" /><path
       d="m 376.8,321.36 15.36,0 0,87.48 -15.36,0 0,-87.48 z"
       style="fill:#7f7f7f;fill-opacity:1;fill-rule:evenodd;stroke:none"
       id="path4267"
       inkscape:connector-curvature="0" /><path
       d="m 376.8,321.36 15.36,0 0,87.48 -15.36,0 0,-87.48 z"
       style="fill:none;stroke:#4e4e4e;stroke-width:0.72000003;stroke-linecap:butt;stroke-linejoin:round;stroke-miterlimit:10;stroke-opacity:1;stroke-dasharray:none"
       id="path4269"
       inkscape:connector-curvature="0" /><path
       d="m 139.08,321.36 15.36,0 0,76.32 -15.36,0 0,-76.32 z"
       style="fill:#000000;fill-opacity:1;fill-rule:evenodd;stroke:none"
       id="path4271"
       inkscape:connector-curvature="0" /><path
       d="m 139.08,321.36 15.36,0 0,76.32 -15.36,0 0,-76.32 z"
       style="fill:none;stroke:#4e4e4e;stroke-width:0.72000003;stroke-linecap:butt;stroke-linejoin:round;stroke-miterlimit:10;stroke-opacity:1;stroke-dasharray:none"
       id="path4273"
       inkscape:connector-curvature="0" /><path
       d="m 223.44,321.36 15.36,0 0,66.96 -15.36,0 0,-66.96 z"
       style="fill:#000000;fill-opacity:1;fill-rule:evenodd;stroke:none"
       id="path4275"
       inkscape:connector-curvature="0" /><path
       d="m 223.44,321.36 15.36,0 0,66.96 -15.36,0 0,-66.96 z"
       style="fill:none;stroke:#4e4e4e;stroke-width:0.72000003;stroke-linecap:butt;stroke-linejoin:round;stroke-miterlimit:10;stroke-opacity:1;stroke-dasharray:none"
       id="path4277"
       inkscape:connector-curvature="0" /><path
       d="m 307.8,321.36 15.36,0 0,65.76 -15.36,0 0,-65.76 z"
       style="fill:#000000;fill-opacity:1;fill-rule:evenodd;stroke:none"
       id="path4279"
       inkscape:connector-curvature="0" /><path
       d="m 307.8,321.36 15.36,0 0,65.76 -15.36,0 0,-65.76 z"
       style="fill:none;stroke:#4e4e4e;stroke-width:0.72000003;stroke-linecap:butt;stroke-linejoin:round;stroke-miterlimit:10;stroke-opacity:1;stroke-dasharray:none"
       id="path4281"
       inkscape:connector-curvature="0" /><path
       d="m 392.16,321.36 15.36,0 0,65.52 -15.36,0 0,-65.52 z"
       style="fill:#000000;fill-opacity:1;fill-rule:evenodd;stroke:none"
       id="path4283"
       inkscape:connector-curvature="0" /><path
       d="m 392.16,321.36 15.36,0 0,65.52 -15.36,0 0,-65.52 z"
       style="fill:none;stroke:#4e4e4e;stroke-width:0.72000003;stroke-linecap:butt;stroke-linejoin:round;stroke-miterlimit:10;stroke-opacity:1;stroke-dasharray:none"
       id="path4285"
       inkscape:connector-curvature="0" /><path
       d="m 81.48,321.36 337.56,0"
       style="fill:none;stroke:#868686;stroke-width:0.72000003;stroke-linecap:butt;stroke-linejoin:round;stroke-miterlimit:10;stroke-opacity:1;stroke-dasharray:none"
       id="path4287"
       inkscape:connector-curvature="0" /><g
       id="g4289"><g
         id="g4291"
         clip-path="url(#clipPath4293)"><text
           transform="matrix(1,0,0,-1,89.568,502.94)"
           id="text4297"><tspan
             style="font-size:9.96000004px;font-variant:normal;font-weight:normal;writing-mode:lr-tb;fill:#000000;fill-opacity:1;fill-rule:nonzero;stroke:none;font-family:Calibri;-inkscape-font-specification:Calibri"
             x="0 5.04 10.08 15.12"
             y="0"
             sodipodi:role="line"
             id="tspan4299">100%</tspan></text>
</g></g><g
       id="g4301"><g
         id="g4303"
         clip-path="url(#clipPath4305)"><text
           transform="matrix(1,0,0,-1,173.98,502.94)"
           id="text4309"><tspan
             style="font-size:9.96000004px;font-variant:normal;font-weight:normal;writing-mode:lr-tb;fill:#000000;fill-opacity:1;fill-rule:nonzero;stroke:none;font-family:Calibri;-inkscape-font-specification:Calibri"
             x="0 5.04 10.08 15.12"
             y="0"
             sodipodi:role="line"
             id="tspan4311">100%</tspan></text>
</g></g><g
       id="g4313"><g
         id="g4315"
         clip-path="url(#clipPath4317)"><text
           transform="matrix(1,0,0,-1,258.36,502.94)"
           id="text4321"><tspan
             style="font-size:9.96000004px;font-variant:normal;font-weight:normal;writing-mode:lr-tb;fill:#000000;fill-opacity:1;fill-rule:nonzero;stroke:none;font-family:Calibri;-inkscape-font-specification:Calibri"
             x="0 5.04 10.08 15.12"
             y="0"
             sodipodi:role="line"
             id="tspan4323">100%</tspan></text>
</g></g><g
       id="g4325"><g
         id="g4327"
         clip-path="url(#clipPath4329)"><text
           transform="matrix(1,0,0,-1,342.74,502.94)"
           id="text4333"><tspan
             style="font-size:9.96000004px;font-variant:normal;font-weight:normal;writing-mode:lr-tb;fill:#000000;fill-opacity:1;fill-rule:nonzero;stroke:none;font-family:Calibri;-inkscape-font-specification:Calibri"
             x="0 5.04 10.08 15.12"
             y="0"
             sodipodi:role="line"
             id="tspan4335">100%</tspan></text>
</g></g><path
       d="m 98.327,399.67 23.29,0 0,15.205 -23.29,0 0,-15.205 z"
       style="fill:#ffffff;fill-opacity:1;fill-rule:evenodd;stroke:none"
       id="path4337"
       inkscape:connector-curvature="0" /><g
       id="g4339"><g
         id="g4341"
         clip-path="url(#clipPath4343)"><text
           transform="matrix(1,0,0,-1,101.42,403.85)"
           id="text4347"><tspan
             style="font-size:9.96000004px;font-variant:normal;font-weight:normal;writing-mode:lr-tb;fill:#000000;fill-opacity:1;fill-rule:nonzero;stroke:none;font-family:Calibri;-inkscape-font-specification:Calibri"
             x="0 5.04 10.08"
             y="0"
             sodipodi:role="line"
             id="tspan4349">44%</tspan></text>
</g></g><path
       d="m 182.7,371.65 23.29,0 0,15.205 -23.29,0 0,-15.205 z"
       style="fill:#ffffff;fill-opacity:1;fill-rule:evenodd;stroke:none"
       id="path4351"
       inkscape:connector-curvature="0" /><g
       id="g4353"><g
         id="g4355"
         clip-path="url(#clipPath4357)"><text
           transform="matrix(1,0,0,-1,185.81,375.82)"
           id="text4361"><tspan
             style="font-size:9.96000004px;font-variant:normal;font-weight:normal;writing-mode:lr-tb;fill:#000000;fill-opacity:1;fill-rule:nonzero;stroke:none;font-family:Calibri;-inkscape-font-specification:Calibri"
             x="0 5.04 10.08"
             y="0"
             sodipodi:role="line"
             id="tspan4363">28%</tspan></text>
</g></g><path
       d="m 267.08,369.04 23.29,0 0,15.205 -23.29,0 0,-15.205 z"
       style="fill:#ffffff;fill-opacity:1;fill-rule:evenodd;stroke:none"
       id="path4365"
       inkscape:connector-curvature="0" /><g
       id="g4367"><g
         id="g4369"
         clip-path="url(#clipPath4371)"><text
           transform="matrix(1,0,0,-1,270.22,373.2)"
           id="text4375"><tspan
             style="font-size:9.96000004px;font-variant:normal;font-weight:normal;writing-mode:lr-tb;fill:#000000;fill-opacity:1;fill-rule:nonzero;stroke:none;font-family:Calibri;-inkscape-font-specification:Calibri"
             x="0 5.04 10.08"
             y="0"
             sodipodi:role="line"
             id="tspan4377">26%</tspan></text>
</g></g><path
       d="m 351.45,368.25 23.29,0 0,15.205 -23.29,0 0,-15.205 z"
       style="fill:#ffffff;fill-opacity:1;fill-rule:evenodd;stroke:none"
       id="path4379"
       inkscape:connector-curvature="0" /><g
       id="g4381"><g
         id="g4383"
         clip-path="url(#clipPath4385)"><text
           transform="matrix(1,0,0,-1,354.6,372.41)"
           id="text4389"><tspan
             style="font-size:9.96000004px;font-variant:normal;font-weight:normal;writing-mode:lr-tb;fill:#000000;fill-opacity:1;fill-rule:nonzero;stroke:none;font-family:Calibri;-inkscape-font-specification:Calibri"
             x="0 5.04 10.08"
             y="0"
             sodipodi:role="line"
             id="tspan4391">25%</tspan></text>
</g></g><g
       id="g4393"><g
         id="g4395"
         clip-path="url(#clipPath4397)"><text
           transform="matrix(1,0,0,-1,122.78,459.34)"
           id="text4401"><tspan
             style="font-size:9.96000004px;font-variant:normal;font-weight:normal;writing-mode:lr-tb;fill:#000000;fill-opacity:1;fill-rule:nonzero;stroke:none;font-family:Calibri;-inkscape-font-specification:Calibri"
             x="0 5.04 10.08"
             y="0"
             sodipodi:role="line"
             id="tspan4403">75%</tspan></text>
</g></g><g
       id="g4405"><g
         id="g4407"
         clip-path="url(#clipPath4409)"><text
           transform="matrix(1,0,0,-1,207.17,421.97)"
           id="text4413"><tspan
             style="font-size:9.96000004px;font-variant:normal;font-weight:normal;writing-mode:lr-tb;fill:#000000;fill-opacity:1;fill-rule:nonzero;stroke:none;font-family:Calibri;-inkscape-font-specification:Calibri"
             x="0 5.04 10.08"
             y="0"
             sodipodi:role="line"
             id="tspan4415">54%</tspan></text>
</g></g><g
       id="g4417"><g
         id="g4419"
         clip-path="url(#clipPath4421)"><text
           transform="matrix(1,0,0,-1,291.55,417.17)"
           id="text4425"><tspan
             style="font-size:9.96000004px;font-variant:normal;font-weight:normal;writing-mode:lr-tb;fill:#000000;fill-opacity:1;fill-rule:nonzero;stroke:none;font-family:Calibri;-inkscape-font-specification:Calibri"
             x="0 5.04 10.08"
             y="0"
             sodipodi:role="line"
             id="tspan4427">51%</tspan></text>
</g></g><g
       id="g4429"><g
         id="g4431"
         clip-path="url(#clipPath4433)"><text
           transform="matrix(1,0,0,-1,375.96,416.09)"
           id="text4437"><tspan
             style="font-size:9.96000004px;font-variant:normal;font-weight:normal;writing-mode:lr-tb;fill:#000000;fill-opacity:1;fill-rule:nonzero;stroke:none;font-family:Calibri;-inkscape-font-specification:Calibri"
             x="0 5.04 10.08"
             y="0"
             sodipodi:role="line"
             id="tspan4439">50%</tspan></text>
</g></g><g
       id="g4441"><g
         id="g4443"
         clip-path="url(#clipPath4445)"><text
           transform="matrix(1,0,0,-1,144.14,404.86)"
           id="text4449"><tspan
             style="font-size:9.96000004px;font-variant:normal;font-weight:normal;writing-mode:lr-tb;fill:#000000;fill-opacity:1;fill-rule:nonzero;stroke:none;font-family:Calibri;-inkscape-font-specification:Calibri"
             x="0 5.04 10.08"
             y="0"
             sodipodi:role="line"
             id="tspan4451">44%</tspan></text>
</g></g><g
       id="g4453"><g
         id="g4455"
         clip-path="url(#clipPath4457)"><text
           transform="matrix(1,0,0,-1,229.54,395.52)"
           id="text4461"><tspan
             style="font-size:9.96000004px;font-variant:normal;font-weight:normal;writing-mode:lr-tb;fill:#000000;fill-opacity:1;fill-rule:nonzero;stroke:none;font-family:Calibri;-inkscape-font-specification:Calibri"
             x="0 5.04 10.08"
             y="0"
             sodipodi:role="line"
             id="tspan4463">38%</tspan></text>
</g></g><g
       id="g4465"><g
         id="g4467"
         clip-path="url(#clipPath4469)"><text
           transform="matrix(1,0,0,-1,312.91,394.3)"
           id="text4473"><tspan
             style="font-size:9.96000004px;font-variant:normal;font-weight:normal;writing-mode:lr-tb;fill:#000000;fill-opacity:1;fill-rule:nonzero;stroke:none;font-family:Calibri;-inkscape-font-specification:Calibri"
             x="0 5.04 10.08"
             y="0"
             sodipodi:role="line"
             id="tspan4475">38%</tspan></text>
</g></g><g
       id="g4477"><g
         id="g4479"
         clip-path="url(#clipPath4481)"><text
           transform="matrix(1,0,0,-1,397.32,394.03)"
           id="text4485"><tspan
             style="font-size:9.96000004px;font-variant:normal;font-weight:normal;writing-mode:lr-tb;fill:#000000;fill-opacity:1;fill-rule:nonzero;stroke:none;font-family:Calibri;-inkscape-font-specification:Calibri"
             x="0 5.04 10.08"
             y="0"
             sodipodi:role="line"
             id="tspan4487">38%</tspan></text>
</g></g><g
       id="g4489"><g
         id="g4491"
         clip-path="url(#clipPath4493)"><text
           transform="matrix(1,0,0,-1,121.1,305.62)"
           id="text4497"><tspan
             style="font-size:9.96000004px;font-variant:normal;font-weight:normal;writing-mode:lr-tb;fill:#000000;fill-opacity:1;fill-rule:nonzero;stroke:none;font-family:Calibri;-inkscape-font-specification:Calibri"
             x="0"
             y="0"
             id="tspan4499">2</tspan></text>
</g></g><g
       id="g4501"><g
         id="g4503"
         clip-path="url(#clipPath4505)"><text
           transform="matrix(1,0,0,-1,205.49,305.62)"
           id="text4509"><tspan
             style="font-size:9.96000004px;font-variant:normal;font-weight:normal;writing-mode:lr-tb;fill:#000000;fill-opacity:1;fill-rule:nonzero;stroke:none;font-family:Calibri;-inkscape-font-specification:Calibri"
             x="0"
             y="0"
             id="tspan4511">4</tspan></text>
</g></g><g
       id="g4513"><g
         id="g4515"
         clip-path="url(#clipPath4517)"><text
           transform="matrix(1,0,0,-1,289.87,305.62)"
           id="text4521"><tspan
             style="font-size:9.96000004px;font-variant:normal;font-weight:normal;writing-mode:lr-tb;fill:#000000;fill-opacity:1;fill-rule:nonzero;stroke:none;font-family:Calibri;-inkscape-font-specification:Calibri"
             x="0"
             y="0"
             id="tspan4523">6</tspan></text>
</g></g><g
       id="g4525"><g
         id="g4527"
         clip-path="url(#clipPath4529)"><text
           transform="matrix(1,0,0,-1,374.28,305.62)"
           id="text4533"><tspan
             style="font-size:9.96000004px;font-variant:normal;font-weight:normal;writing-mode:lr-tb;fill:#000000;fill-opacity:1;fill-rule:nonzero;stroke:none;font-family:Calibri;-inkscape-font-specification:Calibri"
             x="0"
             y="0"
             id="tspan4535">8</tspan></text>
</g></g><path
       d="m 201.6,289.2 5.52,0 0,5.52 -5.52,0 0,-5.52 z"
       style="fill:#ffffff;fill-opacity:1;fill-rule:evenodd;stroke:none"
       id="path4537"
       inkscape:connector-curvature="0" /><path
       d="m 201.6,289.2 5.52,0 0,5.52 -5.52,0 0,-5.52 z"
       style="fill:none;stroke:#4e4e4e;stroke-width:0.72000003;stroke-linecap:butt;stroke-linejoin:round;stroke-miterlimit:10;stroke-opacity:1;stroke-dasharray:none"
       id="path4539"
       inkscape:connector-curvature="0" /><g
       id="g4541"><g
         id="g4543"
         clip-path="url(#clipPath4545)"><text
           transform="matrix(1,0,0,-1,209.47,289.08)"
           id="text4549"><tspan
             style="font-size:9.96000004px;font-variant:normal;font-weight:normal;writing-mode:lr-tb;fill:#000000;fill-opacity:1;fill-rule:nonzero;stroke:none;font-family:Calibri;-inkscape-font-specification:Calibri"
             x="0 3.8445599 7.18116"
             y="0"
             sodipodi:role="line"
             id="tspan4551">std</tspan></text>
</g></g><path
       d="m 229.44,289.2 5.4,0 0,5.52 -5.4,0 0,-5.52 z"
       style="fill:#d9d9d9;fill-opacity:1;fill-rule:evenodd;stroke:none"
       id="path4553"
       inkscape:connector-curvature="0" /><path
       d="m 229.44,289.2 5.4,0 0,5.52 -5.4,0 0,-5.52 z"
       style="fill:none;stroke:#4e4e4e;stroke-width:0.72000003;stroke-linecap:butt;stroke-linejoin:round;stroke-miterlimit:10;stroke-opacity:1;stroke-dasharray:none"
       id="path4555"
       inkscape:connector-curvature="0" /><g
       id="g4557"><g
         id="g4559"
         clip-path="url(#clipPath4561)"><text
           transform="matrix(1,0,0,-1,237.24,289.08)"
           id="text4565"><tspan
             style="font-size:9.96000004px;font-variant:normal;font-weight:normal;writing-mode:lr-tb;fill:#000000;fill-opacity:1;fill-rule:nonzero;stroke:none;font-family:Calibri;-inkscape-font-specification:Calibri"
             x="0 5.2688398 10.53768"
             y="0"
             sodipodi:role="line"
             id="tspan4567">opt</tspan></text>
</g></g><path
       d="m 258.48,289.2 5.52,0 0,5.52 -5.52,0 0,-5.52 z"
       style="fill:#7f7f7f;fill-opacity:1;fill-rule:evenodd;stroke:none"
       id="path4569"
       inkscape:connector-curvature="0" /><path
       d="m 258.48,289.2 5.52,0 0,5.52 -5.52,0 0,-5.52 z"
       style="fill:none;stroke:#4e4e4e;stroke-width:0.72000003;stroke-linecap:butt;stroke-linejoin:round;stroke-miterlimit:10;stroke-opacity:1;stroke-dasharray:none"
       id="path4571"
       inkscape:connector-curvature="0" /><g
       id="g4573"><g
         id="g4575"
         clip-path="url(#clipPath4577)"><text
           transform="matrix(1,0,0,-1,266.35,289.08)"
           id="text4581"><tspan
             style="font-size:9.96000004px;font-variant:normal;font-weight:normal;writing-mode:lr-tb;fill:#000000;fill-opacity:1;fill-rule:nonzero;stroke:none;font-family:Calibri;-inkscape-font-specification:Calibri"
             x="0 2.2908001 7.5496802"
             y="0"
             sodipodi:role="line"
             id="tspan4583">inj</tspan></text>
</g></g><path
       d="m 283.68,289.2 5.52,0 0,5.52 -5.52,0 0,-5.52 z"
       style="fill:#000000;fill-opacity:1;fill-rule:evenodd;stroke:none"
       id="path4585"
       inkscape:connector-curvature="0" /><path
       d="m 283.68,289.2 5.52,0 0,5.52 -5.52,0 0,-5.52 z"
       style="fill:none;stroke:#4e4e4e;stroke-width:0.72000003;stroke-linecap:butt;stroke-linejoin:round;stroke-miterlimit:10;stroke-opacity:1;stroke-dasharray:none"
       id="path4587"
       inkscape:connector-curvature="0" /><g
       id="g4589"><g
         id="g4591"
         clip-path="url(#clipPath4593)"><text
           transform="matrix(1,0,0,-1,291.55,289.08)"
           id="text4597"><tspan
             style="font-size:9.96000004px;font-variant:normal;font-weight:normal;writing-mode:lr-tb;fill:#000000;fill-opacity:1;fill-rule:nonzero;stroke:none;font-family:Calibri;-inkscape-font-specification:Calibri"
             x="0 5.2688398 10.53768 13.87428 18.83436 21.12516 26.35416"
             y="0"
             sodipodi:role="line"
             id="tspan4599">opt+inj</tspan></text>
</g></g><g
       id="g4601"><g
         id="g4603"
         clip-path="url(#clipPath4605)"><path
           d="m 73.5,275.62 359.41,0 0,240.78 -359.41,0 0,-240.78 z"
           style="fill:none;stroke:#868686;stroke-width:0.75;stroke-linecap:butt;stroke-linejoin:round;stroke-miterlimit:10;stroke-opacity:1;stroke-dasharray:none"
           id="path4609"
           inkscape:connector-curvature="0" /></g></g></g></svg>