<?xml version="1.0" encoding="UTF-8" standalone="no"?>
<!-- Created with Inkscape (http://www.inkscape.org/) -->

<svg
   xmlns:dc="http://purl.org/dc/elements/1.1/"
   xmlns:cc="http://creativecommons.org/ns#"
   xmlns:rdf="http://www.w3.org/1999/02/22-rdf-syntax-ns#"
   xmlns:svg="http://www.w3.org/2000/svg"
   xmlns="http://www.w3.org/2000/svg"
   xmlns:sodipodi="http://sodipodi.sourceforge.net/DTD/sodipodi-0.dtd"
   xmlns:inkscape="http://www.inkscape.org/namespaces/inkscape"
   id="svg4611"
   version="1.1"
   inkscape:version="0.48.0 r9654"
   width="450.20001"
   height="301.39374"
   xml:space="preserve"
   sodipodi:docname="SeqMixParSync_safe.svg"><metadata
     id="metadata4617"><rdf:RDF><cc:Work
         rdf:about=""><dc:format>image/svg+xml</dc:format><dc:type
           rdf:resource="http://purl.org/dc/dcmitype/StillImage" /><dc:title></dc:title></cc:Work></rdf:RDF></metadata><defs
     id="defs4615"><clipPath
       clipPathUnits="userSpaceOnUse"
       id="clipPath4633"><path
         d="m 81.6,573.96 339.12,0 0,175.32 -339.12,0 0,-175.32 z"
         clip-rule="evenodd"
         id="path4635"
         inkscape:connector-curvature="0" /></clipPath><clipPath
       clipPathUnits="userSpaceOnUse"
       id="clipPath4645"><path
         d="m 81.6,573.96 339.12,0 0,175.32 -339.12,0 0,-175.32 z"
         clip-rule="evenodd"
         id="path4647"
         inkscape:connector-curvature="0" /></clipPath><clipPath
       clipPathUnits="userSpaceOnUse"
       id="clipPath4657"><path
         d="m 81.6,573.96 339.12,0 0,175.32 -339.12,0 0,-175.32 z"
         clip-rule="evenodd"
         id="path4659"
         inkscape:connector-curvature="0" /></clipPath><clipPath
       clipPathUnits="userSpaceOnUse"
       id="clipPath4685"><path
         d="m 81.6,573.96 339.12,0 0,175.32 -339.12,0 0,-175.32 z"
         clip-rule="evenodd"
         id="path4687"
         inkscape:connector-curvature="0" /></clipPath><clipPath
       clipPathUnits="userSpaceOnUse"
       id="clipPath4725"><path
         d="m 91.44,529.2 24.48,0 0,64.8 -24.48,0 0,-64.8 z"
         clip-rule="evenodd"
         id="path4727"
         inkscape:connector-curvature="0" /></clipPath><clipPath
       clipPathUnits="userSpaceOnUse"
       id="clipPath4737"><path
         d="m 168,647.04 34.56,0 0,120.48 -34.56,0 0,-120.48 z"
         clip-rule="evenodd"
         id="path4739"
         inkscape:connector-curvature="0" /></clipPath><clipPath
       clipPathUnits="userSpaceOnUse"
       id="clipPath4749"><path
         d="m 252.48,647.04 34.56,0 0,120.48 -34.56,0 0,-120.48 z"
         clip-rule="evenodd"
         id="path4751"
         inkscape:connector-curvature="0" /></clipPath><clipPath
       clipPathUnits="userSpaceOnUse"
       id="clipPath4761"><path
         d="m 337.08,647.04 34.56,0 0,120.48 -34.56,0 0,-120.48 z"
         clip-rule="evenodd"
         id="path4763"
         inkscape:connector-curvature="0" /></clipPath><clipPath
       clipPathUnits="userSpaceOnUse"
       id="clipPath4775"><path
         d="m 180.84,542.52 29.52,0 0,120.48 -29.52,0 0,-120.48 z"
         clip-rule="evenodd"
         id="path4777"
         inkscape:connector-curvature="0" /></clipPath><clipPath
       clipPathUnits="userSpaceOnUse"
       id="clipPath4789"><path
         d="m 264.36,547.92 29.52,0 0,120.36 -29.52,0 0,-120.36 z"
         clip-rule="evenodd"
         id="path4791"
         inkscape:connector-curvature="0" /></clipPath><clipPath
       clipPathUnits="userSpaceOnUse"
       id="clipPath4803"><path
         d="m 348.96,547.68 29.4,0 0,120.48 -29.4,0 0,-120.48 z"
         clip-rule="evenodd"
         id="path4805"
         inkscape:connector-curvature="0" /></clipPath><clipPath
       clipPathUnits="userSpaceOnUse"
       id="clipPath4815"><path
         d="m 114.12,647.04 34.56,0 0,120.48 -34.56,0 0,-120.48 z"
         clip-rule="evenodd"
         id="path4817"
         inkscape:connector-curvature="0" /></clipPath><clipPath
       clipPathUnits="userSpaceOnUse"
       id="clipPath4827"><path
         d="m 201.24,581.64 29.52,0 0,120.48 -29.52,0 0,-120.48 z"
         clip-rule="evenodd"
         id="path4829"
         inkscape:connector-curvature="0" /></clipPath><clipPath
       clipPathUnits="userSpaceOnUse"
       id="clipPath4839"><path
         d="m 285.84,564.24 29.4,0 0,120.48 -29.4,0 0,-120.48 z"
         clip-rule="evenodd"
         id="path4841"
         inkscape:connector-curvature="0" /></clipPath><clipPath
       clipPathUnits="userSpaceOnUse"
       id="clipPath4851"><path
         d="m 370.32,560.88 29.52,0 0,120.48 -29.52,0 0,-120.48 z"
         clip-rule="evenodd"
         id="path4853"
         inkscape:connector-curvature="0" /></clipPath><clipPath
       clipPathUnits="userSpaceOnUse"
       id="clipPath4863"><path
         d="m 139.2,529.2 29.52,0 0,107.52 -29.52,0 0,-107.52 z"
         clip-rule="evenodd"
         id="path4865"
         inkscape:connector-curvature="0" /></clipPath><clipPath
       clipPathUnits="userSpaceOnUse"
       id="clipPath4875"><path
         d="m 221.64,529.2 29.52,0 0,102.12 -29.52,0 0,-102.12 z"
         clip-rule="evenodd"
         id="path4877"
         inkscape:connector-curvature="0" /></clipPath><clipPath
       clipPathUnits="userSpaceOnUse"
       id="clipPath4887"><path
         d="m 306.24,529.2 29.52,0 0,96.72 -29.52,0 0,-96.72 z"
         clip-rule="evenodd"
         id="path4889"
         inkscape:connector-curvature="0" /></clipPath><clipPath
       clipPathUnits="userSpaceOnUse"
       id="clipPath4899"><path
         d="m 391.8,529.2 29.52,0 0,96.84 -29.52,0 0,-96.84 z"
         clip-rule="evenodd"
         id="path4901"
         inkscape:connector-curvature="0" /></clipPath><clipPath
       clipPathUnits="userSpaceOnUse"
       id="clipPath4911"><path
         d="m 115.08,535.08 17.28,0 0,33.6 -17.28,0 0,-33.6 z"
         clip-rule="evenodd"
         id="path4913"
         inkscape:connector-curvature="0" /></clipPath><clipPath
       clipPathUnits="userSpaceOnUse"
       id="clipPath4923"><path
         d="m 199.68,535.08 17.28,0 0,33.6 -17.28,0 0,-33.6 z"
         clip-rule="evenodd"
         id="path4925"
         inkscape:connector-curvature="0" /></clipPath><clipPath
       clipPathUnits="userSpaceOnUse"
       id="clipPath4935"><path
         d="m 284.28,535.08 17.16,0 0,33.6 -17.16,0 0,-33.6 z"
         clip-rule="evenodd"
         id="path4937"
         inkscape:connector-curvature="0" /></clipPath><clipPath
       clipPathUnits="userSpaceOnUse"
       id="clipPath4947"><path
         d="m 368.76,535.08 17.28,0 0,33.6 -17.28,0 0,-33.6 z"
         clip-rule="evenodd"
         id="path4949"
         inkscape:connector-curvature="0" /></clipPath><clipPath
       clipPathUnits="userSpaceOnUse"
       id="clipPath4963"><path
         d="m 203.64,534.36 24.72,0 0,17.76 -24.72,0 0,-17.76 z"
         clip-rule="evenodd"
         id="path4965"
         inkscape:connector-curvature="0" /></clipPath><clipPath
       clipPathUnits="userSpaceOnUse"
       id="clipPath4979"><path
         d="m 231.48,534.36 26.04,0 0,17.76 -26.04,0 0,-17.76 z"
         clip-rule="evenodd"
         id="path4981"
         inkscape:connector-curvature="0" /></clipPath><clipPath
       clipPathUnits="userSpaceOnUse"
       id="clipPath4995"><path
         d="m 260.64,534.36 22.08,0 0,17.76 -22.08,0 0,-17.76 z"
         clip-rule="evenodd"
         id="path4997"
         inkscape:connector-curvature="0" /></clipPath><clipPath
       clipPathUnits="userSpaceOnUse"
       id="clipPath5011"><path
         d="m 285.84,534.36 41.04,0 0,17.76 -41.04,0 0,-17.76 z"
         clip-rule="evenodd"
         id="path5013"
         inkscape:connector-curvature="0" /></clipPath><clipPath
       clipPathUnits="userSpaceOnUse"
       id="clipPath5023"><path
         d="m 0,516.36 595.32,0 0,253.56 -595.32,0 0,-253.56 z"
         clip-rule="evenodd"
         id="path5025"
         inkscape:connector-curvature="0" /></clipPath><clipPath
       clipPathUnits="userSpaceOnUse"
       id="clipPath5041"><path
         d="m 81.48,320.4 338.52,0 0,175.32 -338.52,0 0,-175.32 z"
         clip-rule="evenodd"
         id="path5043"
         inkscape:connector-curvature="0" /></clipPath><clipPath
       clipPathUnits="userSpaceOnUse"
       id="clipPath5053"><path
         d="m 81.48,320.4 338.52,0 0,175.32 -338.52,0 0,-175.32 z"
         clip-rule="evenodd"
         id="path5055"
         inkscape:connector-curvature="0" /></clipPath><clipPath
       clipPathUnits="userSpaceOnUse"
       id="clipPath5065"><path
         d="m 81.48,320.4 338.52,0 0,175.32 -338.52,0 0,-175.32 z"
         clip-rule="evenodd"
         id="path5067"
         inkscape:connector-curvature="0" /></clipPath><clipPath
       clipPathUnits="userSpaceOnUse"
       id="clipPath5093"><path
         d="m 81.48,320.4 338.52,0 0,175.32 -338.52,0 0,-175.32 z"
         clip-rule="evenodd"
         id="path5095"
         inkscape:connector-curvature="0" /></clipPath><clipPath
       clipPathUnits="userSpaceOnUse"
       id="clipPath5133"><path
         d="m 90.48,275.64 24.36,0 0,64.8 -24.36,0 0,-64.8 z"
         clip-rule="evenodd"
         id="path5135"
         inkscape:connector-curvature="0" /></clipPath><clipPath
       clipPathUnits="userSpaceOnUse"
       id="clipPath5145"><path
         d="m 167.76,393.6 34.56,0 0,120.36 -34.56,0 0,-120.36 z"
         clip-rule="evenodd"
         id="path5147"
         inkscape:connector-curvature="0" /></clipPath><clipPath
       clipPathUnits="userSpaceOnUse"
       id="clipPath5157"><path
         d="m 252.12,393.6 34.56,0 0,120.36 -34.56,0 0,-120.36 z"
         clip-rule="evenodd"
         id="path5159"
         inkscape:connector-curvature="0" /></clipPath><clipPath
       clipPathUnits="userSpaceOnUse"
       id="clipPath5169"><path
         d="m 336.48,393.6 34.56,0 0,120.36 -34.56,0 0,-120.36 z"
         clip-rule="evenodd"
         id="path5171"
         inkscape:connector-curvature="0" /></clipPath><clipPath
       clipPathUnits="userSpaceOnUse"
       id="clipPath5183"><path
         d="m 178.56,287.88 29.52,0 0,120.36 -29.52,0 0,-120.36 z"
         clip-rule="evenodd"
         id="path5185"
         inkscape:connector-curvature="0" /></clipPath><clipPath
       clipPathUnits="userSpaceOnUse"
       id="clipPath5197"><path
         d="m 262.92,300.6 29.52,0 0,120.36 -29.52,0 0,-120.36 z"
         clip-rule="evenodd"
         id="path5199"
         inkscape:connector-curvature="0" /></clipPath><clipPath
       clipPathUnits="userSpaceOnUse"
       id="clipPath5211"><path
         d="m 346.32,303 29.52,0 0,120.36 -29.52,0 0,-120.36 z"
         clip-rule="evenodd"
         id="path5213"
         inkscape:connector-curvature="0" /></clipPath><clipPath
       clipPathUnits="userSpaceOnUse"
       id="clipPath5223"><path
         d="m 114,393.6 34.56,0 0,120.36 -34.56,0 0,-120.36 z"
         clip-rule="evenodd"
         id="path5225"
         inkscape:connector-curvature="0" /></clipPath><clipPath
       clipPathUnits="userSpaceOnUse"
       id="clipPath5235"><path
         d="m 201,330.12 29.4,0 0,120.48 -29.4,0 0,-120.48 z"
         clip-rule="evenodd"
         id="path5237"
         inkscape:connector-curvature="0" /></clipPath><clipPath
       clipPathUnits="userSpaceOnUse"
       id="clipPath5247"><path
         d="m 285.36,313.2 29.52,0 0,120.48 -29.52,0 0,-120.48 z"
         clip-rule="evenodd"
         id="path5249"
         inkscape:connector-curvature="0" /></clipPath><clipPath
       clipPathUnits="userSpaceOnUse"
       id="clipPath5259"><path
         d="m 369.72,309.96 29.52,0 0,120.48 -29.52,0 0,-120.48 z"
         clip-rule="evenodd"
         id="path5261"
         inkscape:connector-curvature="0" /></clipPath><clipPath
       clipPathUnits="userSpaceOnUse"
       id="clipPath5271"><path
         d="m 140.04,275.64 29.52,0 0,107.52 -29.52,0 0,-107.52 z"
         clip-rule="evenodd"
         id="path5273"
         inkscape:connector-curvature="0" /></clipPath><clipPath
       clipPathUnits="userSpaceOnUse"
       id="clipPath5283"><path
         d="m 223.32,275.64 29.52,0 0,110.52 -29.52,0 0,-110.52 z"
         clip-rule="evenodd"
         id="path5285"
         inkscape:connector-curvature="0" /></clipPath><clipPath
       clipPathUnits="userSpaceOnUse"
       id="clipPath5295"><path
         d="m 307.68,275.64 29.52,0 0,107.28 -29.52,0 0,-107.28 z"
         clip-rule="evenodd"
         id="path5297"
         inkscape:connector-curvature="0" /></clipPath><clipPath
       clipPathUnits="userSpaceOnUse"
       id="clipPath5307"><path
         d="m 391.08,275.64 29.52,0 0,106.56 -29.52,0 0,-106.56 z"
         clip-rule="evenodd"
         id="path5309"
         inkscape:connector-curvature="0" /></clipPath><clipPath
       clipPathUnits="userSpaceOnUse"
       id="clipPath5319"><path
         d="m 114.96,281.52 17.28,0 0,33.6 -17.28,0 0,-33.6 z"
         clip-rule="evenodd"
         id="path5321"
         inkscape:connector-curvature="0" /></clipPath><clipPath
       clipPathUnits="userSpaceOnUse"
       id="clipPath5331"><path
         d="m 199.44,281.52 17.28,0 0,33.6 -17.28,0 0,-33.6 z"
         clip-rule="evenodd"
         id="path5333"
         inkscape:connector-curvature="0" /></clipPath><clipPath
       clipPathUnits="userSpaceOnUse"
       id="clipPath5343"><path
         d="m 283.8,281.52 17.28,0 0,33.6 -17.28,0 0,-33.6 z"
         clip-rule="evenodd"
         id="path5345"
         inkscape:connector-curvature="0" /></clipPath><clipPath
       clipPathUnits="userSpaceOnUse"
       id="clipPath5355"><path
         d="m 368.16,281.52 17.28,0 0,33.6 -17.28,0 0,-33.6 z"
         clip-rule="evenodd"
         id="path5357"
         inkscape:connector-curvature="0" /></clipPath><clipPath
       clipPathUnits="userSpaceOnUse"
       id="clipPath5371"><path
         d="m 203.28,280.92 24.72,0 0,17.76 -24.72,0 0,-17.76 z"
         clip-rule="evenodd"
         id="path5373"
         inkscape:connector-curvature="0" /></clipPath><clipPath
       clipPathUnits="userSpaceOnUse"
       id="clipPath5387"><path
         d="m 231.12,280.92 26.04,0 0,17.76 -26.04,0 0,-17.76 z"
         clip-rule="evenodd"
         id="path5389"
         inkscape:connector-curvature="0" /></clipPath><clipPath
       clipPathUnits="userSpaceOnUse"
       id="clipPath5403"><path
         d="m 260.16,280.92 22.2,0 0,17.76 -22.2,0 0,-17.76 z"
         clip-rule="evenodd"
         id="path5405"
         inkscape:connector-curvature="0" /></clipPath><clipPath
       clipPathUnits="userSpaceOnUse"
       id="clipPath5419"><path
         d="m 285.36,280.92 41.04,0 0,17.76 -41.04,0 0,-17.76 z"
         clip-rule="evenodd"
         id="path5421"
         inkscape:connector-curvature="0" /></clipPath><clipPath
       clipPathUnits="userSpaceOnUse"
       id="clipPath5431"><path
         d="m 0,262.92 595.32,0 0,253.44 -595.32,0 0,-253.44 z"
         clip-rule="evenodd"
         id="path5433"
         inkscape:connector-curvature="0" /></clipPath></defs><sodipodi:namedview
     pagecolor="#ffffff"
     bordercolor="#666666"
     borderopacity="1"
     objecttolerance="10"
     gridtolerance="10"
     guidetolerance="10"
     inkscape:pageopacity="0"
     inkscape:pageshadow="2"
     inkscape:window-width="640"
     inkscape:window-height="480"
     id="namedview4613"
     showgrid="false"
     inkscape:zoom="0.25"
     inkscape:cx="-6.0189747"
     inkscape:cy="107.79962"
     inkscape:window-x="114"
     inkscape:window-y="31"
     inkscape:window-maximized="0"
     inkscape:current-layer="g4619"
     fit-margin-top="0"
     fit-margin-left="0"
     fit-margin-right="0"
     fit-margin-bottom="0" /><g
     id="g4619"
     inkscape:groupmode="layer"
     inkscape:label="charts"
     transform="matrix(1.25,0,0,-1.25,-91.40625,645.45)"><path
       d="m 73.56,275.52 359.4,0 0,240.84 -359.4,0 0,-240.84 z"
       style="fill:#ffffff;fill-opacity:1;fill-rule:evenodd;stroke:none"
       id="path5029"
       inkscape:connector-curvature="0" /><path
       d="m 93,321.36 15.36,0 0,0.84003 -15.36,0 0,-0.84003 z"
       style="fill:#ffffff;fill-opacity:1;fill-rule:evenodd;stroke:none"
       id="path5031"
       inkscape:connector-curvature="0" /><path
       d="m 93,321.36 15.36,0 0,0.84003 -15.36,0 0,-0.84003 z"
       style="fill:none;stroke:#4e4e4e;stroke-width:0.72000003;stroke-linecap:butt;stroke-linejoin:round;stroke-miterlimit:10;stroke-opacity:1;stroke-dasharray:none"
       id="path5033"
       inkscape:connector-curvature="0" /><path
       d="m 177.36,321.36 15.36,0 0,174.36 -15.36,0 0,-174.36 z"
       style="fill:#ffffff;fill-opacity:1;fill-rule:evenodd;stroke:none"
       id="path5035"
       inkscape:connector-curvature="0" /><g
       id="g5037"><g
         id="g5039"
         clip-path="url(#clipPath5041)"><path
           d="m 177.36,321.36 15.36,0 0,174.36 -15.36,0 0,-174.36 z"
           style="fill:none;stroke:#4e4e4e;stroke-width:0.72000003;stroke-linecap:butt;stroke-linejoin:round;stroke-miterlimit:10;stroke-opacity:1;stroke-dasharray:none"
           id="path5045"
           inkscape:connector-curvature="0" /></g></g><path
       d="m 261.84,321.36 15.24,0 0,174.36 -15.24,0 0,-174.36 z"
       style="fill:#ffffff;fill-opacity:1;fill-rule:evenodd;stroke:none"
       id="path5047"
       inkscape:connector-curvature="0" /><g
       id="g5049"><g
         id="g5051"
         clip-path="url(#clipPath5053)"><path
           d="m 261.84,321.36 15.24,0 0,174.36 -15.24,0 0,-174.36 z"
           style="fill:none;stroke:#4e4e4e;stroke-width:0.72000003;stroke-linecap:butt;stroke-linejoin:round;stroke-miterlimit:10;stroke-opacity:1;stroke-dasharray:none"
           id="path5057"
           inkscape:connector-curvature="0" /></g></g><path
       d="m 346.2,321.36 15.36,0 0,174.36 -15.36,0 0,-174.36 z"
       style="fill:#ffffff;fill-opacity:1;fill-rule:evenodd;stroke:none"
       id="path5059"
       inkscape:connector-curvature="0" /><g
       id="g5061"><g
         id="g5063"
         clip-path="url(#clipPath5065)"><path
           d="m 346.2,321.36 15.36,0 0,174.36 -15.36,0 0,-174.36 z"
           style="fill:none;stroke:#4e4e4e;stroke-width:0.72000003;stroke-linecap:butt;stroke-linejoin:round;stroke-miterlimit:10;stroke-opacity:1;stroke-dasharray:none"
           id="path5069"
           inkscape:connector-curvature="0" /></g></g><path
       d="m 108.36,321.36 15.36,0 0,0.84003 -15.36,0 0,-0.84003 z"
       style="fill:#d9d9d9;fill-opacity:1;fill-rule:evenodd;stroke:none"
       id="path5071"
       inkscape:connector-curvature="0" /><path
       d="m 108.36,321.36 15.36,0 0,0.84003 -15.36,0 0,-0.84003 z"
       style="fill:none;stroke:#4e4e4e;stroke-width:0.72000003;stroke-linecap:butt;stroke-linejoin:round;stroke-miterlimit:10;stroke-opacity:1;stroke-dasharray:none"
       id="path5073"
       inkscape:connector-curvature="0" /><path
       d="m 192.72,321.36 15.36,0 0,68.64 -15.36,0 0,-68.64 z"
       style="fill:#d9d9d9;fill-opacity:1;fill-rule:evenodd;stroke:none"
       id="path5075"
       inkscape:connector-curvature="0" /><path
       d="m 192.72,321.36 15.36,0 0,68.64 -15.36,0 0,-68.64 z"
       style="fill:none;stroke:#4e4e4e;stroke-width:0.72000003;stroke-linecap:butt;stroke-linejoin:round;stroke-miterlimit:10;stroke-opacity:1;stroke-dasharray:none"
       id="path5077"
       inkscape:connector-curvature="0" /><path
       d="m 277.08,321.36 15.36,0 0,81.36 -15.36,0 0,-81.36 z"
       style="fill:#d9d9d9;fill-opacity:1;fill-rule:evenodd;stroke:none"
       id="path5079"
       inkscape:connector-curvature="0" /><path
       d="m 277.08,321.36 15.36,0 0,81.36 -15.36,0 0,-81.36 z"
       style="fill:none;stroke:#4e4e4e;stroke-width:0.72000003;stroke-linecap:butt;stroke-linejoin:round;stroke-miterlimit:10;stroke-opacity:1;stroke-dasharray:none"
       id="path5081"
       inkscape:connector-curvature="0" /><path
       d="m 361.56,321.36 15.24,0 0,83.76 -15.24,0 0,-83.76 z"
       style="fill:#d9d9d9;fill-opacity:1;fill-rule:evenodd;stroke:none"
       id="path5083"
       inkscape:connector-curvature="0" /><path
       d="m 361.56,321.36 15.24,0 0,83.76 -15.24,0 0,-83.76 z"
       style="fill:none;stroke:#4e4e4e;stroke-width:0.72000003;stroke-linecap:butt;stroke-linejoin:round;stroke-miterlimit:10;stroke-opacity:1;stroke-dasharray:none"
       id="path5085"
       inkscape:connector-curvature="0" /><path
       d="m 123.72,321.36 15.36,0 0,174.36 -15.36,0 0,-174.36 z"
       style="fill:#7f7f7f;fill-opacity:1;fill-rule:evenodd;stroke:none"
       id="path5087"
       inkscape:connector-curvature="0" /><g
       id="g5089"><g
         id="g5091"
         clip-path="url(#clipPath5093)"><path
           d="m 123.72,321.36 15.36,0 0,174.36 -15.36,0 0,-174.36 z"
           style="fill:none;stroke:#4e4e4e;stroke-width:0.72000003;stroke-linecap:butt;stroke-linejoin:round;stroke-miterlimit:10;stroke-opacity:1;stroke-dasharray:none"
           id="path5097"
           inkscape:connector-curvature="0" /></g></g><path
       d="m 208.08,321.36 15.36,0 0,111 -15.36,0 0,-111 z"
       style="fill:#7f7f7f;fill-opacity:1;fill-rule:evenodd;stroke:none"
       id="path5099"
       inkscape:connector-curvature="0" /><path
       d="m 208.08,321.36 15.36,0 0,111 -15.36,0 0,-111 z"
       style="fill:none;stroke:#4e4e4e;stroke-width:0.72000003;stroke-linecap:butt;stroke-linejoin:round;stroke-miterlimit:10;stroke-opacity:1;stroke-dasharray:none"
       id="path5101"
       inkscape:connector-curvature="0" /><path
       d="m 292.44,321.36 15.36,0 0,94.08 -15.36,0 0,-94.08 z"
       style="fill:#7f7f7f;fill-opacity:1;fill-rule:evenodd;stroke:none"
       id="path5103"
       inkscape:connector-curvature="0" /><path
       d="m 292.44,321.36 15.36,0 0,94.08 -15.36,0 0,-94.08 z"
       style="fill:none;stroke:#4e4e4e;stroke-width:0.72000003;stroke-linecap:butt;stroke-linejoin:round;stroke-miterlimit:10;stroke-opacity:1;stroke-dasharray:none"
       id="path5105"
       inkscape:connector-curvature="0" /><path
       d="m 376.8,321.36 15.36,0 0,90.84 -15.36,0 0,-90.84 z"
       style="fill:#7f7f7f;fill-opacity:1;fill-rule:evenodd;stroke:none"
       id="path5107"
       inkscape:connector-curvature="0" /><path
       d="m 376.8,321.36 15.36,0 0,90.84 -15.36,0 0,-90.84 z"
       style="fill:none;stroke:#4e4e4e;stroke-width:0.72000003;stroke-linecap:butt;stroke-linejoin:round;stroke-miterlimit:10;stroke-opacity:1;stroke-dasharray:none"
       id="path5109"
       inkscape:connector-curvature="0" /><path
       d="m 139.08,321.36 15.36,0 0,43.56 -15.36,0 0,-43.56 z"
       style="fill:#000000;fill-opacity:1;fill-rule:evenodd;stroke:none"
       id="path5111"
       inkscape:connector-curvature="0" /><path
       d="m 139.08,321.36 15.36,0 0,43.56 -15.36,0 0,-43.56 z"
       style="fill:none;stroke:#4e4e4e;stroke-width:0.72000003;stroke-linecap:butt;stroke-linejoin:round;stroke-miterlimit:10;stroke-opacity:1;stroke-dasharray:none"
       id="path5113"
       inkscape:connector-curvature="0" /><path
       d="m 223.44,321.36 15.36,0 0,47.52 -15.36,0 0,-47.52 z"
       style="fill:#000000;fill-opacity:1;fill-rule:evenodd;stroke:none"
       id="path5115"
       inkscape:connector-curvature="0" /><path
       d="m 223.44,321.36 15.36,0 0,47.52 -15.36,0 0,-47.52 z"
       style="fill:none;stroke:#4e4e4e;stroke-width:0.72000003;stroke-linecap:butt;stroke-linejoin:round;stroke-miterlimit:10;stroke-opacity:1;stroke-dasharray:none"
       id="path5117"
       inkscape:connector-curvature="0" /><path
       d="m 307.8,321.36 15.36,0 0,43.32 -15.36,0 0,-43.32 z"
       style="fill:#000000;fill-opacity:1;fill-rule:evenodd;stroke:none"
       id="path5119"
       inkscape:connector-curvature="0" /><path
       d="m 307.8,321.36 15.36,0 0,43.32 -15.36,0 0,-43.32 z"
       style="fill:none;stroke:#4e4e4e;stroke-width:0.72000003;stroke-linecap:butt;stroke-linejoin:round;stroke-miterlimit:10;stroke-opacity:1;stroke-dasharray:none"
       id="path5121"
       inkscape:connector-curvature="0" /><path
       d="m 392.16,321.36 15.36,0 0,42.48 -15.36,0 0,-42.48 z"
       style="fill:#000000;fill-opacity:1;fill-rule:evenodd;stroke:none"
       id="path5123"
       inkscape:connector-curvature="0" /><path
       d="m 392.16,321.36 15.36,0 0,42.48 -15.36,0 0,-42.48 z"
       style="fill:none;stroke:#4e4e4e;stroke-width:0.72000003;stroke-linecap:butt;stroke-linejoin:round;stroke-miterlimit:10;stroke-opacity:1;stroke-dasharray:none"
       id="path5125"
       inkscape:connector-curvature="0" /><path
       d="m 81.48,321.36 337.56,0"
       style="fill:none;stroke:#868686;stroke-width:0.72000003;stroke-linecap:butt;stroke-linejoin:round;stroke-miterlimit:10;stroke-opacity:1;stroke-dasharray:none"
       id="path5127"
       inkscape:connector-curvature="0" /><g
       id="g5129"><g
         id="g5131"
         clip-path="url(#clipPath5133)"><text
           transform="matrix(1,0,0,-1,96.624,329.4)"
           id="text5137"><tspan
             style="font-size:9.96000004px;font-variant:normal;font-weight:normal;writing-mode:lr-tb;fill:#000000;fill-opacity:1;fill-rule:nonzero;stroke:none;font-family:Calibri;-inkscape-font-specification:Calibri"
             x="0 5.04"
             y="0"
             sodipodi:role="line"
             id="tspan5139">0%</tspan></text>
</g></g><g
       id="g5141"><g
         id="g5143"
         clip-path="url(#clipPath5145)"><text
           transform="matrix(1,0,0,-1,173.98,502.94)"
           id="text5149"><tspan
             style="font-size:9.96000004px;font-variant:normal;font-weight:normal;writing-mode:lr-tb;fill:#000000;fill-opacity:1;fill-rule:nonzero;stroke:none;font-family:Calibri;-inkscape-font-specification:Calibri"
             x="0 5.04 10.08 15.12"
             y="0"
             sodipodi:role="line"
             id="tspan5151">100%</tspan></text>
</g></g><g
       id="g5153"><g
         id="g5155"
         clip-path="url(#clipPath5157)"><text
           transform="matrix(1,0,0,-1,258.36,502.94)"
           id="text5161"><tspan
             style="font-size:9.96000004px;font-variant:normal;font-weight:normal;writing-mode:lr-tb;fill:#000000;fill-opacity:1;fill-rule:nonzero;stroke:none;font-family:Calibri;-inkscape-font-specification:Calibri"
             x="0 5.04 10.08 15.12"
             y="0"
             sodipodi:role="line"
             id="tspan5163">100%</tspan></text>
</g></g><g
       id="g5165"><g
         id="g5167"
         clip-path="url(#clipPath5169)"><text
           transform="matrix(1,0,0,-1,342.74,502.94)"
           id="text5173"><tspan
             style="font-size:9.96000004px;font-variant:normal;font-weight:normal;writing-mode:lr-tb;fill:#000000;fill-opacity:1;fill-rule:nonzero;stroke:none;font-family:Calibri;-inkscape-font-specification:Calibri"
             x="0 5.04 10.08 15.12"
             y="0"
             sodipodi:role="line"
             id="tspan5175">100%</tspan></text>
</g></g><path
       d="m 181.7,393.09 23.29,0 0,15.205 -23.29,0 0,-15.205 z"
       style="fill:#ffffff;fill-opacity:1;fill-rule:evenodd;stroke:none"
       id="path5177"
       inkscape:connector-curvature="0" /><g
       id="g5179"><g
         id="g5181"
         clip-path="url(#clipPath5183)"><text
           transform="matrix(1,0,0,-1,184.82,397.25)"
           id="text5187"><tspan
             style="font-size:9.96000004px;font-variant:normal;font-weight:normal;writing-mode:lr-tb;fill:#000000;fill-opacity:1;fill-rule:nonzero;stroke:none;font-family:Calibri;-inkscape-font-specification:Calibri"
             x="0 5.04 10.08"
             y="0"
             sodipodi:role="line"
             id="tspan5189">39%</tspan></text>
</g></g><path
       d="m 266.07,405.77 23.29,0 0,15.205 -23.29,0 0,-15.205 z"
       style="fill:#ffffff;fill-opacity:1;fill-rule:evenodd;stroke:none"
       id="path5191"
       inkscape:connector-curvature="0" /><g
       id="g5193"><g
         id="g5195"
         clip-path="url(#clipPath5197)"><text
           transform="matrix(1,0,0,-1,269.21,409.94)"
           id="text5201"><tspan
             style="font-size:9.96000004px;font-variant:normal;font-weight:normal;writing-mode:lr-tb;fill:#000000;fill-opacity:1;fill-rule:nonzero;stroke:none;font-family:Calibri;-inkscape-font-specification:Calibri"
             x="0 5.04 10.08"
             y="0"
             sodipodi:role="line"
             id="tspan5203">47%</tspan></text>
</g></g><path
       d="m 349.45,408.18 23.29,0 0,15.205 -23.29,0 0,-15.205 z"
       style="fill:#ffffff;fill-opacity:1;fill-rule:evenodd;stroke:none"
       id="path5205"
       inkscape:connector-curvature="0" /><g
       id="g5207"><g
         id="g5209"
         clip-path="url(#clipPath5211)"><text
           transform="matrix(1,0,0,-1,352.58,412.34)"
           id="text5215"><tspan
             style="font-size:9.96000004px;font-variant:normal;font-weight:normal;writing-mode:lr-tb;fill:#000000;fill-opacity:1;fill-rule:nonzero;stroke:none;font-family:Calibri;-inkscape-font-specification:Calibri"
             x="0 5.04 10.08"
             y="0"
             sodipodi:role="line"
             id="tspan5217">48%</tspan></text>
</g></g><g
       id="g5219"><g
         id="g5221"
         clip-path="url(#clipPath5223)"><text
           transform="matrix(1,0,0,-1,120.26,502.94)"
           id="text5227"><tspan
             style="font-size:9.96000004px;font-variant:normal;font-weight:normal;writing-mode:lr-tb;fill:#000000;fill-opacity:1;fill-rule:nonzero;stroke:none;font-family:Calibri;-inkscape-font-specification:Calibri"
             x="0 5.04 10.08 15.12"
             y="0"
             sodipodi:role="line"
             id="tspan5229">100%</tspan></text>
</g></g><g
       id="g5231"><g
         id="g5233"
         clip-path="url(#clipPath5235)"><text
           transform="matrix(1,0,0,-1,207.17,439.54)"
           id="text5239"><tspan
             style="font-size:9.96000004px;font-variant:normal;font-weight:normal;writing-mode:lr-tb;fill:#000000;fill-opacity:1;fill-rule:nonzero;stroke:none;font-family:Calibri;-inkscape-font-specification:Calibri"
             x="0 5.04 10.08"
             y="0"
             sodipodi:role="line"
             id="tspan5241">64%</tspan></text>
</g></g><g
       id="g5243"><g
         id="g5245"
         clip-path="url(#clipPath5247)"><text
           transform="matrix(1,0,0,-1,291.55,422.62)"
           id="text5251"><tspan
             style="font-size:9.96000004px;font-variant:normal;font-weight:normal;writing-mode:lr-tb;fill:#000000;fill-opacity:1;fill-rule:nonzero;stroke:none;font-family:Calibri;-inkscape-font-specification:Calibri"
             x="0 5.04 10.08"
             y="0"
             sodipodi:role="line"
             id="tspan5253">54%</tspan></text>
</g></g><g
       id="g5255"><g
         id="g5257"
         clip-path="url(#clipPath5259)"><text
           transform="matrix(1,0,0,-1,375.96,419.4)"
           id="text5263"><tspan
             style="font-size:9.96000004px;font-variant:normal;font-weight:normal;writing-mode:lr-tb;fill:#000000;fill-opacity:1;fill-rule:nonzero;stroke:none;font-family:Calibri;-inkscape-font-specification:Calibri"
             x="0 5.04 10.08"
             y="0"
             sodipodi:role="line"
             id="tspan5265">52%</tspan></text>
</g></g><g
       id="g5267"><g
         id="g5269"
         clip-path="url(#clipPath5271)"><text
           transform="matrix(1,0,0,-1,146.26,372.12)"
           id="text5275"><tspan
             style="font-size:9.96000004px;font-variant:normal;font-weight:normal;writing-mode:lr-tb;fill:#000000;fill-opacity:1;fill-rule:nonzero;stroke:none;font-family:Calibri;-inkscape-font-specification:Calibri"
             x="0 5.04 10.08"
             y="0"
             sodipodi:role="line"
             id="tspan5277">25%</tspan></text>
</g></g><g
       id="g5279"><g
         id="g5281"
         clip-path="url(#clipPath5283)"><text
           transform="matrix(1,0,0,-1,229.58,375.12)"
           id="text5287"><tspan
             style="font-size:9.96000004px;font-variant:normal;font-weight:normal;writing-mode:lr-tb;fill:#000000;fill-opacity:1;fill-rule:nonzero;stroke:none;font-family:Calibri;-inkscape-font-specification:Calibri"
             x="0 5.04 10.08"
             y="0"
             sodipodi:role="line"
             id="tspan5289">27%</tspan></text>
</g></g><g
       id="g5291"><g
         id="g5293"
         clip-path="url(#clipPath5295)"><text
           transform="matrix(1,0,0,-1,313.97,371.88)"
           id="text5299"><tspan
             style="font-size:9.96000004px;font-variant:normal;font-weight:normal;writing-mode:lr-tb;fill:#000000;fill-opacity:1;fill-rule:nonzero;stroke:none;font-family:Calibri;-inkscape-font-specification:Calibri"
             x="0 5.04 10.08"
             y="0"
             sodipodi:role="line"
             id="tspan5301">25%</tspan></text>
</g></g><g
       id="g5303"><g
         id="g5305"
         clip-path="url(#clipPath5307)"><text
           transform="matrix(1,0,0,-1,397.37,371.11)"
           id="text5311"><tspan
             style="font-size:9.96000004px;font-variant:normal;font-weight:normal;writing-mode:lr-tb;fill:#000000;fill-opacity:1;fill-rule:nonzero;stroke:none;font-family:Calibri;-inkscape-font-specification:Calibri"
             x="0 5.04 10.08"
             y="0"
             sodipodi:role="line"
             id="tspan5313">24%</tspan></text>
</g></g><g
       id="g5315"><g
         id="g5317"
         clip-path="url(#clipPath5319)"><text
           transform="matrix(1,0,0,-1,121.1,305.62)"
           id="text5323"><tspan
             style="font-size:9.96000004px;font-variant:normal;font-weight:normal;writing-mode:lr-tb;fill:#000000;fill-opacity:1;fill-rule:nonzero;stroke:none;font-family:Calibri;-inkscape-font-specification:Calibri"
             x="0"
             y="0"
             id="tspan5325">1</tspan></text>
</g></g><g
       id="g5327"><g
         id="g5329"
         clip-path="url(#clipPath5331)"><text
           transform="matrix(1,0,0,-1,205.49,305.62)"
           id="text5335"><tspan
             style="font-size:9.96000004px;font-variant:normal;font-weight:normal;writing-mode:lr-tb;fill:#000000;fill-opacity:1;fill-rule:nonzero;stroke:none;font-family:Calibri;-inkscape-font-specification:Calibri"
             x="0"
             y="0"
             id="tspan5337">2</tspan></text>
</g></g><g
       id="g5339"><g
         id="g5341"
         clip-path="url(#clipPath5343)"><text
           transform="matrix(1,0,0,-1,289.87,305.62)"
           id="text5347"><tspan
             style="font-size:9.96000004px;font-variant:normal;font-weight:normal;writing-mode:lr-tb;fill:#000000;fill-opacity:1;fill-rule:nonzero;stroke:none;font-family:Calibri;-inkscape-font-specification:Calibri"
             x="0"
             y="0"
             id="tspan5349">3</tspan></text>
</g></g><g
       id="g5351"><g
         id="g5353"
         clip-path="url(#clipPath5355)"><text
           transform="matrix(1,0,0,-1,374.28,305.62)"
           id="text5359"><tspan
             style="font-size:9.96000004px;font-variant:normal;font-weight:normal;writing-mode:lr-tb;fill:#000000;fill-opacity:1;fill-rule:nonzero;stroke:none;font-family:Calibri;-inkscape-font-specification:Calibri"
             x="0"
             y="0"
             id="tspan5361">4</tspan></text>
</g></g><path
       d="m 201.6,289.2 5.52,0 0,5.52 -5.52,0 0,-5.52 z"
       style="fill:#ffffff;fill-opacity:1;fill-rule:evenodd;stroke:none"
       id="path5363"
       inkscape:connector-curvature="0" /><path
       d="m 201.6,289.2 5.52,0 0,5.52 -5.52,0 0,-5.52 z"
       style="fill:none;stroke:#4e4e4e;stroke-width:0.72000003;stroke-linecap:butt;stroke-linejoin:round;stroke-miterlimit:10;stroke-opacity:1;stroke-dasharray:none"
       id="path5365"
       inkscape:connector-curvature="0" /><g
       id="g5367"><g
         id="g5369"
         clip-path="url(#clipPath5371)"><text
           transform="matrix(1,0,0,-1,209.47,289.08)"
           id="text5375"><tspan
             style="font-size:9.96000004px;font-variant:normal;font-weight:normal;writing-mode:lr-tb;fill:#000000;fill-opacity:1;fill-rule:nonzero;stroke:none;font-family:Calibri;-inkscape-font-specification:Calibri"
             x="0 3.8445599 7.18116"
             y="0"
             sodipodi:role="line"
             id="tspan5377">std</tspan></text>
</g></g><path
       d="m 229.44,289.2 5.4,0 0,5.52 -5.4,0 0,-5.52 z"
       style="fill:#d9d9d9;fill-opacity:1;fill-rule:evenodd;stroke:none"
       id="path5379"
       inkscape:connector-curvature="0" /><path
       d="m 229.44,289.2 5.4,0 0,5.52 -5.4,0 0,-5.52 z"
       style="fill:none;stroke:#4e4e4e;stroke-width:0.72000003;stroke-linecap:butt;stroke-linejoin:round;stroke-miterlimit:10;stroke-opacity:1;stroke-dasharray:none"
       id="path5381"
       inkscape:connector-curvature="0" /><g
       id="g5383"><g
         id="g5385"
         clip-path="url(#clipPath5387)"><text
           transform="matrix(1,0,0,-1,237.24,289.08)"
           id="text5391"><tspan
             style="font-size:9.96000004px;font-variant:normal;font-weight:normal;writing-mode:lr-tb;fill:#000000;fill-opacity:1;fill-rule:nonzero;stroke:none;font-family:Calibri;-inkscape-font-specification:Calibri"
             x="0 5.2688398 10.53768"
             y="0"
             sodipodi:role="line"
             id="tspan5393">opt</tspan></text>
</g></g><path
       d="m 258.48,289.2 5.52,0 0,5.52 -5.52,0 0,-5.52 z"
       style="fill:#7f7f7f;fill-opacity:1;fill-rule:evenodd;stroke:none"
       id="path5395"
       inkscape:connector-curvature="0" /><path
       d="m 258.48,289.2 5.52,0 0,5.52 -5.52,0 0,-5.52 z"
       style="fill:none;stroke:#4e4e4e;stroke-width:0.72000003;stroke-linecap:butt;stroke-linejoin:round;stroke-miterlimit:10;stroke-opacity:1;stroke-dasharray:none"
       id="path5397"
       inkscape:connector-curvature="0" /><g
       id="g5399"><g
         id="g5401"
         clip-path="url(#clipPath5403)"><text
           transform="matrix(1,0,0,-1,266.35,289.08)"
           id="text5407"><tspan
             style="font-size:9.96000004px;font-variant:normal;font-weight:normal;writing-mode:lr-tb;fill:#000000;fill-opacity:1;fill-rule:nonzero;stroke:none;font-family:Calibri;-inkscape-font-specification:Calibri"
             x="0 2.2908001 7.5496802"
             y="0"
             sodipodi:role="line"
             id="tspan5409">inj</tspan></text>
</g></g><path
       d="m 283.68,289.2 5.52,0 0,5.52 -5.52,0 0,-5.52 z"
       style="fill:#000000;fill-opacity:1;fill-rule:evenodd;stroke:none"
       id="path5411"
       inkscape:connector-curvature="0" /><path
       d="m 283.68,289.2 5.52,0 0,5.52 -5.52,0 0,-5.52 z"
       style="fill:none;stroke:#4e4e4e;stroke-width:0.72000003;stroke-linecap:butt;stroke-linejoin:round;stroke-miterlimit:10;stroke-opacity:1;stroke-dasharray:none"
       id="path5413"
       inkscape:connector-curvature="0" /><g
       id="g5415"><g
         id="g5417"
         clip-path="url(#clipPath5419)"><text
           transform="matrix(1,0,0,-1,291.55,289.08)"
           id="text5423"><tspan
             style="font-size:9.96000004px;font-variant:normal;font-weight:normal;writing-mode:lr-tb;fill:#000000;fill-opacity:1;fill-rule:nonzero;stroke:none;font-family:Calibri;-inkscape-font-specification:Calibri"
             x="0 5.2688398 10.53768 13.87428 18.83436 21.12516 26.35416"
             y="0"
             sodipodi:role="line"
             id="tspan5425">opt+inj</tspan></text>
</g></g><g
       id="g5427"><g
         id="g5429"
         clip-path="url(#clipPath5431)"><path
           d="m 73.5,275.62 359.41,0 0,240.78 -359.41,0 0,-240.78 z"
           style="fill:none;stroke:#868686;stroke-width:0.75;stroke-linecap:butt;stroke-linejoin:round;stroke-miterlimit:10;stroke-opacity:1;stroke-dasharray:none"
           id="path5435"
           inkscape:connector-curvature="0" /></g></g></g></svg>