<?xml version="1.0" encoding="UTF-8" standalone="no"?>
<!-- Created with Inkscape (http://www.inkscape.org/) -->

<svg
   xmlns:dc="http://purl.org/dc/elements/1.1/"
   xmlns:cc="http://creativecommons.org/ns#"
   xmlns:rdf="http://www.w3.org/1999/02/22-rdf-syntax-ns#"
   xmlns:svg="http://www.w3.org/2000/svg"
   xmlns="http://www.w3.org/2000/svg"
   xmlns:sodipodi="http://sodipodi.sourceforge.net/DTD/sodipodi-0.dtd"
   xmlns:inkscape="http://www.inkscape.org/namespaces/inkscape"
   id="svg4611"
   version="1.1"
   inkscape:version="0.48.0 r9654"
   width="451.13751"
   height="301.44376"
   xml:space="preserve"
   sodipodi:docname="charts.pdf"><metadata
     id="metadata4617"><rdf:RDF><cc:Work
         rdf:about=""><dc:format>image/svg+xml</dc:format><dc:type
           rdf:resource="http://purl.org/dc/dcmitype/StillImage" /><dc:title></dc:title></cc:Work></rdf:RDF></metadata><defs
     id="defs4615"><clipPath
       clipPathUnits="userSpaceOnUse"
       id="clipPath4633"><path
         d="m 81.6,573.96 339.12,0 0,175.32 -339.12,0 0,-175.32 z"
         clip-rule="evenodd"
         id="path4635"
         inkscape:connector-curvature="0" /></clipPath><clipPath
       clipPathUnits="userSpaceOnUse"
       id="clipPath4645"><path
         d="m 81.6,573.96 339.12,0 0,175.32 -339.12,0 0,-175.32 z"
         clip-rule="evenodd"
         id="path4647"
         inkscape:connector-curvature="0" /></clipPath><clipPath
       clipPathUnits="userSpaceOnUse"
       id="clipPath4657"><path
         d="m 81.6,573.96 339.12,0 0,175.32 -339.12,0 0,-175.32 z"
         clip-rule="evenodd"
         id="path4659"
         inkscape:connector-curvature="0" /></clipPath><clipPath
       clipPathUnits="userSpaceOnUse"
       id="clipPath4685"><path
         d="m 81.6,573.96 339.12,0 0,175.32 -339.12,0 0,-175.32 z"
         clip-rule="evenodd"
         id="path4687"
         inkscape:connector-curvature="0" /></clipPath><clipPath
       clipPathUnits="userSpaceOnUse"
       id="clipPath4725"><path
         d="m 91.44,529.2 24.48,0 0,64.8 -24.48,0 0,-64.8 z"
         clip-rule="evenodd"
         id="path4727"
         inkscape:connector-curvature="0" /></clipPath><clipPath
       clipPathUnits="userSpaceOnUse"
       id="clipPath4737"><path
         d="m 168,647.04 34.56,0 0,120.48 -34.56,0 0,-120.48 z"
         clip-rule="evenodd"
         id="path4739"
         inkscape:connector-curvature="0" /></clipPath><clipPath
       clipPathUnits="userSpaceOnUse"
       id="clipPath4749"><path
         d="m 252.48,647.04 34.56,0 0,120.48 -34.56,0 0,-120.48 z"
         clip-rule="evenodd"
         id="path4751"
         inkscape:connector-curvature="0" /></clipPath><clipPath
       clipPathUnits="userSpaceOnUse"
       id="clipPath4761"><path
         d="m 337.08,647.04 34.56,0 0,120.48 -34.56,0 0,-120.48 z"
         clip-rule="evenodd"
         id="path4763"
         inkscape:connector-curvature="0" /></clipPath><clipPath
       clipPathUnits="userSpaceOnUse"
       id="clipPath4775"><path
         d="m 180.84,542.52 29.52,0 0,120.48 -29.52,0 0,-120.48 z"
         clip-rule="evenodd"
         id="path4777"
         inkscape:connector-curvature="0" /></clipPath><clipPath
       clipPathUnits="userSpaceOnUse"
       id="clipPath4789"><path
         d="m 264.36,547.92 29.52,0 0,120.36 -29.52,0 0,-120.36 z"
         clip-rule="evenodd"
         id="path4791"
         inkscape:connector-curvature="0" /></clipPath><clipPath
       clipPathUnits="userSpaceOnUse"
       id="clipPath4803"><path
         d="m 348.96,547.68 29.4,0 0,120.48 -29.4,0 0,-120.48 z"
         clip-rule="evenodd"
         id="path4805"
         inkscape:connector-curvature="0" /></clipPath><clipPath
       clipPathUnits="userSpaceOnUse"
       id="clipPath4815"><path
         d="m 114.12,647.04 34.56,0 0,120.48 -34.56,0 0,-120.48 z"
         clip-rule="evenodd"
         id="path4817"
         inkscape:connector-curvature="0" /></clipPath><clipPath
       clipPathUnits="userSpaceOnUse"
       id="clipPath4827"><path
         d="m 201.24,581.64 29.52,0 0,120.48 -29.52,0 0,-120.48 z"
         clip-rule="evenodd"
         id="path4829"
         inkscape:connector-curvature="0" /></clipPath><clipPath
       clipPathUnits="userSpaceOnUse"
       id="clipPath4839"><path
         d="m 285.84,564.24 29.4,0 0,120.48 -29.4,0 0,-120.48 z"
         clip-rule="evenodd"
         id="path4841"
         inkscape:connector-curvature="0" /></clipPath><clipPath
       clipPathUnits="userSpaceOnUse"
       id="clipPath4851"><path
         d="m 370.32,560.88 29.52,0 0,120.48 -29.52,0 0,-120.48 z"
         clip-rule="evenodd"
         id="path4853"
         inkscape:connector-curvature="0" /></clipPath><clipPath
       clipPathUnits="userSpaceOnUse"
       id="clipPath4863"><path
         d="m 139.2,529.2 29.52,0 0,107.52 -29.52,0 0,-107.52 z"
         clip-rule="evenodd"
         id="path4865"
         inkscape:connector-curvature="0" /></clipPath><clipPath
       clipPathUnits="userSpaceOnUse"
       id="clipPath4875"><path
         d="m 221.64,529.2 29.52,0 0,102.12 -29.52,0 0,-102.12 z"
         clip-rule="evenodd"
         id="path4877"
         inkscape:connector-curvature="0" /></clipPath><clipPath
       clipPathUnits="userSpaceOnUse"
       id="clipPath4887"><path
         d="m 306.24,529.2 29.52,0 0,96.72 -29.52,0 0,-96.72 z"
         clip-rule="evenodd"
         id="path4889"
         inkscape:connector-curvature="0" /></clipPath><clipPath
       clipPathUnits="userSpaceOnUse"
       id="clipPath4899"><path
         d="m 391.8,529.2 29.52,0 0,96.84 -29.52,0 0,-96.84 z"
         clip-rule="evenodd"
         id="path4901"
         inkscape:connector-curvature="0" /></clipPath><clipPath
       clipPathUnits="userSpaceOnUse"
       id="clipPath4911"><path
         d="m 115.08,535.08 17.28,0 0,33.6 -17.28,0 0,-33.6 z"
         clip-rule="evenodd"
         id="path4913"
         inkscape:connector-curvature="0" /></clipPath><clipPath
       clipPathUnits="userSpaceOnUse"
       id="clipPath4923"><path
         d="m 199.68,535.08 17.28,0 0,33.6 -17.28,0 0,-33.6 z"
         clip-rule="evenodd"
         id="path4925"
         inkscape:connector-curvature="0" /></clipPath><clipPath
       clipPathUnits="userSpaceOnUse"
       id="clipPath4935"><path
         d="m 284.28,535.08 17.16,0 0,33.6 -17.16,0 0,-33.6 z"
         clip-rule="evenodd"
         id="path4937"
         inkscape:connector-curvature="0" /></clipPath><clipPath
       clipPathUnits="userSpaceOnUse"
       id="clipPath4947"><path
         d="m 368.76,535.08 17.28,0 0,33.6 -17.28,0 0,-33.6 z"
         clip-rule="evenodd"
         id="path4949"
         inkscape:connector-curvature="0" /></clipPath><clipPath
       clipPathUnits="userSpaceOnUse"
       id="clipPath4963"><path
         d="m 203.64,534.36 24.72,0 0,17.76 -24.72,0 0,-17.76 z"
         clip-rule="evenodd"
         id="path4965"
         inkscape:connector-curvature="0" /></clipPath><clipPath
       clipPathUnits="userSpaceOnUse"
       id="clipPath4979"><path
         d="m 231.48,534.36 26.04,0 0,17.76 -26.04,0 0,-17.76 z"
         clip-rule="evenodd"
         id="path4981"
         inkscape:connector-curvature="0" /></clipPath><clipPath
       clipPathUnits="userSpaceOnUse"
       id="clipPath4995"><path
         d="m 260.64,534.36 22.08,0 0,17.76 -22.08,0 0,-17.76 z"
         clip-rule="evenodd"
         id="path4997"
         inkscape:connector-curvature="0" /></clipPath><clipPath
       clipPathUnits="userSpaceOnUse"
       id="clipPath5011"><path
         d="m 285.84,534.36 41.04,0 0,17.76 -41.04,0 0,-17.76 z"
         clip-rule="evenodd"
         id="path5013"
         inkscape:connector-curvature="0" /></clipPath><clipPath
       clipPathUnits="userSpaceOnUse"
       id="clipPath5023"><path
         d="m 0,516.36 595.32,0 0,253.56 -595.32,0 0,-253.56 z"
         clip-rule="evenodd"
         id="path5025"
         inkscape:connector-curvature="0" /></clipPath><clipPath
       clipPathUnits="userSpaceOnUse"
       id="clipPath5041"><path
         d="m 81.48,320.4 338.52,0 0,175.32 -338.52,0 0,-175.32 z"
         clip-rule="evenodd"
         id="path5043"
         inkscape:connector-curvature="0" /></clipPath><clipPath
       clipPathUnits="userSpaceOnUse"
       id="clipPath5053"><path
         d="m 81.48,320.4 338.52,0 0,175.32 -338.52,0 0,-175.32 z"
         clip-rule="evenodd"
         id="path5055"
         inkscape:connector-curvature="0" /></clipPath><clipPath
       clipPathUnits="userSpaceOnUse"
       id="clipPath5065"><path
         d="m 81.48,320.4 338.52,0 0,175.32 -338.52,0 0,-175.32 z"
         clip-rule="evenodd"
         id="path5067"
         inkscape:connector-curvature="0" /></clipPath><clipPath
       clipPathUnits="userSpaceOnUse"
       id="clipPath5093"><path
         d="m 81.48,320.4 338.52,0 0,175.32 -338.52,0 0,-175.32 z"
         clip-rule="evenodd"
         id="path5095"
         inkscape:connector-curvature="0" /></clipPath><clipPath
       clipPathUnits="userSpaceOnUse"
       id="clipPath5133"><path
         d="m 90.48,275.64 24.36,0 0,64.8 -24.36,0 0,-64.8 z"
         clip-rule="evenodd"
         id="path5135"
         inkscape:connector-curvature="0" /></clipPath><clipPath
       clipPathUnits="userSpaceOnUse"
       id="clipPath5145"><path
         d="m 167.76,393.6 34.56,0 0,120.36 -34.56,0 0,-120.36 z"
         clip-rule="evenodd"
         id="path5147"
         inkscape:connector-curvature="0" /></clipPath><clipPath
       clipPathUnits="userSpaceOnUse"
       id="clipPath5157"><path
         d="m 252.12,393.6 34.56,0 0,120.36 -34.56,0 0,-120.36 z"
         clip-rule="evenodd"
         id="path5159"
         inkscape:connector-curvature="0" /></clipPath><clipPath
       clipPathUnits="userSpaceOnUse"
       id="clipPath5169"><path
         d="m 336.48,393.6 34.56,0 0,120.36 -34.56,0 0,-120.36 z"
         clip-rule="evenodd"
         id="path5171"
         inkscape:connector-curvature="0" /></clipPath><clipPath
       clipPathUnits="userSpaceOnUse"
       id="clipPath5183"><path
         d="m 178.56,287.88 29.52,0 0,120.36 -29.52,0 0,-120.36 z"
         clip-rule="evenodd"
         id="path5185"
         inkscape:connector-curvature="0" /></clipPath><clipPath
       clipPathUnits="userSpaceOnUse"
       id="clipPath5197"><path
         d="m 262.92,300.6 29.52,0 0,120.36 -29.52,0 0,-120.36 z"
         clip-rule="evenodd"
         id="path5199"
         inkscape:connector-curvature="0" /></clipPath><clipPath
       clipPathUnits="userSpaceOnUse"
       id="clipPath5211"><path
         d="m 346.32,303 29.52,0 0,120.36 -29.52,0 0,-120.36 z"
         clip-rule="evenodd"
         id="path5213"
         inkscape:connector-curvature="0" /></clipPath><clipPath
       clipPathUnits="userSpaceOnUse"
       id="clipPath5223"><path
         d="m 114,393.6 34.56,0 0,120.36 -34.56,0 0,-120.36 z"
         clip-rule="evenodd"
         id="path5225"
         inkscape:connector-curvature="0" /></clipPath><clipPath
       clipPathUnits="userSpaceOnUse"
       id="clipPath5235"><path
         d="m 201,330.12 29.4,0 0,120.48 -29.4,0 0,-120.48 z"
         clip-rule="evenodd"
         id="path5237"
         inkscape:connector-curvature="0" /></clipPath><clipPath
       clipPathUnits="userSpaceOnUse"
       id="clipPath5247"><path
         d="m 285.36,313.2 29.52,0 0,120.48 -29.52,0 0,-120.48 z"
         clip-rule="evenodd"
         id="path5249"
         inkscape:connector-curvature="0" /></clipPath><clipPath
       clipPathUnits="userSpaceOnUse"
       id="clipPath5259"><path
         d="m 369.72,309.96 29.52,0 0,120.48 -29.52,0 0,-120.48 z"
         clip-rule="evenodd"
         id="path5261"
         inkscape:connector-curvature="0" /></clipPath><clipPath
       clipPathUnits="userSpaceOnUse"
       id="clipPath5271"><path
         d="m 140.04,275.64 29.52,0 0,107.52 -29.52,0 0,-107.52 z"
         clip-rule="evenodd"
         id="path5273"
         inkscape:connector-curvature="0" /></clipPath><clipPath
       clipPathUnits="userSpaceOnUse"
       id="clipPath5283"><path
         d="m 223.32,275.64 29.52,0 0,110.52 -29.52,0 0,-110.52 z"
         clip-rule="evenodd"
         id="path5285"
         inkscape:connector-curvature="0" /></clipPath><clipPath
       clipPathUnits="userSpaceOnUse"
       id="clipPath5295"><path
         d="m 307.68,275.64 29.52,0 0,107.28 -29.52,0 0,-107.28 z"
         clip-rule="evenodd"
         id="path5297"
         inkscape:connector-curvature="0" /></clipPath><clipPath
       clipPathUnits="userSpaceOnUse"
       id="clipPath5307"><path
         d="m 391.08,275.64 29.52,0 0,106.56 -29.52,0 0,-106.56 z"
         clip-rule="evenodd"
         id="path5309"
         inkscape:connector-curvature="0" /></clipPath><clipPath
       clipPathUnits="userSpaceOnUse"
       id="clipPath5319"><path
         d="m 114.96,281.52 17.28,0 0,33.6 -17.28,0 0,-33.6 z"
         clip-rule="evenodd"
         id="path5321"
         inkscape:connector-curvature="0" /></clipPath><clipPath
       clipPathUnits="userSpaceOnUse"
       id="clipPath5331"><path
         d="m 199.44,281.52 17.28,0 0,33.6 -17.28,0 0,-33.6 z"
         clip-rule="evenodd"
         id="path5333"
         inkscape:connector-curvature="0" /></clipPath><clipPath
       clipPathUnits="userSpaceOnUse"
       id="clipPath5343"><path
         d="m 283.8,281.52 17.28,0 0,33.6 -17.28,0 0,-33.6 z"
         clip-rule="evenodd"
         id="path5345"
         inkscape:connector-curvature="0" /></clipPath><clipPath
       clipPathUnits="userSpaceOnUse"
       id="clipPath5355"><path
         d="m 368.16,281.52 17.28,0 0,33.6 -17.28,0 0,-33.6 z"
         clip-rule="evenodd"
         id="path5357"
         inkscape:connector-curvature="0" /></clipPath><clipPath
       clipPathUnits="userSpaceOnUse"
       id="clipPath5371"><path
         d="m 203.28,280.92 24.72,0 0,17.76 -24.72,0 0,-17.76 z"
         clip-rule="evenodd"
         id="path5373"
         inkscape:connector-curvature="0" /></clipPath><clipPath
       clipPathUnits="userSpaceOnUse"
       id="clipPath5387"><path
         d="m 231.12,280.92 26.04,0 0,17.76 -26.04,0 0,-17.76 z"
         clip-rule="evenodd"
         id="path5389"
         inkscape:connector-curvature="0" /></clipPath><clipPath
       clipPathUnits="userSpaceOnUse"
       id="clipPath5403"><path
         d="m 260.16,280.92 22.2,0 0,17.76 -22.2,0 0,-17.76 z"
         clip-rule="evenodd"
         id="path5405"
         inkscape:connector-curvature="0" /></clipPath><clipPath
       clipPathUnits="userSpaceOnUse"
       id="clipPath5419"><path
         d="m 285.36,280.92 41.04,0 0,17.76 -41.04,0 0,-17.76 z"
         clip-rule="evenodd"
         id="path5421"
         inkscape:connector-curvature="0" /></clipPath><clipPath
       clipPathUnits="userSpaceOnUse"
       id="clipPath5431"><path
         d="m 0,262.92 595.32,0 0,253.44 -595.32,0 0,-253.44 z"
         clip-rule="evenodd"
         id="path5433"
         inkscape:connector-curvature="0" /></clipPath></defs><sodipodi:namedview
     pagecolor="#ffffff"
     bordercolor="#666666"
     borderopacity="1"
     objecttolerance="10"
     gridtolerance="10"
     guidetolerance="10"
     inkscape:pageopacity="0"
     inkscape:pageshadow="2"
     inkscape:window-width="640"
     inkscape:window-height="480"
     id="namedview4613"
     showgrid="false"
     fit-margin-top="0"
     fit-margin-left="0"
     fit-margin-right="0"
     fit-margin-bottom="0"
     inkscape:zoom="0.5"
     inkscape:cx="157.42033"
     inkscape:cy="192.90565"
     inkscape:window-x="114"
     inkscape:window-y="31"
     inkscape:window-maximized="0"
     inkscape:current-layer="g4619" /><g
     id="g4619"
     inkscape:groupmode="layer"
     inkscape:label="charts"
     transform="matrix(1.25,0,0,-1.25,-91.40625,962.4)"><path
       d="m 73.56,529.08 360.12,0 0,240.84 -360.12,0 0,-240.84 z"
       style="fill:#ffffff;fill-opacity:1;fill-rule:evenodd;stroke:none"
       id="path4621"
       inkscape:connector-curvature="0" /><path
       d="m 93.12,574.92 15.36,0 0,0.84 -15.36,0 0,-0.84 z"
       style="fill:#ffffff;fill-opacity:1;fill-rule:evenodd;stroke:none"
       id="path4623"
       inkscape:connector-curvature="0" /><path
       d="m 93.12,574.92 15.36,0 0,0.84 -15.36,0 0,-0.84 z"
       style="fill:none;stroke:#4e4e4e;stroke-width:0.72000003;stroke-linecap:butt;stroke-linejoin:round;stroke-miterlimit:10;stroke-opacity:1;stroke-dasharray:none"
       id="path4625"
       inkscape:connector-curvature="0" /><path
       d="m 177.6,574.92 15.36,0 0,174.36 -15.36,0 0,-174.36 z"
       style="fill:#ffffff;fill-opacity:1;fill-rule:evenodd;stroke:none"
       id="path4627"
       inkscape:connector-curvature="0" /><g
       id="g4629"><g
         id="g4631"
         clip-path="url(#clipPath4633)"><path
           d="m 177.6,574.92 15.36,0 0,174.36 -15.36,0 0,-174.36 z"
           style="fill:none;stroke:#4e4e4e;stroke-width:0.72000003;stroke-linecap:butt;stroke-linejoin:round;stroke-miterlimit:10;stroke-opacity:1;stroke-dasharray:none"
           id="path4637"
           inkscape:connector-curvature="0" /></g></g><path
       d="m 262.2,574.92 15.36,0 0,174.36 -15.36,0 0,-174.36 z"
       style="fill:#ffffff;fill-opacity:1;fill-rule:evenodd;stroke:none"
       id="path4639"
       inkscape:connector-curvature="0" /><g
       id="g4641"><g
         id="g4643"
         clip-path="url(#clipPath4645)"><path
           d="m 262.2,574.92 15.36,0 0,174.36 -15.36,0 0,-174.36 z"
           style="fill:none;stroke:#4e4e4e;stroke-width:0.72000003;stroke-linecap:butt;stroke-linejoin:round;stroke-miterlimit:10;stroke-opacity:1;stroke-dasharray:none"
           id="path4649"
           inkscape:connector-curvature="0" /></g></g><path
       d="m 346.68,574.92 15.48,0 0,174.36 -15.48,0 0,-174.36 z"
       style="fill:#ffffff;fill-opacity:1;fill-rule:evenodd;stroke:none"
       id="path4651"
       inkscape:connector-curvature="0" /><g
       id="g4653"><g
         id="g4655"
         clip-path="url(#clipPath4657)"><path
           d="m 346.68,574.92 15.48,0 0,174.36 -15.48,0 0,-174.36 z"
           style="fill:none;stroke:#4e4e4e;stroke-width:0.72000003;stroke-linecap:butt;stroke-linejoin:round;stroke-miterlimit:10;stroke-opacity:1;stroke-dasharray:none"
           id="path4661"
           inkscape:connector-curvature="0" /></g></g><path
       d="m 108.48,574.92 15.36,0 0,0.84 -15.36,0 0,-0.84 z"
       style="fill:#d9d9d9;fill-opacity:1;fill-rule:evenodd;stroke:none"
       id="path4663"
       inkscape:connector-curvature="0" /><path
       d="m 108.48,574.92 15.36,0 0,0.84 -15.36,0 0,-0.84 z"
       style="fill:none;stroke:#4e4e4e;stroke-width:0.72000003;stroke-linecap:butt;stroke-linejoin:round;stroke-miterlimit:10;stroke-opacity:1;stroke-dasharray:none"
       id="path4665"
       inkscape:connector-curvature="0" /><path
       d="m 192.96,574.92 15.36,0 0,70.8 -15.36,0 0,-70.8 z"
       style="fill:#d9d9d9;fill-opacity:1;fill-rule:evenodd;stroke:none"
       id="path4667"
       inkscape:connector-curvature="0" /><path
       d="m 192.96,574.92 15.36,0 0,70.8 -15.36,0 0,-70.8 z"
       style="fill:none;stroke:#4e4e4e;stroke-width:0.72000003;stroke-linecap:butt;stroke-linejoin:round;stroke-miterlimit:10;stroke-opacity:1;stroke-dasharray:none"
       id="path4669"
       inkscape:connector-curvature="0" /><path
       d="m 277.56,574.92 15.36,0 0,75.24 -15.36,0 0,-75.24 z"
       style="fill:#d9d9d9;fill-opacity:1;fill-rule:evenodd;stroke:none"
       id="path4671"
       inkscape:connector-curvature="0" /><path
       d="m 277.56,574.92 15.36,0 0,75.24 -15.36,0 0,-75.24 z"
       style="fill:none;stroke:#4e4e4e;stroke-width:0.72000003;stroke-linecap:butt;stroke-linejoin:round;stroke-miterlimit:10;stroke-opacity:1;stroke-dasharray:none"
       id="path4673"
       inkscape:connector-curvature="0" /><path
       d="m 362.16,574.92 15.36,0 0,75.96 -15.36,0 0,-75.96 z"
       style="fill:#d9d9d9;fill-opacity:1;fill-rule:evenodd;stroke:none"
       id="path4675"
       inkscape:connector-curvature="0" /><path
       d="m 362.16,574.92 15.36,0 0,75.96 -15.36,0 0,-75.96 z"
       style="fill:none;stroke:#4e4e4e;stroke-width:0.72000003;stroke-linecap:butt;stroke-linejoin:round;stroke-miterlimit:10;stroke-opacity:1;stroke-dasharray:none"
       id="path4677"
       inkscape:connector-curvature="0" /><path
       d="m 123.84,574.92 15.36,0 0,174.36 -15.36,0 0,-174.36 z"
       style="fill:#7f7f7f;fill-opacity:1;fill-rule:evenodd;stroke:none"
       id="path4679"
       inkscape:connector-curvature="0" /><g
       id="g4681"><g
         id="g4683"
         clip-path="url(#clipPath4685)"><path
           d="m 123.84,574.92 15.36,0 0,174.36 -15.36,0 0,-174.36 z"
           style="fill:none;stroke:#4e4e4e;stroke-width:0.72000003;stroke-linecap:butt;stroke-linejoin:round;stroke-miterlimit:10;stroke-opacity:1;stroke-dasharray:none"
           id="path4689"
           inkscape:connector-curvature="0" /></g></g><path
       d="m 208.32,574.92 15.48,0 0,108.96 -15.48,0 0,-108.96 z"
       style="fill:#7f7f7f;fill-opacity:1;fill-rule:evenodd;stroke:none"
       id="path4691"
       inkscape:connector-curvature="0" /><path
       d="m 208.32,574.92 15.48,0 0,108.96 -15.48,0 0,-108.96 z"
       style="fill:none;stroke:#4e4e4e;stroke-width:0.72000003;stroke-linecap:butt;stroke-linejoin:round;stroke-miterlimit:10;stroke-opacity:1;stroke-dasharray:none"
       id="path4693"
       inkscape:connector-curvature="0" /><path
       d="m 292.92,574.92 15.36,0 0,91.56 -15.36,0 0,-91.56 z"
       style="fill:#7f7f7f;fill-opacity:1;fill-rule:evenodd;stroke:none"
       id="path4695"
       inkscape:connector-curvature="0" /><path
       d="m 292.92,574.92 15.36,0 0,91.56 -15.36,0 0,-91.56 z"
       style="fill:none;stroke:#4e4e4e;stroke-width:0.72000003;stroke-linecap:butt;stroke-linejoin:round;stroke-miterlimit:10;stroke-opacity:1;stroke-dasharray:none"
       id="path4697"
       inkscape:connector-curvature="0" /><path
       d="m 377.52,574.92 15.36,0 0,88.2 -15.36,0 0,-88.2 z"
       style="fill:#7f7f7f;fill-opacity:1;fill-rule:evenodd;stroke:none"
       id="path4699"
       inkscape:connector-curvature="0" /><path
       d="m 377.52,574.92 15.36,0 0,88.2 -15.36,0 0,-88.2 z"
       style="fill:none;stroke:#4e4e4e;stroke-width:0.72000003;stroke-linecap:butt;stroke-linejoin:round;stroke-miterlimit:10;stroke-opacity:1;stroke-dasharray:none"
       id="path4701"
       inkscape:connector-curvature="0" /><path
       d="m 139.2,574.92 15.36,0 0,43.56 -15.36,0 0,-43.56 z"
       style="fill:#000000;fill-opacity:1;fill-rule:evenodd;stroke:none"
       id="path4703"
       inkscape:connector-curvature="0" /><path
       d="m 139.2,574.92 15.36,0 0,43.56 -15.36,0 0,-43.56 z"
       style="fill:none;stroke:#4e4e4e;stroke-width:0.72000003;stroke-linecap:butt;stroke-linejoin:round;stroke-miterlimit:10;stroke-opacity:1;stroke-dasharray:none"
       id="path4705"
       inkscape:connector-curvature="0" /><path
       d="m 223.8,574.92 15.36,0 0,38.16 -15.36,0 0,-38.16 z"
       style="fill:#000000;fill-opacity:1;fill-rule:evenodd;stroke:none"
       id="path4707"
       inkscape:connector-curvature="0" /><path
       d="m 223.8,574.92 15.36,0 0,38.16 -15.36,0 0,-38.16 z"
       style="fill:none;stroke:#4e4e4e;stroke-width:0.72000003;stroke-linecap:butt;stroke-linejoin:round;stroke-miterlimit:10;stroke-opacity:1;stroke-dasharray:none"
       id="path4709"
       inkscape:connector-curvature="0" /><path
       d="m 308.28,574.92 15.36,0 0,33.72 -15.36,0 0,-33.72 z"
       style="fill:#000000;fill-opacity:1;fill-rule:evenodd;stroke:none"
       id="path4711"
       inkscape:connector-curvature="0" /><path
       d="m 308.28,574.92 15.36,0 0,33.72 -15.36,0 0,-33.72 z"
       style="fill:none;stroke:#4e4e4e;stroke-width:0.72000003;stroke-linecap:butt;stroke-linejoin:round;stroke-miterlimit:10;stroke-opacity:1;stroke-dasharray:none"
       id="path4713"
       inkscape:connector-curvature="0" /><path
       d="m 392.88,574.92 15.36,0 0,33 -15.36,0 0,-33 z"
       style="fill:#000000;fill-opacity:1;fill-rule:evenodd;stroke:none"
       id="path4715"
       inkscape:connector-curvature="0" /><path
       d="m 392.88,574.92 15.36,0 0,33 -15.36,0 0,-33 z"
       style="fill:none;stroke:#4e4e4e;stroke-width:0.72000003;stroke-linecap:butt;stroke-linejoin:round;stroke-miterlimit:10;stroke-opacity:1;stroke-dasharray:none"
       id="path4717"
       inkscape:connector-curvature="0" /><path
       d="m 81.6,574.92 338.16,0"
       style="fill:none;stroke:#868686;stroke-width:0.72000003;stroke-linecap:butt;stroke-linejoin:round;stroke-miterlimit:10;stroke-opacity:1;stroke-dasharray:none"
       id="path4719"
       inkscape:connector-curvature="0" /><g
       id="g4721"><g
         id="g4723"
         clip-path="url(#clipPath4725)"><text
           transform="matrix(1,0,0,-1,97.608,582.96)"
           id="text4729"><tspan
             style="font-size:9.96000004px;font-variant:normal;font-weight:normal;writing-mode:lr-tb;fill:#000000;fill-opacity:1;fill-rule:nonzero;stroke:none;font-family:Calibri;-inkscape-font-specification:Calibri"
             x="0 5.04"
             y="0"
             sodipodi:role="line"
             id="tspan4731">0%</tspan></text>
</g></g><g
       id="g4733"><g
         id="g4735"
         clip-path="url(#clipPath4737)"><text
           transform="matrix(1,0,0,-1,174.12,756.48)"
           id="text4741"><tspan
             style="font-size:9.96000004px;font-variant:normal;font-weight:normal;writing-mode:lr-tb;fill:#000000;fill-opacity:1;fill-rule:nonzero;stroke:none;font-family:Calibri;-inkscape-font-specification:Calibri"
             x="0 5.04 10.08 15.12"
             y="0"
             sodipodi:role="line"
             id="tspan4743">100%</tspan></text>
</g></g><g
       id="g4745"><g
         id="g4747"
         clip-path="url(#clipPath4749)"><text
           transform="matrix(1,0,0,-1,258.7,756.48)"
           id="text4753"><tspan
             style="font-size:9.96000004px;font-variant:normal;font-weight:normal;writing-mode:lr-tb;fill:#000000;fill-opacity:1;fill-rule:nonzero;stroke:none;font-family:Calibri;-inkscape-font-specification:Calibri"
             x="0 5.04 10.08 15.12"
             y="0"
             sodipodi:role="line"
             id="tspan4755">100%</tspan></text>
</g></g><g
       id="g4757"><g
         id="g4759"
         clip-path="url(#clipPath4761)"><text
           transform="matrix(1,0,0,-1,343.25,756.48)"
           id="text4765"><tspan
             style="font-size:9.96000004px;font-variant:normal;font-weight:normal;writing-mode:lr-tb;fill:#000000;fill-opacity:1;fill-rule:nonzero;stroke:none;font-family:Calibri;-inkscape-font-specification:Calibri"
             x="0 5.04 10.08 15.12"
             y="0"
             sodipodi:role="line"
             id="tspan4767">100%</tspan></text>
</g></g><path
       d="m 183.93,647.75 23.29,0 0,15.205 -23.29,0 0,-15.205 z"
       style="fill:#ffffff;fill-opacity:1;fill-rule:evenodd;stroke:none"
       id="path4769"
       inkscape:connector-curvature="0" /><g
       id="g4771"><g
         id="g4773"
         clip-path="url(#clipPath4775)"><text
           transform="matrix(1,0,0,-1,186.96,651.94)"
           id="text4779"><tspan
             style="font-size:9.96000004px;font-variant:normal;font-weight:normal;writing-mode:lr-tb;fill:#000000;fill-opacity:1;fill-rule:nonzero;stroke:none;font-family:Calibri;-inkscape-font-specification:Calibri"
             x="0 5.04 10.08"
             y="0"
             sodipodi:role="line"
             id="tspan4781">41%</tspan></text>
</g></g><path
       d="m 267.48,653.11 23.29,0 0,15.205 -23.29,0 0,-15.205 z"
       style="fill:#ffffff;fill-opacity:1;fill-rule:evenodd;stroke:none"
       id="path4783"
       inkscape:connector-curvature="0" /><g
       id="g4785"><g
         id="g4787"
         clip-path="url(#clipPath4789)"><text
           transform="matrix(1,0,0,-1,270.53,657.31)"
           id="text4793"><tspan
             style="font-size:9.96000004px;font-variant:normal;font-weight:normal;writing-mode:lr-tb;fill:#000000;fill-opacity:1;fill-rule:nonzero;stroke:none;font-family:Calibri;-inkscape-font-specification:Calibri"
             x="0 5.04 10.08"
             y="0"
             sodipodi:role="line"
             id="tspan4795">43%</tspan></text>
</g></g><path
       d="m 352.02,652.93 23.29,0 0,15.205 -23.29,0 0,-15.205 z"
       style="fill:#ffffff;fill-opacity:1;fill-rule:evenodd;stroke:none"
       id="path4797"
       inkscape:connector-curvature="0" /><g
       id="g4799"><g
         id="g4801"
         clip-path="url(#clipPath4803)"><text
           transform="matrix(1,0,0,-1,355.08,657.12)"
           id="text4807"><tspan
             style="font-size:9.96000004px;font-variant:normal;font-weight:normal;writing-mode:lr-tb;fill:#000000;fill-opacity:1;fill-rule:nonzero;stroke:none;font-family:Calibri;-inkscape-font-specification:Calibri"
             x="0 5.04 10.08"
             y="0"
             sodipodi:role="line"
             id="tspan4809">44%</tspan></text>
</g></g><g
       id="g4811"><g
         id="g4813"
         clip-path="url(#clipPath4815)"><text
           transform="matrix(1,0,0,-1,120.31,756.48)"
           id="text4819"><tspan
             style="font-size:9.96000004px;font-variant:normal;font-weight:normal;writing-mode:lr-tb;fill:#000000;fill-opacity:1;fill-rule:nonzero;stroke:none;font-family:Calibri;-inkscape-font-specification:Calibri"
             x="0 5.04 10.08 15.12"
             y="0"
             sodipodi:role="line"
             id="tspan4821">100%</tspan></text>
</g></g><g
       id="g4823"><g
         id="g4825"
         clip-path="url(#clipPath4827)"><text
           transform="matrix(1,0,0,-1,207.38,691.1)"
           id="text4831"><tspan
             style="font-size:9.96000004px;font-variant:normal;font-weight:normal;writing-mode:lr-tb;fill:#000000;fill-opacity:1;fill-rule:nonzero;stroke:none;font-family:Calibri;-inkscape-font-specification:Calibri"
             x="0 5.04 10.08"
             y="0"
             sodipodi:role="line"
             id="tspan4833">63%</tspan></text>
</g></g><g
       id="g4835"><g
         id="g4837"
         clip-path="url(#clipPath4839)"><text
           transform="matrix(1,0,0,-1,291.96,673.66)"
           id="text4843"><tspan
             style="font-size:9.96000004px;font-variant:normal;font-weight:normal;writing-mode:lr-tb;fill:#000000;fill-opacity:1;fill-rule:nonzero;stroke:none;font-family:Calibri;-inkscape-font-specification:Calibri"
             x="0 5.04 10.08"
             y="0"
             sodipodi:role="line"
             id="tspan4845">53%</tspan></text>
</g></g><g
       id="g4847"><g
         id="g4849"
         clip-path="url(#clipPath4851)"><text
           transform="matrix(1,0,0,-1,376.54,670.34)"
           id="text4855"><tspan
             style="font-size:9.96000004px;font-variant:normal;font-weight:normal;writing-mode:lr-tb;fill:#000000;fill-opacity:1;fill-rule:nonzero;stroke:none;font-family:Calibri;-inkscape-font-specification:Calibri"
             x="0 5.04 10.08"
             y="0"
             sodipodi:role="line"
             id="tspan4857">51%</tspan></text>
</g></g><g
       id="g4859"><g
         id="g4861"
         clip-path="url(#clipPath4863)"><text
           transform="matrix(1,0,0,-1,145.3,625.66)"
           id="text4867"><tspan
             style="font-size:9.96000004px;font-variant:normal;font-weight:normal;writing-mode:lr-tb;fill:#000000;fill-opacity:1;fill-rule:nonzero;stroke:none;font-family:Calibri;-inkscape-font-specification:Calibri"
             x="0 5.04 10.08"
             y="0"
             sodipodi:role="line"
             id="tspan4869">25%</tspan></text>
</g></g><g
       id="g4871"><g
         id="g4873"
         clip-path="url(#clipPath4875)"><text
           transform="matrix(1,0,0,-1,227.81,620.26)"
           id="text4879"><tspan
             style="font-size:9.96000004px;font-variant:normal;font-weight:normal;writing-mode:lr-tb;fill:#000000;fill-opacity:1;fill-rule:nonzero;stroke:none;font-family:Calibri;-inkscape-font-specification:Calibri"
             x="0 5.04 10.08"
             y="0"
             sodipodi:role="line"
             id="tspan4881">22%</tspan></text>
</g></g><g
       id="g4883"><g
         id="g4885"
         clip-path="url(#clipPath4887)"><text
           transform="matrix(1,0,0,-1,312.38,614.88)"
           id="text4891"><tspan
             style="font-size:9.96000004px;font-variant:normal;font-weight:normal;writing-mode:lr-tb;fill:#000000;fill-opacity:1;fill-rule:nonzero;stroke:none;font-family:Calibri;-inkscape-font-specification:Calibri"
             x="0 5.04 10.08"
             y="0"
             sodipodi:role="line"
             id="tspan4893">19%</tspan></text>
</g></g><g
       id="g4895"><g
         id="g4897"
         clip-path="url(#clipPath4899)"><text
           transform="matrix(1,0,0,-1,397.94,615.07)"
           id="text4903"><tspan
             style="font-size:9.96000004px;font-variant:normal;font-weight:normal;writing-mode:lr-tb;fill:#000000;fill-opacity:1;fill-rule:nonzero;stroke:none;font-family:Calibri;-inkscape-font-specification:Calibri"
             x="0 5.04 10.08"
             y="0"
             sodipodi:role="line"
             id="tspan4905">19%</tspan></text>
</g></g><g
       id="g4907"><g
         id="g4909"
         clip-path="url(#clipPath4911)"><text
           transform="matrix(1,0,0,-1,121.22,559.18)"
           id="text4915"><tspan
             style="font-size:9.96000004px;font-variant:normal;font-weight:normal;writing-mode:lr-tb;fill:#000000;fill-opacity:1;fill-rule:nonzero;stroke:none;font-family:Calibri;-inkscape-font-specification:Calibri"
             x="0"
             y="0"
             id="tspan4917">1</tspan></text>
</g></g><g
       id="g4919"><g
         id="g4921"
         clip-path="url(#clipPath4923)"><text
           transform="matrix(1,0,0,-1,205.8,559.18)"
           id="text4927"><tspan
             style="font-size:9.96000004px;font-variant:normal;font-weight:normal;writing-mode:lr-tb;fill:#000000;fill-opacity:1;fill-rule:nonzero;stroke:none;font-family:Calibri;-inkscape-font-specification:Calibri"
             x="0"
             y="0"
             id="tspan4929">2</tspan></text>
</g></g><g
       id="g4931"><g
         id="g4933"
         clip-path="url(#clipPath4935)"><text
           transform="matrix(1,0,0,-1,290.35,559.18)"
           id="text4939"><tspan
             style="font-size:9.96000004px;font-variant:normal;font-weight:normal;writing-mode:lr-tb;fill:#000000;fill-opacity:1;fill-rule:nonzero;stroke:none;font-family:Calibri;-inkscape-font-specification:Calibri"
             x="0"
             y="0"
             id="tspan4941">3</tspan></text>
</g></g><g
       id="g4943"><g
         id="g4945"
         clip-path="url(#clipPath4947)"><text
           transform="matrix(1,0,0,-1,374.93,559.18)"
           id="text4951"><tspan
             style="font-size:9.96000004px;font-variant:normal;font-weight:normal;writing-mode:lr-tb;fill:#000000;fill-opacity:1;fill-rule:nonzero;stroke:none;font-family:Calibri;-inkscape-font-specification:Calibri"
             x="0"
             y="0"
             id="tspan4953">4</tspan></text>
</g></g><path
       d="m 201.96,542.76 5.52,0 0,5.52 -5.52,0 0,-5.52 z"
       style="fill:#ffffff;fill-opacity:1;fill-rule:evenodd;stroke:none"
       id="path4955"
       inkscape:connector-curvature="0" /><path
       d="m 201.96,542.76 5.52,0 0,5.52 -5.52,0 0,-5.52 z"
       style="fill:none;stroke:#4e4e4e;stroke-width:0.72000003;stroke-linecap:butt;stroke-linejoin:round;stroke-miterlimit:10;stroke-opacity:1;stroke-dasharray:none"
       id="path4957"
       inkscape:connector-curvature="0" /><g
       id="g4959"><g
         id="g4961"
         clip-path="url(#clipPath4963)"><text
           transform="matrix(1,0,0,-1,209.76,542.64)"
           id="text4967"><tspan
             style="font-size:9.96000004px;font-variant:normal;font-weight:normal;writing-mode:lr-tb;fill:#000000;fill-opacity:1;fill-rule:nonzero;stroke:none;font-family:Calibri;-inkscape-font-specification:Calibri"
             x="0 3.8445599 7.18116"
             y="0"
             sodipodi:role="line"
             id="tspan4969">std</tspan></text>
</g></g><path
       d="m 229.8,542.76 5.4,0 0,5.52 -5.4,0 0,-5.52 z"
       style="fill:#d9d9d9;fill-opacity:1;fill-rule:evenodd;stroke:none"
       id="path4971"
       inkscape:connector-curvature="0" /><path
       d="m 229.8,542.76 5.4,0 0,5.52 -5.4,0 0,-5.52 z"
       style="fill:none;stroke:#4e4e4e;stroke-width:0.72000003;stroke-linecap:butt;stroke-linejoin:round;stroke-miterlimit:10;stroke-opacity:1;stroke-dasharray:none"
       id="path4973"
       inkscape:connector-curvature="0" /><g
       id="g4975"><g
         id="g4977"
         clip-path="url(#clipPath4979)"><text
           transform="matrix(1,0,0,-1,237.6,542.64)"
           id="text4983"><tspan
             style="font-size:9.96000004px;font-variant:normal;font-weight:normal;writing-mode:lr-tb;fill:#000000;fill-opacity:1;fill-rule:nonzero;stroke:none;font-family:Calibri;-inkscape-font-specification:Calibri"
             x="0 5.2688398 10.53768"
             y="0"
             sodipodi:role="line"
             id="tspan4985">opt</tspan></text>
</g></g><path
       d="m 258.96,542.76 5.4,0 0,5.52 -5.4,0 0,-5.52 z"
       style="fill:#7f7f7f;fill-opacity:1;fill-rule:evenodd;stroke:none"
       id="path4987"
       inkscape:connector-curvature="0" /><path
       d="m 258.96,542.76 5.4,0 0,5.52 -5.4,0 0,-5.52 z"
       style="fill:none;stroke:#4e4e4e;stroke-width:0.72000003;stroke-linecap:butt;stroke-linejoin:round;stroke-miterlimit:10;stroke-opacity:1;stroke-dasharray:none"
       id="path4989"
       inkscape:connector-curvature="0" /><g
       id="g4991"><g
         id="g4993"
         clip-path="url(#clipPath4995)"><text
           transform="matrix(1,0,0,-1,266.76,542.64)"
           id="text4999"><tspan
             style="font-size:9.96000004px;font-variant:normal;font-weight:normal;writing-mode:lr-tb;fill:#000000;fill-opacity:1;fill-rule:nonzero;stroke:none;font-family:Calibri;-inkscape-font-specification:Calibri"
             x="0 2.2908001 7.5496802"
             y="0"
             sodipodi:role="line"
             id="tspan5001">inj</tspan></text>
</g></g><path
       d="m 284.16,542.76 5.52,0 0,5.52 -5.52,0 0,-5.52 z"
       style="fill:#000000;fill-opacity:1;fill-rule:evenodd;stroke:none"
       id="path5003"
       inkscape:connector-curvature="0" /><path
       d="m 284.16,542.76 5.52,0 0,5.52 -5.52,0 0,-5.52 z"
       style="fill:none;stroke:#4e4e4e;stroke-width:0.72000003;stroke-linecap:butt;stroke-linejoin:round;stroke-miterlimit:10;stroke-opacity:1;stroke-dasharray:none"
       id="path5005"
       inkscape:connector-curvature="0" /><g
       id="g5007"><g
         id="g5009"
         clip-path="url(#clipPath5011)"><text
           transform="matrix(1,0,0,-1,292.01,542.64)"
           id="text5015"><tspan
             style="font-size:9.96000004px;font-variant:normal;font-weight:normal;writing-mode:lr-tb;fill:#000000;fill-opacity:1;fill-rule:nonzero;stroke:none;font-family:Calibri;-inkscape-font-specification:Calibri"
             x="0 5.2688398 10.53768 13.87428 18.83436 21.12516 26.35416"
             y="0"
             sodipodi:role="line"
             id="tspan5017">opt+inj</tspan></text>
</g></g><g
       id="g5019"><g
         id="g5021"
         clip-path="url(#clipPath5023)"><path
           d="m 73.5,529.14 360.16,0 0,240.78 -360.16,0 0,-240.78 z"
           style="fill:none;stroke:#868686;stroke-width:0.75;stroke-linecap:butt;stroke-linejoin:round;stroke-miterlimit:10;stroke-opacity:1;stroke-dasharray:none"
           id="path5027"
           inkscape:connector-curvature="0" /></g></g></g></svg>